<?xml version="1.0" encoding="UTF-8" standalone="no"?>
<!DOCTYPE svg PUBLIC "-//W3C//DTD SVG 1.1//EN"
 "http://www.w3.org/Graphics/SVG/1.1/DTD/svg11.dtd">
<!-- Generated by graphviz version 2.44.0 (0)
 -->
<!-- Pages: 1 -->
<svg width="565pt" height="207pt"
 viewBox="0.00 0.00 565.00 207.00" xmlns="http://www.w3.org/2000/svg" xmlns:xlink="http://www.w3.org/1999/xlink">
<g id="graph0" class="graph" transform="scale(1 1) rotate(0) translate(4 203)">
<polygon fill="white" stroke="transparent" points="-4,4 -4,-203 561,-203 561,4 -4,4"/>
<g id="clust1" class="cluster">
<title>cluster_A</title>
<polygon fill="none" stroke="black" points="8,-8 8,-191 290,-191 290,-8 8,-8"/>
<text text-anchor="middle" x="149" y="-175.8" font-family="Times-Roman" font-size="14.00">Person A</text>
</g>
<g id="clust2" class="cluster">
<title>cluster_B</title>
<polygon fill="none" stroke="black" points="310,-35 310,-164 549,-164 549,-35 310,-35"/>
<text text-anchor="middle" x="429.5" y="-148.8" font-family="Times-Roman" font-size="14.00">Person B</text>
</g>
<!-- A1 -->
<g id="node1" class="node">
<title>A1</title>
<path fill="#f5f5f5" stroke="black" d="M270,-160C270,-160 28,-160 28,-160 22,-160 16,-154 16,-148 16,-148 16,-136 16,-136 16,-130 22,-124 28,-124 28,-124 270,-124 270,-124 276,-124 282,-130 282,-136 282,-136 282,-148 282,-148 282,-154 276,-160 270,-160"/>
<text text-anchor="middle" x="149" y="-138.3" font-family="Times-Roman" font-size="14.00">Do you like looking at photographs?</text>
</g>
<!-- B1 -->
<g id="node4" class="node">
<title>B1</title>
<path fill="#f5f5f5" stroke="black" d="M457,-133C457,-133 402,-133 402,-133 396,-133 390,-127 390,-121 390,-121 390,-109 390,-109 390,-103 396,-97 402,-97 402,-97 457,-97 457,-97 463,-97 469,-103 469,-109 469,-109 469,-121 469,-121 469,-127 463,-133 457,-133"/>
<text text-anchor="middle" x="429.5" y="-111.3" font-family="Times-Roman" font-size="14.00">Yes, I do.</text>
</g>
<!-- A1&#45;&gt;B1 -->
<g id="edge1" class="edge">
<title>A1&#45;&gt;B1</title>
<path fill="none" stroke="black" d="M282.32,-129.17C317.16,-125.79 352.59,-122.36 379.84,-119.72"/>
<polygon fill="black" stroke="black" points="380.25,-123.19 389.86,-118.75 379.57,-116.23 380.25,-123.19"/>
</g>
<!-- A2 -->
<g id="node2" class="node">
<title>A2</title>
<path fill="#f5f5f5" stroke="black" d="M211,-106C211,-106 87,-106 87,-106 81,-106 75,-100 75,-94 75,-94 75,-82 75,-82 75,-76 81,-70 87,-70 87,-70 211,-70 211,-70 217,-70 223,-76 223,-82 223,-82 223,-94 223,-94 223,-100 217,-106 211,-106"/>
<text text-anchor="middle" x="149" y="-84.3" font-family="Times-Roman" font-size="14.00">Really? What kind?</text>
</g>
<!-- B2 -->
<g id="node5" class="node">
<title>B2</title>
<path fill="#f5f5f5" stroke="black" d="M529,-79C529,-79 330,-79 330,-79 324,-79 318,-73 318,-67 318,-67 318,-55 318,-55 318,-49 324,-43 330,-43 330,-43 529,-43 529,-43 535,-43 541,-49 541,-55 541,-55 541,-67 541,-67 541,-73 535,-79 529,-79"/>
<text text-anchor="middle" x="429.5" y="-57.3" font-family="Times-Roman" font-size="14.00">Oh, old black and white ones.</text>
</g>
<!-- A2&#45;&gt;B2 -->
<g id="edge3" class="edge">
<title>A2&#45;&gt;B2</title>
<path fill="none" stroke="black" d="M223.17,-80.91C249.05,-78.4 278.89,-75.5 307.66,-72.71"/>
<polygon fill="black" stroke="black" points="308.17,-76.18 317.79,-71.73 307.5,-69.21 308.17,-76.18"/>
</g>
<!-- A3 -->
<g id="node3" class="node">
<title>A3</title>
<path fill="#f5f5f5" stroke="black" d="M216,-52C216,-52 82,-52 82,-52 76,-52 70,-46 70,-40 70,-40 70,-28 70,-28 70,-22 76,-16 82,-16 82,-16 216,-16 216,-16 222,-16 228,-22 228,-28 228,-28 228,-40 228,-40 228,-46 222,-52 216,-52"/>
<text text-anchor="middle" x="149" y="-30.3" font-family="Times-Roman" font-size="14.00">When di you last ...?</text>
</g>
<!-- B1&#45;&gt;A2 -->
<g id="edge2" class="edge">
<title>B1&#45;&gt;A2</title>
<path fill="none" stroke="black" d="M389.66,-111.23C349.39,-107.33 285.18,-101.11 233.36,-96.08"/>
<polygon fill="black" stroke="black" points="233.46,-92.58 223.17,-95.09 232.79,-99.54 233.46,-92.58"/>
</g>
<!-- B2&#45;&gt;A3 -->
<g id="edge4" class="edge">
<title>B2&#45;&gt;A3</title>
<path fill="none" stroke="black" d="M317.78,-50.27C291.47,-47.72 263.74,-45.03 238.57,-42.59"/>
<polygon fill="black" stroke="black" points="238.61,-39.07 228.32,-41.59 237.93,-46.04 238.61,-39.07"/>
</g>
</g>
</svg>
