<?xml version="1.0" encoding="UTF-8" standalone="no"?>
<!DOCTYPE svg PUBLIC "-//W3C//DTD SVG 1.1//EN"
 "http://www.w3.org/Graphics/SVG/1.1/DTD/svg11.dtd">
<!-- Generated by graphviz version 2.44.0 (0)
 -->
<!-- Pages: 1 -->
<svg width="1039pt" height="116pt"
 viewBox="0.00 0.00 1039.00 116.00" xmlns="http://www.w3.org/2000/svg" xmlns:xlink="http://www.w3.org/1999/xlink">
<g id="graph0" class="graph" transform="scale(1 1) rotate(0) translate(4 112)">
<polygon fill="white" stroke="transparent" points="-4,4 -4,-112 1035,-112 1035,4 -4,4"/>
<!-- watch -->
<g id="node1" class="node">
<title>watch</title>
<path fill="#f5f5f5" stroke="black" d="M118,-108C118,-108 84,-108 84,-108 78,-108 72,-102 72,-96 72,-96 72,-84 72,-84 72,-78 78,-72 84,-72 84,-72 118,-72 118,-72 124,-72 130,-78 130,-84 130,-84 130,-96 130,-96 130,-102 124,-108 118,-108"/>
<text text-anchor="middle" x="101" y="-86.3" font-family="Times-Roman" font-size="14.00">watch</text>
</g>
<!-- a film -->
<g id="node2" class="node">
<title>a film</title>
<path fill="#f5f5f5" stroke="black" d="M44,-36C44,-36 12,-36 12,-36 6,-36 0,-30 0,-24 0,-24 0,-12 0,-12 0,-6 6,0 12,0 12,0 44,0 44,0 50,0 56,-6 56,-12 56,-12 56,-24 56,-24 56,-30 50,-36 44,-36"/>
<text text-anchor="middle" x="28" y="-14.3" font-family="Times-Roman" font-size="14.00">a film</text>
</g>
<!-- watch&#45;&gt;a film -->
<g id="edge1" class="edge">
<title>watch&#45;&gt;a film</title>
<path fill="none" stroke="black" d="M82.96,-71.7C73.94,-63.05 62.88,-52.45 53.06,-43.03"/>
<polygon fill="black" stroke="black" points="55.48,-40.5 45.84,-36.1 50.63,-45.55 55.48,-40.5"/>
</g>
<!-- TV -->
<g id="node3" class="node">
<title>TV</title>
<path fill="#f5f5f5" stroke="black" d="M116,-36C116,-36 86,-36 86,-36 80,-36 74,-30 74,-24 74,-24 74,-12 74,-12 74,-6 80,0 86,0 86,0 116,0 116,0 122,0 128,-6 128,-12 128,-12 128,-24 128,-24 128,-30 122,-36 116,-36"/>
<text text-anchor="middle" x="101" y="-14.3" font-family="Times-Roman" font-size="14.00">TV</text>
</g>
<!-- watch&#45;&gt;TV -->
<g id="edge2" class="edge">
<title>watch&#45;&gt;TV</title>
<path fill="none" stroke="black" d="M101,-71.7C101,-63.98 101,-54.71 101,-46.11"/>
<polygon fill="black" stroke="black" points="104.5,-46.1 101,-36.1 97.5,-46.1 104.5,-46.1"/>
</g>
<!-- a play -->
<g id="node4" class="node">
<title>a play</title>
<path fill="#f5f5f5" stroke="black" d="M193.5,-36C193.5,-36 158.5,-36 158.5,-36 152.5,-36 146.5,-30 146.5,-24 146.5,-24 146.5,-12 146.5,-12 146.5,-6 152.5,0 158.5,0 158.5,0 193.5,0 193.5,0 199.5,0 205.5,-6 205.5,-12 205.5,-12 205.5,-24 205.5,-24 205.5,-30 199.5,-36 193.5,-36"/>
<text text-anchor="middle" x="176" y="-14.3" font-family="Times-Roman" font-size="14.00">a play</text>
</g>
<!-- watch&#45;&gt;a play -->
<g id="edge3" class="edge">
<title>watch&#45;&gt;a play</title>
<path fill="none" stroke="black" d="M119.54,-71.7C128.8,-63.05 140.16,-52.45 150.26,-43.03"/>
<polygon fill="black" stroke="black" points="152.75,-45.49 157.67,-36.1 147.98,-40.37 152.75,-45.49"/>
</g>
<!-- look at -->
<g id="node5" class="node">
<title>look at</title>
<path fill="#f5f5f5" stroke="black" d="M838.5,-108C838.5,-108 799.5,-108 799.5,-108 793.5,-108 787.5,-102 787.5,-96 787.5,-96 787.5,-84 787.5,-84 787.5,-78 793.5,-72 799.5,-72 799.5,-72 838.5,-72 838.5,-72 844.5,-72 850.5,-78 850.5,-84 850.5,-84 850.5,-96 850.5,-96 850.5,-102 844.5,-108 838.5,-108"/>
<text text-anchor="middle" x="819" y="-86.3" font-family="Times-Roman" font-size="14.00">look at</text>
</g>
<!-- a drawing -->
<g id="node6" class="node">
<title>a drawing</title>
<path fill="#f5f5f5" stroke="black" d="M704,-36C704,-36 642,-36 642,-36 636,-36 630,-30 630,-24 630,-24 630,-12 630,-12 630,-6 636,0 642,0 642,0 704,0 704,0 710,0 716,-6 716,-12 716,-12 716,-24 716,-24 716,-30 710,-36 704,-36"/>
<text text-anchor="middle" x="673" y="-14.3" font-family="Times-Roman" font-size="14.00">a drawing</text>
</g>
<!-- look at&#45;&gt;a drawing -->
<g id="edge4" class="edge">
<title>look at&#45;&gt;a drawing</title>
<path fill="none" stroke="black" d="M787.32,-73.81C766.9,-64.02 740.05,-51.15 717.51,-40.34"/>
<polygon fill="black" stroke="black" points="718.99,-37.17 708.46,-36 715.96,-43.48 718.99,-37.17"/>
</g>
<!-- a picture -->
<g id="node7" class="node">
<title>a picture</title>
<path fill="#f5f5f5" stroke="black" d="M799.5,-36C799.5,-36 746.5,-36 746.5,-36 740.5,-36 734.5,-30 734.5,-24 734.5,-24 734.5,-12 734.5,-12 734.5,-6 740.5,0 746.5,0 746.5,0 799.5,0 799.5,0 805.5,0 811.5,-6 811.5,-12 811.5,-12 811.5,-24 811.5,-24 811.5,-30 805.5,-36 799.5,-36"/>
<text text-anchor="middle" x="773" y="-14.3" font-family="Times-Roman" font-size="14.00">a picture</text>
</g>
<!-- look at&#45;&gt;a picture -->
<g id="edge5" class="edge">
<title>look at&#45;&gt;a picture</title>
<path fill="none" stroke="black" d="M807.63,-71.7C802.28,-63.56 795.8,-53.69 789.89,-44.7"/>
<polygon fill="black" stroke="black" points="792.66,-42.54 784.24,-36.1 786.81,-46.38 792.66,-42.54"/>
</g>
<!-- a statue -->
<g id="node8" class="node">
<title>a statue</title>
<path fill="#f5f5f5" stroke="black" d="M890.5,-36C890.5,-36 841.5,-36 841.5,-36 835.5,-36 829.5,-30 829.5,-24 829.5,-24 829.5,-12 829.5,-12 829.5,-6 835.5,0 841.5,0 841.5,0 890.5,0 890.5,0 896.5,0 902.5,-6 902.5,-12 902.5,-12 902.5,-24 902.5,-24 902.5,-30 896.5,-36 890.5,-36"/>
<text text-anchor="middle" x="866" y="-14.3" font-family="Times-Roman" font-size="14.00">a statue</text>
</g>
<!-- look at&#45;&gt;a statue -->
<g id="edge6" class="edge">
<title>look at&#45;&gt;a statue</title>
<path fill="none" stroke="black" d="M830.62,-71.7C836.14,-63.47 842.85,-53.48 848.93,-44.42"/>
<polygon fill="black" stroke="black" points="851.85,-46.36 854.52,-36.1 846.04,-42.46 851.85,-46.36"/>
</g>
<!-- a photograph -->
<g id="node9" class="node">
<title>a photograph</title>
<path fill="#f5f5f5" stroke="black" d="M1019,-36C1019,-36 933,-36 933,-36 927,-36 921,-30 921,-24 921,-24 921,-12 921,-12 921,-6 927,0 933,0 933,0 1019,0 1019,0 1025,0 1031,-6 1031,-12 1031,-12 1031,-24 1031,-24 1031,-30 1025,-36 1019,-36"/>
<text text-anchor="middle" x="976" y="-14.3" font-family="Times-Roman" font-size="14.00">a photograph</text>
</g>
<!-- look at&#45;&gt;a photograph -->
<g id="edge7" class="edge">
<title>look at&#45;&gt;a photograph</title>
<path fill="none" stroke="black" d="M850.77,-74.83C873.02,-64.92 903.14,-51.49 928.26,-40.29"/>
<polygon fill="black" stroke="black" points="929.91,-43.38 937.62,-36.11 927.06,-36.99 929.91,-43.38"/>
</g>
<!-- go to -->
<g id="node10" class="node">
<title>go to</title>
<path fill="#f5f5f5" stroke="black" d="M335,-108C335,-108 305,-108 305,-108 299,-108 293,-102 293,-96 293,-96 293,-84 293,-84 293,-78 299,-72 305,-72 305,-72 335,-72 335,-72 341,-72 347,-78 347,-84 347,-84 347,-96 347,-96 347,-102 341,-108 335,-108"/>
<text text-anchor="middle" x="320" y="-86.3" font-family="Times-Roman" font-size="14.00">go to</text>
</g>
<!-- go to&#45;&gt;a play -->
<g id="edge8" class="edge">
<title>go to&#45;&gt;a play</title>
<path fill="none" stroke="black" d="M292.91,-75.83C270.88,-65.12 239.5,-49.87 214.8,-37.86"/>
<polygon fill="black" stroke="black" points="216.22,-34.66 205.69,-33.43 213.16,-40.95 216.22,-34.66"/>
</g>
<!-- a concert -->
<g id="node11" class="node">
<title>a concert</title>
<path fill="#f5f5f5" stroke="black" d="M292.5,-36C292.5,-36 235.5,-36 235.5,-36 229.5,-36 223.5,-30 223.5,-24 223.5,-24 223.5,-12 223.5,-12 223.5,-6 229.5,0 235.5,0 235.5,0 292.5,0 292.5,0 298.5,0 304.5,-6 304.5,-12 304.5,-12 304.5,-24 304.5,-24 304.5,-30 298.5,-36 292.5,-36"/>
<text text-anchor="middle" x="264" y="-14.3" font-family="Times-Roman" font-size="14.00">a concert</text>
</g>
<!-- go to&#45;&gt;a concert -->
<g id="edge9" class="edge">
<title>go to&#45;&gt;a concert</title>
<path fill="none" stroke="black" d="M306.16,-71.7C299.51,-63.39 291.42,-53.28 284.11,-44.14"/>
<polygon fill="black" stroke="black" points="286.66,-41.73 277.68,-36.1 281.2,-46.1 286.66,-41.73"/>
</g>
<!-- an exhibition -->
<g id="node12" class="node">
<title>an exhibition</title>
<path fill="#f5f5f5" stroke="black" d="M417.5,-36C417.5,-36 334.5,-36 334.5,-36 328.5,-36 322.5,-30 322.5,-24 322.5,-24 322.5,-12 322.5,-12 322.5,-6 328.5,0 334.5,0 334.5,0 417.5,0 417.5,0 423.5,0 429.5,-6 429.5,-12 429.5,-12 429.5,-24 429.5,-24 429.5,-30 423.5,-36 417.5,-36"/>
<text text-anchor="middle" x="376" y="-14.3" font-family="Times-Roman" font-size="14.00">an exhibition</text>
</g>
<!-- go to&#45;&gt;an exhibition -->
<g id="edge10" class="edge">
<title>go to&#45;&gt;an exhibition</title>
<path fill="none" stroke="black" d="M333.84,-71.7C340.49,-63.39 348.58,-53.28 355.89,-44.14"/>
<polygon fill="black" stroke="black" points="358.8,-46.1 362.32,-36.1 353.34,-41.73 358.8,-46.1"/>
</g>
<!-- a dance performance -->
<g id="node13" class="node">
<title>a dance performance</title>
<path fill="#f5f5f5" stroke="black" d="M600,-36C600,-36 460,-36 460,-36 454,-36 448,-30 448,-24 448,-24 448,-12 448,-12 448,-6 454,0 460,0 460,0 600,0 600,0 606,0 612,-6 612,-12 612,-12 612,-24 612,-24 612,-30 606,-36 600,-36"/>
<text text-anchor="middle" x="530" y="-14.3" font-family="Times-Roman" font-size="14.00">a dance performance</text>
</g>
<!-- go to&#45;&gt;a dance performance -->
<g id="edge11" class="edge">
<title>go to&#45;&gt;a dance performance</title>
<path fill="none" stroke="black" d="M347.02,-79.99C377.79,-69.74 429.02,-52.66 469.46,-39.18"/>
<polygon fill="black" stroke="black" points="470.58,-42.5 478.96,-36.01 468.37,-35.86 470.58,-42.5"/>
</g>
</g>
</svg>
