<?xml version="1.0" encoding="UTF-8" standalone="no"?>
<!DOCTYPE svg PUBLIC "-//W3C//DTD SVG 1.1//EN"
 "http://www.w3.org/Graphics/SVG/1.1/DTD/svg11.dtd">
<!-- Generated by graphviz version 2.44.0 (0)
 -->
<!-- Pages: 1 -->
<svg width="635pt" height="116pt"
 viewBox="0.00 0.00 635.00 116.00" xmlns="http://www.w3.org/2000/svg" xmlns:xlink="http://www.w3.org/1999/xlink">
<g id="graph0" class="graph" transform="scale(1 1) rotate(0) translate(4 112)">
<polygon fill="white" stroke="transparent" points="-4,4 -4,-112 631,-112 631,4 -4,4"/>
<!-- What&#39;s the weather like? It&#39;s -->
<g id="node1" class="node">
<title>What&#39;s the weather like? It&#39;s</title>
<path fill="#f5f5f5" stroke="black" d="M401.5,-108C401.5,-108 213.5,-108 213.5,-108 207.5,-108 201.5,-102 201.5,-96 201.5,-96 201.5,-84 201.5,-84 201.5,-78 207.5,-72 213.5,-72 213.5,-72 401.5,-72 401.5,-72 407.5,-72 413.5,-78 413.5,-84 413.5,-84 413.5,-96 413.5,-96 413.5,-102 407.5,-108 401.5,-108"/>
<text text-anchor="middle" x="307.5" y="-86.3" font-family="Times-Roman" font-size="14.00">What&#39;s the weather like? It&#39;s</text>
</g>
<!-- stormy -->
<g id="node2" class="node">
<title>stormy</title>
<path fill="#f5f5f5" stroke="black" d="M53,-36C53,-36 12,-36 12,-36 6,-36 0,-30 0,-24 0,-24 0,-12 0,-12 0,-6 6,0 12,0 12,0 53,0 53,0 59,0 65,-6 65,-12 65,-12 65,-24 65,-24 65,-30 59,-36 53,-36"/>
<text text-anchor="middle" x="32.5" y="-14.3" font-family="Times-Roman" font-size="14.00">stormy</text>
</g>
<!-- What&#39;s the weather like? It&#39;s&#45;&gt;stormy -->
<g id="edge1" class="edge">
<title>What&#39;s the weather like? It&#39;s&#45;&gt;stormy</title>
<path fill="none" stroke="black" d="M216.98,-71.95C176.01,-63.39 126.95,-51.97 75.05,-35.92"/>
<polygon fill="black" stroke="black" points="75.92,-32.53 65.33,-32.87 73.83,-39.21 75.92,-32.53"/>
</g>
<!-- rainy -->
<g id="node3" class="node">
<title>rainy</title>
<path fill="#f5f5f5" stroke="black" d="M125.5,-36C125.5,-36 95.5,-36 95.5,-36 89.5,-36 83.5,-30 83.5,-24 83.5,-24 83.5,-12 83.5,-12 83.5,-6 89.5,0 95.5,0 95.5,0 125.5,0 125.5,0 131.5,0 137.5,-6 137.5,-12 137.5,-12 137.5,-24 137.5,-24 137.5,-30 131.5,-36 125.5,-36"/>
<text text-anchor="middle" x="110.5" y="-14.3" font-family="Times-Roman" font-size="14.00">rainy</text>
</g>
<!-- What&#39;s the weather like? It&#39;s&#45;&gt;rainy -->
<g id="edge2" class="edge">
<title>What&#39;s the weather like? It&#39;s&#45;&gt;rainy</title>
<path fill="none" stroke="black" d="M249.88,-71.93C221.21,-62.99 185.95,-51.35 147.24,-36.09"/>
<polygon fill="black" stroke="black" points="148.45,-32.8 137.86,-32.35 145.85,-39.3 148.45,-32.8"/>
</g>
<!-- raining -->
<g id="node4" class="node">
<title>raining</title>
<path fill="#f5f5f5" stroke="black" d="M209,-36C209,-36 168,-36 168,-36 162,-36 156,-30 156,-24 156,-24 156,-12 156,-12 156,-6 162,0 168,0 168,0 209,0 209,0 215,0 221,-6 221,-12 221,-12 221,-24 221,-24 221,-30 215,-36 209,-36"/>
<text text-anchor="middle" x="188.5" y="-14.3" font-family="Times-Roman" font-size="14.00">raining</text>
</g>
<!-- What&#39;s the weather like? It&#39;s&#45;&gt;raining -->
<g id="edge3" class="edge">
<title>What&#39;s the weather like? It&#39;s&#45;&gt;raining</title>
<path fill="none" stroke="black" d="M278.39,-71.88C262.83,-62.72 243.48,-51.34 226.72,-41.48"/>
<polygon fill="black" stroke="black" points="228.12,-38.24 217.72,-36.19 224.57,-44.28 228.12,-38.24"/>
</g>
<!-- windy -->
<g id="node5" class="node">
<title>windy</title>
<path fill="#f5f5f5" stroke="black" d="M285.5,-36C285.5,-36 251.5,-36 251.5,-36 245.5,-36 239.5,-30 239.5,-24 239.5,-24 239.5,-12 239.5,-12 239.5,-6 245.5,0 251.5,0 251.5,0 285.5,0 285.5,0 291.5,0 297.5,-6 297.5,-12 297.5,-12 297.5,-24 297.5,-24 297.5,-30 291.5,-36 285.5,-36"/>
<text text-anchor="middle" x="268.5" y="-14.3" font-family="Times-Roman" font-size="14.00">windy</text>
</g>
<!-- What&#39;s the weather like? It&#39;s&#45;&gt;windy -->
<g id="edge4" class="edge">
<title>What&#39;s the weather like? It&#39;s&#45;&gt;windy</title>
<path fill="none" stroke="black" d="M297.86,-71.7C293.37,-63.64 287.94,-53.89 282.98,-44.98"/>
<polygon fill="black" stroke="black" points="285.95,-43.14 278.03,-36.1 279.84,-46.54 285.95,-43.14"/>
</g>
<!-- snowy -->
<g id="node6" class="node">
<title>snowy</title>
<path fill="#f5f5f5" stroke="black" d="M365,-36C365,-36 328,-36 328,-36 322,-36 316,-30 316,-24 316,-24 316,-12 316,-12 316,-6 322,0 328,0 328,0 365,0 365,0 371,0 377,-6 377,-12 377,-12 377,-24 377,-24 377,-30 371,-36 365,-36"/>
<text text-anchor="middle" x="346.5" y="-14.3" font-family="Times-Roman" font-size="14.00">snowy</text>
</g>
<!-- What&#39;s the weather like? It&#39;s&#45;&gt;snowy -->
<g id="edge5" class="edge">
<title>What&#39;s the weather like? It&#39;s&#45;&gt;snowy</title>
<path fill="none" stroke="black" d="M317.14,-71.7C321.63,-63.64 327.06,-53.89 332.02,-44.98"/>
<polygon fill="black" stroke="black" points="335.16,-46.54 336.97,-36.1 329.05,-43.14 335.16,-46.54"/>
</g>
<!-- snowing -->
<g id="node7" class="node">
<title>snowing</title>
<path fill="#f5f5f5" stroke="black" d="M457.5,-36C457.5,-36 407.5,-36 407.5,-36 401.5,-36 395.5,-30 395.5,-24 395.5,-24 395.5,-12 395.5,-12 395.5,-6 401.5,0 407.5,0 407.5,0 457.5,0 457.5,0 463.5,0 469.5,-6 469.5,-12 469.5,-12 469.5,-24 469.5,-24 469.5,-30 463.5,-36 457.5,-36"/>
<text text-anchor="middle" x="432.5" y="-14.3" font-family="Times-Roman" font-size="14.00">snowing</text>
</g>
<!-- What&#39;s the weather like? It&#39;s&#45;&gt;snowing -->
<g id="edge6" class="edge">
<title>What&#39;s the weather like? It&#39;s&#45;&gt;snowing</title>
<path fill="none" stroke="black" d="M338.08,-71.88C354.57,-62.64 375.12,-51.13 392.84,-41.21"/>
<polygon fill="black" stroke="black" points="394.79,-44.13 401.8,-36.19 391.37,-38.02 394.79,-44.13"/>
</g>
<!-- cloudy -->
<g id="node8" class="node">
<title>cloudy</title>
<path fill="#f5f5f5" stroke="black" d="M537.5,-36C537.5,-36 499.5,-36 499.5,-36 493.5,-36 487.5,-30 487.5,-24 487.5,-24 487.5,-12 487.5,-12 487.5,-6 493.5,0 499.5,0 499.5,0 537.5,0 537.5,0 543.5,0 549.5,-6 549.5,-12 549.5,-12 549.5,-24 549.5,-24 549.5,-30 543.5,-36 537.5,-36"/>
<text text-anchor="middle" x="518.5" y="-14.3" font-family="Times-Roman" font-size="14.00">cloudy</text>
</g>
<!-- What&#39;s the weather like? It&#39;s&#45;&gt;cloudy -->
<g id="edge7" class="edge">
<title>What&#39;s the weather like? It&#39;s&#45;&gt;cloudy</title>
<path fill="none" stroke="black" d="M367.75,-71.95C398.41,-62.9 436.38,-51.11 477.74,-36.12"/>
<polygon fill="black" stroke="black" points="478.99,-39.39 487.18,-32.67 476.58,-32.82 478.99,-39.39"/>
</g>
<!-- sunny -->
<g id="node9" class="node">
<title>sunny</title>
<path fill="#f5f5f5" stroke="black" d="M615,-36C615,-36 580,-36 580,-36 574,-36 568,-30 568,-24 568,-24 568,-12 568,-12 568,-6 574,0 580,0 580,0 615,0 615,0 621,0 627,-6 627,-12 627,-12 627,-24 627,-24 627,-30 621,-36 615,-36"/>
<text text-anchor="middle" x="597.5" y="-14.3" font-family="Times-Roman" font-size="14.00">sunny</text>
</g>
<!-- What&#39;s the weather like? It&#39;s&#45;&gt;sunny -->
<g id="edge8" class="edge">
<title>What&#39;s the weather like? It&#39;s&#45;&gt;sunny</title>
<path fill="none" stroke="black" d="M411.31,-71.98C457.01,-63.24 510.99,-51.2 558.5,-36 558.6,-35.97 558.69,-35.94 558.79,-35.91"/>
<polygon fill="black" stroke="black" points="559.7,-39.3 567.93,-32.63 557.33,-32.71 559.7,-39.3"/>
</g>
</g>
</svg>
