<?xml version="1.0" encoding="UTF-8" standalone="no"?>
<!DOCTYPE svg PUBLIC "-//W3C//DTD SVG 1.1//EN"
 "http://www.w3.org/Graphics/SVG/1.1/DTD/svg11.dtd">
<!-- Generated by graphviz version 2.44.0 (0)
 -->
<!-- Pages: 1 -->
<svg width="665pt" height="827pt"
 viewBox="0.00 0.00 665.00 827.00" xmlns="http://www.w3.org/2000/svg" xmlns:xlink="http://www.w3.org/1999/xlink">
<g id="graph0" class="graph" transform="scale(1 1) rotate(0) translate(4 823)">
<polygon fill="white" stroke="transparent" points="-4,4 -4,-823 661,-823 661,4 -4,4"/>
<!-- This happened about (five years ago) -->
<g id="node1" class="node">
<title>This happened about (five years ago)</title>
<path fill="#f5f5f5" stroke="black" d="M273,-36C273,-36 20,-36 20,-36 14,-36 8,-30 8,-24 8,-24 8,-12 8,-12 8,-6 14,0 20,0 20,0 273,0 273,0 279,0 285,-6 285,-12 285,-12 285,-24 285,-24 285,-30 279,-36 273,-36"/>
<text text-anchor="middle" x="146.5" y="-14.3" font-family="Times-Roman" font-size="14.00">This happened about (five years ago)</text>
</g>
<!-- But then, one day the weather changed -->
<g id="node2" class="node">
<title>But then, one day the weather changed</title>
<path fill="#f5f5f5" stroke="black" d="M281,-90C281,-90 12,-90 12,-90 6,-90 0,-84 0,-78 0,-78 0,-66 0,-66 0,-60 6,-54 12,-54 12,-54 281,-54 281,-54 287,-54 293,-60 293,-66 293,-66 293,-78 293,-78 293,-84 287,-90 281,-90"/>
<text text-anchor="middle" x="146.5" y="-68.3" font-family="Times-Roman" font-size="14.00">But then, one day the weather changed</text>
</g>
<!-- it started to rain... -->
<g id="node3" class="node">
<title>it started to rain...</title>
<path fill="#f5f5f5" stroke="black" d="M466,-90C466,-90 347,-90 347,-90 341,-90 335,-84 335,-78 335,-78 335,-66 335,-66 335,-60 341,-54 347,-54 347,-54 466,-54 466,-54 472,-54 478,-60 478,-66 478,-66 478,-78 478,-78 478,-84 472,-90 466,-90"/>
<text text-anchor="middle" x="406.5" y="-68.3" font-family="Times-Roman" font-size="14.00">it started to rain...</text>
</g>
<!-- But then, one day the weather changed&#45;&gt;it started to rain... -->
<g id="edge1" class="edge">
<title>But then, one day the weather changed&#45;&gt;it started to rain...</title>
<path fill="none" stroke="black" d="M293.09,-72C303.89,-72 314.53,-72 324.71,-72"/>
<polygon fill="black" stroke="black" points="324.72,-75.5 334.72,-72 324.72,-68.5 324.72,-75.5"/>
</g>
<!-- got hotter... -->
<g id="node4" class="node">
<title>got hotter...</title>
<path fill="#f5f5f5" stroke="black" d="M443.5,-36C443.5,-36 369.5,-36 369.5,-36 363.5,-36 357.5,-30 357.5,-24 357.5,-24 357.5,-12 357.5,-12 357.5,-6 363.5,0 369.5,0 369.5,0 443.5,0 443.5,0 449.5,0 455.5,-6 455.5,-12 455.5,-12 455.5,-24 455.5,-24 455.5,-30 449.5,-36 443.5,-36"/>
<text text-anchor="middle" x="406.5" y="-14.3" font-family="Times-Roman" font-size="14.00">got hotter...</text>
</g>
<!-- But then, one day the weather changed&#45;&gt;got hotter... -->
<g id="edge2" class="edge">
<title>But then, one day the weather changed&#45;&gt;got hotter...</title>
<path fill="none" stroke="black" d="M248.61,-53.94C263.52,-51.07 278.68,-48.05 293,-45 310.74,-41.23 329.96,-36.76 347.4,-32.55"/>
<polygon fill="black" stroke="black" points="348.56,-35.88 357.45,-30.11 346.91,-29.07 348.56,-35.88"/>
</g>
<!-- Everything -->
<g id="node5" class="node">
<title>Everything</title>
<path fill="#f5f5f5" stroke="black" d="M180.5,-198C180.5,-198 112.5,-198 112.5,-198 106.5,-198 100.5,-192 100.5,-186 100.5,-186 100.5,-174 100.5,-174 100.5,-168 106.5,-162 112.5,-162 112.5,-162 180.5,-162 180.5,-162 186.5,-162 192.5,-168 192.5,-174 192.5,-174 192.5,-186 192.5,-186 192.5,-192 186.5,-198 180.5,-198"/>
<text text-anchor="middle" x="146.5" y="-176.3" font-family="Times-Roman" font-size="14.00">Everything</text>
</g>
<!-- was -->
<g id="node7" class="node">
<title>was</title>
<path fill="#f5f5f5" stroke="black" d="M421.5,-144C421.5,-144 391.5,-144 391.5,-144 385.5,-144 379.5,-138 379.5,-132 379.5,-132 379.5,-120 379.5,-120 379.5,-114 385.5,-108 391.5,-108 391.5,-108 421.5,-108 421.5,-108 427.5,-108 433.5,-114 433.5,-120 433.5,-120 433.5,-132 433.5,-132 433.5,-138 427.5,-144 421.5,-144"/>
<text text-anchor="middle" x="406.5" y="-122.3" font-family="Times-Roman" font-size="14.00">was</text>
</g>
<!-- Everything&#45;&gt;was -->
<g id="edge3" class="edge">
<title>Everything&#45;&gt;was</title>
<path fill="none" stroke="black" d="M192.52,-172.27C221.33,-167.17 259.45,-160.13 293,-153 318.61,-147.55 347.31,-140.65 369.31,-135.19"/>
<polygon fill="black" stroke="black" points="370.37,-138.54 379.22,-132.72 368.67,-131.74 370.37,-138.54"/>
</g>
<!-- Everywhere -->
<g id="node6" class="node">
<title>Everywhere</title>
<path fill="#f5f5f5" stroke="black" d="M183.5,-144C183.5,-144 109.5,-144 109.5,-144 103.5,-144 97.5,-138 97.5,-132 97.5,-132 97.5,-120 97.5,-120 97.5,-114 103.5,-108 109.5,-108 109.5,-108 183.5,-108 183.5,-108 189.5,-108 195.5,-114 195.5,-120 195.5,-120 195.5,-132 195.5,-132 195.5,-138 189.5,-144 183.5,-144"/>
<text text-anchor="middle" x="146.5" y="-122.3" font-family="Times-Roman" font-size="14.00">Everywhere</text>
</g>
<!-- Everywhere&#45;&gt;was -->
<g id="edge4" class="edge">
<title>Everywhere&#45;&gt;was</title>
<path fill="none" stroke="black" d="M195.73,-126C245.95,-126 323.52,-126 368.93,-126"/>
<polygon fill="black" stroke="black" points="369.19,-129.5 379.19,-126 369.19,-122.5 369.19,-129.5"/>
</g>
<!-- different -->
<g id="node8" class="node">
<title>different</title>
<path fill="#f5f5f5" stroke="black" d="M614,-198C614,-198 563,-198 563,-198 557,-198 551,-192 551,-186 551,-186 551,-174 551,-174 551,-168 557,-162 563,-162 563,-162 614,-162 614,-162 620,-162 626,-168 626,-174 626,-174 626,-186 626,-186 626,-192 620,-198 614,-198"/>
<text text-anchor="middle" x="588.5" y="-176.3" font-family="Times-Roman" font-size="14.00">different</text>
</g>
<!-- was&#45;&gt;different -->
<g id="edge5" class="edge">
<title>was&#45;&gt;different</title>
<path fill="none" stroke="black" d="M433.67,-133.85C461.72,-142.27 506.79,-155.79 540.92,-166.03"/>
<polygon fill="black" stroke="black" points="540.09,-169.43 550.68,-168.95 542.1,-162.73 540.09,-169.43"/>
</g>
<!-- white -->
<g id="node9" class="node">
<title>white</title>
<path fill="#f5f5f5" stroke="black" d="M603.5,-144C603.5,-144 573.5,-144 573.5,-144 567.5,-144 561.5,-138 561.5,-132 561.5,-132 561.5,-120 561.5,-120 561.5,-114 567.5,-108 573.5,-108 573.5,-108 603.5,-108 603.5,-108 609.5,-108 615.5,-114 615.5,-120 615.5,-120 615.5,-132 615.5,-132 615.5,-138 609.5,-144 603.5,-144"/>
<text text-anchor="middle" x="588.5" y="-122.3" font-family="Times-Roman" font-size="14.00">white</text>
</g>
<!-- was&#45;&gt;white -->
<g id="edge6" class="edge">
<title>was&#45;&gt;white</title>
<path fill="none" stroke="black" d="M433.67,-126C464.6,-126 516.25,-126 551.07,-126"/>
<polygon fill="black" stroke="black" points="551.29,-129.5 561.29,-126 551.29,-122.5 551.29,-129.5"/>
</g>
<!-- dry -->
<g id="node10" class="node">
<title>dry</title>
<path fill="#f5f5f5" stroke="black" d="M603.5,-90C603.5,-90 573.5,-90 573.5,-90 567.5,-90 561.5,-84 561.5,-78 561.5,-78 561.5,-66 561.5,-66 561.5,-60 567.5,-54 573.5,-54 573.5,-54 603.5,-54 603.5,-54 609.5,-54 615.5,-60 615.5,-66 615.5,-66 615.5,-78 615.5,-78 615.5,-84 609.5,-90 603.5,-90"/>
<text text-anchor="middle" x="588.5" y="-68.3" font-family="Times-Roman" font-size="14.00">dry</text>
</g>
<!-- was&#45;&gt;dry -->
<g id="edge7" class="edge">
<title>was&#45;&gt;dry</title>
<path fill="none" stroke="black" d="M433.67,-118.15C464.73,-108.83 516.69,-93.24 551.52,-82.79"/>
<polygon fill="black" stroke="black" points="552.72,-86.09 561.29,-79.86 550.71,-79.38 552.72,-86.09"/>
</g>
<!-- It lasted -->
<g id="node11" class="node">
<title>It lasted</title>
<path fill="#f5f5f5" stroke="black" d="M171,-252C171,-252 122,-252 122,-252 116,-252 110,-246 110,-240 110,-240 110,-228 110,-228 110,-222 116,-216 122,-216 122,-216 171,-216 171,-216 177,-216 183,-222 183,-228 183,-228 183,-240 183,-240 183,-246 177,-252 171,-252"/>
<text text-anchor="middle" x="146.5" y="-230.3" font-family="Times-Roman" font-size="14.00">It lasted</text>
</g>
<!-- a long time... -->
<g id="node12" class="node">
<title>a long time...</title>
<path fill="#f5f5f5" stroke="black" d="M448.5,-279C448.5,-279 364.5,-279 364.5,-279 358.5,-279 352.5,-273 352.5,-267 352.5,-267 352.5,-255 352.5,-255 352.5,-249 358.5,-243 364.5,-243 364.5,-243 448.5,-243 448.5,-243 454.5,-243 460.5,-249 460.5,-255 460.5,-255 460.5,-267 460.5,-267 460.5,-273 454.5,-279 448.5,-279"/>
<text text-anchor="middle" x="406.5" y="-257.3" font-family="Times-Roman" font-size="14.00">a long time...</text>
</g>
<!-- It lasted&#45;&gt;a long time... -->
<g id="edge8" class="edge">
<title>It lasted&#45;&gt;a long time...</title>
<path fill="none" stroke="black" d="M183.1,-237.73C224.1,-242.02 292.22,-249.15 342.29,-254.38"/>
<polygon fill="black" stroke="black" points="342.05,-257.88 352.36,-255.44 342.78,-250.92 342.05,-257.88"/>
</g>
<!-- three or four days... -->
<g id="node13" class="node">
<title>three or four days...</title>
<path fill="#f5f5f5" stroke="black" d="M472,-225C472,-225 341,-225 341,-225 335,-225 329,-219 329,-213 329,-213 329,-201 329,-201 329,-195 335,-189 341,-189 341,-189 472,-189 472,-189 478,-189 484,-195 484,-201 484,-201 484,-213 484,-213 484,-219 478,-225 472,-225"/>
<text text-anchor="middle" x="406.5" y="-203.3" font-family="Times-Roman" font-size="14.00">three or four days...</text>
</g>
<!-- It lasted&#45;&gt;three or four days... -->
<g id="edge9" class="edge">
<title>It lasted&#45;&gt;three or four days...</title>
<path fill="none" stroke="black" d="M183.1,-230.27C218,-226.62 272.56,-220.91 318.91,-216.06"/>
<polygon fill="black" stroke="black" points="319.38,-219.53 328.96,-215.01 318.65,-212.57 319.38,-219.53"/>
</g>
<!-- It was difficult to -->
<g id="node14" class="node">
<title>It was difficult to</title>
<path fill="#f5f5f5" stroke="black" d="M200.5,-387C200.5,-387 92.5,-387 92.5,-387 86.5,-387 80.5,-381 80.5,-375 80.5,-375 80.5,-363 80.5,-363 80.5,-357 86.5,-351 92.5,-351 92.5,-351 200.5,-351 200.5,-351 206.5,-351 212.5,-357 212.5,-363 212.5,-363 212.5,-375 212.5,-375 212.5,-381 206.5,-387 200.5,-387"/>
<text text-anchor="middle" x="146.5" y="-365.3" font-family="Times-Roman" font-size="14.00">It was difficult to</text>
</g>
<!-- breathe -->
<g id="node15" class="node">
<title>breathe</title>
<path fill="#f5f5f5" stroke="black" d="M429.5,-441C429.5,-441 383.5,-441 383.5,-441 377.5,-441 371.5,-435 371.5,-429 371.5,-429 371.5,-417 371.5,-417 371.5,-411 377.5,-405 383.5,-405 383.5,-405 429.5,-405 429.5,-405 435.5,-405 441.5,-411 441.5,-417 441.5,-417 441.5,-429 441.5,-429 441.5,-435 435.5,-441 429.5,-441"/>
<text text-anchor="middle" x="406.5" y="-419.3" font-family="Times-Roman" font-size="14.00">breathe</text>
</g>
<!-- It was difficult to&#45;&gt;breathe -->
<g id="edge10" class="edge">
<title>It was difficult to&#45;&gt;breathe</title>
<path fill="none" stroke="black" d="M212.6,-382.63C259.12,-392.36 320.46,-405.2 361.35,-413.76"/>
<polygon fill="black" stroke="black" points="360.78,-417.22 371.29,-415.84 362.22,-410.37 360.78,-417.22"/>
</g>
<!-- sleep -->
<g id="node16" class="node">
<title>sleep</title>
<path fill="#f5f5f5" stroke="black" d="M421.5,-387C421.5,-387 391.5,-387 391.5,-387 385.5,-387 379.5,-381 379.5,-375 379.5,-375 379.5,-363 379.5,-363 379.5,-357 385.5,-351 391.5,-351 391.5,-351 421.5,-351 421.5,-351 427.5,-351 433.5,-357 433.5,-363 433.5,-363 433.5,-375 433.5,-375 433.5,-381 427.5,-387 421.5,-387"/>
<text text-anchor="middle" x="406.5" y="-365.3" font-family="Times-Roman" font-size="14.00">sleep</text>
</g>
<!-- It was difficult to&#45;&gt;sleep -->
<g id="edge11" class="edge">
<title>It was difficult to&#45;&gt;sleep</title>
<path fill="none" stroke="black" d="M212.6,-369C262.21,-369 328.68,-369 369.23,-369"/>
<polygon fill="black" stroke="black" points="369.45,-372.5 379.45,-369 369.45,-365.5 369.45,-372.5"/>
</g>
<!-- do anything -->
<g id="node17" class="node">
<title>do anything</title>
<path fill="#f5f5f5" stroke="black" d="M444.5,-333C444.5,-333 368.5,-333 368.5,-333 362.5,-333 356.5,-327 356.5,-321 356.5,-321 356.5,-309 356.5,-309 356.5,-303 362.5,-297 368.5,-297 368.5,-297 444.5,-297 444.5,-297 450.5,-297 456.5,-303 456.5,-309 456.5,-309 456.5,-321 456.5,-321 456.5,-327 450.5,-333 444.5,-333"/>
<text text-anchor="middle" x="406.5" y="-311.3" font-family="Times-Roman" font-size="14.00">do anything</text>
</g>
<!-- It was difficult to&#45;&gt;do anything -->
<g id="edge12" class="edge">
<title>It was difficult to&#45;&gt;do anything</title>
<path fill="none" stroke="black" d="M212.6,-355.37C253.75,-346.76 306.5,-335.72 346.44,-327.36"/>
<polygon fill="black" stroke="black" points="347.23,-330.77 356.3,-325.3 345.79,-323.92 347.23,-330.77"/>
</g>
<!-- To tell you the truth, I really -->
<g id="node18" class="node">
<title>To tell you the truth, I really</title>
<path fill="#f5f5f5" stroke="black" d="M238.5,-522C238.5,-522 54.5,-522 54.5,-522 48.5,-522 42.5,-516 42.5,-510 42.5,-510 42.5,-498 42.5,-498 42.5,-492 48.5,-486 54.5,-486 54.5,-486 238.5,-486 238.5,-486 244.5,-486 250.5,-492 250.5,-498 250.5,-498 250.5,-510 250.5,-510 250.5,-516 244.5,-522 238.5,-522"/>
<text text-anchor="middle" x="146.5" y="-500.3" font-family="Times-Roman" font-size="14.00">To tell you the truth, I really</text>
</g>
<!-- hated -->
<g id="node19" class="node">
<title>hated</title>
<path fill="#f5f5f5" stroke="black" d="M422.5,-549C422.5,-549 390.5,-549 390.5,-549 384.5,-549 378.5,-543 378.5,-537 378.5,-537 378.5,-525 378.5,-525 378.5,-519 384.5,-513 390.5,-513 390.5,-513 422.5,-513 422.5,-513 428.5,-513 434.5,-519 434.5,-525 434.5,-525 434.5,-537 434.5,-537 434.5,-543 428.5,-549 422.5,-549"/>
<text text-anchor="middle" x="406.5" y="-527.3" font-family="Times-Roman" font-size="14.00">hated</text>
</g>
<!-- To tell you the truth, I really&#45;&gt;hated -->
<g id="edge13" class="edge">
<title>To tell you the truth, I really&#45;&gt;hated</title>
<path fill="none" stroke="black" d="M250.58,-514.79C292.01,-519.12 337.17,-523.85 367.98,-527.07"/>
<polygon fill="black" stroke="black" points="367.94,-530.59 378.25,-528.15 368.67,-523.63 367.94,-530.59"/>
</g>
<!-- love -->
<g id="node20" class="node">
<title>love</title>
<path fill="#f5f5f5" stroke="black" d="M421.5,-495C421.5,-495 391.5,-495 391.5,-495 385.5,-495 379.5,-489 379.5,-483 379.5,-483 379.5,-471 379.5,-471 379.5,-465 385.5,-459 391.5,-459 391.5,-459 421.5,-459 421.5,-459 427.5,-459 433.5,-465 433.5,-471 433.5,-471 433.5,-483 433.5,-483 433.5,-489 427.5,-495 421.5,-495"/>
<text text-anchor="middle" x="406.5" y="-473.3" font-family="Times-Roman" font-size="14.00">love</text>
</g>
<!-- To tell you the truth, I really&#45;&gt;love -->
<g id="edge14" class="edge">
<title>To tell you the truth, I really&#45;&gt;love</title>
<path fill="none" stroke="black" d="M250.58,-493.21C292.52,-488.82 338.26,-484.04 369.09,-480.81"/>
<polygon fill="black" stroke="black" points="369.76,-484.26 379.34,-479.74 369.03,-477.3 369.76,-484.26"/>
</g>
<!-- it. -->
<g id="node21" class="node">
<title>it.</title>
<path fill="#f5f5f5" stroke="black" d="M603.5,-522C603.5,-522 573.5,-522 573.5,-522 567.5,-522 561.5,-516 561.5,-510 561.5,-510 561.5,-498 561.5,-498 561.5,-492 567.5,-486 573.5,-486 573.5,-486 603.5,-486 603.5,-486 609.5,-486 615.5,-492 615.5,-498 615.5,-498 615.5,-510 615.5,-510 615.5,-516 609.5,-522 603.5,-522"/>
<text text-anchor="middle" x="588.5" y="-500.3" font-family="Times-Roman" font-size="14.00">it.</text>
</g>
<!-- hated&#45;&gt;it. -->
<g id="edge15" class="edge">
<title>hated&#45;&gt;it.</title>
<path fill="none" stroke="black" d="M434.84,-526.9C465.94,-522.23 516.87,-514.59 551.27,-509.43"/>
<polygon fill="black" stroke="black" points="552,-512.86 561.37,-507.92 550.96,-505.94 552,-512.86"/>
</g>
<!-- love&#45;&gt;it. -->
<g id="edge16" class="edge">
<title>love&#45;&gt;it.</title>
<path fill="none" stroke="black" d="M433.67,-480.93C464.6,-485.57 516.25,-493.31 551.07,-498.54"/>
<polygon fill="black" stroke="black" points="550.89,-502.05 561.29,-500.07 551.92,-495.12 550.89,-502.05"/>
</g>
<!-- Everyone got very -->
<g id="node22" class="node">
<title>Everyone got very</title>
<path fill="#f5f5f5" stroke="black" d="M206.5,-657C206.5,-657 86.5,-657 86.5,-657 80.5,-657 74.5,-651 74.5,-645 74.5,-645 74.5,-633 74.5,-633 74.5,-627 80.5,-621 86.5,-621 86.5,-621 206.5,-621 206.5,-621 212.5,-621 218.5,-627 218.5,-633 218.5,-633 218.5,-645 218.5,-645 218.5,-651 212.5,-657 206.5,-657"/>
<text text-anchor="middle" x="146.5" y="-635.3" font-family="Times-Roman" font-size="14.00">Everyone got very</text>
</g>
<!-- tired -->
<g id="node23" class="node">
<title>tired</title>
<path fill="#f5f5f5" stroke="black" d="M421.5,-711C421.5,-711 391.5,-711 391.5,-711 385.5,-711 379.5,-705 379.5,-699 379.5,-699 379.5,-687 379.5,-687 379.5,-681 385.5,-675 391.5,-675 391.5,-675 421.5,-675 421.5,-675 427.5,-675 433.5,-681 433.5,-687 433.5,-687 433.5,-699 433.5,-699 433.5,-705 427.5,-711 421.5,-711"/>
<text text-anchor="middle" x="406.5" y="-689.3" font-family="Times-Roman" font-size="14.00">tired</text>
</g>
<!-- Everyone got very&#45;&gt;tired -->
<g id="edge17" class="edge">
<title>Everyone got very&#45;&gt;tired</title>
<path fill="none" stroke="black" d="M218.68,-653.9C267.7,-664.16 330.76,-677.36 369.64,-685.49"/>
<polygon fill="black" stroke="black" points="368.95,-688.93 379.46,-687.55 370.38,-682.07 368.95,-688.93"/>
</g>
<!-- angry -->
<g id="node24" class="node">
<title>angry</title>
<path fill="#f5f5f5" stroke="black" d="M423,-657C423,-657 390,-657 390,-657 384,-657 378,-651 378,-645 378,-645 378,-633 378,-633 378,-627 384,-621 390,-621 390,-621 423,-621 423,-621 429,-621 435,-627 435,-633 435,-633 435,-645 435,-645 435,-651 429,-657 423,-657"/>
<text text-anchor="middle" x="406.5" y="-635.3" font-family="Times-Roman" font-size="14.00">angry</text>
</g>
<!-- Everyone got very&#45;&gt;angry -->
<g id="edge18" class="edge">
<title>Everyone got very&#45;&gt;angry</title>
<path fill="none" stroke="black" d="M218.68,-639C266.81,-639 328.47,-639 367.5,-639"/>
<polygon fill="black" stroke="black" points="367.87,-642.5 377.87,-639 367.87,-635.5 367.87,-642.5"/>
</g>
<!-- ill -->
<g id="node25" class="node">
<title>ill</title>
<path fill="#f5f5f5" stroke="black" d="M421.5,-603C421.5,-603 391.5,-603 391.5,-603 385.5,-603 379.5,-597 379.5,-591 379.5,-591 379.5,-579 379.5,-579 379.5,-573 385.5,-567 391.5,-567 391.5,-567 421.5,-567 421.5,-567 427.5,-567 433.5,-573 433.5,-579 433.5,-579 433.5,-591 433.5,-591 433.5,-597 427.5,-603 421.5,-603"/>
<text text-anchor="middle" x="406.5" y="-581.3" font-family="Times-Roman" font-size="14.00">ill</text>
</g>
<!-- Everyone got very&#45;&gt;ill -->
<g id="edge19" class="edge">
<title>Everyone got very&#45;&gt;ill</title>
<path fill="none" stroke="black" d="M218.68,-624.1C267.7,-613.84 330.76,-600.64 369.64,-592.51"/>
<polygon fill="black" stroke="black" points="370.38,-595.93 379.46,-590.45 368.95,-589.07 370.38,-595.93"/>
</g>
<!-- It was -->
<g id="node26" class="node">
<title>It was</title>
<path fill="#f5f5f5" stroke="black" d="M163.5,-792C163.5,-792 129.5,-792 129.5,-792 123.5,-792 117.5,-786 117.5,-780 117.5,-780 117.5,-768 117.5,-768 117.5,-762 123.5,-756 129.5,-756 129.5,-756 163.5,-756 163.5,-756 169.5,-756 175.5,-762 175.5,-768 175.5,-768 175.5,-780 175.5,-780 175.5,-786 169.5,-792 163.5,-792"/>
<text text-anchor="middle" x="146.5" y="-770.3" font-family="Times-Roman" font-size="14.00">It was</text>
</g>
<!-- glad -->
<g id="node27" class="node">
<title>glad</title>
<path fill="#f5f5f5" stroke="black" d="M421.5,-819C421.5,-819 391.5,-819 391.5,-819 385.5,-819 379.5,-813 379.5,-807 379.5,-807 379.5,-795 379.5,-795 379.5,-789 385.5,-783 391.5,-783 391.5,-783 421.5,-783 421.5,-783 427.5,-783 433.5,-789 433.5,-795 433.5,-795 433.5,-807 433.5,-807 433.5,-813 427.5,-819 421.5,-819"/>
<text text-anchor="middle" x="406.5" y="-797.3" font-family="Times-Roman" font-size="14.00">glad</text>
</g>
<!-- It was&#45;&gt;glad -->
<g id="edge20" class="edge">
<title>It was&#45;&gt;glad</title>
<path fill="none" stroke="black" d="M175.6,-776.94C222.64,-781.86 317.27,-791.77 369.26,-797.21"/>
<polygon fill="black" stroke="black" points="369.05,-800.7 379.36,-798.26 369.78,-793.74 369.05,-800.7"/>
</g>
<!-- sorry -->
<g id="node28" class="node">
<title>sorry</title>
<path fill="#f5f5f5" stroke="black" d="M421.5,-765C421.5,-765 391.5,-765 391.5,-765 385.5,-765 379.5,-759 379.5,-753 379.5,-753 379.5,-741 379.5,-741 379.5,-735 385.5,-729 391.5,-729 391.5,-729 421.5,-729 421.5,-729 427.5,-729 433.5,-735 433.5,-741 433.5,-741 433.5,-753 433.5,-753 433.5,-759 427.5,-765 421.5,-765"/>
<text text-anchor="middle" x="406.5" y="-743.3" font-family="Times-Roman" font-size="14.00">sorry</text>
</g>
<!-- It was&#45;&gt;sorry -->
<g id="edge21" class="edge">
<title>It was&#45;&gt;sorry</title>
<path fill="none" stroke="black" d="M175.6,-771.06C222.64,-766.14 317.27,-756.23 369.26,-750.79"/>
<polygon fill="black" stroke="black" points="369.78,-754.26 379.36,-749.74 369.05,-747.3 369.78,-754.26"/>
</g>
<!-- when it was over. -->
<g id="node29" class="node">
<title>when it was over.</title>
<path fill="#f5f5f5" stroke="black" d="M645,-792C645,-792 532,-792 532,-792 526,-792 520,-786 520,-780 520,-780 520,-768 520,-768 520,-762 526,-756 532,-756 532,-756 645,-756 645,-756 651,-756 657,-762 657,-768 657,-768 657,-780 657,-780 657,-786 651,-792 645,-792"/>
<text text-anchor="middle" x="588.5" y="-770.3" font-family="Times-Roman" font-size="14.00">when it was over.</text>
</g>
<!-- glad&#45;&gt;when it was over. -->
<g id="edge22" class="edge">
<title>glad&#45;&gt;when it was over.</title>
<path fill="none" stroke="black" d="M433.67,-797.07C453.73,-794.06 482.51,-789.75 509.76,-785.66"/>
<polygon fill="black" stroke="black" points="510.34,-789.11 519.71,-784.17 509.3,-782.19 510.34,-789.11"/>
</g>
<!-- sorry&#45;&gt;when it was over. -->
<g id="edge23" class="edge">
<title>sorry&#45;&gt;when it was over.</title>
<path fill="none" stroke="black" d="M433.67,-750.93C453.73,-753.94 482.51,-758.25 509.76,-762.34"/>
<polygon fill="black" stroke="black" points="509.3,-765.81 519.71,-763.83 510.34,-758.89 509.3,-765.81"/>
</g>
</g>
</svg>
