<?xml version="1.0" encoding="UTF-8" standalone="no"?>
<!DOCTYPE svg PUBLIC "-//W3C//DTD SVG 1.1//EN"
 "http://www.w3.org/Graphics/SVG/1.1/DTD/svg11.dtd">
<!-- Generated by graphviz version 2.44.0 (0)
 -->
<!-- Pages: 1 -->
<svg width="429pt" height="152pt"
 viewBox="0.00 0.00 429.00 152.00" xmlns="http://www.w3.org/2000/svg" xmlns:xlink="http://www.w3.org/1999/xlink">
<g id="graph0" class="graph" transform="scale(1 1) rotate(0) translate(4 148)">
<polygon fill="white" stroke="transparent" points="-4,4 -4,-148 425,-148 425,4 -4,4"/>
<!-- What -->
<g id="node1" class="node">
<title>What</title>
<path fill="#f5f5f5" stroke="black" d="M45.5,-36C45.5,-36 15.5,-36 15.5,-36 9.5,-36 3.5,-30 3.5,-24 3.5,-24 3.5,-12 3.5,-12 3.5,-6 9.5,0 15.5,0 15.5,0 45.5,0 45.5,0 51.5,0 57.5,-6 57.5,-12 57.5,-12 57.5,-24 57.5,-24 57.5,-30 51.5,-36 45.5,-36"/>
<text text-anchor="middle" x="30.5" y="-14.3" font-family="Times-Roman" font-size="14.00">What</text>
</g>
<!-- am -->
<g id="node2" class="node">
<title>am</title>
<path fill="#f5f5f5" stroke="black" d="M139,-36C139,-36 109,-36 109,-36 103,-36 97,-30 97,-24 97,-24 97,-12 97,-12 97,-6 103,0 109,0 109,0 139,0 139,0 145,0 151,-6 151,-12 151,-12 151,-24 151,-24 151,-30 145,-36 139,-36"/>
<text text-anchor="middle" x="124" y="-14.3" font-family="Times-Roman" font-size="14.00">am</text>
</g>
<!-- What&#45;&gt;am -->
<g id="edge1" class="edge">
<title>What&#45;&gt;am</title>
<path fill="none" stroke="black" d="M57.97,-18C66.96,-18 77.17,-18 86.79,-18"/>
<polygon fill="black" stroke="black" points="86.91,-21.5 96.91,-18 86.91,-14.5 86.91,-21.5"/>
</g>
<!-- I -->
<g id="node3" class="node">
<title>I</title>
<path fill="#f5f5f5" stroke="black" d="M261.5,-36C261.5,-36 231.5,-36 231.5,-36 225.5,-36 219.5,-30 219.5,-24 219.5,-24 219.5,-12 219.5,-12 219.5,-6 225.5,0 231.5,0 231.5,0 261.5,0 261.5,0 267.5,0 273.5,-6 273.5,-12 273.5,-12 273.5,-24 273.5,-24 273.5,-30 267.5,-36 261.5,-36"/>
<text text-anchor="middle" x="246.5" y="-14.3" font-family="Times-Roman" font-size="14.00">I</text>
</g>
<!-- am&#45;&gt;I -->
<g id="edge2" class="edge">
<title>am&#45;&gt;I</title>
<path fill="none" stroke="black" d="M151.15,-18C168.12,-18 190.48,-18 209.17,-18"/>
<polygon fill="black" stroke="black" points="209.4,-21.5 219.4,-18 209.4,-14.5 209.4,-21.5"/>
</g>
<!-- doing? -->
<g id="node4" class="node">
<title>doing?</title>
<path fill="#f5f5f5" stroke="black" d="M401,-36C401,-36 362,-36 362,-36 356,-36 350,-30 350,-24 350,-24 350,-12 350,-12 350,-6 356,0 362,0 362,0 401,0 401,0 407,0 413,-6 413,-12 413,-12 413,-24 413,-24 413,-30 407,-36 401,-36"/>
<text text-anchor="middle" x="381.5" y="-14.3" font-family="Times-Roman" font-size="14.00">doing?</text>
</g>
<!-- I&#45;&gt;doing? -->
<g id="edge3" class="edge">
<title>I&#45;&gt;doing?</title>
<path fill="none" stroke="black" d="M273.78,-18C292.51,-18 318.07,-18 339.48,-18"/>
<polygon fill="black" stroke="black" points="339.61,-21.5 349.61,-18 339.61,-14.5 339.61,-21.5"/>
</g>
<!-- Where -->
<g id="node5" class="node">
<title>Where</title>
<path fill="#f5f5f5" stroke="black" d="M49,-90C49,-90 12,-90 12,-90 6,-90 0,-84 0,-78 0,-78 0,-66 0,-66 0,-60 6,-54 12,-54 12,-54 49,-54 49,-54 55,-54 61,-60 61,-66 61,-66 61,-78 61,-78 61,-84 55,-90 49,-90"/>
<text text-anchor="middle" x="30.5" y="-68.3" font-family="Times-Roman" font-size="14.00">Where</text>
</g>
<!-- is -->
<g id="node6" class="node">
<title>is</title>
<path fill="#f5f5f5" stroke="black" d="M139,-90C139,-90 109,-90 109,-90 103,-90 97,-84 97,-78 97,-78 97,-66 97,-66 97,-60 103,-54 109,-54 109,-54 139,-54 139,-54 145,-54 151,-60 151,-66 151,-66 151,-78 151,-78 151,-84 145,-90 139,-90"/>
<text text-anchor="middle" x="124" y="-68.3" font-family="Times-Roman" font-size="14.00">is</text>
</g>
<!-- Where&#45;&gt;is -->
<g id="edge4" class="edge">
<title>Where&#45;&gt;is</title>
<path fill="none" stroke="black" d="M61.21,-72C69.37,-72 78.31,-72 86.79,-72"/>
<polygon fill="black" stroke="black" points="86.83,-75.5 96.83,-72 86.83,-68.5 86.83,-75.5"/>
</g>
<!-- he / she / it -->
<g id="node7" class="node">
<title>he / she / it</title>
<path fill="#f5f5f5" stroke="black" d="M282,-90C282,-90 211,-90 211,-90 205,-90 199,-84 199,-78 199,-78 199,-66 199,-66 199,-60 205,-54 211,-54 211,-54 282,-54 282,-54 288,-54 294,-60 294,-66 294,-66 294,-78 294,-78 294,-84 288,-90 282,-90"/>
<text text-anchor="middle" x="246.5" y="-68.3" font-family="Times-Roman" font-size="14.00">he / she / it</text>
</g>
<!-- is&#45;&gt;he / she / it -->
<g id="edge5" class="edge">
<title>is&#45;&gt;he / she / it</title>
<path fill="none" stroke="black" d="M151.15,-72C162.29,-72 175.75,-72 188.97,-72"/>
<polygon fill="black" stroke="black" points="189,-75.5 199,-72 189,-68.5 189,-75.5"/>
</g>
<!-- going? -->
<g id="node8" class="node">
<title>going?</title>
<path fill="#f5f5f5" stroke="black" d="M401,-90C401,-90 362,-90 362,-90 356,-90 350,-84 350,-78 350,-78 350,-66 350,-66 350,-60 356,-54 362,-54 362,-54 401,-54 401,-54 407,-54 413,-60 413,-66 413,-66 413,-78 413,-78 413,-84 407,-90 401,-90"/>
<text text-anchor="middle" x="381.5" y="-68.3" font-family="Times-Roman" font-size="14.00">going?</text>
</g>
<!-- he / she / it&#45;&gt;going? -->
<g id="edge6" class="edge">
<title>he / she / it&#45;&gt;going?</title>
<path fill="none" stroke="black" d="M294.02,-72C308.85,-72 325.14,-72 339.54,-72"/>
<polygon fill="black" stroke="black" points="339.65,-75.5 349.65,-72 339.65,-68.5 339.65,-75.5"/>
</g>
<!-- Why -->
<g id="node9" class="node">
<title>Why</title>
<path fill="#f5f5f5" stroke="black" d="M45.5,-144C45.5,-144 15.5,-144 15.5,-144 9.5,-144 3.5,-138 3.5,-132 3.5,-132 3.5,-120 3.5,-120 3.5,-114 9.5,-108 15.5,-108 15.5,-108 45.5,-108 45.5,-108 51.5,-108 57.5,-114 57.5,-120 57.5,-120 57.5,-132 57.5,-132 57.5,-138 51.5,-144 45.5,-144"/>
<text text-anchor="middle" x="30.5" y="-122.3" font-family="Times-Roman" font-size="14.00">Why</text>
</g>
<!-- are -->
<g id="node10" class="node">
<title>are</title>
<path fill="#f5f5f5" stroke="black" d="M139,-144C139,-144 109,-144 109,-144 103,-144 97,-138 97,-132 97,-132 97,-120 97,-120 97,-114 103,-108 109,-108 109,-108 139,-108 139,-108 145,-108 151,-114 151,-120 151,-120 151,-132 151,-132 151,-138 145,-144 139,-144"/>
<text text-anchor="middle" x="124" y="-122.3" font-family="Times-Roman" font-size="14.00">are</text>
</g>
<!-- Why&#45;&gt;are -->
<g id="edge7" class="edge">
<title>Why&#45;&gt;are</title>
<path fill="none" stroke="black" d="M57.97,-126C66.96,-126 77.17,-126 86.79,-126"/>
<polygon fill="black" stroke="black" points="86.91,-129.5 96.91,-126 86.91,-122.5 86.91,-129.5"/>
</g>
<!-- we / you / they -->
<g id="node11" class="node">
<title>we / you / they</title>
<path fill="#f5f5f5" stroke="black" d="M294,-144C294,-144 199,-144 199,-144 193,-144 187,-138 187,-132 187,-132 187,-120 187,-120 187,-114 193,-108 199,-108 199,-108 294,-108 294,-108 300,-108 306,-114 306,-120 306,-120 306,-132 306,-132 306,-138 300,-144 294,-144"/>
<text text-anchor="middle" x="246.5" y="-122.3" font-family="Times-Roman" font-size="14.00">we / you / they</text>
</g>
<!-- are&#45;&gt;we / you / they -->
<g id="edge8" class="edge">
<title>are&#45;&gt;we / you / they</title>
<path fill="none" stroke="black" d="M151.15,-126C158.79,-126 167.53,-126 176.53,-126"/>
<polygon fill="black" stroke="black" points="176.76,-129.5 186.76,-126 176.76,-122.5 176.76,-129.5"/>
</g>
<!-- running? -->
<g id="node12" class="node">
<title>running?</title>
<path fill="#f5f5f5" stroke="black" d="M409,-144C409,-144 354,-144 354,-144 348,-144 342,-138 342,-132 342,-132 342,-120 342,-120 342,-114 348,-108 354,-108 354,-108 409,-108 409,-108 415,-108 421,-114 421,-120 421,-120 421,-132 421,-132 421,-138 415,-144 409,-144"/>
<text text-anchor="middle" x="381.5" y="-122.3" font-family="Times-Roman" font-size="14.00">running?</text>
</g>
<!-- we / you / they&#45;&gt;running? -->
<g id="edge9" class="edge">
<title>we / you / they&#45;&gt;running?</title>
<path fill="none" stroke="black" d="M306.22,-126C314.74,-126 323.42,-126 331.71,-126"/>
<polygon fill="black" stroke="black" points="331.96,-129.5 341.96,-126 331.96,-122.5 331.96,-129.5"/>
</g>
</g>
</svg>
