<?xml version="1.0" encoding="UTF-8" standalone="no"?>
<!DOCTYPE svg PUBLIC "-//W3C//DTD SVG 1.1//EN"
 "http://www.w3.org/Graphics/SVG/1.1/DTD/svg11.dtd">
<!-- Generated by graphviz version 2.44.0 (0)
 -->
<!-- Pages: 1 -->
<svg width="356pt" height="152pt"
 viewBox="0.00 0.00 356.00 152.00" xmlns="http://www.w3.org/2000/svg" xmlns:xlink="http://www.w3.org/1999/xlink">
<g id="graph0" class="graph" transform="scale(1 1) rotate(0) translate(4 148)">
<polygon fill="white" stroke="transparent" points="-4,4 -4,-148 352,-148 352,4 -4,4"/>
<!-- Am -->
<g id="node1" class="node">
<title>Am</title>
<path fill="#f5f5f5" stroke="black" d="M42,-144C42,-144 12,-144 12,-144 6,-144 0,-138 0,-132 0,-132 0,-120 0,-120 0,-114 6,-108 12,-108 12,-108 42,-108 42,-108 48,-108 54,-114 54,-120 54,-120 54,-132 54,-132 54,-138 48,-144 42,-144"/>
<text text-anchor="middle" x="27" y="-122.3" font-family="Times-Roman" font-size="14.00">Am</text>
</g>
<!-- I -->
<g id="node2" class="node">
<title>I</title>
<path fill="#f5f5f5" stroke="black" d="M164.5,-144C164.5,-144 134.5,-144 134.5,-144 128.5,-144 122.5,-138 122.5,-132 122.5,-132 122.5,-120 122.5,-120 122.5,-114 128.5,-108 134.5,-108 134.5,-108 164.5,-108 164.5,-108 170.5,-108 176.5,-114 176.5,-120 176.5,-120 176.5,-132 176.5,-132 176.5,-138 170.5,-144 164.5,-144"/>
<text text-anchor="middle" x="149.5" y="-122.3" font-family="Times-Roman" font-size="14.00">I</text>
</g>
<!-- Am&#45;&gt;I -->
<g id="edge1" class="edge">
<title>Am&#45;&gt;I</title>
<path fill="none" stroke="black" d="M54.15,-126C71.12,-126 93.48,-126 112.17,-126"/>
<polygon fill="black" stroke="black" points="112.4,-129.5 122.4,-126 112.4,-122.5 112.4,-129.5"/>
</g>
<!-- sitting here? -->
<g id="node3" class="node">
<title>sitting here?</title>
<path fill="#f5f5f5" stroke="black" d="M336,-90C336,-90 257,-90 257,-90 251,-90 245,-84 245,-78 245,-78 245,-66 245,-66 245,-60 251,-54 257,-54 257,-54 336,-54 336,-54 342,-54 348,-60 348,-66 348,-66 348,-78 348,-78 348,-84 342,-90 336,-90"/>
<text text-anchor="middle" x="296.5" y="-68.3" font-family="Times-Roman" font-size="14.00">sitting here?</text>
</g>
<!-- I&#45;&gt;sitting here? -->
<g id="edge2" class="edge">
<title>I&#45;&gt;sitting here?</title>
<path fill="none" stroke="black" d="M176.76,-116.22C193.74,-109.9 216.54,-101.41 237.62,-93.56"/>
<polygon fill="black" stroke="black" points="239,-96.77 247.15,-90 236.56,-90.21 239,-96.77"/>
</g>
<!-- Is -->
<g id="node4" class="node">
<title>Is</title>
<path fill="#f5f5f5" stroke="black" d="M42,-90C42,-90 12,-90 12,-90 6,-90 0,-84 0,-78 0,-78 0,-66 0,-66 0,-60 6,-54 12,-54 12,-54 42,-54 42,-54 48,-54 54,-60 54,-66 54,-66 54,-78 54,-78 54,-84 48,-90 42,-90"/>
<text text-anchor="middle" x="27" y="-68.3" font-family="Times-Roman" font-size="14.00">Is</text>
</g>
<!-- he / she / it -->
<g id="node5" class="node">
<title>he / she / it</title>
<path fill="#f5f5f5" stroke="black" d="M185,-90C185,-90 114,-90 114,-90 108,-90 102,-84 102,-78 102,-78 102,-66 102,-66 102,-60 108,-54 114,-54 114,-54 185,-54 185,-54 191,-54 197,-60 197,-66 197,-66 197,-78 197,-78 197,-84 191,-90 185,-90"/>
<text text-anchor="middle" x="149.5" y="-68.3" font-family="Times-Roman" font-size="14.00">he / she / it</text>
</g>
<!-- Is&#45;&gt;he / she / it -->
<g id="edge3" class="edge">
<title>Is&#45;&gt;he / she / it</title>
<path fill="none" stroke="black" d="M54.15,-72C65.29,-72 78.75,-72 91.97,-72"/>
<polygon fill="black" stroke="black" points="92,-75.5 102,-72 92,-68.5 92,-75.5"/>
</g>
<!-- he / she / it&#45;&gt;sitting here? -->
<g id="edge4" class="edge">
<title>he / she / it&#45;&gt;sitting here?</title>
<path fill="none" stroke="black" d="M197.18,-72C209.08,-72 222.05,-72 234.55,-72"/>
<polygon fill="black" stroke="black" points="234.9,-75.5 244.9,-72 234.9,-68.5 234.9,-75.5"/>
</g>
<!-- Are -->
<g id="node6" class="node">
<title>Are</title>
<path fill="#f5f5f5" stroke="black" d="M42,-36C42,-36 12,-36 12,-36 6,-36 0,-30 0,-24 0,-24 0,-12 0,-12 0,-6 6,0 12,0 12,0 42,0 42,0 48,0 54,-6 54,-12 54,-12 54,-24 54,-24 54,-30 48,-36 42,-36"/>
<text text-anchor="middle" x="27" y="-14.3" font-family="Times-Roman" font-size="14.00">Are</text>
</g>
<!-- we / you / they -->
<g id="node7" class="node">
<title>we / you / they</title>
<path fill="#f5f5f5" stroke="black" d="M197,-36C197,-36 102,-36 102,-36 96,-36 90,-30 90,-24 90,-24 90,-12 90,-12 90,-6 96,0 102,0 102,0 197,0 197,0 203,0 209,-6 209,-12 209,-12 209,-24 209,-24 209,-30 203,-36 197,-36"/>
<text text-anchor="middle" x="149.5" y="-14.3" font-family="Times-Roman" font-size="14.00">we / you / they</text>
</g>
<!-- Are&#45;&gt;we / you / they -->
<g id="edge5" class="edge">
<title>Are&#45;&gt;we / you / they</title>
<path fill="none" stroke="black" d="M54.15,-18C61.79,-18 70.53,-18 79.53,-18"/>
<polygon fill="black" stroke="black" points="79.76,-21.5 89.76,-18 79.76,-14.5 79.76,-21.5"/>
</g>
<!-- we / you / they&#45;&gt;sitting here? -->
<g id="edge6" class="edge">
<title>we / you / they&#45;&gt;sitting here?</title>
<path fill="none" stroke="black" d="M199.19,-36.13C211.38,-40.67 224.59,-45.59 237.2,-50.29"/>
<polygon fill="black" stroke="black" points="236.1,-53.61 246.7,-53.82 238.55,-47.05 236.1,-53.61"/>
</g>
</g>
</svg>
