<?xml version="1.0" encoding="UTF-8" standalone="no"?>
<!DOCTYPE svg PUBLIC "-//W3C//DTD SVG 1.1//EN"
 "http://www.w3.org/Graphics/SVG/1.1/DTD/svg11.dtd">
<!-- Generated by graphviz version 2.44.0 (0)
 -->
<!-- Pages: 1 -->
<svg width="578pt" height="314pt"
 viewBox="0.00 0.00 578.00 314.00" xmlns="http://www.w3.org/2000/svg" xmlns:xlink="http://www.w3.org/1999/xlink">
<g id="graph0" class="graph" transform="scale(1 1) rotate(0) translate(4 310)">
<polygon fill="white" stroke="transparent" points="-4,4 -4,-310 574,-310 574,4 -4,4"/>
<!-- positive form -->
<g id="node1" class="node">
<title>positive form</title>
<path fill="#f5f5f5" stroke="black" d="M98,-181C98,-181 15,-181 15,-181 9,-181 3,-175 3,-169 3,-169 3,-157 3,-157 3,-151 9,-145 15,-145 15,-145 98,-145 98,-145 104,-145 110,-151 110,-157 110,-157 110,-169 110,-169 110,-175 104,-181 98,-181"/>
<text text-anchor="middle" x="56.5" y="-159.3" font-family="Times-Roman" font-size="14.00">positive form</text>
</g>
<!-- I -->
<g id="node2" class="node">
<title>I</title>
<path fill="#f5f5f5" stroke="black" d="M225,-241C225,-241 195,-241 195,-241 189,-241 183,-235 183,-229 183,-229 183,-217 183,-217 183,-211 189,-205 195,-205 195,-205 225,-205 225,-205 231,-205 237,-211 237,-217 237,-217 237,-229 237,-229 237,-235 231,-241 225,-241"/>
<text text-anchor="middle" x="210" y="-219.3" font-family="Times-Roman" font-size="14.00">I</text>
</g>
<!-- positive form&#45;&gt;I -->
<g id="edge1" class="edge">
<title>positive form&#45;&gt;I</title>
<path fill="none" stroke="black" d="M102.95,-181C125.53,-189.94 152.4,-200.58 173.44,-208.92"/>
<polygon fill="black" stroke="black" points="172.38,-212.26 182.96,-212.69 174.95,-205.75 172.38,-212.26"/>
</g>
<!-- He / She / It -->
<g id="node7" class="node">
<title>He / She / It</title>
<path fill="#f5f5f5" stroke="black" d="M247,-167C247,-167 173,-167 173,-167 167,-167 161,-161 161,-155 161,-155 161,-143 161,-143 161,-137 167,-131 173,-131 173,-131 247,-131 247,-131 253,-131 259,-137 259,-143 259,-143 259,-155 259,-155 259,-161 253,-167 247,-167"/>
<text text-anchor="middle" x="210" y="-145.3" font-family="Times-Roman" font-size="14.00">He / She / It</text>
</g>
<!-- positive form&#45;&gt;He / She / It -->
<g id="edge7" class="edge">
<title>positive form&#45;&gt;He / She / It</title>
<path fill="none" stroke="black" d="M110.06,-158.14C123.21,-156.93 137.38,-155.62 150.78,-154.38"/>
<polygon fill="black" stroke="black" points="151.21,-157.86 160.85,-153.45 150.57,-150.88 151.21,-157.86"/>
</g>
<!-- We / You / They -->
<g id="node10" class="node">
<title>We / You / They</title>
<path fill="#f5f5f5" stroke="black" d="M259,-100C259,-100 161,-100 161,-100 155,-100 149,-94 149,-88 149,-88 149,-76 149,-76 149,-70 155,-64 161,-64 161,-64 259,-64 259,-64 265,-64 271,-70 271,-76 271,-76 271,-88 271,-88 271,-94 265,-100 259,-100"/>
<text text-anchor="middle" x="210" y="-78.3" font-family="Times-Roman" font-size="14.00">We / You / They</text>
</g>
<!-- positive form&#45;&gt;We / You / They -->
<g id="edge13" class="edge">
<title>positive form&#45;&gt;We / You / They</title>
<path fill="none" stroke="black" d="M95.57,-144.85C101.43,-141.95 107.4,-138.93 113,-136 131.44,-126.34 151.55,-115.13 168.58,-105.44"/>
<polygon fill="black" stroke="black" points="170.75,-108.23 177.7,-100.23 167.28,-102.16 170.75,-108.23"/>
</g>
<!-- am / &#39;m -->
<g id="node3" class="node">
<title>am / &#39;m</title>
<path fill="#f5f5f5" stroke="black" d="M391,-306C391,-306 346,-306 346,-306 340,-306 334,-300 334,-294 334,-294 334,-282 334,-282 334,-276 340,-270 346,-270 346,-270 391,-270 391,-270 397,-270 403,-276 403,-282 403,-282 403,-294 403,-294 403,-300 397,-306 391,-306"/>
<text text-anchor="middle" x="368.5" y="-284.3" font-family="Times-Roman" font-size="14.00">am / &#39;m</text>
</g>
<!-- I&#45;&gt;am / &#39;m -->
<g id="edge2" class="edge">
<title>I&#45;&gt;am / &#39;m</title>
<path fill="none" stroke="black" d="M237.19,-233.88C260.94,-243.74 296.38,-258.46 324.3,-270.06"/>
<polygon fill="black" stroke="black" points="323.26,-273.42 333.84,-274.02 325.95,-266.95 323.26,-273.42"/>
</g>
<!-- am not / &#39;m not -->
<g id="node6" class="node">
<title>am not / &#39;m not</title>
<path fill="#f5f5f5" stroke="black" d="M418,-252C418,-252 319,-252 319,-252 313,-252 307,-246 307,-240 307,-240 307,-228 307,-228 307,-222 313,-216 319,-216 319,-216 418,-216 418,-216 424,-216 430,-222 430,-228 430,-228 430,-240 430,-240 430,-246 424,-252 418,-252"/>
<text text-anchor="middle" x="368.5" y="-230.3" font-family="Times-Roman" font-size="14.00">am not / &#39;m not</text>
</g>
<!-- I&#45;&gt;am not / &#39;m not -->
<g id="edge5" class="edge">
<title>I&#45;&gt;am not / &#39;m not</title>
<path fill="none" stroke="black" d="M237.19,-224.84C253.57,-225.99 275.51,-227.53 296.72,-229.02"/>
<polygon fill="black" stroke="black" points="296.49,-232.52 306.71,-229.73 296.98,-225.53 296.49,-232.52"/>
</g>
<!-- watching TV. -->
<g id="node4" class="node">
<title>watching TV.</title>
<path fill="#f5f5f5" stroke="black" d="M558,-171C558,-171 478,-171 478,-171 472,-171 466,-165 466,-159 466,-159 466,-147 466,-147 466,-141 472,-135 478,-135 478,-135 558,-135 558,-135 564,-135 570,-141 570,-147 570,-147 570,-159 570,-159 570,-165 564,-171 558,-171"/>
<text text-anchor="middle" x="518" y="-149.3" font-family="Times-Roman" font-size="14.00">watching TV.</text>
</g>
<!-- am / &#39;m&#45;&gt;watching TV. -->
<g id="edge3" class="edge">
<title>am / &#39;m&#45;&gt;watching TV.</title>
<path fill="none" stroke="black" d="M403.11,-276.36C412.33,-272.3 421.98,-267.18 430,-261 459.43,-238.34 484.99,-203.76 500.65,-179.86"/>
<polygon fill="black" stroke="black" points="503.71,-181.58 506.16,-171.28 497.81,-177.81 503.71,-181.58"/>
</g>
<!-- negative form -->
<g id="node5" class="node">
<title>negative form</title>
<path fill="#f5f5f5" stroke="black" d="M101,-127C101,-127 12,-127 12,-127 6,-127 0,-121 0,-115 0,-115 0,-103 0,-103 0,-97 6,-91 12,-91 12,-91 101,-91 101,-91 107,-91 113,-97 113,-103 113,-103 113,-115 113,-115 113,-121 107,-127 101,-127"/>
<text text-anchor="middle" x="56.5" y="-105.3" font-family="Times-Roman" font-size="14.00">negative form</text>
</g>
<!-- negative form&#45;&gt;I -->
<g id="edge4" class="edge">
<title>negative form&#45;&gt;I</title>
<path fill="none" stroke="black" d="M99.16,-127.05C103.99,-129.78 108.72,-132.78 113,-136 132.11,-150.39 131.52,-159.68 149,-176 157.37,-183.81 166.93,-191.71 175.93,-198.75"/>
<polygon fill="black" stroke="black" points="173.92,-201.62 183.98,-204.94 178.19,-196.07 173.92,-201.62"/>
</g>
<!-- negative form&#45;&gt;He / She / It -->
<g id="edge10" class="edge">
<title>negative form&#45;&gt;He / She / It</title>
<path fill="none" stroke="black" d="M113.05,-123.67C125.45,-126.94 138.62,-130.42 151.11,-133.71"/>
<polygon fill="black" stroke="black" points="150.38,-137.14 160.94,-136.31 152.17,-130.38 150.38,-137.14"/>
</g>
<!-- negative form&#45;&gt;We / You / They -->
<g id="edge16" class="edge">
<title>negative form&#45;&gt;We / You / They</title>
<path fill="none" stroke="black" d="M113.05,-99.1C121.43,-97.61 130.16,-96.05 138.8,-94.51"/>
<polygon fill="black" stroke="black" points="139.63,-97.92 148.86,-92.72 138.4,-91.03 139.63,-97.92"/>
</g>
<!-- am not / &#39;m not&#45;&gt;watching TV. -->
<g id="edge6" class="edge">
<title>am not / &#39;m not&#45;&gt;watching TV.</title>
<path fill="none" stroke="black" d="M411.84,-215.99C418,-213.11 424.21,-210.07 430,-207 447.2,-197.88 465.6,-186.68 481.03,-176.85"/>
<polygon fill="black" stroke="black" points="483.23,-179.6 489.74,-171.25 479.44,-173.71 483.23,-179.6"/>
</g>
<!-- is / &#39;s -->
<g id="node8" class="node">
<title>is / &#39;s</title>
<path fill="#f5f5f5" stroke="black" d="M383.5,-198C383.5,-198 353.5,-198 353.5,-198 347.5,-198 341.5,-192 341.5,-186 341.5,-186 341.5,-174 341.5,-174 341.5,-168 347.5,-162 353.5,-162 353.5,-162 383.5,-162 383.5,-162 389.5,-162 395.5,-168 395.5,-174 395.5,-174 395.5,-186 395.5,-186 395.5,-192 389.5,-198 383.5,-198"/>
<text text-anchor="middle" x="368.5" y="-176.3" font-family="Times-Roman" font-size="14.00">is / &#39;s</text>
</g>
<!-- He / She / It&#45;&gt;is / &#39;s -->
<g id="edge8" class="edge">
<title>He / She / It&#45;&gt;is / &#39;s</title>
<path fill="none" stroke="black" d="M259.23,-158.55C282.54,-163.17 310.04,-168.62 331.49,-172.87"/>
<polygon fill="black" stroke="black" points="331,-176.34 341.49,-174.85 332.36,-169.47 331,-176.34"/>
</g>
<!-- is not / &#39;s not -->
<g id="node9" class="node">
<title>is not / &#39;s not</title>
<path fill="#f5f5f5" stroke="black" d="M410,-144C410,-144 327,-144 327,-144 321,-144 315,-138 315,-132 315,-132 315,-120 315,-120 315,-114 321,-108 327,-108 327,-108 410,-108 410,-108 416,-108 422,-114 422,-120 422,-120 422,-132 422,-132 422,-138 416,-144 410,-144"/>
<text text-anchor="middle" x="368.5" y="-122.3" font-family="Times-Roman" font-size="14.00">is not / &#39;s not</text>
</g>
<!-- He / She / It&#45;&gt;is not / &#39;s not -->
<g id="edge11" class="edge">
<title>He / She / It&#45;&gt;is not / &#39;s not</title>
<path fill="none" stroke="black" d="M259.23,-141.91C273.53,-139.81 289.41,-137.48 304.51,-135.26"/>
<polygon fill="black" stroke="black" points="305.41,-138.66 314.8,-133.75 304.4,-131.74 305.41,-138.66"/>
</g>
<!-- is / &#39;s&#45;&gt;watching TV. -->
<g id="edge9" class="edge">
<title>is / &#39;s&#45;&gt;watching TV.</title>
<path fill="none" stroke="black" d="M395.53,-175.24C412.31,-172.16 434.86,-168.04 455.98,-164.17"/>
<polygon fill="black" stroke="black" points="456.67,-167.6 465.87,-162.36 455.41,-160.72 456.67,-167.6"/>
</g>
<!-- is not / &#39;s not&#45;&gt;watching TV. -->
<g id="edge12" class="edge">
<title>is not / &#39;s not&#45;&gt;watching TV.</title>
<path fill="none" stroke="black" d="M422.33,-135.67C433.09,-137.64 444.5,-139.73 455.53,-141.75"/>
<polygon fill="black" stroke="black" points="455.06,-145.22 465.52,-143.58 456.32,-138.33 455.06,-145.22"/>
</g>
<!-- are / &#39;re -->
<g id="node11" class="node">
<title>are / &#39;re</title>
<path fill="#f5f5f5" stroke="black" d="M391,-90C391,-90 346,-90 346,-90 340,-90 334,-84 334,-78 334,-78 334,-66 334,-66 334,-60 340,-54 346,-54 346,-54 391,-54 391,-54 397,-54 403,-60 403,-66 403,-66 403,-78 403,-78 403,-84 397,-90 391,-90"/>
<text text-anchor="middle" x="368.5" y="-68.3" font-family="Times-Roman" font-size="14.00">are / &#39;re</text>
</g>
<!-- We / You / They&#45;&gt;are / &#39;re -->
<g id="edge14" class="edge">
<title>We / You / They&#45;&gt;are / &#39;re</title>
<path fill="none" stroke="black" d="M271.06,-78.16C288.45,-77.05 307.12,-75.86 323.35,-74.82"/>
<polygon fill="black" stroke="black" points="323.87,-78.3 333.63,-74.16 323.42,-71.31 323.87,-78.3"/>
</g>
<!-- are not / &#39;re not -->
<g id="node12" class="node">
<title>are not / &#39;re not</title>
<path fill="#f5f5f5" stroke="black" d="M418,-36C418,-36 319,-36 319,-36 313,-36 307,-30 307,-24 307,-24 307,-12 307,-12 307,-6 313,0 319,0 319,0 418,0 418,0 424,0 430,-6 430,-12 430,-12 430,-24 430,-24 430,-30 424,-36 418,-36"/>
<text text-anchor="middle" x="368.5" y="-14.3" font-family="Times-Roman" font-size="14.00">are not / &#39;re not</text>
</g>
<!-- We / You / They&#45;&gt;are not / &#39;re not -->
<g id="edge17" class="edge">
<title>We / You / They&#45;&gt;are not / &#39;re not</title>
<path fill="none" stroke="black" d="M255.43,-63.83C273.6,-56.4 294.77,-47.74 313.8,-39.96"/>
<polygon fill="black" stroke="black" points="315.3,-43.13 323.23,-36.1 312.65,-36.65 315.3,-43.13"/>
</g>
<!-- are / &#39;re&#45;&gt;watching TV. -->
<g id="edge15" class="edge">
<title>are / &#39;re&#45;&gt;watching TV.</title>
<path fill="none" stroke="black" d="M403.17,-86.06C412.02,-90.01 421.46,-94.47 430,-99 447.2,-108.12 465.6,-119.32 481.03,-129.15"/>
<polygon fill="black" stroke="black" points="479.44,-132.29 489.74,-134.75 483.23,-126.4 479.44,-132.29"/>
</g>
<!-- are not / &#39;re not&#45;&gt;watching TV. -->
<g id="edge18" class="edge">
<title>are not / &#39;re not&#45;&gt;watching TV.</title>
<path fill="none" stroke="black" d="M416.07,-36.01C420.97,-38.7 425.72,-41.7 430,-45 459.43,-67.66 484.99,-102.24 500.65,-126.14"/>
<polygon fill="black" stroke="black" points="497.81,-128.19 506.16,-134.72 503.71,-124.42 497.81,-128.19"/>
</g>
</g>
</svg>
