<?xml version="1.0" encoding="UTF-8" standalone="no"?>
<!DOCTYPE svg PUBLIC "-//W3C//DTD SVG 1.1//EN"
 "http://www.w3.org/Graphics/SVG/1.1/DTD/svg11.dtd">
<!-- Generated by graphviz version 2.44.0 (0)
 -->
<!-- Pages: 1 -->
<svg width="429pt" height="314pt"
 viewBox="0.00 0.00 429.00 314.00" xmlns="http://www.w3.org/2000/svg" xmlns:xlink="http://www.w3.org/1999/xlink">
<g id="graph0" class="graph" transform="scale(1 1) rotate(0) translate(4 310)">
<polygon fill="white" stroke="transparent" points="-4,4 -4,-310 425,-310 425,4 -4,4"/>
<!-- I -->
<g id="node1" class="node">
<title>I</title>
<path fill="#f5f5f5" stroke="black" d="M76,-265C76,-265 46,-265 46,-265 40,-265 34,-259 34,-253 34,-253 34,-241 34,-241 34,-235 40,-229 46,-229 46,-229 76,-229 76,-229 82,-229 88,-235 88,-241 88,-241 88,-253 88,-253 88,-259 82,-265 76,-265"/>
<text text-anchor="middle" x="61" y="-243.3" font-family="Times-Roman" font-size="14.00">I</text>
</g>
<!-- am / &#39;m -->
<g id="node2" class="node">
<title>am / &#39;m</title>
<path fill="#f5f5f5" stroke="black" d="M242,-306C242,-306 197,-306 197,-306 191,-306 185,-300 185,-294 185,-294 185,-282 185,-282 185,-276 191,-270 197,-270 197,-270 242,-270 242,-270 248,-270 254,-276 254,-282 254,-282 254,-294 254,-294 254,-300 248,-306 242,-306"/>
<text text-anchor="middle" x="219.5" y="-284.3" font-family="Times-Roman" font-size="14.00">am / &#39;m</text>
</g>
<!-- I&#45;&gt;am / &#39;m -->
<g id="edge1" class="edge">
<title>I&#45;&gt;am / &#39;m</title>
<path fill="none" stroke="black" d="M88.19,-253.86C111.83,-260.05 147.07,-269.29 174.94,-276.59"/>
<polygon fill="black" stroke="black" points="174.28,-280.03 184.84,-279.18 176.05,-273.26 174.28,-280.03"/>
</g>
<!-- am not / &#39;m not -->
<g id="node4" class="node">
<title>am not / &#39;m not</title>
<path fill="#f5f5f5" stroke="black" d="M269,-252C269,-252 170,-252 170,-252 164,-252 158,-246 158,-240 158,-240 158,-228 158,-228 158,-222 164,-216 170,-216 170,-216 269,-216 269,-216 275,-216 281,-222 281,-228 281,-228 281,-240 281,-240 281,-246 275,-252 269,-252"/>
<text text-anchor="middle" x="219.5" y="-230.3" font-family="Times-Roman" font-size="14.00">am not / &#39;m not</text>
</g>
<!-- I&#45;&gt;am not / &#39;m not -->
<g id="edge3" class="edge">
<title>I&#45;&gt;am not / &#39;m not</title>
<path fill="none" stroke="black" d="M88.19,-244.82C104.57,-243.46 126.51,-241.64 147.72,-239.88"/>
<polygon fill="black" stroke="black" points="148.04,-243.37 157.71,-239.05 147.46,-236.39 148.04,-243.37"/>
</g>
<!-- watching TV. -->
<g id="node3" class="node">
<title>watching TV.</title>
<path fill="#f5f5f5" stroke="black" d="M409,-171C409,-171 329,-171 329,-171 323,-171 317,-165 317,-159 317,-159 317,-147 317,-147 317,-141 323,-135 329,-135 329,-135 409,-135 409,-135 415,-135 421,-141 421,-147 421,-147 421,-159 421,-159 421,-165 415,-171 409,-171"/>
<text text-anchor="middle" x="369" y="-149.3" font-family="Times-Roman" font-size="14.00">watching TV.</text>
</g>
<!-- am / &#39;m&#45;&gt;watching TV. -->
<g id="edge2" class="edge">
<title>am / &#39;m&#45;&gt;watching TV.</title>
<path fill="none" stroke="black" d="M254.11,-276.36C263.33,-272.3 272.98,-267.18 281,-261 310.43,-238.34 335.99,-203.76 351.65,-179.86"/>
<polygon fill="black" stroke="black" points="354.71,-181.58 357.16,-171.28 348.81,-177.81 354.71,-181.58"/>
</g>
<!-- am not / &#39;m not&#45;&gt;watching TV. -->
<g id="edge4" class="edge">
<title>am not / &#39;m not&#45;&gt;watching TV.</title>
<path fill="none" stroke="black" d="M262.84,-215.99C269,-213.11 275.21,-210.07 281,-207 298.2,-197.88 316.6,-186.68 332.03,-176.85"/>
<polygon fill="black" stroke="black" points="334.23,-179.6 340.74,-171.25 330.44,-173.71 334.23,-179.6"/>
</g>
<!-- He / She / It -->
<g id="node5" class="node">
<title>He / She / It</title>
<path fill="#f5f5f5" stroke="black" d="M98,-184C98,-184 24,-184 24,-184 18,-184 12,-178 12,-172 12,-172 12,-160 12,-160 12,-154 18,-148 24,-148 24,-148 98,-148 98,-148 104,-148 110,-154 110,-160 110,-160 110,-172 110,-172 110,-178 104,-184 98,-184"/>
<text text-anchor="middle" x="61" y="-162.3" font-family="Times-Roman" font-size="14.00">He / She / It</text>
</g>
<!-- is / &#39;s -->
<g id="node6" class="node">
<title>is / &#39;s</title>
<path fill="#f5f5f5" stroke="black" d="M234.5,-198C234.5,-198 204.5,-198 204.5,-198 198.5,-198 192.5,-192 192.5,-186 192.5,-186 192.5,-174 192.5,-174 192.5,-168 198.5,-162 204.5,-162 204.5,-162 234.5,-162 234.5,-162 240.5,-162 246.5,-168 246.5,-174 246.5,-174 246.5,-186 246.5,-186 246.5,-192 240.5,-198 234.5,-198"/>
<text text-anchor="middle" x="219.5" y="-176.3" font-family="Times-Roman" font-size="14.00">is / &#39;s</text>
</g>
<!-- He / She / It&#45;&gt;is / &#39;s -->
<g id="edge5" class="edge">
<title>He / She / It&#45;&gt;is / &#39;s</title>
<path fill="none" stroke="black" d="M110.23,-170.31C133.54,-172.4 161.04,-174.86 182.49,-176.78"/>
<polygon fill="black" stroke="black" points="182.22,-180.27 192.49,-177.67 182.84,-173.3 182.22,-180.27"/>
</g>
<!-- is not / &#39;s not -->
<g id="node7" class="node">
<title>is not / &#39;s not</title>
<path fill="#f5f5f5" stroke="black" d="M261,-144C261,-144 178,-144 178,-144 172,-144 166,-138 166,-132 166,-132 166,-120 166,-120 166,-114 172,-108 178,-108 178,-108 261,-108 261,-108 267,-108 273,-114 273,-120 273,-120 273,-132 273,-132 273,-138 267,-144 261,-144"/>
<text text-anchor="middle" x="219.5" y="-122.3" font-family="Times-Roman" font-size="14.00">is not / &#39;s not</text>
</g>
<!-- He / She / It&#45;&gt;is not / &#39;s not -->
<g id="edge7" class="edge">
<title>He / She / It&#45;&gt;is not / &#39;s not</title>
<path fill="none" stroke="black" d="M110.23,-153.67C124.67,-149.98 140.72,-145.88 155.94,-141.99"/>
<polygon fill="black" stroke="black" points="156.98,-145.34 165.8,-139.47 155.24,-138.56 156.98,-145.34"/>
</g>
<!-- is / &#39;s&#45;&gt;watching TV. -->
<g id="edge6" class="edge">
<title>is / &#39;s&#45;&gt;watching TV.</title>
<path fill="none" stroke="black" d="M246.53,-175.24C263.31,-172.16 285.86,-168.04 306.98,-164.17"/>
<polygon fill="black" stroke="black" points="307.67,-167.6 316.87,-162.36 306.41,-160.72 307.67,-167.6"/>
</g>
<!-- is not / &#39;s not&#45;&gt;watching TV. -->
<g id="edge8" class="edge">
<title>is not / &#39;s not&#45;&gt;watching TV.</title>
<path fill="none" stroke="black" d="M273.33,-135.67C284.09,-137.64 295.5,-139.73 306.53,-141.75"/>
<polygon fill="black" stroke="black" points="306.06,-145.22 316.52,-143.58 307.32,-138.33 306.06,-145.22"/>
</g>
<!-- We / You / They -->
<g id="node8" class="node">
<title>We / You / They</title>
<path fill="#f5f5f5" stroke="black" d="M110,-63C110,-63 12,-63 12,-63 6,-63 0,-57 0,-51 0,-51 0,-39 0,-39 0,-33 6,-27 12,-27 12,-27 110,-27 110,-27 116,-27 122,-33 122,-39 122,-39 122,-51 122,-51 122,-57 116,-63 110,-63"/>
<text text-anchor="middle" x="61" y="-41.3" font-family="Times-Roman" font-size="14.00">We / You / They</text>
</g>
<!-- are / &#39;re -->
<g id="node9" class="node">
<title>are / &#39;re</title>
<path fill="#f5f5f5" stroke="black" d="M242,-90C242,-90 197,-90 197,-90 191,-90 185,-84 185,-78 185,-78 185,-66 185,-66 185,-60 191,-54 197,-54 197,-54 242,-54 242,-54 248,-54 254,-60 254,-66 254,-66 254,-78 254,-78 254,-84 248,-90 242,-90"/>
<text text-anchor="middle" x="219.5" y="-68.3" font-family="Times-Roman" font-size="14.00">are / &#39;re</text>
</g>
<!-- We / You / They&#45;&gt;are / &#39;re -->
<g id="edge9" class="edge">
<title>We / You / They&#45;&gt;are / &#39;re</title>
<path fill="none" stroke="black" d="M122.06,-55.36C139.45,-58.36 158.12,-61.58 174.35,-64.38"/>
<polygon fill="black" stroke="black" points="174.18,-67.9 184.63,-66.16 175.37,-61.01 174.18,-67.9"/>
</g>
<!-- are not / &#39;re not -->
<g id="node10" class="node">
<title>are not / &#39;re not</title>
<path fill="#f5f5f5" stroke="black" d="M269,-36C269,-36 170,-36 170,-36 164,-36 158,-30 158,-24 158,-24 158,-12 158,-12 158,-6 164,0 170,0 170,0 269,0 269,0 275,0 281,-6 281,-12 281,-12 281,-24 281,-24 281,-30 275,-36 269,-36"/>
<text text-anchor="middle" x="219.5" y="-14.3" font-family="Times-Roman" font-size="14.00">are not / &#39;re not</text>
</g>
<!-- We / You / They&#45;&gt;are not / &#39;re not -->
<g id="edge11" class="edge">
<title>We / You / They&#45;&gt;are not / &#39;re not</title>
<path fill="none" stroke="black" d="M122.06,-34.64C130.49,-33.18 139.21,-31.68 147.81,-30.2"/>
<polygon fill="black" stroke="black" points="148.57,-33.62 157.83,-28.47 147.38,-26.72 148.57,-33.62"/>
</g>
<!-- are / &#39;re&#45;&gt;watching TV. -->
<g id="edge10" class="edge">
<title>are / &#39;re&#45;&gt;watching TV.</title>
<path fill="none" stroke="black" d="M254.17,-86.06C263.02,-90.01 272.46,-94.47 281,-99 298.2,-108.12 316.6,-119.32 332.03,-129.15"/>
<polygon fill="black" stroke="black" points="330.44,-132.29 340.74,-134.75 334.23,-126.4 330.44,-132.29"/>
</g>
<!-- are not / &#39;re not&#45;&gt;watching TV. -->
<g id="edge12" class="edge">
<title>are not / &#39;re not&#45;&gt;watching TV.</title>
<path fill="none" stroke="black" d="M267.07,-36.01C271.97,-38.7 276.72,-41.7 281,-45 310.43,-67.66 335.99,-102.24 351.65,-126.14"/>
<polygon fill="black" stroke="black" points="348.81,-128.19 357.16,-134.72 354.71,-124.42 348.81,-128.19"/>
</g>
</g>
</svg>
