<?xml version="1.0" encoding="UTF-8" standalone="no"?>
<!DOCTYPE svg PUBLIC "-//W3C//DTD SVG 1.1//EN"
 "http://www.w3.org/Graphics/SVG/1.1/DTD/svg11.dtd">
<!-- Generated by graphviz version 2.44.0 (0)
 -->
<!-- Pages: 1 -->
<svg width="854pt" height="116pt"
 viewBox="0.00 0.00 854.00 116.00" xmlns="http://www.w3.org/2000/svg" xmlns:xlink="http://www.w3.org/1999/xlink">
<g id="graph0" class="graph" transform="scale(1 1) rotate(0) translate(4 112)">
<polygon fill="white" stroke="transparent" points="-4,4 -4,-112 850,-112 850,4 -4,4"/>
<!-- look -->
<g id="node1" class="node">
<title>look</title>
<path fill="#f5f5f5" stroke="black" d="M186,-108C186,-108 156,-108 156,-108 150,-108 144,-102 144,-96 144,-96 144,-84 144,-84 144,-78 150,-72 156,-72 156,-72 186,-72 186,-72 192,-72 198,-78 198,-84 198,-84 198,-96 198,-96 198,-102 192,-108 186,-108"/>
<text text-anchor="middle" x="171" y="-86.3" font-family="Times-Roman" font-size="14.00">look</text>
</g>
<!-- for -->
<g id="node4" class="node">
<title>for</title>
<path fill="#f5f5f5" stroke="black" d="M114,-36C114,-36 84,-36 84,-36 78,-36 72,-30 72,-24 72,-24 72,-12 72,-12 72,-6 78,0 84,0 84,0 114,0 114,0 120,0 126,-6 126,-12 126,-12 126,-24 126,-24 126,-30 120,-36 114,-36"/>
<text text-anchor="middle" x="99" y="-14.3" font-family="Times-Roman" font-size="14.00">for</text>
</g>
<!-- look&#45;&gt;for -->
<g id="edge1" class="edge">
<title>look&#45;&gt;for</title>
<path fill="none" stroke="black" d="M153.2,-71.7C144.4,-63.14 133.62,-52.66 124,-43.3"/>
<polygon fill="black" stroke="black" points="126.2,-40.57 116.59,-36.1 121.32,-45.58 126.2,-40.57"/>
</g>
<!-- at -->
<g id="node17" class="node">
<title>at</title>
<path fill="#f5f5f5" stroke="black" d="M186,-36C186,-36 156,-36 156,-36 150,-36 144,-30 144,-24 144,-24 144,-12 144,-12 144,-6 150,0 156,0 156,0 186,0 186,0 192,0 198,-6 198,-12 198,-12 198,-24 198,-24 198,-30 192,-36 186,-36"/>
<text text-anchor="middle" x="171" y="-14.3" font-family="Times-Roman" font-size="14.00">at</text>
</g>
<!-- look&#45;&gt;at -->
<g id="edge13" class="edge">
<title>look&#45;&gt;at</title>
<path fill="none" stroke="black" d="M171,-71.7C171,-63.98 171,-54.71 171,-46.11"/>
<polygon fill="black" stroke="black" points="174.5,-46.1 171,-36.1 167.5,-46.1 174.5,-46.1"/>
</g>
<!-- ask -->
<g id="node2" class="node">
<title>ask</title>
<path fill="#f5f5f5" stroke="black" d="M42,-108C42,-108 12,-108 12,-108 6,-108 0,-102 0,-96 0,-96 0,-84 0,-84 0,-78 6,-72 12,-72 12,-72 42,-72 42,-72 48,-72 54,-78 54,-84 54,-84 54,-96 54,-96 54,-102 48,-108 42,-108"/>
<text text-anchor="middle" x="27" y="-86.3" font-family="Times-Roman" font-size="14.00">ask</text>
</g>
<!-- ask&#45;&gt;for -->
<g id="edge2" class="edge">
<title>ask&#45;&gt;for</title>
<path fill="none" stroke="black" d="M44.8,-71.7C53.6,-63.14 64.38,-52.66 74,-43.3"/>
<polygon fill="black" stroke="black" points="76.68,-45.58 81.41,-36.1 71.8,-40.57 76.68,-45.58"/>
</g>
<!-- wait -->
<g id="node3" class="node">
<title>wait</title>
<path fill="#f5f5f5" stroke="black" d="M114,-108C114,-108 84,-108 84,-108 78,-108 72,-102 72,-96 72,-96 72,-84 72,-84 72,-78 78,-72 84,-72 84,-72 114,-72 114,-72 120,-72 126,-78 126,-84 126,-84 126,-96 126,-96 126,-102 120,-108 114,-108"/>
<text text-anchor="middle" x="99" y="-86.3" font-family="Times-Roman" font-size="14.00">wait</text>
</g>
<!-- wait&#45;&gt;for -->
<g id="edge3" class="edge">
<title>wait&#45;&gt;for</title>
<path fill="none" stroke="black" d="M99,-71.7C99,-63.98 99,-54.71 99,-46.11"/>
<polygon fill="black" stroke="black" points="102.5,-46.1 99,-36.1 95.5,-46.1 102.5,-46.1"/>
</g>
<!-- talk -->
<g id="node5" class="node">
<title>talk</title>
<path fill="#f5f5f5" stroke="black" d="M258,-108C258,-108 228,-108 228,-108 222,-108 216,-102 216,-96 216,-96 216,-84 216,-84 216,-78 222,-72 228,-72 228,-72 258,-72 258,-72 264,-72 270,-78 270,-84 270,-84 270,-96 270,-96 270,-102 264,-108 258,-108"/>
<text text-anchor="middle" x="243" y="-86.3" font-family="Times-Roman" font-size="14.00">talk</text>
</g>
<!-- with -->
<g id="node6" class="node">
<title>with</title>
<path fill="#f5f5f5" stroke="black" d="M258,-36C258,-36 228,-36 228,-36 222,-36 216,-30 216,-24 216,-24 216,-12 216,-12 216,-6 222,0 228,0 228,0 258,0 258,0 264,0 270,-6 270,-12 270,-12 270,-24 270,-24 270,-30 264,-36 258,-36"/>
<text text-anchor="middle" x="243" y="-14.3" font-family="Times-Roman" font-size="14.00">with</text>
</g>
<!-- talk&#45;&gt;with -->
<g id="edge4" class="edge">
<title>talk&#45;&gt;with</title>
<path fill="none" stroke="black" d="M243,-71.7C243,-63.98 243,-54.71 243,-46.11"/>
<polygon fill="black" stroke="black" points="246.5,-46.1 243,-36.1 239.5,-46.1 246.5,-46.1"/>
</g>
<!-- about -->
<g id="node13" class="node">
<title>about</title>
<path fill="#f5f5f5" stroke="black" d="M367,-36C367,-36 335,-36 335,-36 329,-36 323,-30 323,-24 323,-24 323,-12 323,-12 323,-6 329,0 335,0 335,0 367,0 367,0 373,0 379,-6 379,-12 379,-12 379,-24 379,-24 379,-30 373,-36 367,-36"/>
<text text-anchor="middle" x="351" y="-14.3" font-family="Times-Roman" font-size="14.00">about</text>
</g>
<!-- talk&#45;&gt;about -->
<g id="edge7" class="edge">
<title>talk&#45;&gt;about</title>
<path fill="none" stroke="black" d="M269.42,-71.88C283.41,-62.81 300.78,-51.55 315.89,-41.76"/>
<polygon fill="black" stroke="black" points="317.99,-44.57 324.48,-36.19 314.18,-38.69 317.99,-44.57"/>
</g>
<!-- live -->
<g id="node7" class="node">
<title>live</title>
<path fill="#f5f5f5" stroke="black" d="M546,-108C546,-108 516,-108 516,-108 510,-108 504,-102 504,-96 504,-96 504,-84 504,-84 504,-78 510,-72 516,-72 516,-72 546,-72 546,-72 552,-72 558,-78 558,-84 558,-84 558,-96 558,-96 558,-102 552,-108 546,-108"/>
<text text-anchor="middle" x="531" y="-86.3" font-family="Times-Roman" font-size="14.00">live</text>
</g>
<!-- in -->
<g id="node9" class="node">
<title>in</title>
<path fill="#f5f5f5" stroke="black" d="M582,-36C582,-36 552,-36 552,-36 546,-36 540,-30 540,-24 540,-24 540,-12 540,-12 540,-6 546,0 552,0 552,0 582,0 582,0 588,0 594,-6 594,-12 594,-12 594,-24 594,-24 594,-30 588,-36 582,-36"/>
<text text-anchor="middle" x="567" y="-14.3" font-family="Times-Roman" font-size="14.00">in</text>
</g>
<!-- live&#45;&gt;in -->
<g id="edge5" class="edge">
<title>live&#45;&gt;in</title>
<path fill="none" stroke="black" d="M539.9,-71.7C544,-63.73 548.95,-54.1 553.49,-45.26"/>
<polygon fill="black" stroke="black" points="556.74,-46.6 558.2,-36.1 550.52,-43.4 556.74,-46.6"/>
</g>
<!-- stay -->
<g id="node8" class="node">
<title>stay</title>
<path fill="#f5f5f5" stroke="black" d="M618,-108C618,-108 588,-108 588,-108 582,-108 576,-102 576,-96 576,-96 576,-84 576,-84 576,-78 582,-72 588,-72 588,-72 618,-72 618,-72 624,-72 630,-78 630,-84 630,-84 630,-96 630,-96 630,-102 624,-108 618,-108"/>
<text text-anchor="middle" x="603" y="-86.3" font-family="Times-Roman" font-size="14.00">stay</text>
</g>
<!-- stay&#45;&gt;in -->
<g id="edge6" class="edge">
<title>stay&#45;&gt;in</title>
<path fill="none" stroke="black" d="M594.1,-71.7C590,-63.73 585.05,-54.1 580.51,-45.26"/>
<polygon fill="black" stroke="black" points="583.48,-43.4 575.8,-36.1 577.26,-46.6 583.48,-43.4"/>
</g>
<!-- think -->
<g id="node10" class="node">
<title>think</title>
<path fill="#f5f5f5" stroke="black" d="M330,-108C330,-108 300,-108 300,-108 294,-108 288,-102 288,-96 288,-96 288,-84 288,-84 288,-78 294,-72 300,-72 300,-72 330,-72 330,-72 336,-72 342,-78 342,-84 342,-84 342,-96 342,-96 342,-102 336,-108 330,-108"/>
<text text-anchor="middle" x="315" y="-86.3" font-family="Times-Roman" font-size="14.00">think</text>
</g>
<!-- think&#45;&gt;about -->
<g id="edge8" class="edge">
<title>think&#45;&gt;about</title>
<path fill="none" stroke="black" d="M323.9,-71.7C328,-63.73 332.95,-54.1 337.49,-45.26"/>
<polygon fill="black" stroke="black" points="340.74,-46.6 342.2,-36.1 334.52,-43.4 340.74,-46.6"/>
</g>
<!-- write -->
<g id="node11" class="node">
<title>write</title>
<path fill="#f5f5f5" stroke="black" d="M402,-108C402,-108 372,-108 372,-108 366,-108 360,-102 360,-96 360,-96 360,-84 360,-84 360,-78 366,-72 372,-72 372,-72 402,-72 402,-72 408,-72 414,-78 414,-84 414,-84 414,-96 414,-96 414,-102 408,-108 402,-108"/>
<text text-anchor="middle" x="387" y="-86.3" font-family="Times-Roman" font-size="14.00">write</text>
</g>
<!-- write&#45;&gt;about -->
<g id="edge9" class="edge">
<title>write&#45;&gt;about</title>
<path fill="none" stroke="black" d="M378.1,-71.7C374,-63.73 369.05,-54.1 364.51,-45.26"/>
<polygon fill="black" stroke="black" points="367.48,-43.4 359.8,-36.1 361.26,-46.6 367.48,-43.4"/>
</g>
<!-- read -->
<g id="node12" class="node">
<title>read</title>
<path fill="#f5f5f5" stroke="black" d="M474,-108C474,-108 444,-108 444,-108 438,-108 432,-102 432,-96 432,-96 432,-84 432,-84 432,-78 438,-72 444,-72 444,-72 474,-72 474,-72 480,-72 486,-78 486,-84 486,-84 486,-96 486,-96 486,-102 480,-108 474,-108"/>
<text text-anchor="middle" x="459" y="-86.3" font-family="Times-Roman" font-size="14.00">read</text>
</g>
<!-- read&#45;&gt;about -->
<g id="edge10" class="edge">
<title>read&#45;&gt;about</title>
<path fill="none" stroke="black" d="M432.58,-71.88C418.59,-62.81 401.22,-51.55 386.11,-41.76"/>
<polygon fill="black" stroke="black" points="387.82,-38.69 377.52,-36.19 384.01,-44.57 387.82,-38.69"/>
</g>
<!-- go -->
<g id="node14" class="node">
<title>go</title>
<path fill="#f5f5f5" stroke="black" d="M762,-108C762,-108 732,-108 732,-108 726,-108 720,-102 720,-96 720,-96 720,-84 720,-84 720,-78 726,-72 732,-72 732,-72 762,-72 762,-72 768,-72 774,-78 774,-84 774,-84 774,-96 774,-96 774,-102 768,-108 762,-108"/>
<text text-anchor="middle" x="747" y="-86.3" font-family="Times-Roman" font-size="14.00">go</text>
</g>
<!-- to -->
<g id="node16" class="node">
<title>to</title>
<path fill="#f5f5f5" stroke="black" d="M690,-36C690,-36 660,-36 660,-36 654,-36 648,-30 648,-24 648,-24 648,-12 648,-12 648,-6 654,0 660,0 660,0 690,0 690,0 696,0 702,-6 702,-12 702,-12 702,-24 702,-24 702,-30 696,-36 690,-36"/>
<text text-anchor="middle" x="675" y="-14.3" font-family="Times-Roman" font-size="14.00">to</text>
</g>
<!-- go&#45;&gt;to -->
<g id="edge11" class="edge">
<title>go&#45;&gt;to</title>
<path fill="none" stroke="black" d="M729.2,-71.7C720.4,-63.14 709.62,-52.66 700,-43.3"/>
<polygon fill="black" stroke="black" points="702.2,-40.57 692.59,-36.1 697.32,-45.58 702.2,-40.57"/>
</g>
<!-- on -->
<g id="node19" class="node">
<title>on</title>
<path fill="#f5f5f5" stroke="black" d="M798,-36C798,-36 768,-36 768,-36 762,-36 756,-30 756,-24 756,-24 756,-12 756,-12 756,-6 762,0 768,0 768,0 798,0 798,0 804,0 810,-6 810,-12 810,-12 810,-24 810,-24 810,-30 804,-36 798,-36"/>
<text text-anchor="middle" x="783" y="-14.3" font-family="Times-Roman" font-size="14.00">on</text>
</g>
<!-- go&#45;&gt;on -->
<g id="edge14" class="edge">
<title>go&#45;&gt;on</title>
<path fill="none" stroke="black" d="M755.9,-71.7C760,-63.73 764.95,-54.1 769.49,-45.26"/>
<polygon fill="black" stroke="black" points="772.74,-46.6 774.2,-36.1 766.52,-43.4 772.74,-46.6"/>
</g>
<!-- listen -->
<g id="node15" class="node">
<title>listen</title>
<path fill="#f5f5f5" stroke="black" d="M690,-108C690,-108 660,-108 660,-108 654,-108 648,-102 648,-96 648,-96 648,-84 648,-84 648,-78 654,-72 660,-72 660,-72 690,-72 690,-72 696,-72 702,-78 702,-84 702,-84 702,-96 702,-96 702,-102 696,-108 690,-108"/>
<text text-anchor="middle" x="675" y="-86.3" font-family="Times-Roman" font-size="14.00">listen</text>
</g>
<!-- listen&#45;&gt;to -->
<g id="edge12" class="edge">
<title>listen&#45;&gt;to</title>
<path fill="none" stroke="black" d="M675,-71.7C675,-63.98 675,-54.71 675,-46.11"/>
<polygon fill="black" stroke="black" points="678.5,-46.1 675,-36.1 671.5,-46.1 678.5,-46.1"/>
</g>
<!-- get -->
<g id="node18" class="node">
<title>get</title>
<path fill="#f5f5f5" stroke="black" d="M834,-108C834,-108 804,-108 804,-108 798,-108 792,-102 792,-96 792,-96 792,-84 792,-84 792,-78 798,-72 804,-72 804,-72 834,-72 834,-72 840,-72 846,-78 846,-84 846,-84 846,-96 846,-96 846,-102 840,-108 834,-108"/>
<text text-anchor="middle" x="819" y="-86.3" font-family="Times-Roman" font-size="14.00">get</text>
</g>
<!-- get&#45;&gt;on -->
<g id="edge15" class="edge">
<title>get&#45;&gt;on</title>
<path fill="none" stroke="black" d="M810.1,-71.7C806,-63.73 801.05,-54.1 796.51,-45.26"/>
<polygon fill="black" stroke="black" points="799.48,-43.4 791.8,-36.1 793.26,-46.6 799.48,-43.4"/>
</g>
</g>
</svg>
