<?xml version="1.0" encoding="UTF-8" standalone="no"?>
<!DOCTYPE svg PUBLIC "-//W3C//DTD SVG 1.1//EN"
 "http://www.w3.org/Graphics/SVG/1.1/DTD/svg11.dtd">
<!-- Generated by graphviz version 2.44.0 (0)
 -->
<!-- Pages: 1 -->
<svg width="693pt" height="656pt"
 viewBox="0.00 0.00 693.00 656.00" xmlns="http://www.w3.org/2000/svg" xmlns:xlink="http://www.w3.org/1999/xlink">
<g id="graph0" class="graph" transform="scale(1 1) rotate(0) translate(4 652)">
<polygon fill="white" stroke="transparent" points="-4,4 -4,-652 689,-652 689,4 -4,4"/>
<!-- ¿Me podés recomendar una buena película? -->
<g id="node1" class="node">
<title>¿Me podés recomendar una buena película?</title>
<path fill="#f5f5f5" stroke="black" d="M329,-36C329,-36 30,-36 30,-36 24,-36 18,-30 18,-24 18,-24 18,-12 18,-12 18,-6 24,0 30,0 30,0 329,0 329,0 335,0 341,-6 341,-12 341,-12 341,-24 341,-24 341,-30 335,-36 329,-36"/>
<text text-anchor="middle" x="179.5" y="-14.3" font-family="Times-Roman" font-size="14.00">¿Me podés recomendar una buena película?</text>
</g>
<!-- Can you recommend a good film? -->
<g id="node2" class="node">
<title>Can you recommend a good film?</title>
<path fill="#f5f5f5" stroke="black" d="M653.5,-36C653.5,-36 426.5,-36 426.5,-36 420.5,-36 414.5,-30 414.5,-24 414.5,-24 414.5,-12 414.5,-12 414.5,-6 420.5,0 426.5,0 426.5,0 653.5,0 653.5,0 659.5,0 665.5,-6 665.5,-12 665.5,-12 665.5,-24 665.5,-24 665.5,-30 659.5,-36 653.5,-36"/>
<text text-anchor="middle" x="540" y="-14.3" font-family="Times-Roman" font-size="14.00">Can you recommend a good film?</text>
</g>
<!-- ¿Me podés recomendar una buena película?&#45;&gt;Can you recommend a good film? -->
<g id="edge1" class="edge">
<title>¿Me podés recomendar una buena película?&#45;&gt;Can you recommend a good film?</title>
<path fill="none" stroke="black" d="M341.14,-18C362.27,-18 383.75,-18 404.39,-18"/>
<polygon fill="black" stroke="black" points="404.45,-21.5 414.45,-18 404.45,-14.5 404.45,-21.5"/>
</g>
<!-- Dejame pensar... -->
<g id="node3" class="node">
<title>Dejame pensar...</title>
<path fill="#f5f5f5" stroke="black" d="M234.5,-90C234.5,-90 124.5,-90 124.5,-90 118.5,-90 112.5,-84 112.5,-78 112.5,-78 112.5,-66 112.5,-66 112.5,-60 118.5,-54 124.5,-54 124.5,-54 234.5,-54 234.5,-54 240.5,-54 246.5,-60 246.5,-66 246.5,-66 246.5,-78 246.5,-78 246.5,-84 240.5,-90 234.5,-90"/>
<text text-anchor="middle" x="179.5" y="-68.3" font-family="Times-Roman" font-size="14.00">Dejame pensar...</text>
</g>
<!-- Let me think... -->
<g id="node4" class="node">
<title>Let me think...</title>
<path fill="#f5f5f5" stroke="black" d="M586.5,-90C586.5,-90 493.5,-90 493.5,-90 487.5,-90 481.5,-84 481.5,-78 481.5,-78 481.5,-66 481.5,-66 481.5,-60 487.5,-54 493.5,-54 493.5,-54 586.5,-54 586.5,-54 592.5,-54 598.5,-60 598.5,-66 598.5,-66 598.5,-78 598.5,-78 598.5,-84 592.5,-90 586.5,-90"/>
<text text-anchor="middle" x="540" y="-68.3" font-family="Times-Roman" font-size="14.00">Let me think...</text>
</g>
<!-- Dejame pensar...&#45;&gt;Let me think... -->
<g id="edge2" class="edge">
<title>Dejame pensar...&#45;&gt;Let me think...</title>
<path fill="none" stroke="black" d="M246.67,-72C310.62,-72 407.03,-72 471.44,-72"/>
<polygon fill="black" stroke="black" points="471.5,-75.5 481.5,-72 471.5,-68.5 471.5,-75.5"/>
</g>
<!-- ¿Qué tipo de películas te gustan? -->
<g id="node5" class="node">
<title>¿Qué tipo de películas te gustan?</title>
<path fill="#f5f5f5" stroke="black" d="M291.5,-144C291.5,-144 67.5,-144 67.5,-144 61.5,-144 55.5,-138 55.5,-132 55.5,-132 55.5,-120 55.5,-120 55.5,-114 61.5,-108 67.5,-108 67.5,-108 291.5,-108 291.5,-108 297.5,-108 303.5,-114 303.5,-120 303.5,-120 303.5,-132 303.5,-132 303.5,-138 297.5,-144 291.5,-144"/>
<text text-anchor="middle" x="179.5" y="-122.3" font-family="Times-Roman" font-size="14.00">¿Qué tipo de películas te gustan?</text>
</g>
<!-- What kind of films do you like? -->
<g id="node6" class="node">
<title>What kind of films do you like?</title>
<path fill="#f5f5f5" stroke="black" d="M643,-144C643,-144 437,-144 437,-144 431,-144 425,-138 425,-132 425,-132 425,-120 425,-120 425,-114 431,-108 437,-108 437,-108 643,-108 643,-108 649,-108 655,-114 655,-120 655,-120 655,-132 655,-132 655,-138 649,-144 643,-144"/>
<text text-anchor="middle" x="540" y="-122.3" font-family="Times-Roman" font-size="14.00">What kind of films do you like?</text>
</g>
<!-- ¿Qué tipo de películas te gustan?&#45;&gt;What kind of films do you like? -->
<g id="edge3" class="edge">
<title>¿Qué tipo de películas te gustan?&#45;&gt;What kind of films do you like?</title>
<path fill="none" stroke="black" d="M303.62,-126C339.55,-126 378.83,-126 414.82,-126"/>
<polygon fill="black" stroke="black" points="414.88,-129.5 424.88,-126 414.88,-122.5 414.88,-129.5"/>
</g>
<!-- ¿Qué hay de Gravity? -->
<g id="node7" class="node">
<title>¿Qué hay de Gravity?</title>
<path fill="#f5f5f5" stroke="black" d="M251,-225C251,-225 108,-225 108,-225 102,-225 96,-219 96,-213 96,-213 96,-201 96,-201 96,-195 102,-189 108,-189 108,-189 251,-189 251,-189 257,-189 263,-195 263,-201 263,-201 263,-213 263,-213 263,-219 257,-225 251,-225"/>
<text text-anchor="middle" x="179.5" y="-203.3" font-family="Times-Roman" font-size="14.00">¿Qué hay de Gravity?</text>
</g>
<!-- How about Gravity? -->
<g id="node8" class="node">
<title>How about Gravity?</title>
<path fill="#f5f5f5" stroke="black" d="M604.5,-252C604.5,-252 475.5,-252 475.5,-252 469.5,-252 463.5,-246 463.5,-240 463.5,-240 463.5,-228 463.5,-228 463.5,-222 469.5,-216 475.5,-216 475.5,-216 604.5,-216 604.5,-216 610.5,-216 616.5,-222 616.5,-228 616.5,-228 616.5,-240 616.5,-240 616.5,-246 610.5,-252 604.5,-252"/>
<text text-anchor="middle" x="540" y="-230.3" font-family="Times-Roman" font-size="14.00">How about Gravity?</text>
</g>
<!-- ¿Qué hay de Gravity?&#45;&gt;How about Gravity? -->
<g id="edge4" class="edge">
<title>¿Qué hay de Gravity?&#45;&gt;How about Gravity?</title>
<path fill="none" stroke="black" d="M263.2,-213.23C320.16,-217.52 395.66,-223.2 453.27,-227.54"/>
<polygon fill="black" stroke="black" points="453.21,-231.05 463.44,-228.31 453.73,-224.07 453.21,-231.05"/>
</g>
<!-- What about Gravity? -->
<g id="node9" class="node">
<title>What about Gravity?</title>
<path fill="#f5f5f5" stroke="black" d="M607.5,-198C607.5,-198 472.5,-198 472.5,-198 466.5,-198 460.5,-192 460.5,-186 460.5,-186 460.5,-174 460.5,-174 460.5,-168 466.5,-162 472.5,-162 472.5,-162 607.5,-162 607.5,-162 613.5,-162 619.5,-168 619.5,-174 619.5,-174 619.5,-186 619.5,-186 619.5,-192 613.5,-198 607.5,-198"/>
<text text-anchor="middle" x="540" y="-176.3" font-family="Times-Roman" font-size="14.00">What about Gravity?</text>
</g>
<!-- ¿Qué hay de Gravity?&#45;&gt;What about Gravity? -->
<g id="edge5" class="edge">
<title>¿Qué hay de Gravity?&#45;&gt;What about Gravity?</title>
<path fill="none" stroke="black" d="M263.2,-200.77C319.18,-196.56 393.08,-190.99 450.29,-186.68"/>
<polygon fill="black" stroke="black" points="450.7,-190.16 460.41,-185.92 450.17,-183.18 450.7,-190.16"/>
</g>
<!-- ¿De qué se trata? -->
<g id="node10" class="node">
<title>¿De qué se trata?</title>
<path fill="#f5f5f5" stroke="black" d="M237,-306C237,-306 122,-306 122,-306 116,-306 110,-300 110,-294 110,-294 110,-282 110,-282 110,-276 116,-270 122,-270 122,-270 237,-270 237,-270 243,-270 249,-276 249,-282 249,-282 249,-294 249,-294 249,-300 243,-306 237,-306"/>
<text text-anchor="middle" x="179.5" y="-284.3" font-family="Times-Roman" font-size="14.00">¿De qué se trata?</text>
</g>
<!-- What is it about? -->
<g id="node11" class="node">
<title>What is it about?</title>
<path fill="#f5f5f5" stroke="black" d="M595,-306C595,-306 485,-306 485,-306 479,-306 473,-300 473,-294 473,-294 473,-282 473,-282 473,-276 479,-270 485,-270 485,-270 595,-270 595,-270 601,-270 607,-276 607,-282 607,-282 607,-294 607,-294 607,-300 601,-306 595,-306"/>
<text text-anchor="middle" x="540" y="-284.3" font-family="Times-Roman" font-size="14.00">What is it about?</text>
</g>
<!-- ¿De qué se trata?&#45;&gt;What is it about? -->
<g id="edge6" class="edge">
<title>¿De qué se trata?&#45;&gt;What is it about?</title>
<path fill="none" stroke="black" d="M249.2,-288C310.25,-288 399.37,-288 462.64,-288"/>
<polygon fill="black" stroke="black" points="462.96,-291.5 472.96,-288 462.96,-284.5 462.96,-291.5"/>
</g>
<!-- ¿Quién actua? -->
<g id="node12" class="node">
<title>¿Quién actua?</title>
<path fill="#f5f5f5" stroke="black" d="M225.5,-360C225.5,-360 133.5,-360 133.5,-360 127.5,-360 121.5,-354 121.5,-348 121.5,-348 121.5,-336 121.5,-336 121.5,-330 127.5,-324 133.5,-324 133.5,-324 225.5,-324 225.5,-324 231.5,-324 237.5,-330 237.5,-336 237.5,-336 237.5,-348 237.5,-348 237.5,-354 231.5,-360 225.5,-360"/>
<text text-anchor="middle" x="179.5" y="-338.3" font-family="Times-Roman" font-size="14.00">¿Quién actua?</text>
</g>
<!-- Who is in it? -->
<g id="node13" class="node">
<title>Who is in it?</title>
<path fill="#f5f5f5" stroke="black" d="M578.5,-360C578.5,-360 501.5,-360 501.5,-360 495.5,-360 489.5,-354 489.5,-348 489.5,-348 489.5,-336 489.5,-336 489.5,-330 495.5,-324 501.5,-324 501.5,-324 578.5,-324 578.5,-324 584.5,-324 590.5,-330 590.5,-336 590.5,-336 590.5,-348 590.5,-348 590.5,-354 584.5,-360 578.5,-360"/>
<text text-anchor="middle" x="540" y="-338.3" font-family="Times-Roman" font-size="14.00">Who is in it?</text>
</g>
<!-- ¿Quién actua?&#45;&gt;Who is in it? -->
<g id="edge7" class="edge">
<title>¿Quién actua?&#45;&gt;Who is in it?</title>
<path fill="none" stroke="black" d="M237.7,-342C303.79,-342 412.05,-342 479.22,-342"/>
<polygon fill="black" stroke="black" points="479.22,-345.5 489.22,-342 479.22,-338.5 479.22,-345.5"/>
</g>
<!-- Creo que te puede gustar.\nEs muy interesante &#45; emocionante &#45;\ngraciosa &#45; entretenida &#45; amorosa &#45; movilizadora... -->
<g id="node14" class="node">
<title>Creo que te puede gustar.\nEs muy interesante &#45; emocionante &#45;\ngraciosa &#45; entretenida &#45; amorosa &#45; movilizadora...</title>
<path fill="#f5f5f5" stroke="black" d="M347,-431.5C347,-431.5 12,-431.5 12,-431.5 6,-431.5 0,-425.5 0,-419.5 0,-419.5 0,-390.5 0,-390.5 0,-384.5 6,-378.5 12,-378.5 12,-378.5 347,-378.5 347,-378.5 353,-378.5 359,-384.5 359,-390.5 359,-390.5 359,-419.5 359,-419.5 359,-425.5 353,-431.5 347,-431.5"/>
<text text-anchor="middle" x="179.5" y="-416.3" font-family="Times-Roman" font-size="14.00">Creo que te puede gustar.</text>
<text text-anchor="middle" x="179.5" y="-401.3" font-family="Times-Roman" font-size="14.00">Es muy interesante &#45; emocionante &#45;</text>
<text text-anchor="middle" x="179.5" y="-386.3" font-family="Times-Roman" font-size="14.00">graciosa &#45; entretenida &#45; amorosa &#45; movilizadora...</text>
</g>
<!-- I think you&#39;d like it.\nIt&#39;s very interesting &#45; exciting &#45;\nfunny &#45; entertaining &#45; lovely &#45; moving... -->
<g id="node15" class="node">
<title>I think you&#39;d like it.\nIt&#39;s very interesting &#45; exciting &#45;\nfunny &#45; entertaining &#45; lovely &#45; moving...</title>
<path fill="#f5f5f5" stroke="black" d="M673,-431.5C673,-431.5 407,-431.5 407,-431.5 401,-431.5 395,-425.5 395,-419.5 395,-419.5 395,-390.5 395,-390.5 395,-384.5 401,-378.5 407,-378.5 407,-378.5 673,-378.5 673,-378.5 679,-378.5 685,-384.5 685,-390.5 685,-390.5 685,-419.5 685,-419.5 685,-425.5 679,-431.5 673,-431.5"/>
<text text-anchor="middle" x="540" y="-416.3" font-family="Times-Roman" font-size="14.00">I think you&#39;d like it.</text>
<text text-anchor="middle" x="540" y="-401.3" font-family="Times-Roman" font-size="14.00">It&#39;s very interesting &#45; exciting &#45;</text>
<text text-anchor="middle" x="540" y="-386.3" font-family="Times-Roman" font-size="14.00">funny &#45; entertaining &#45; lovely &#45; moving...</text>
</g>
<!-- Creo que te puede gustar.\nEs muy interesante &#45; emocionante &#45;\ngraciosa &#45; entretenida &#45; amorosa &#45; movilizadora...&#45;&gt;I think you&#39;d like it.\nIt&#39;s very interesting &#45; exciting &#45;\nfunny &#45; entertaining &#45; lovely &#45; moving... -->
<g id="edge8" class="edge">
<title>Creo que te puede gustar.\nEs muy interesante &#45; emocionante &#45;\ngraciosa &#45; entretenida &#45; amorosa &#45; movilizadora...&#45;&gt;I think you&#39;d like it.\nIt&#39;s very interesting &#45; exciting &#45;\nfunny &#45; entertaining &#45; lovely &#45; moving...</title>
<path fill="none" stroke="black" d="M359.22,-405C367.7,-405 376.18,-405 384.59,-405"/>
<polygon fill="black" stroke="black" points="384.8,-408.5 394.8,-405 384.8,-401.5 384.8,-408.5"/>
</g>
<!-- ¡Suena genial! -->
<g id="node16" class="node">
<title>¡Suena genial!</title>
<path fill="#f5f5f5" stroke="black" d="M226,-486C226,-486 133,-486 133,-486 127,-486 121,-480 121,-474 121,-474 121,-462 121,-462 121,-456 127,-450 133,-450 133,-450 226,-450 226,-450 232,-450 238,-456 238,-462 238,-462 238,-474 238,-474 238,-480 232,-486 226,-486"/>
<text text-anchor="middle" x="179.5" y="-464.3" font-family="Times-Roman" font-size="14.00">¡Suena genial!</text>
</g>
<!-- Sounds good! -->
<g id="node17" class="node">
<title>Sounds good!</title>
<path fill="#f5f5f5" stroke="black" d="M584.5,-486C584.5,-486 495.5,-486 495.5,-486 489.5,-486 483.5,-480 483.5,-474 483.5,-474 483.5,-462 483.5,-462 483.5,-456 489.5,-450 495.5,-450 495.5,-450 584.5,-450 584.5,-450 590.5,-450 596.5,-456 596.5,-462 596.5,-462 596.5,-474 596.5,-474 596.5,-480 590.5,-486 584.5,-486"/>
<text text-anchor="middle" x="540" y="-464.3" font-family="Times-Roman" font-size="14.00">Sounds good!</text>
</g>
<!-- ¡Suena genial!&#45;&gt;Sounds good! -->
<g id="edge9" class="edge">
<title>¡Suena genial!&#45;&gt;Sounds good!</title>
<path fill="none" stroke="black" d="M238.1,-468C302.3,-468 405.91,-468 473.24,-468"/>
<polygon fill="black" stroke="black" points="473.31,-471.5 483.31,-468 473.31,-464.5 473.31,-471.5"/>
</g>
<!-- Hay una buena película llamada... -->
<g id="node18" class="node">
<title>Hay una buena película llamada...</title>
<path fill="#f5f5f5" stroke="black" d="M294,-540C294,-540 65,-540 65,-540 59,-540 53,-534 53,-528 53,-528 53,-516 53,-516 53,-510 59,-504 65,-504 65,-504 294,-504 294,-504 300,-504 306,-510 306,-516 306,-516 306,-528 306,-528 306,-534 300,-540 294,-540"/>
<text text-anchor="middle" x="179.5" y="-518.3" font-family="Times-Roman" font-size="14.00">Hay una buena película llamada...</text>
</g>
<!-- There&#39;s a good film called... -->
<g id="node19" class="node">
<title>There&#39;s a good film called...</title>
<path fill="#f5f5f5" stroke="black" d="M632,-540C632,-540 448,-540 448,-540 442,-540 436,-534 436,-528 436,-528 436,-516 436,-516 436,-510 442,-504 448,-504 448,-504 632,-504 632,-504 638,-504 644,-510 644,-516 644,-516 644,-528 644,-528 644,-534 638,-540 632,-540"/>
<text text-anchor="middle" x="540" y="-518.3" font-family="Times-Roman" font-size="14.00">There&#39;s a good film called...</text>
</g>
<!-- Hay una buena película llamada...&#45;&gt;There&#39;s a good film called... -->
<g id="edge10" class="edge">
<title>Hay una buena película llamada...&#45;&gt;There&#39;s a good film called...</title>
<path fill="none" stroke="black" d="M306.14,-522C345.05,-522 387.67,-522 425.69,-522"/>
<polygon fill="black" stroke="black" points="425.76,-525.5 435.76,-522 425.76,-518.5 425.76,-525.5"/>
</g>
<!-- El actor principal es... -->
<g id="node20" class="node">
<title>El actor principal es...</title>
<path fill="#f5f5f5" stroke="black" d="M251,-594C251,-594 108,-594 108,-594 102,-594 96,-588 96,-582 96,-582 96,-570 96,-570 96,-564 102,-558 108,-558 108,-558 251,-558 251,-558 257,-558 263,-564 263,-570 263,-570 263,-582 263,-582 263,-588 257,-594 251,-594"/>
<text text-anchor="middle" x="179.5" y="-572.3" font-family="Times-Roman" font-size="14.00">El actor principal es...</text>
</g>
<!-- The main actor is... -->
<g id="node21" class="node">
<title>The main actor is...</title>
<path fill="#f5f5f5" stroke="black" d="M603,-594C603,-594 477,-594 477,-594 471,-594 465,-588 465,-582 465,-582 465,-570 465,-570 465,-564 471,-558 477,-558 477,-558 603,-558 603,-558 609,-558 615,-564 615,-570 615,-570 615,-582 615,-582 615,-588 609,-594 603,-594"/>
<text text-anchor="middle" x="540" y="-572.3" font-family="Times-Roman" font-size="14.00">The main actor is...</text>
</g>
<!-- El actor principal es...&#45;&gt;The main actor is... -->
<g id="edge11" class="edge">
<title>El actor principal es...&#45;&gt;The main actor is...</title>
<path fill="none" stroke="black" d="M263.2,-576C320.65,-576 396.95,-576 454.74,-576"/>
<polygon fill="black" stroke="black" points="454.94,-579.5 464.94,-576 454.94,-572.5 454.94,-579.5"/>
</g>
<!-- La actriz principal es... -->
<g id="node22" class="node">
<title>La actriz principal es...</title>
<path fill="#f5f5f5" stroke="black" d="M254,-648C254,-648 105,-648 105,-648 99,-648 93,-642 93,-636 93,-636 93,-624 93,-624 93,-618 99,-612 105,-612 105,-612 254,-612 254,-612 260,-612 266,-618 266,-624 266,-624 266,-636 266,-636 266,-642 260,-648 254,-648"/>
<text text-anchor="middle" x="179.5" y="-626.3" font-family="Times-Roman" font-size="14.00">La actriz principal es...</text>
</g>
<!-- The main actress is... -->
<g id="node23" class="node">
<title>The main actress is...</title>
<path fill="#f5f5f5" stroke="black" d="M610,-648C610,-648 470,-648 470,-648 464,-648 458,-642 458,-636 458,-636 458,-624 458,-624 458,-618 464,-612 470,-612 470,-612 610,-612 610,-612 616,-612 622,-618 622,-624 622,-624 622,-636 622,-636 622,-642 616,-648 610,-648"/>
<text text-anchor="middle" x="540" y="-626.3" font-family="Times-Roman" font-size="14.00">The main actress is...</text>
</g>
<!-- La actriz principal es...&#45;&gt;The main actress is... -->
<g id="edge12" class="edge">
<title>La actriz principal es...&#45;&gt;The main actress is...</title>
<path fill="none" stroke="black" d="M266.37,-630C321.07,-630 391.87,-630 447.6,-630"/>
<polygon fill="black" stroke="black" points="447.83,-633.5 457.83,-630 447.83,-626.5 447.83,-633.5"/>
</g>
</g>
</svg>
