<?xml version="1.0" encoding="UTF-8" standalone="no"?>
<!DOCTYPE svg PUBLIC "-//W3C//DTD SVG 1.1//EN"
 "http://www.w3.org/Graphics/SVG/1.1/DTD/svg11.dtd">
<!-- Generated by graphviz version 2.44.0 (0)
 -->
<!-- Pages: 1 -->
<svg width="1160pt" height="488pt"
 viewBox="0.00 0.00 1160.00 488.00" xmlns="http://www.w3.org/2000/svg" xmlns:xlink="http://www.w3.org/1999/xlink">
<g id="graph0" class="graph" transform="scale(1 1) rotate(0) translate(4 484)">
<polygon fill="white" stroke="transparent" points="-4,4 -4,-484 1156,-484 1156,4 -4,4"/>
<!-- Noventa minutos en el mundo
 &#160;&#160;&#160;aterrador de vampiros y sangre... -->
<g id="node1" class="node">
<title>Noventa minutos en el mundo
 &#160;&#160;&#160;aterrador de vampiros y sangre...</title>
<path fill="#f5f5f5" stroke="black" d="M377.5,-38C377.5,-38 134.5,-38 134.5,-38 128.5,-38 122.5,-32 122.5,-26 122.5,-26 122.5,-12 122.5,-12 122.5,-6 128.5,0 134.5,0 134.5,0 377.5,0 377.5,0 383.5,0 389.5,-6 389.5,-12 389.5,-12 389.5,-26 389.5,-26 389.5,-32 383.5,-38 377.5,-38"/>
<text text-anchor="middle" x="256" y="-22.8" font-family="Times-Roman" font-size="14.00">Noventa minutos en el mundo</text>
<text text-anchor="middle" x="256" y="-7.8" font-family="Times-Roman" font-size="14.00"> &#160;&#160;&#160;aterrador de vampiros y sangre...</text>
</g>
<!-- Ninety minutes in the scary
 &#160;&#160;&#160;&#160;&#160;&#160;&#160;&#160;world of vampires and blood... -->
<g id="node2" class="node">
<title>Ninety minutes in the scary
 &#160;&#160;&#160;&#160;&#160;&#160;&#160;&#160;world of vampires and blood...</title>
<path fill="#f5f5f5" stroke="black" d="M909,-38C909,-38 664,-38 664,-38 658,-38 652,-32 652,-26 652,-26 652,-12 652,-12 652,-6 658,0 664,0 664,0 909,0 909,0 915,0 921,-6 921,-12 921,-12 921,-26 921,-26 921,-32 915,-38 909,-38"/>
<text text-anchor="middle" x="786.5" y="-22.8" font-family="Times-Roman" font-size="14.00">Ninety minutes in the scary</text>
<text text-anchor="middle" x="786.5" y="-7.8" font-family="Times-Roman" font-size="14.00"> &#160;&#160;&#160;&#160;&#160;&#160;&#160;&#160;world of vampires and blood...</text>
</g>
<!-- Noventa minutos en el mundo
 &#160;&#160;&#160;aterrador de vampiros y sangre...&#45;&gt;Ninety minutes in the scary
 &#160;&#160;&#160;&#160;&#160;&#160;&#160;&#160;world of vampires and blood... -->
<g id="edge1" class="edge">
<title>Noventa minutos en el mundo
 &#160;&#160;&#160;aterrador de vampiros y sangre...&#45;&gt;Ninety minutes in the scary
 &#160;&#160;&#160;&#160;&#160;&#160;&#160;&#160;world of vampires and blood...</title>
<path fill="none" stroke="black" d="M389.68,-19C466.35,-19 562.86,-19 641.38,-19"/>
<polygon fill="black" stroke="black" points="641.85,-22.5 651.85,-19 641.85,-15.5 641.85,-22.5"/>
</g>
<!-- Horror film -->
<g id="node3" class="node">
<title>Horror film</title>
<path fill="#f5f5f5" stroke="black" d="M1140,-37C1140,-37 1073,-37 1073,-37 1067,-37 1061,-31 1061,-25 1061,-25 1061,-13 1061,-13 1061,-7 1067,-1 1073,-1 1073,-1 1140,-1 1140,-1 1146,-1 1152,-7 1152,-13 1152,-13 1152,-25 1152,-25 1152,-31 1146,-37 1140,-37"/>
<text text-anchor="middle" x="1106.5" y="-15.3" font-family="Times-Roman" font-size="14.00">Horror film</text>
</g>
<!-- Ninety minutes in the scary
 &#160;&#160;&#160;&#160;&#160;&#160;&#160;&#160;world of vampires and blood...&#45;&gt;Horror film -->
<g id="edge2" class="edge">
<title>Ninety minutes in the scary
 &#160;&#160;&#160;&#160;&#160;&#160;&#160;&#160;world of vampires and blood...&#45;&gt;Horror film</title>
<path fill="none" stroke="black" d="M921.44,-19C966.86,-19 1015.08,-19 1050.76,-19"/>
<polygon fill="black" stroke="black" points="1050.95,-22.5 1060.95,-19 1050.95,-15.5 1050.95,-22.5"/>
</g>
<!-- Los amigos de la infancia Jésica y Tim
 &#160;&#160;&#160;se reunen luego de diez años, y ellos
 &#160;&#160;&#160;buscan ser algo más que sólo buenos amigos... -->
<g id="node4" class="node">
<title>Los amigos de la infancia Jésica y Tim
 &#160;&#160;&#160;se reunen luego de diez años, y ellos
 &#160;&#160;&#160;buscan ser algo más que sólo buenos amigos...</title>
<path fill="#f5f5f5" stroke="black" d="M426.5,-109.5C426.5,-109.5 85.5,-109.5 85.5,-109.5 79.5,-109.5 73.5,-103.5 73.5,-97.5 73.5,-97.5 73.5,-68.5 73.5,-68.5 73.5,-62.5 79.5,-56.5 85.5,-56.5 85.5,-56.5 426.5,-56.5 426.5,-56.5 432.5,-56.5 438.5,-62.5 438.5,-68.5 438.5,-68.5 438.5,-97.5 438.5,-97.5 438.5,-103.5 432.5,-109.5 426.5,-109.5"/>
<text text-anchor="middle" x="256" y="-94.3" font-family="Times-Roman" font-size="14.00">Los amigos de la infancia Jésica y Tim</text>
<text text-anchor="middle" x="256" y="-79.3" font-family="Times-Roman" font-size="14.00"> &#160;&#160;&#160;se reunen luego de diez años, y ellos</text>
<text text-anchor="middle" x="256" y="-64.3" font-family="Times-Roman" font-size="14.00"> &#160;&#160;&#160;buscan ser algo más que sólo buenos amigos...</text>
</g>
<!-- Childhood friends Jessica and Tim
 &#160;&#160;&#160;&#160;&#160;&#160;&#160;&#160;meet after ten years, and they want
 &#160;&#160;&#160;&#160;&#160;&#160;&#160;&#160;to be more than just good friends... -->
<g id="node5" class="node">
<title>Childhood friends Jessica and Tim
 &#160;&#160;&#160;&#160;&#160;&#160;&#160;&#160;meet after ten years, and they want
 &#160;&#160;&#160;&#160;&#160;&#160;&#160;&#160;to be more than just good friends...</title>
<path fill="#f5f5f5" stroke="black" d="M928.5,-109.5C928.5,-109.5 644.5,-109.5 644.5,-109.5 638.5,-109.5 632.5,-103.5 632.5,-97.5 632.5,-97.5 632.5,-68.5 632.5,-68.5 632.5,-62.5 638.5,-56.5 644.5,-56.5 644.5,-56.5 928.5,-56.5 928.5,-56.5 934.5,-56.5 940.5,-62.5 940.5,-68.5 940.5,-68.5 940.5,-97.5 940.5,-97.5 940.5,-103.5 934.5,-109.5 928.5,-109.5"/>
<text text-anchor="middle" x="786.5" y="-94.3" font-family="Times-Roman" font-size="14.00">Childhood friends Jessica and Tim</text>
<text text-anchor="middle" x="786.5" y="-79.3" font-family="Times-Roman" font-size="14.00"> &#160;&#160;&#160;&#160;&#160;&#160;&#160;&#160;meet after ten years, and they want</text>
<text text-anchor="middle" x="786.5" y="-64.3" font-family="Times-Roman" font-size="14.00"> &#160;&#160;&#160;&#160;&#160;&#160;&#160;&#160;to be more than just good friends...</text>
</g>
<!-- Los amigos de la infancia Jésica y Tim
 &#160;&#160;&#160;se reunen luego de diez años, y ellos
 &#160;&#160;&#160;buscan ser algo más que sólo buenos amigos...&#45;&gt;Childhood friends Jessica and Tim
 &#160;&#160;&#160;&#160;&#160;&#160;&#160;&#160;meet after ten years, and they want
 &#160;&#160;&#160;&#160;&#160;&#160;&#160;&#160;to be more than just good friends... -->
<g id="edge3" class="edge">
<title>Los amigos de la infancia Jésica y Tim
 &#160;&#160;&#160;se reunen luego de diez años, y ellos
 &#160;&#160;&#160;buscan ser algo más que sólo buenos amigos...&#45;&gt;Childhood friends Jessica and Tim
 &#160;&#160;&#160;&#160;&#160;&#160;&#160;&#160;meet after ten years, and they want
 &#160;&#160;&#160;&#160;&#160;&#160;&#160;&#160;to be more than just good friends...</title>
<path fill="none" stroke="black" d="M438.51,-83C498.09,-83 563.91,-83 622.06,-83"/>
<polygon fill="black" stroke="black" points="622.08,-86.5 632.08,-83 622.08,-79.5 622.08,-86.5"/>
</g>
<!-- Romantic -->
<g id="node6" class="node">
<title>Romantic</title>
<path fill="#f5f5f5" stroke="black" d="M1135,-101C1135,-101 1078,-101 1078,-101 1072,-101 1066,-95 1066,-89 1066,-89 1066,-77 1066,-77 1066,-71 1072,-65 1078,-65 1078,-65 1135,-65 1135,-65 1141,-65 1147,-71 1147,-77 1147,-77 1147,-89 1147,-89 1147,-95 1141,-101 1135,-101"/>
<text text-anchor="middle" x="1106.5" y="-79.3" font-family="Times-Roman" font-size="14.00">Romantic</text>
</g>
<!-- Childhood friends Jessica and Tim
 &#160;&#160;&#160;&#160;&#160;&#160;&#160;&#160;meet after ten years, and they want
 &#160;&#160;&#160;&#160;&#160;&#160;&#160;&#160;to be more than just good friends...&#45;&gt;Romantic -->
<g id="edge4" class="edge">
<title>Childhood friends Jessica and Tim
 &#160;&#160;&#160;&#160;&#160;&#160;&#160;&#160;meet after ten years, and they want
 &#160;&#160;&#160;&#160;&#160;&#160;&#160;&#160;to be more than just good friends...&#45;&gt;Romantic</title>
<path fill="none" stroke="black" d="M940.91,-83C982.44,-83 1024.47,-83 1055.66,-83"/>
<polygon fill="black" stroke="black" points="1055.81,-86.5 1065.81,-83 1055.81,-79.5 1055.81,-86.5"/>
</g>
<!-- Gene Walker is un Fred Astaire moderno,
 &#160;&#160;&#160;bailando y cantando por las calles de Cordoba... -->
<g id="node7" class="node">
<title>Gene Walker is un Fred Astaire moderno,
 &#160;&#160;&#160;bailando y cantando por las calles de Cordoba...</title>
<path fill="#f5f5f5" stroke="black" d="M428,-173C428,-173 84,-173 84,-173 78,-173 72,-167 72,-161 72,-161 72,-147 72,-147 72,-141 78,-135 84,-135 84,-135 428,-135 428,-135 434,-135 440,-141 440,-147 440,-147 440,-161 440,-161 440,-167 434,-173 428,-173"/>
<text text-anchor="middle" x="256" y="-157.8" font-family="Times-Roman" font-size="14.00">Gene Walker is un Fred Astaire moderno,</text>
<text text-anchor="middle" x="256" y="-142.8" font-family="Times-Roman" font-size="14.00"> &#160;&#160;&#160;bailando y cantando por las calles de Cordoba...</text>
</g>
<!-- Gene Walker is a modern&#45;day Fred Astaire,
 &#160;&#160;&#160;&#160;&#160;&#160;&#160;&#160;dancing and singing his way through the
 &#160;&#160;&#160;&#160;&#160;&#160;&#160;&#160;streets of Cordoba... -->
<g id="node8" class="node">
<title>Gene Walker is a modern&#45;day Fred Astaire,
 &#160;&#160;&#160;&#160;&#160;&#160;&#160;&#160;dancing and singing his way through the
 &#160;&#160;&#160;&#160;&#160;&#160;&#160;&#160;streets of Cordoba...</title>
<path fill="#f5f5f5" stroke="black" d="M945.5,-180.5C945.5,-180.5 627.5,-180.5 627.5,-180.5 621.5,-180.5 615.5,-174.5 615.5,-168.5 615.5,-168.5 615.5,-139.5 615.5,-139.5 615.5,-133.5 621.5,-127.5 627.5,-127.5 627.5,-127.5 945.5,-127.5 945.5,-127.5 951.5,-127.5 957.5,-133.5 957.5,-139.5 957.5,-139.5 957.5,-168.5 957.5,-168.5 957.5,-174.5 951.5,-180.5 945.5,-180.5"/>
<text text-anchor="middle" x="786.5" y="-165.3" font-family="Times-Roman" font-size="14.00">Gene Walker is a modern&#45;day Fred Astaire,</text>
<text text-anchor="middle" x="786.5" y="-150.3" font-family="Times-Roman" font-size="14.00"> &#160;&#160;&#160;&#160;&#160;&#160;&#160;&#160;dancing and singing his way through the</text>
<text text-anchor="middle" x="786.5" y="-135.3" font-family="Times-Roman" font-size="14.00"> &#160;&#160;&#160;&#160;&#160;&#160;&#160;&#160;streets of Cordoba...</text>
</g>
<!-- Gene Walker is un Fred Astaire moderno,
 &#160;&#160;&#160;bailando y cantando por las calles de Cordoba...&#45;&gt;Gene Walker is a modern&#45;day Fred Astaire,
 &#160;&#160;&#160;&#160;&#160;&#160;&#160;&#160;dancing and singing his way through the
 &#160;&#160;&#160;&#160;&#160;&#160;&#160;&#160;streets of Cordoba... -->
<g id="edge5" class="edge">
<title>Gene Walker is un Fred Astaire moderno,
 &#160;&#160;&#160;bailando y cantando por las calles de Cordoba...&#45;&gt;Gene Walker is a modern&#45;day Fred Astaire,
 &#160;&#160;&#160;&#160;&#160;&#160;&#160;&#160;dancing and singing his way through the
 &#160;&#160;&#160;&#160;&#160;&#160;&#160;&#160;streets of Cordoba...</title>
<path fill="none" stroke="black" d="M440.36,-154C493.72,-154 551.94,-154 605.11,-154"/>
<polygon fill="black" stroke="black" points="605.33,-157.5 615.33,-154 605.33,-150.5 605.33,-157.5"/>
</g>
<!-- Musical -->
<g id="node9" class="node">
<title>Musical</title>
<path fill="#f5f5f5" stroke="black" d="M1128.5,-172C1128.5,-172 1084.5,-172 1084.5,-172 1078.5,-172 1072.5,-166 1072.5,-160 1072.5,-160 1072.5,-148 1072.5,-148 1072.5,-142 1078.5,-136 1084.5,-136 1084.5,-136 1128.5,-136 1128.5,-136 1134.5,-136 1140.5,-142 1140.5,-148 1140.5,-148 1140.5,-160 1140.5,-160 1140.5,-166 1134.5,-172 1128.5,-172"/>
<text text-anchor="middle" x="1106.5" y="-150.3" font-family="Times-Roman" font-size="14.00">Musical</text>
</g>
<!-- Gene Walker is a modern&#45;day Fred Astaire,
 &#160;&#160;&#160;&#160;&#160;&#160;&#160;&#160;dancing and singing his way through the
 &#160;&#160;&#160;&#160;&#160;&#160;&#160;&#160;streets of Cordoba...&#45;&gt;Musical -->
<g id="edge6" class="edge">
<title>Gene Walker is a modern&#45;day Fred Astaire,
 &#160;&#160;&#160;&#160;&#160;&#160;&#160;&#160;dancing and singing his way through the
 &#160;&#160;&#160;&#160;&#160;&#160;&#160;&#160;streets of Cordoba...&#45;&gt;Musical</title>
<path fill="none" stroke="black" d="M957.67,-154C996.56,-154 1034.56,-154 1062.29,-154"/>
<polygon fill="black" stroke="black" points="1062.39,-157.5 1072.39,-154 1062.39,-150.5 1062.39,-157.5"/>
</g>
<!-- El oficial de policia de New York Jack Hare
 &#160;&#160;&#160;se toma unas vacaciones en Miami, pero termina
 &#160;&#160;&#160;trabajando para salvar el país de un ataque terrorista... -->
<g id="node10" class="node">
<title>El oficial de policia de New York Jack Hare
 &#160;&#160;&#160;se toma unas vacaciones en Miami, pero termina
 &#160;&#160;&#160;trabajando para salvar el país de un ataque terrorista...</title>
<path fill="#f5f5f5" stroke="black" d="M453.5,-251.5C453.5,-251.5 58.5,-251.5 58.5,-251.5 52.5,-251.5 46.5,-245.5 46.5,-239.5 46.5,-239.5 46.5,-210.5 46.5,-210.5 46.5,-204.5 52.5,-198.5 58.5,-198.5 58.5,-198.5 453.5,-198.5 453.5,-198.5 459.5,-198.5 465.5,-204.5 465.5,-210.5 465.5,-210.5 465.5,-239.5 465.5,-239.5 465.5,-245.5 459.5,-251.5 453.5,-251.5"/>
<text text-anchor="middle" x="256" y="-236.3" font-family="Times-Roman" font-size="14.00">El oficial de policia de New York Jack Hare</text>
<text text-anchor="middle" x="256" y="-221.3" font-family="Times-Roman" font-size="14.00"> &#160;&#160;&#160;se toma unas vacaciones en Miami, pero termina</text>
<text text-anchor="middle" x="256" y="-206.3" font-family="Times-Roman" font-size="14.00"> &#160;&#160;&#160;trabajando para salvar el país de un ataque terrorista...</text>
</g>
<!-- New York police officer Jack Hare takes a holiday
 &#160;&#160;&#160;&#160;&#160;&#160;&#160;&#160;in Miami, but finds himself working to save the
 &#160;&#160;&#160;&#160;&#160;&#160;&#160;&#160;country from a terrorist attack. -->
<g id="node11" class="node">
<title>New York police officer Jack Hare takes a holiday
 &#160;&#160;&#160;&#160;&#160;&#160;&#160;&#160;in Miami, but finds himself working to save the
 &#160;&#160;&#160;&#160;&#160;&#160;&#160;&#160;country from a terrorist attack.</title>
<path fill="#f5f5f5" stroke="black" d="M966.5,-251.5C966.5,-251.5 606.5,-251.5 606.5,-251.5 600.5,-251.5 594.5,-245.5 594.5,-239.5 594.5,-239.5 594.5,-210.5 594.5,-210.5 594.5,-204.5 600.5,-198.5 606.5,-198.5 606.5,-198.5 966.5,-198.5 966.5,-198.5 972.5,-198.5 978.5,-204.5 978.5,-210.5 978.5,-210.5 978.5,-239.5 978.5,-239.5 978.5,-245.5 972.5,-251.5 966.5,-251.5"/>
<text text-anchor="middle" x="786.5" y="-236.3" font-family="Times-Roman" font-size="14.00">New York police officer Jack Hare takes a holiday</text>
<text text-anchor="middle" x="786.5" y="-221.3" font-family="Times-Roman" font-size="14.00"> &#160;&#160;&#160;&#160;&#160;&#160;&#160;&#160;in Miami, but finds himself working to save the</text>
<text text-anchor="middle" x="786.5" y="-206.3" font-family="Times-Roman" font-size="14.00"> &#160;&#160;&#160;&#160;&#160;&#160;&#160;&#160;country from a terrorist attack.</text>
</g>
<!-- El oficial de policia de New York Jack Hare
 &#160;&#160;&#160;se toma unas vacaciones en Miami, pero termina
 &#160;&#160;&#160;trabajando para salvar el país de un ataque terrorista...&#45;&gt;New York police officer Jack Hare takes a holiday
 &#160;&#160;&#160;&#160;&#160;&#160;&#160;&#160;in Miami, but finds himself working to save the
 &#160;&#160;&#160;&#160;&#160;&#160;&#160;&#160;country from a terrorist attack. -->
<g id="edge7" class="edge">
<title>El oficial de policia de New York Jack Hare
 &#160;&#160;&#160;se toma unas vacaciones en Miami, pero termina
 &#160;&#160;&#160;trabajando para salvar el país de un ataque terrorista...&#45;&gt;New York police officer Jack Hare takes a holiday
 &#160;&#160;&#160;&#160;&#160;&#160;&#160;&#160;in Miami, but finds himself working to save the
 &#160;&#160;&#160;&#160;&#160;&#160;&#160;&#160;country from a terrorist attack.</title>
<path fill="none" stroke="black" d="M465.88,-225C504.81,-225 545.42,-225 584.13,-225"/>
<polygon fill="black" stroke="black" points="584.45,-228.5 594.45,-225 584.45,-221.5 584.45,-228.5"/>
</g>
<!-- Action film -->
<g id="node12" class="node">
<title>Action film</title>
<path fill="#f5f5f5" stroke="black" d="M1139.5,-243C1139.5,-243 1073.5,-243 1073.5,-243 1067.5,-243 1061.5,-237 1061.5,-231 1061.5,-231 1061.5,-219 1061.5,-219 1061.5,-213 1067.5,-207 1073.5,-207 1073.5,-207 1139.5,-207 1139.5,-207 1145.5,-207 1151.5,-213 1151.5,-219 1151.5,-219 1151.5,-231 1151.5,-231 1151.5,-237 1145.5,-243 1139.5,-243"/>
<text text-anchor="middle" x="1106.5" y="-221.3" font-family="Times-Roman" font-size="14.00">Action film</text>
</g>
<!-- New York police officer Jack Hare takes a holiday
 &#160;&#160;&#160;&#160;&#160;&#160;&#160;&#160;in Miami, but finds himself working to save the
 &#160;&#160;&#160;&#160;&#160;&#160;&#160;&#160;country from a terrorist attack.&#45;&gt;Action film -->
<g id="edge8" class="edge">
<title>New York police officer Jack Hare takes a holiday
 &#160;&#160;&#160;&#160;&#160;&#160;&#160;&#160;in Miami, but finds himself working to save the
 &#160;&#160;&#160;&#160;&#160;&#160;&#160;&#160;country from a terrorist attack.&#45;&gt;Action film</title>
<path fill="none" stroke="black" d="M978.9,-225C1005.24,-225 1030.33,-225 1051.13,-225"/>
<polygon fill="black" stroke="black" points="1051.29,-228.5 1061.29,-225 1051.29,-221.5 1051.29,-228.5"/>
</g>
<!-- Un granjero en Francia despierta y descrubre que todos
 &#160;&#160;&#160;sus aniamles pueden hablar... Chino. Muchas risas mientras
 &#160;&#160;&#160;los granjeros aprenden Chino para hablar con los animales... -->
<g id="node13" class="node">
<title>Un granjero en Francia despierta y descrubre que todos
 &#160;&#160;&#160;sus aniamles pueden hablar... Chino. Muchas risas mientras
 &#160;&#160;&#160;los granjeros aprenden Chino para hablar con los animales...</title>
<path fill="#f5f5f5" stroke="black" d="M472.5,-322.5C472.5,-322.5 39.5,-322.5 39.5,-322.5 33.5,-322.5 27.5,-316.5 27.5,-310.5 27.5,-310.5 27.5,-281.5 27.5,-281.5 27.5,-275.5 33.5,-269.5 39.5,-269.5 39.5,-269.5 472.5,-269.5 472.5,-269.5 478.5,-269.5 484.5,-275.5 484.5,-281.5 484.5,-281.5 484.5,-310.5 484.5,-310.5 484.5,-316.5 478.5,-322.5 472.5,-322.5"/>
<text text-anchor="middle" x="256" y="-307.3" font-family="Times-Roman" font-size="14.00">Un granjero en Francia despierta y descrubre que todos</text>
<text text-anchor="middle" x="256" y="-292.3" font-family="Times-Roman" font-size="14.00"> &#160;&#160;&#160;sus aniamles pueden hablar... Chino. Muchas risas mientras</text>
<text text-anchor="middle" x="256" y="-277.3" font-family="Times-Roman" font-size="14.00"> &#160;&#160;&#160;los granjeros aprenden Chino para hablar con los animales...</text>
</g>
<!-- A farmer in France wakes up and finds that all
 &#160;&#160;&#160;&#160;&#160;&#160;&#160;&#160;his animals can speak... Chinese. Lots of laughs as
 &#160;&#160;&#160;&#160;&#160;&#160;&#160;&#160;the farmers teaches himself Chinese to talk to the animals... -->
<g id="node14" class="node">
<title>A farmer in France wakes up and finds that all
 &#160;&#160;&#160;&#160;&#160;&#160;&#160;&#160;his animals can speak... Chinese. Lots of laughs as
 &#160;&#160;&#160;&#160;&#160;&#160;&#160;&#160;the farmers teaches himself Chinese to talk to the animals...</title>
<path fill="#f5f5f5" stroke="black" d="M1013,-322.5C1013,-322.5 560,-322.5 560,-322.5 554,-322.5 548,-316.5 548,-310.5 548,-310.5 548,-281.5 548,-281.5 548,-275.5 554,-269.5 560,-269.5 560,-269.5 1013,-269.5 1013,-269.5 1019,-269.5 1025,-275.5 1025,-281.5 1025,-281.5 1025,-310.5 1025,-310.5 1025,-316.5 1019,-322.5 1013,-322.5"/>
<text text-anchor="middle" x="786.5" y="-307.3" font-family="Times-Roman" font-size="14.00">A farmer in France wakes up and finds that all</text>
<text text-anchor="middle" x="786.5" y="-292.3" font-family="Times-Roman" font-size="14.00"> &#160;&#160;&#160;&#160;&#160;&#160;&#160;&#160;his animals can speak... Chinese. Lots of laughs as</text>
<text text-anchor="middle" x="786.5" y="-277.3" font-family="Times-Roman" font-size="14.00"> &#160;&#160;&#160;&#160;&#160;&#160;&#160;&#160;the farmers teaches himself Chinese to talk to the animals...</text>
</g>
<!-- Un granjero en Francia despierta y descrubre que todos
 &#160;&#160;&#160;sus aniamles pueden hablar... Chino. Muchas risas mientras
 &#160;&#160;&#160;los granjeros aprenden Chino para hablar con los animales...&#45;&gt;A farmer in France wakes up and finds that all
 &#160;&#160;&#160;&#160;&#160;&#160;&#160;&#160;his animals can speak... Chinese. Lots of laughs as
 &#160;&#160;&#160;&#160;&#160;&#160;&#160;&#160;the farmers teaches himself Chinese to talk to the animals... -->
<g id="edge9" class="edge">
<title>Un granjero en Francia despierta y descrubre que todos
 &#160;&#160;&#160;sus aniamles pueden hablar... Chino. Muchas risas mientras
 &#160;&#160;&#160;los granjeros aprenden Chino para hablar con los animales...&#45;&gt;A farmer in France wakes up and finds that all
 &#160;&#160;&#160;&#160;&#160;&#160;&#160;&#160;his animals can speak... Chinese. Lots of laughs as
 &#160;&#160;&#160;&#160;&#160;&#160;&#160;&#160;the farmers teaches himself Chinese to talk to the animals...</title>
<path fill="none" stroke="black" d="M484.58,-296C502.11,-296 519.86,-296 537.51,-296"/>
<polygon fill="black" stroke="black" points="537.89,-299.5 547.89,-296 537.89,-292.5 537.89,-299.5"/>
</g>
<!-- Comedy -->
<g id="node15" class="node">
<title>Comedy</title>
<path fill="#f5f5f5" stroke="black" d="M1131.5,-314C1131.5,-314 1081.5,-314 1081.5,-314 1075.5,-314 1069.5,-308 1069.5,-302 1069.5,-302 1069.5,-290 1069.5,-290 1069.5,-284 1075.5,-278 1081.5,-278 1081.5,-278 1131.5,-278 1131.5,-278 1137.5,-278 1143.5,-284 1143.5,-290 1143.5,-290 1143.5,-302 1143.5,-302 1143.5,-308 1137.5,-314 1131.5,-314"/>
<text text-anchor="middle" x="1106.5" y="-292.3" font-family="Times-Roman" font-size="14.00">Comedy</text>
</g>
<!-- A farmer in France wakes up and finds that all
 &#160;&#160;&#160;&#160;&#160;&#160;&#160;&#160;his animals can speak... Chinese. Lots of laughs as
 &#160;&#160;&#160;&#160;&#160;&#160;&#160;&#160;the farmers teaches himself Chinese to talk to the animals...&#45;&gt;Comedy -->
<g id="edge10" class="edge">
<title>A farmer in France wakes up and finds that all
 &#160;&#160;&#160;&#160;&#160;&#160;&#160;&#160;his animals can speak... Chinese. Lots of laughs as
 &#160;&#160;&#160;&#160;&#160;&#160;&#160;&#160;the farmers teaches himself Chinese to talk to the animals...&#45;&gt;Comedy</title>
<path fill="none" stroke="black" d="M1025.26,-296C1037.53,-296 1048.96,-296 1059.13,-296"/>
<polygon fill="black" stroke="black" points="1059.25,-299.5 1069.25,-296 1059.25,-292.5 1059.25,-299.5"/>
</g>
<!-- Una pequeña villa India tiene visitas de turistas del espacio &#45;
 &#160;&#160;&#160;extraterrestres de otra galaxy. Una sorpresa como los extraterrestres
 &#160;&#160;&#160;tienen más que aprender de los lugareños de lo que piensan... -->
<g id="node16" class="node">
<title>Una pequeña villa India tiene visitas de turistas del espacio &#45;
 &#160;&#160;&#160;extraterrestres de otra galaxy. Una sorpresa como los extraterrestres
 &#160;&#160;&#160;tienen más que aprender de los lugareños de lo que piensan...</title>
<path fill="#f5f5f5" stroke="black" d="M500,-393.5C500,-393.5 12,-393.5 12,-393.5 6,-393.5 0,-387.5 0,-381.5 0,-381.5 0,-352.5 0,-352.5 0,-346.5 6,-340.5 12,-340.5 12,-340.5 500,-340.5 500,-340.5 506,-340.5 512,-346.5 512,-352.5 512,-352.5 512,-381.5 512,-381.5 512,-387.5 506,-393.5 500,-393.5"/>
<text text-anchor="middle" x="256" y="-378.3" font-family="Times-Roman" font-size="14.00">Una pequeña villa India tiene visitas de turistas del espacio &#45;</text>
<text text-anchor="middle" x="256" y="-363.3" font-family="Times-Roman" font-size="14.00"> &#160;&#160;&#160;extraterrestres de otra galaxy. Una sorpresa como los extraterrestres</text>
<text text-anchor="middle" x="256" y="-348.3" font-family="Times-Roman" font-size="14.00"> &#160;&#160;&#160;tienen más que aprender de los lugareños de lo que piensan...</text>
</g>
<!-- A small Indian village has a visit from space tourists &#45;
 &#160;&#160;&#160;&#160;&#160;&#160;&#160;&#160;aliens from another galaxy. A surprise as the aliens have
 &#160;&#160;&#160;&#160;&#160;&#160;&#160;&#160;more to learn from the locals than they think... -->
<g id="node17" class="node">
<title>A small Indian village has a visit from space tourists &#45;
 &#160;&#160;&#160;&#160;&#160;&#160;&#160;&#160;aliens from another galaxy. A surprise as the aliens have
 &#160;&#160;&#160;&#160;&#160;&#160;&#160;&#160;more to learn from the locals than they think...</title>
<path fill="#f5f5f5" stroke="black" d="M1000.5,-393.5C1000.5,-393.5 572.5,-393.5 572.5,-393.5 566.5,-393.5 560.5,-387.5 560.5,-381.5 560.5,-381.5 560.5,-352.5 560.5,-352.5 560.5,-346.5 566.5,-340.5 572.5,-340.5 572.5,-340.5 1000.5,-340.5 1000.5,-340.5 1006.5,-340.5 1012.5,-346.5 1012.5,-352.5 1012.5,-352.5 1012.5,-381.5 1012.5,-381.5 1012.5,-387.5 1006.5,-393.5 1000.5,-393.5"/>
<text text-anchor="middle" x="786.5" y="-378.3" font-family="Times-Roman" font-size="14.00">A small Indian village has a visit from space tourists &#45;</text>
<text text-anchor="middle" x="786.5" y="-363.3" font-family="Times-Roman" font-size="14.00"> &#160;&#160;&#160;&#160;&#160;&#160;&#160;&#160;aliens from another galaxy. A surprise as the aliens have</text>
<text text-anchor="middle" x="786.5" y="-348.3" font-family="Times-Roman" font-size="14.00"> &#160;&#160;&#160;&#160;&#160;&#160;&#160;&#160;more to learn from the locals than they think...</text>
</g>
<!-- Una pequeña villa India tiene visitas de turistas del espacio &#45;
 &#160;&#160;&#160;extraterrestres de otra galaxy. Una sorpresa como los extraterrestres
 &#160;&#160;&#160;tienen más que aprender de los lugareños de lo que piensan...&#45;&gt;A small Indian village has a visit from space tourists &#45;
 &#160;&#160;&#160;&#160;&#160;&#160;&#160;&#160;aliens from another galaxy. A surprise as the aliens have
 &#160;&#160;&#160;&#160;&#160;&#160;&#160;&#160;more to learn from the locals than they think... -->
<g id="edge11" class="edge">
<title>Una pequeña villa India tiene visitas de turistas del espacio &#45;
 &#160;&#160;&#160;extraterrestres de otra galaxy. Una sorpresa como los extraterrestres
 &#160;&#160;&#160;tienen más que aprender de los lugareños de lo que piensan...&#45;&gt;A small Indian village has a visit from space tourists &#45;
 &#160;&#160;&#160;&#160;&#160;&#160;&#160;&#160;aliens from another galaxy. A surprise as the aliens have
 &#160;&#160;&#160;&#160;&#160;&#160;&#160;&#160;more to learn from the locals than they think...</title>
<path fill="none" stroke="black" d="M512.35,-367C524.94,-367 537.55,-367 550.08,-367"/>
<polygon fill="black" stroke="black" points="550.11,-370.5 560.11,-367 550.11,-363.5 550.11,-370.5"/>
</g>
<!-- Sci&#45;Fi film -->
<g id="node18" class="node">
<title>Sci&#45;Fi film</title>
<path fill="#f5f5f5" stroke="black" d="M1136,-385C1136,-385 1077,-385 1077,-385 1071,-385 1065,-379 1065,-373 1065,-373 1065,-361 1065,-361 1065,-355 1071,-349 1077,-349 1077,-349 1136,-349 1136,-349 1142,-349 1148,-355 1148,-361 1148,-361 1148,-373 1148,-373 1148,-379 1142,-385 1136,-385"/>
<text text-anchor="middle" x="1106.5" y="-363.3" font-family="Times-Roman" font-size="14.00">Sci&#45;Fi film</text>
</g>
<!-- A small Indian village has a visit from space tourists &#45;
 &#160;&#160;&#160;&#160;&#160;&#160;&#160;&#160;aliens from another galaxy. A surprise as the aliens have
 &#160;&#160;&#160;&#160;&#160;&#160;&#160;&#160;more to learn from the locals than they think...&#45;&gt;Sci&#45;Fi film -->
<g id="edge12" class="edge">
<title>A small Indian village has a visit from space tourists &#45;
 &#160;&#160;&#160;&#160;&#160;&#160;&#160;&#160;aliens from another galaxy. A surprise as the aliens have
 &#160;&#160;&#160;&#160;&#160;&#160;&#160;&#160;more to learn from the locals than they think...&#45;&gt;Sci&#45;Fi film</title>
<path fill="none" stroke="black" d="M1012.67,-367C1027.96,-367 1042.26,-367 1054.84,-367"/>
<polygon fill="black" stroke="black" points="1054.98,-370.5 1064.98,-367 1054.98,-363.5 1054.98,-370.5"/>
</g>
<!-- Sally Bonner pierde a sus padres en un accidente de tren.
 &#160;&#160;&#160;Ella es ciega y crece sola sin amigos... pero entonces
 &#160;&#160;&#160;Edmund, su profesor, ayuda a Sally a tocar el piano... -->
<g id="node19" class="node">
<title>Sally Bonner pierde a sus padres en un accidente de tren.
 &#160;&#160;&#160;Ella es ciega y crece sola sin amigos... pero entonces
 &#160;&#160;&#160;Edmund, su profesor, ayuda a Sally a tocar el piano...</title>
<path fill="#f5f5f5" stroke="black" d="M453.5,-472.5C453.5,-472.5 58.5,-472.5 58.5,-472.5 52.5,-472.5 46.5,-466.5 46.5,-460.5 46.5,-460.5 46.5,-431.5 46.5,-431.5 46.5,-425.5 52.5,-419.5 58.5,-419.5 58.5,-419.5 453.5,-419.5 453.5,-419.5 459.5,-419.5 465.5,-425.5 465.5,-431.5 465.5,-431.5 465.5,-460.5 465.5,-460.5 465.5,-466.5 459.5,-472.5 453.5,-472.5"/>
<text text-anchor="middle" x="256" y="-457.3" font-family="Times-Roman" font-size="14.00">Sally Bonner pierde a sus padres en un accidente de tren.</text>
<text text-anchor="middle" x="256" y="-442.3" font-family="Times-Roman" font-size="14.00"> &#160;&#160;&#160;Ella es ciega y crece sola sin amigos... pero entonces</text>
<text text-anchor="middle" x="256" y="-427.3" font-family="Times-Roman" font-size="14.00"> &#160;&#160;&#160;Edmund, su profesor, ayuda a Sally a tocar el piano...</text>
</g>
<!-- Sally Bonner loses her parents in a train accident.
 &#160;&#160;&#160;&#160;&#160;&#160;She is blind and grows up alone with no friends...
 &#160;&#160;&#160;&#160;&#160;&#160;but then Edmund, her teacher, helps Sally learn to
 &#160;&#160;&#160;&#160;&#160;&#160;play the piano... -->
<g id="node20" class="node">
<title>Sally Bonner loses her parents in a train accident.
 &#160;&#160;&#160;&#160;&#160;&#160;She is blind and grows up alone with no friends...
 &#160;&#160;&#160;&#160;&#160;&#160;but then Edmund, her teacher, helps Sally learn to
 &#160;&#160;&#160;&#160;&#160;&#160;play the piano...</title>
<path fill="#f5f5f5" stroke="black" d="M975,-480C975,-480 598,-480 598,-480 592,-480 586,-474 586,-468 586,-468 586,-424 586,-424 586,-418 592,-412 598,-412 598,-412 975,-412 975,-412 981,-412 987,-418 987,-424 987,-424 987,-468 987,-468 987,-474 981,-480 975,-480"/>
<text text-anchor="middle" x="786.5" y="-464.8" font-family="Times-Roman" font-size="14.00">Sally Bonner loses her parents in a train accident.</text>
<text text-anchor="middle" x="786.5" y="-449.8" font-family="Times-Roman" font-size="14.00"> &#160;&#160;&#160;&#160;&#160;&#160;She is blind and grows up alone with no friends...</text>
<text text-anchor="middle" x="786.5" y="-434.8" font-family="Times-Roman" font-size="14.00"> &#160;&#160;&#160;&#160;&#160;&#160;but then Edmund, her teacher, helps Sally learn to</text>
<text text-anchor="middle" x="786.5" y="-419.8" font-family="Times-Roman" font-size="14.00"> &#160;&#160;&#160;&#160;&#160;&#160;play the piano...</text>
</g>
<!-- Sally Bonner pierde a sus padres en un accidente de tren.
 &#160;&#160;&#160;Ella es ciega y crece sola sin amigos... pero entonces
 &#160;&#160;&#160;Edmund, su profesor, ayuda a Sally a tocar el piano...&#45;&gt;Sally Bonner loses her parents in a train accident.
 &#160;&#160;&#160;&#160;&#160;&#160;She is blind and grows up alone with no friends...
 &#160;&#160;&#160;&#160;&#160;&#160;but then Edmund, her teacher, helps Sally learn to
 &#160;&#160;&#160;&#160;&#160;&#160;play the piano... -->
<g id="edge13" class="edge">
<title>Sally Bonner pierde a sus padres en un accidente de tren.
 &#160;&#160;&#160;Ella es ciega y crece sola sin amigos... pero entonces
 &#160;&#160;&#160;Edmund, su profesor, ayuda a Sally a tocar el piano...&#45;&gt;Sally Bonner loses her parents in a train accident.
 &#160;&#160;&#160;&#160;&#160;&#160;She is blind and grows up alone with no friends...
 &#160;&#160;&#160;&#160;&#160;&#160;but then Edmund, her teacher, helps Sally learn to
 &#160;&#160;&#160;&#160;&#160;&#160;play the piano...</title>
<path fill="none" stroke="black" d="M465.88,-446C502.01,-446 539.59,-446 575.74,-446"/>
<polygon fill="black" stroke="black" points="575.9,-449.5 585.9,-446 575.9,-442.5 575.9,-449.5"/>
</g>
<!-- Drama -->
<g id="node21" class="node">
<title>Drama</title>
<path fill="#f5f5f5" stroke="black" d="M1126,-464C1126,-464 1087,-464 1087,-464 1081,-464 1075,-458 1075,-452 1075,-452 1075,-440 1075,-440 1075,-434 1081,-428 1087,-428 1087,-428 1126,-428 1126,-428 1132,-428 1138,-434 1138,-440 1138,-440 1138,-452 1138,-452 1138,-458 1132,-464 1126,-464"/>
<text text-anchor="middle" x="1106.5" y="-442.3" font-family="Times-Roman" font-size="14.00">Drama</text>
</g>
<!-- Sally Bonner loses her parents in a train accident.
 &#160;&#160;&#160;&#160;&#160;&#160;She is blind and grows up alone with no friends...
 &#160;&#160;&#160;&#160;&#160;&#160;but then Edmund, her teacher, helps Sally learn to
 &#160;&#160;&#160;&#160;&#160;&#160;play the piano...&#45;&gt;Drama -->
<g id="edge14" class="edge">
<title>Sally Bonner loses her parents in a train accident.
 &#160;&#160;&#160;&#160;&#160;&#160;She is blind and grows up alone with no friends...
 &#160;&#160;&#160;&#160;&#160;&#160;but then Edmund, her teacher, helps Sally learn to
 &#160;&#160;&#160;&#160;&#160;&#160;play the piano...&#45;&gt;Drama</title>
<path fill="none" stroke="black" d="M987.09,-446C1016.34,-446 1043.62,-446 1064.61,-446"/>
<polygon fill="black" stroke="black" points="1064.69,-449.5 1074.69,-446 1064.69,-442.5 1064.69,-449.5"/>
</g>
</g>
</svg>
