<?xml version="1.0" encoding="UTF-8" standalone="no"?>
<!DOCTYPE svg PUBLIC "-//W3C//DTD SVG 1.1//EN"
 "http://www.w3.org/Graphics/SVG/1.1/DTD/svg11.dtd">
<!-- Generated by graphviz version 2.44.0 (0)
 -->
<!-- Pages: 1 -->
<svg width="962pt" height="540pt"
 viewBox="0.00 0.00 962.00 540.00" xmlns="http://www.w3.org/2000/svg" xmlns:xlink="http://www.w3.org/1999/xlink">
<g id="graph0" class="graph" transform="scale(1 1) rotate(0) translate(4 536)">
<polygon fill="white" stroke="transparent" points="-4,4 -4,-536 958,-536 958,4 -4,4"/>
<!-- compra en línea -->
<g id="node1" class="node">
<title>compra en línea</title>
<path fill="#f5f5f5" stroke="black" d="M596,-420C596,-420 492,-420 492,-420 486,-420 480,-414 480,-408 480,-408 480,-396 480,-396 480,-390 486,-384 492,-384 492,-384 596,-384 596,-384 602,-384 608,-390 608,-396 608,-396 608,-408 608,-408 608,-414 602,-420 596,-420"/>
<text text-anchor="middle" x="544" y="-398.3" font-family="Times-Roman" font-size="14.00">compra en línea</text>
</g>
<!-- shopping online -->
<g id="node2" class="node">
<title>shopping online</title>
<path fill="#f5f5f5" stroke="black" d="M796,-420C796,-420 692,-420 692,-420 686,-420 680,-414 680,-408 680,-408 680,-396 680,-396 680,-390 686,-384 692,-384 692,-384 796,-384 796,-384 802,-384 808,-390 808,-396 808,-396 808,-408 808,-408 808,-414 802,-420 796,-420"/>
<text text-anchor="middle" x="744" y="-398.3" font-family="Times-Roman" font-size="14.00">shopping online</text>
</g>
<!-- compra en línea&#45;&gt;shopping online -->
<g id="edge1" class="edge">
<title>compra en línea&#45;&gt;shopping online</title>
<path fill="none" stroke="black" d="M608.11,-402C627.75,-402 649.53,-402 669.79,-402"/>
<polygon fill="black" stroke="black" points="669.91,-405.5 679.91,-402 669.91,-398.5 669.91,-405.5"/>
</g>
<!-- comprando en una pequeña tienda -->
<g id="node3" class="node">
<title>comprando en una pequeña tienda</title>
<path fill="#f5f5f5" stroke="black" d="M569,-164C569,-164 332,-164 332,-164 326,-164 320,-158 320,-152 320,-152 320,-140 320,-140 320,-134 326,-128 332,-128 332,-128 569,-128 569,-128 575,-128 581,-134 581,-140 581,-140 581,-152 581,-152 581,-158 575,-164 569,-164"/>
<text text-anchor="middle" x="450.5" y="-142.3" font-family="Times-Roman" font-size="14.00">comprando en una pequeña tienda</text>
</g>
<!-- shopping in a small shop -->
<g id="node4" class="node">
<title>shopping in a small shop</title>
<path fill="#f5f5f5" stroke="black" d="M832,-164C832,-164 665,-164 665,-164 659,-164 653,-158 653,-152 653,-152 653,-140 653,-140 653,-134 659,-128 665,-128 665,-128 832,-128 832,-128 838,-128 844,-134 844,-140 844,-140 844,-152 844,-152 844,-158 838,-164 832,-164"/>
<text text-anchor="middle" x="748.5" y="-142.3" font-family="Times-Roman" font-size="14.00">shopping in a small shop</text>
</g>
<!-- comprando en una pequeña tienda&#45;&gt;shopping in a small shop -->
<g id="edge2" class="edge">
<title>comprando en una pequeña tienda&#45;&gt;shopping in a small shop</title>
<path fill="none" stroke="black" d="M581.21,-146C601.81,-146 622.89,-146 642.83,-146"/>
<polygon fill="black" stroke="black" points="642.83,-149.5 652.83,-146 642.83,-142.5 642.83,-149.5"/>
</g>
<!-- compras en grandes centros comerciales -->
<g id="node5" class="node">
<title>compras en grandes centros comerciales</title>
<path fill="#f5f5f5" stroke="black" d="M290,-228C290,-228 12,-228 12,-228 6,-228 0,-222 0,-216 0,-216 0,-204 0,-204 0,-198 6,-192 12,-192 12,-192 290,-192 290,-192 296,-192 302,-198 302,-204 302,-204 302,-216 302,-216 302,-222 296,-228 290,-228"/>
<text text-anchor="middle" x="151" y="-206.3" font-family="Times-Roman" font-size="14.00">compras en grandes centros comerciales</text>
</g>
<!-- shopping in a big shopping malls -->
<g id="node6" class="node">
<title>shopping in a big shopping malls</title>
<path fill="#f5f5f5" stroke="black" d="M610,-228C610,-228 386,-228 386,-228 380,-228 374,-222 374,-216 374,-216 374,-204 374,-204 374,-198 380,-192 386,-192 386,-192 610,-192 610,-192 616,-192 622,-198 622,-204 622,-204 622,-216 622,-216 622,-222 616,-228 610,-228"/>
<text text-anchor="middle" x="498" y="-206.3" font-family="Times-Roman" font-size="14.00">shopping in a big shopping malls</text>
</g>
<!-- compras en grandes centros comerciales&#45;&gt;shopping in a big shopping malls -->
<g id="edge3" class="edge">
<title>compras en grandes centros comerciales&#45;&gt;shopping in a big shopping malls</title>
<path fill="none" stroke="black" d="M302.19,-210C322.66,-210 343.55,-210 363.69,-210"/>
<polygon fill="black" stroke="black" points="363.83,-213.5 373.83,-210 363.83,-206.5 363.83,-213.5"/>
</g>
<!-- compras en un gran centro comercial -->
<g id="node7" class="node">
<title>compras en un gran centro comercial</title>
<path fill="#f5f5f5" stroke="black" d="M616,-292C616,-292 364,-292 364,-292 358,-292 352,-286 352,-280 352,-280 352,-268 352,-268 352,-262 358,-256 364,-256 364,-256 616,-256 616,-256 622,-256 628,-262 628,-268 628,-268 628,-280 628,-280 628,-286 622,-292 616,-292"/>
<text text-anchor="middle" x="490" y="-270.3" font-family="Times-Roman" font-size="14.00">compras en un gran centro comercial</text>
</g>
<!-- shopping in a big shopping centre -->
<g id="node8" class="node">
<title>shopping in a big shopping centre</title>
<path fill="#f5f5f5" stroke="black" d="M942,-292C942,-292 712,-292 712,-292 706,-292 700,-286 700,-280 700,-280 700,-268 700,-268 700,-262 706,-256 712,-256 712,-256 942,-256 942,-256 948,-256 954,-262 954,-268 954,-268 954,-280 954,-280 954,-286 948,-292 942,-292"/>
<text text-anchor="middle" x="827" y="-270.3" font-family="Times-Roman" font-size="14.00">shopping in a big shopping centre</text>
</g>
<!-- compras en un gran centro comercial&#45;&gt;shopping in a big shopping centre -->
<g id="edge4" class="edge">
<title>compras en un gran centro comercial&#45;&gt;shopping in a big shopping centre</title>
<path fill="none" stroke="black" d="M628.04,-274C648.34,-274 669.24,-274 689.52,-274"/>
<polygon fill="black" stroke="black" points="689.74,-277.5 699.74,-274 689.74,-270.5 689.74,-277.5"/>
</g>
<!-- conveniencia -->
<g id="node9" class="node">
<title>conveniencia</title>
<path fill="#f5f5f5" stroke="black" d="M191.5,-404C191.5,-404 108.5,-404 108.5,-404 102.5,-404 96.5,-398 96.5,-392 96.5,-392 96.5,-380 96.5,-380 96.5,-374 102.5,-368 108.5,-368 108.5,-368 191.5,-368 191.5,-368 197.5,-368 203.5,-374 203.5,-380 203.5,-380 203.5,-392 203.5,-392 203.5,-398 197.5,-404 191.5,-404"/>
<text text-anchor="middle" x="150" y="-382.3" font-family="Times-Roman" font-size="14.00">conveniencia</text>
</g>
<!-- convenience -->
<g id="node10" class="node">
<title>convenience</title>
<path fill="#f5f5f5" stroke="black" d="M367.5,-404C367.5,-404 287.5,-404 287.5,-404 281.5,-404 275.5,-398 275.5,-392 275.5,-392 275.5,-380 275.5,-380 275.5,-374 281.5,-368 287.5,-368 287.5,-368 367.5,-368 367.5,-368 373.5,-368 379.5,-374 379.5,-380 379.5,-380 379.5,-392 379.5,-392 379.5,-398 373.5,-404 367.5,-404"/>
<text text-anchor="middle" x="327.5" y="-382.3" font-family="Times-Roman" font-size="14.00">convenience</text>
</g>
<!-- conveniencia&#45;&gt;convenience -->
<g id="edge5" class="edge">
<title>conveniencia&#45;&gt;convenience</title>
<path fill="none" stroke="black" d="M203.74,-386C223.2,-386 245.34,-386 265.47,-386"/>
<polygon fill="black" stroke="black" points="265.47,-389.5 275.47,-386 265.47,-382.5 265.47,-389.5"/>
</g>
<!-- conveniente -->
<g id="node11" class="node">
<title>conveniente</title>
<path fill="#f5f5f5" stroke="black" d="M329,-532C329,-532 252,-532 252,-532 246,-532 240,-526 240,-520 240,-520 240,-508 240,-508 240,-502 246,-496 252,-496 252,-496 329,-496 329,-496 335,-496 341,-502 341,-508 341,-508 341,-520 341,-520 341,-526 335,-532 329,-532"/>
<text text-anchor="middle" x="290.5" y="-510.3" font-family="Times-Roman" font-size="14.00">conveniente</text>
</g>
<!-- convenient -->
<g id="node12" class="node">
<title>convenient</title>
<path fill="#f5f5f5" stroke="black" d="M494,-532C494,-532 425,-532 425,-532 419,-532 413,-526 413,-520 413,-520 413,-508 413,-508 413,-502 419,-496 425,-496 425,-496 494,-496 494,-496 500,-496 506,-502 506,-508 506,-508 506,-520 506,-520 506,-526 500,-532 494,-532"/>
<text text-anchor="middle" x="459.5" y="-510.3" font-family="Times-Roman" font-size="14.00">convenient</text>
</g>
<!-- conveniente&#45;&gt;convenient -->
<g id="edge6" class="edge">
<title>conveniente&#45;&gt;convenient</title>
<path fill="none" stroke="black" d="M341.21,-514C360.58,-514 382.79,-514 402.7,-514"/>
<polygon fill="black" stroke="black" points="402.87,-517.5 412.87,-514 402.87,-510.5 402.87,-517.5"/>
</g>
<!-- disfrute -->
<g id="node13" class="node">
<title>disfrute</title>
<path fill="#f5f5f5" stroke="black" d="M107.5,-164C107.5,-164 60.5,-164 60.5,-164 54.5,-164 48.5,-158 48.5,-152 48.5,-152 48.5,-140 48.5,-140 48.5,-134 54.5,-128 60.5,-128 60.5,-128 107.5,-128 107.5,-128 113.5,-128 119.5,-134 119.5,-140 119.5,-140 119.5,-152 119.5,-152 119.5,-158 113.5,-164 107.5,-164"/>
<text text-anchor="middle" x="84" y="-142.3" font-family="Times-Roman" font-size="14.00">disfrute</text>
</g>
<!-- enjoyment -->
<g id="node14" class="node">
<title>enjoyment</title>
<path fill="#f5f5f5" stroke="black" d="M269.5,-164C269.5,-164 203.5,-164 203.5,-164 197.5,-164 191.5,-158 191.5,-152 191.5,-152 191.5,-140 191.5,-140 191.5,-134 197.5,-128 203.5,-128 203.5,-128 269.5,-128 269.5,-128 275.5,-128 281.5,-134 281.5,-140 281.5,-140 281.5,-152 281.5,-152 281.5,-158 275.5,-164 269.5,-164"/>
<text text-anchor="middle" x="236.5" y="-142.3" font-family="Times-Roman" font-size="14.00">enjoyment</text>
</g>
<!-- disfrute&#45;&gt;enjoyment -->
<g id="edge7" class="edge">
<title>disfrute&#45;&gt;enjoyment</title>
<path fill="none" stroke="black" d="M119.75,-146C138.06,-146 160.74,-146 181.23,-146"/>
<polygon fill="black" stroke="black" points="181.4,-149.5 191.4,-146 181.4,-142.5 181.4,-149.5"/>
</g>
<!-- tendencias -->
<g id="node15" class="node">
<title>tendencias</title>
<path fill="#f5f5f5" stroke="black" d="M144.5,-100C144.5,-100 76.5,-100 76.5,-100 70.5,-100 64.5,-94 64.5,-88 64.5,-88 64.5,-76 64.5,-76 64.5,-70 70.5,-64 76.5,-64 76.5,-64 144.5,-64 144.5,-64 150.5,-64 156.5,-70 156.5,-76 156.5,-76 156.5,-88 156.5,-88 156.5,-94 150.5,-100 144.5,-100"/>
<text text-anchor="middle" x="110.5" y="-78.3" font-family="Times-Roman" font-size="14.00">tendencias</text>
</g>
<!-- trends -->
<g id="node16" class="node">
<title>trends</title>
<path fill="#f5f5f5" stroke="black" d="M277.5,-100C277.5,-100 240.5,-100 240.5,-100 234.5,-100 228.5,-94 228.5,-88 228.5,-88 228.5,-76 228.5,-76 228.5,-70 234.5,-64 240.5,-64 240.5,-64 277.5,-64 277.5,-64 283.5,-64 289.5,-70 289.5,-76 289.5,-76 289.5,-88 289.5,-88 289.5,-94 283.5,-100 277.5,-100"/>
<text text-anchor="middle" x="259" y="-78.3" font-family="Times-Roman" font-size="14.00">trends</text>
</g>
<!-- tendencias&#45;&gt;trends -->
<g id="edge8" class="edge">
<title>tendencias&#45;&gt;trends</title>
<path fill="none" stroke="black" d="M156.67,-82C176.36,-82 199.13,-82 218.18,-82"/>
<polygon fill="black" stroke="black" points="218.35,-85.5 228.35,-82 218.35,-78.5 218.35,-85.5"/>
</g>
<!-- hipermercados -->
<g id="node17" class="node">
<title>hipermercados</title>
<path fill="#f5f5f5" stroke="black" d="M427,-36C427,-36 332,-36 332,-36 326,-36 320,-30 320,-24 320,-24 320,-12 320,-12 320,-6 326,0 332,0 332,0 427,0 427,0 433,0 439,-6 439,-12 439,-12 439,-24 439,-24 439,-30 433,-36 427,-36"/>
<text text-anchor="middle" x="379.5" y="-14.3" font-family="Times-Roman" font-size="14.00">hipermercados</text>
</g>
<!-- hypermarkets -->
<g id="node18" class="node">
<title>hypermarkets</title>
<path fill="#f5f5f5" stroke="black" d="M612,-36C612,-36 523,-36 523,-36 517,-36 511,-30 511,-24 511,-24 511,-12 511,-12 511,-6 517,0 523,0 523,0 612,0 612,0 618,0 624,-6 624,-12 624,-12 624,-24 624,-24 624,-30 618,-36 612,-36"/>
<text text-anchor="middle" x="567.5" y="-14.3" font-family="Times-Roman" font-size="14.00">hypermarkets</text>
</g>
<!-- hipermercados&#45;&gt;hypermarkets -->
<g id="edge9" class="edge">
<title>hipermercados&#45;&gt;hypermarkets</title>
<path fill="none" stroke="black" d="M439.24,-18C458.74,-18 480.53,-18 500.52,-18"/>
<polygon fill="black" stroke="black" points="500.8,-21.5 510.8,-18 500.8,-14.5 500.8,-21.5"/>
</g>
<!-- en comparación con -->
<g id="node19" class="node">
<title>en comparación con</title>
<path fill="#f5f5f5" stroke="black" d="M257.5,-468C257.5,-468 124.5,-468 124.5,-468 118.5,-468 112.5,-462 112.5,-456 112.5,-456 112.5,-444 112.5,-444 112.5,-438 118.5,-432 124.5,-432 124.5,-432 257.5,-432 257.5,-432 263.5,-432 269.5,-438 269.5,-444 269.5,-444 269.5,-456 269.5,-456 269.5,-462 263.5,-468 257.5,-468"/>
<text text-anchor="middle" x="191" y="-446.3" font-family="Times-Roman" font-size="14.00">en comparación con</text>
</g>
<!-- compared to -->
<g id="node20" class="node">
<title>compared to</title>
<path fill="#f5f5f5" stroke="black" d="M433.5,-468C433.5,-468 353.5,-468 353.5,-468 347.5,-468 341.5,-462 341.5,-456 341.5,-456 341.5,-444 341.5,-444 341.5,-438 347.5,-432 353.5,-432 353.5,-432 433.5,-432 433.5,-432 439.5,-432 445.5,-438 445.5,-444 445.5,-444 445.5,-456 445.5,-456 445.5,-462 439.5,-468 433.5,-468"/>
<text text-anchor="middle" x="393.5" y="-446.3" font-family="Times-Roman" font-size="14.00">compared to</text>
</g>
<!-- en comparación con&#45;&gt;compared to -->
<g id="edge10" class="edge">
<title>en comparación con&#45;&gt;compared to</title>
<path fill="none" stroke="black" d="M269.58,-450C289.94,-450 311.58,-450 330.99,-450"/>
<polygon fill="black" stroke="black" points="331.22,-453.5 341.22,-450 331.22,-446.5 331.22,-453.5"/>
</g>
<!-- sala de exposición -->
<g id="node21" class="node">
<title>sala de exposición</title>
<path fill="#f5f5f5" stroke="black" d="M676,-484C676,-484 556,-484 556,-484 550,-484 544,-478 544,-472 544,-472 544,-460 544,-460 544,-454 550,-448 556,-448 556,-448 676,-448 676,-448 682,-448 688,-454 688,-460 688,-460 688,-472 688,-472 688,-478 682,-484 676,-484"/>
<text text-anchor="middle" x="616" y="-462.3" font-family="Times-Roman" font-size="14.00">sala de exposición</text>
</g>
<!-- showroom -->
<g id="node22" class="node">
<title>showroom</title>
<path fill="#f5f5f5" stroke="black" d="M836,-484C836,-484 772,-484 772,-484 766,-484 760,-478 760,-472 760,-472 760,-460 760,-460 760,-454 766,-448 772,-448 772,-448 836,-448 836,-448 842,-448 848,-454 848,-460 848,-460 848,-472 848,-472 848,-478 842,-484 836,-484"/>
<text text-anchor="middle" x="804" y="-462.3" font-family="Times-Roman" font-size="14.00">showroom</text>
</g>
<!-- sala de exposición&#45;&gt;showroom -->
<g id="edge11" class="edge">
<title>sala de exposición&#45;&gt;showroom</title>
<path fill="none" stroke="black" d="M688.15,-466C708.6,-466 730.51,-466 749.71,-466"/>
<polygon fill="black" stroke="black" points="749.78,-469.5 759.78,-466 749.78,-462.5 749.78,-469.5"/>
</g>
<!-- compradores -->
<g id="node23" class="node">
<title>compradores</title>
<path fill="#f5f5f5" stroke="black" d="M159,-340C159,-340 76,-340 76,-340 70,-340 64,-334 64,-328 64,-328 64,-316 64,-316 64,-310 70,-304 76,-304 76,-304 159,-304 159,-304 165,-304 171,-310 171,-316 171,-316 171,-328 171,-328 171,-334 165,-340 159,-340"/>
<text text-anchor="middle" x="117.5" y="-318.3" font-family="Times-Roman" font-size="14.00">compradores</text>
</g>
<!-- shoppers -->
<g id="node24" class="node">
<title>shoppers</title>
<path fill="#f5f5f5" stroke="black" d="M312,-340C312,-340 255,-340 255,-340 249,-340 243,-334 243,-328 243,-328 243,-316 243,-316 243,-310 249,-304 255,-304 255,-304 312,-304 312,-304 318,-304 324,-310 324,-316 324,-316 324,-328 324,-328 324,-334 318,-340 312,-340"/>
<text text-anchor="middle" x="283.5" y="-318.3" font-family="Times-Roman" font-size="14.00">shoppers</text>
</g>
<!-- compradores&#45;&gt;shoppers -->
<g id="edge12" class="edge">
<title>compradores&#45;&gt;shoppers</title>
<path fill="none" stroke="black" d="M171.4,-322C191.06,-322 213.21,-322 232.6,-322"/>
<polygon fill="black" stroke="black" points="232.76,-325.5 242.76,-322 232.76,-318.5 232.76,-325.5"/>
</g>
<!-- la misma que (ahora) -->
<g id="node25" class="node">
<title>la misma que (ahora)</title>
<path fill="#f5f5f5" stroke="black" d="M473,-100C473,-100 332,-100 332,-100 326,-100 320,-94 320,-88 320,-88 320,-76 320,-76 320,-70 326,-64 332,-64 332,-64 473,-64 473,-64 479,-64 485,-70 485,-76 485,-76 485,-88 485,-88 485,-94 479,-100 473,-100"/>
<text text-anchor="middle" x="402.5" y="-78.3" font-family="Times-Roman" font-size="14.00">la misma que (ahora)</text>
</g>
<!-- the same as (now) -->
<g id="node26" class="node">
<title>the same as (now)</title>
<path fill="#f5f5f5" stroke="black" d="M690,-100C690,-100 569,-100 569,-100 563,-100 557,-94 557,-88 557,-88 557,-76 557,-76 557,-70 563,-64 569,-64 569,-64 690,-64 690,-64 696,-64 702,-70 702,-76 702,-76 702,-88 702,-88 702,-94 696,-100 690,-100"/>
<text text-anchor="middle" x="629.5" y="-78.3" font-family="Times-Roman" font-size="14.00">the same as (now)</text>
</g>
<!-- la misma que (ahora)&#45;&gt;the same as (now) -->
<g id="edge13" class="edge">
<title>la misma que (ahora)&#45;&gt;the same as (now)</title>
<path fill="none" stroke="black" d="M485.09,-82C505.16,-82 526.61,-82 546.69,-82"/>
<polygon fill="black" stroke="black" points="546.73,-85.5 556.73,-82 546.73,-78.5 546.73,-85.5"/>
</g>
<!-- una tienda departamental -->
<g id="node27" class="node">
<title>una tienda departamental</title>
<path fill="#f5f5f5" stroke="black" d="M601.5,-356C601.5,-356 428.5,-356 428.5,-356 422.5,-356 416.5,-350 416.5,-344 416.5,-344 416.5,-332 416.5,-332 416.5,-326 422.5,-320 428.5,-320 428.5,-320 601.5,-320 601.5,-320 607.5,-320 613.5,-326 613.5,-332 613.5,-332 613.5,-344 613.5,-344 613.5,-350 607.5,-356 601.5,-356"/>
<text text-anchor="middle" x="515" y="-334.3" font-family="Times-Roman" font-size="14.00">una tienda departamental</text>
</g>
<!-- a department store -->
<g id="node28" class="node">
<title>a department store</title>
<path fill="#f5f5f5" stroke="black" d="M823.5,-356C823.5,-356 697.5,-356 697.5,-356 691.5,-356 685.5,-350 685.5,-344 685.5,-344 685.5,-332 685.5,-332 685.5,-326 691.5,-320 697.5,-320 697.5,-320 823.5,-320 823.5,-320 829.5,-320 835.5,-326 835.5,-332 835.5,-332 835.5,-344 835.5,-344 835.5,-350 829.5,-356 823.5,-356"/>
<text text-anchor="middle" x="760.5" y="-334.3" font-family="Times-Roman" font-size="14.00">a department store</text>
</g>
<!-- una tienda departamental&#45;&gt;a department store -->
<g id="edge14" class="edge">
<title>una tienda departamental&#45;&gt;a department store</title>
<path fill="none" stroke="black" d="M613.79,-338C634.1,-338 655.32,-338 675.11,-338"/>
<polygon fill="black" stroke="black" points="675.32,-341.5 685.32,-338 675.32,-334.5 675.32,-341.5"/>
</g>
</g>
</svg>
