<?xml version="1.0" encoding="UTF-8" standalone="no"?>
<!DOCTYPE svg PUBLIC "-//W3C//DTD SVG 1.1//EN"
 "http://www.w3.org/Graphics/SVG/1.1/DTD/svg11.dtd">
<!-- Generated by graphviz version 2.44.0 (0)
 -->
<!-- Pages: 1 -->
<svg width="672pt" height="748pt"
 viewBox="0.00 0.00 672.00 748.00" xmlns="http://www.w3.org/2000/svg" xmlns:xlink="http://www.w3.org/1999/xlink">
<g id="graph0" class="graph" transform="scale(1 1) rotate(0) translate(4 744)">
<polygon fill="white" stroke="transparent" points="-4,4 -4,-744 668,-744 668,4 -4,4"/>
<!-- ¿Te puedo hacer algunas preguntas? -->
<g id="node1" class="node">
<title>¿Te puedo hacer algunas preguntas?</title>
<path fill="#f5f5f5" stroke="black" d="M296,-36C296,-36 48,-36 48,-36 42,-36 36,-30 36,-24 36,-24 36,-12 36,-12 36,-6 42,0 48,0 48,0 296,0 296,0 302,0 308,-6 308,-12 308,-12 308,-24 308,-24 308,-30 302,-36 296,-36"/>
<text text-anchor="middle" x="172" y="-14.3" font-family="Times-Roman" font-size="14.00">¿Te puedo hacer algunas preguntas?</text>
</g>
<!-- Can I ask you a few questions? -->
<g id="node2" class="node">
<title>Can I ask you a few questions?</title>
<path fill="#f5f5f5" stroke="black" d="M626.5,-36C626.5,-36 417.5,-36 417.5,-36 411.5,-36 405.5,-30 405.5,-24 405.5,-24 405.5,-12 405.5,-12 405.5,-6 411.5,0 417.5,0 417.5,0 626.5,0 626.5,0 632.5,0 638.5,-6 638.5,-12 638.5,-12 638.5,-24 638.5,-24 638.5,-30 632.5,-36 626.5,-36"/>
<text text-anchor="middle" x="522" y="-14.3" font-family="Times-Roman" font-size="14.00">Can I ask you a few questions?</text>
</g>
<!-- ¿Te puedo hacer algunas preguntas?&#45;&gt;Can I ask you a few questions? -->
<g id="edge1" class="edge">
<title>¿Te puedo hacer algunas preguntas?&#45;&gt;Can I ask you a few questions?</title>
<path fill="none" stroke="black" d="M308.04,-18C336.63,-18 366.7,-18 394.93,-18"/>
<polygon fill="black" stroke="black" points="395.25,-21.5 405.25,-18 395.25,-14.5 395.25,-21.5"/>
</g>
<!-- ¿Qué tipo de festival te gustan? -->
<g id="node3" class="node">
<title>¿Qué tipo de festival te gustan?</title>
<path fill="#f5f5f5" stroke="black" d="M279,-90C279,-90 65,-90 65,-90 59,-90 53,-84 53,-78 53,-78 53,-66 53,-66 53,-60 59,-54 65,-54 65,-54 279,-54 279,-54 285,-54 291,-60 291,-66 291,-66 291,-78 291,-78 291,-84 285,-90 279,-90"/>
<text text-anchor="middle" x="172" y="-68.3" font-family="Times-Roman" font-size="14.00">¿Qué tipo de festival te gustan?</text>
</g>
<!-- What kind of festival do you like? -->
<g id="node4" class="node">
<title>What kind of festival do you like?</title>
<path fill="#f5f5f5" stroke="black" d="M633.5,-90C633.5,-90 410.5,-90 410.5,-90 404.5,-90 398.5,-84 398.5,-78 398.5,-78 398.5,-66 398.5,-66 398.5,-60 404.5,-54 410.5,-54 410.5,-54 633.5,-54 633.5,-54 639.5,-54 645.5,-60 645.5,-66 645.5,-66 645.5,-78 645.5,-78 645.5,-84 639.5,-90 633.5,-90"/>
<text text-anchor="middle" x="522" y="-68.3" font-family="Times-Roman" font-size="14.00">What kind of festival do you like?</text>
</g>
<!-- ¿Qué tipo de festival te gustan?&#45;&gt;What kind of festival do you like? -->
<g id="edge2" class="edge">
<title>¿Qué tipo de festival te gustan?&#45;&gt;What kind of festival do you like?</title>
<path fill="none" stroke="black" d="M291.3,-72C322.42,-72 356.19,-72 388.02,-72"/>
<polygon fill="black" stroke="black" points="388.28,-75.5 398.28,-72 388.28,-68.5 388.28,-75.5"/>
</g>
<!-- A las personas le gusta porque... -->
<g id="node5" class="node">
<title>A las personas le gusta porque...</title>
<path fill="#f5f5f5" stroke="black" d="M282.5,-144C282.5,-144 61.5,-144 61.5,-144 55.5,-144 49.5,-138 49.5,-132 49.5,-132 49.5,-120 49.5,-120 49.5,-114 55.5,-108 61.5,-108 61.5,-108 282.5,-108 282.5,-108 288.5,-108 294.5,-114 294.5,-120 294.5,-120 294.5,-132 294.5,-132 294.5,-138 288.5,-144 282.5,-144"/>
<text text-anchor="middle" x="172" y="-122.3" font-family="Times-Roman" font-size="14.00">A las personas le gusta porque...</text>
</g>
<!-- People like it because... -->
<g id="node6" class="node">
<title>People like it because...</title>
<path fill="#f5f5f5" stroke="black" d="M599.5,-144C599.5,-144 444.5,-144 444.5,-144 438.5,-144 432.5,-138 432.5,-132 432.5,-132 432.5,-120 432.5,-120 432.5,-114 438.5,-108 444.5,-108 444.5,-108 599.5,-108 599.5,-108 605.5,-108 611.5,-114 611.5,-120 611.5,-120 611.5,-132 611.5,-132 611.5,-138 605.5,-144 599.5,-144"/>
<text text-anchor="middle" x="522" y="-122.3" font-family="Times-Roman" font-size="14.00">People like it because...</text>
</g>
<!-- A las personas le gusta porque...&#45;&gt;People like it because... -->
<g id="edge3" class="edge">
<title>A las personas le gusta porque...&#45;&gt;People like it because...</title>
<path fill="none" stroke="black" d="M294.71,-126C336.36,-126 382.42,-126 422.05,-126"/>
<polygon fill="black" stroke="black" points="422.25,-129.5 432.25,-126 422.25,-122.5 422.25,-129.5"/>
</g>
<!-- Esto depende del festival... -->
<g id="node7" class="node">
<title>Esto depende del festival...</title>
<path fill="#f5f5f5" stroke="black" d="M263,-198C263,-198 81,-198 81,-198 75,-198 69,-192 69,-186 69,-186 69,-174 69,-174 69,-168 75,-162 81,-162 81,-162 263,-162 263,-162 269,-162 275,-168 275,-174 275,-174 275,-186 275,-186 275,-192 269,-198 263,-198"/>
<text text-anchor="middle" x="172" y="-176.3" font-family="Times-Roman" font-size="14.00">Esto depende del festival...</text>
</g>
<!-- It depends on the festival... -->
<g id="node8" class="node">
<title>It depends on the festival...</title>
<path fill="#f5f5f5" stroke="black" d="M614,-198C614,-198 430,-198 430,-198 424,-198 418,-192 418,-186 418,-186 418,-174 418,-174 418,-168 424,-162 430,-162 430,-162 614,-162 614,-162 620,-162 626,-168 626,-174 626,-174 626,-186 626,-186 626,-192 620,-198 614,-198"/>
<text text-anchor="middle" x="522" y="-176.3" font-family="Times-Roman" font-size="14.00">It depends on the festival...</text>
</g>
<!-- Esto depende del festival...&#45;&gt;It depends on the festival... -->
<g id="edge4" class="edge">
<title>Esto depende del festival...&#45;&gt;It depends on the festival...</title>
<path fill="none" stroke="black" d="M275.06,-180C316.65,-180 364.9,-180 407.58,-180"/>
<polygon fill="black" stroke="black" points="407.74,-183.5 417.74,-180 407.74,-176.5 407.74,-183.5"/>
</g>
<!-- Hace años no podías conseguir\ninformación de internet -->
<g id="node9" class="node">
<title>Hace años no podías conseguir\ninformación de internet</title>
<path fill="#f5f5f5" stroke="black" d="M276.5,-254C276.5,-254 67.5,-254 67.5,-254 61.5,-254 55.5,-248 55.5,-242 55.5,-242 55.5,-228 55.5,-228 55.5,-222 61.5,-216 67.5,-216 67.5,-216 276.5,-216 276.5,-216 282.5,-216 288.5,-222 288.5,-228 288.5,-228 288.5,-242 288.5,-242 288.5,-248 282.5,-254 276.5,-254"/>
<text text-anchor="middle" x="172" y="-238.8" font-family="Times-Roman" font-size="14.00">Hace años no podías conseguir</text>
<text text-anchor="middle" x="172" y="-223.8" font-family="Times-Roman" font-size="14.00">información de internet</text>
</g>
<!-- Years ago you couldn&#39;t always\nget information on the internet. -->
<g id="node10" class="node">
<title>Years ago you couldn&#39;t always\nget information on the internet.</title>
<path fill="#f5f5f5" stroke="black" d="M627.5,-254C627.5,-254 416.5,-254 416.5,-254 410.5,-254 404.5,-248 404.5,-242 404.5,-242 404.5,-228 404.5,-228 404.5,-222 410.5,-216 416.5,-216 416.5,-216 627.5,-216 627.5,-216 633.5,-216 639.5,-222 639.5,-228 639.5,-228 639.5,-242 639.5,-242 639.5,-248 633.5,-254 627.5,-254"/>
<text text-anchor="middle" x="522" y="-238.8" font-family="Times-Roman" font-size="14.00">Years ago you couldn&#39;t always</text>
<text text-anchor="middle" x="522" y="-223.8" font-family="Times-Roman" font-size="14.00">get information on the internet.</text>
</g>
<!-- Hace años no podías conseguir\ninformación de internet&#45;&gt;Years ago you couldn&#39;t always\nget information on the internet. -->
<g id="edge5" class="edge">
<title>Hace años no podías conseguir\ninformación de internet&#45;&gt;Years ago you couldn&#39;t always\nget information on the internet.</title>
<path fill="none" stroke="black" d="M288.88,-235C322.71,-235 359.85,-235 394.32,-235"/>
<polygon fill="black" stroke="black" points="394.44,-238.5 404.44,-235 394.44,-231.5 394.44,-238.5"/>
</g>
<!-- ¿Cómo es diferente ahora? -->
<g id="node11" class="node">
<title>¿Cómo es diferente ahora?</title>
<path fill="#f5f5f5" stroke="black" d="M261.5,-308C261.5,-308 82.5,-308 82.5,-308 76.5,-308 70.5,-302 70.5,-296 70.5,-296 70.5,-284 70.5,-284 70.5,-278 76.5,-272 82.5,-272 82.5,-272 261.5,-272 261.5,-272 267.5,-272 273.5,-278 273.5,-284 273.5,-284 273.5,-296 273.5,-296 273.5,-302 267.5,-308 261.5,-308"/>
<text text-anchor="middle" x="172" y="-286.3" font-family="Times-Roman" font-size="14.00">¿Cómo es diferente ahora?</text>
</g>
<!-- How is it different now? -->
<g id="node12" class="node">
<title>How is it different now?</title>
<path fill="#f5f5f5" stroke="black" d="M599.5,-308C599.5,-308 444.5,-308 444.5,-308 438.5,-308 432.5,-302 432.5,-296 432.5,-296 432.5,-284 432.5,-284 432.5,-278 438.5,-272 444.5,-272 444.5,-272 599.5,-272 599.5,-272 605.5,-272 611.5,-278 611.5,-284 611.5,-284 611.5,-296 611.5,-296 611.5,-302 605.5,-308 599.5,-308"/>
<text text-anchor="middle" x="522" y="-286.3" font-family="Times-Roman" font-size="14.00">How is it different now?</text>
</g>
<!-- ¿Cómo es diferente ahora?&#45;&gt;How is it different now? -->
<g id="edge6" class="edge">
<title>¿Cómo es diferente ahora?&#45;&gt;How is it different now?</title>
<path fill="none" stroke="black" d="M273.66,-290C320.41,-290 375.81,-290 422.32,-290"/>
<polygon fill="black" stroke="black" points="422.4,-293.5 432.4,-290 422.4,-286.5 422.4,-293.5"/>
</g>
<!-- ¿En que se diferencia de antes? -->
<g id="node13" class="node">
<title>¿En que se diferencia de antes?</title>
<path fill="#f5f5f5" stroke="black" d="M279,-362C279,-362 65,-362 65,-362 59,-362 53,-356 53,-350 53,-350 53,-338 53,-338 53,-332 59,-326 65,-326 65,-326 279,-326 279,-326 285,-326 291,-332 291,-338 291,-338 291,-350 291,-350 291,-356 285,-362 279,-362"/>
<text text-anchor="middle" x="172" y="-340.3" font-family="Times-Roman" font-size="14.00">¿En que se diferencia de antes?</text>
</g>
<!-- How is it different from before? -->
<g id="node14" class="node">
<title>How is it different from before?</title>
<path fill="#f5f5f5" stroke="black" d="M626,-362C626,-362 418,-362 418,-362 412,-362 406,-356 406,-350 406,-350 406,-338 406,-338 406,-332 412,-326 418,-326 418,-326 626,-326 626,-326 632,-326 638,-332 638,-338 638,-338 638,-350 638,-350 638,-356 632,-362 626,-362"/>
<text text-anchor="middle" x="522" y="-340.3" font-family="Times-Roman" font-size="14.00">How is it different from before?</text>
</g>
<!-- ¿En que se diferencia de antes?&#45;&gt;How is it different from before? -->
<g id="edge7" class="edge">
<title>¿En que se diferencia de antes?&#45;&gt;How is it different from before?</title>
<path fill="none" stroke="black" d="M291.3,-344C325.02,-344 361.85,-344 395.96,-344"/>
<polygon fill="black" stroke="black" points="395.97,-347.5 405.97,-344 395.97,-340.5 395.97,-347.5"/>
</g>
<!-- ¿En qué se diferencian ahora? -->
<g id="node15" class="node">
<title>¿En qué se diferencian ahora?</title>
<path fill="#f5f5f5" stroke="black" d="M273.5,-416C273.5,-416 70.5,-416 70.5,-416 64.5,-416 58.5,-410 58.5,-404 58.5,-404 58.5,-392 58.5,-392 58.5,-386 64.5,-380 70.5,-380 70.5,-380 273.5,-380 273.5,-380 279.5,-380 285.5,-386 285.5,-392 285.5,-392 285.5,-404 285.5,-404 285.5,-410 279.5,-416 273.5,-416"/>
<text text-anchor="middle" x="172" y="-394.3" font-family="Times-Roman" font-size="14.00">¿En qué se diferencian ahora?</text>
</g>
<!-- How are they different now? -->
<g id="node16" class="node">
<title>How are they different now?</title>
<path fill="#f5f5f5" stroke="black" d="M616,-416C616,-416 428,-416 428,-416 422,-416 416,-410 416,-404 416,-404 416,-392 416,-392 416,-386 422,-380 428,-380 428,-380 616,-380 616,-380 622,-380 628,-386 628,-392 628,-392 628,-404 628,-404 628,-410 622,-416 616,-416"/>
<text text-anchor="middle" x="522" y="-394.3" font-family="Times-Roman" font-size="14.00">How are they different now?</text>
</g>
<!-- ¿En qué se diferencian ahora?&#45;&gt;How are they different now? -->
<g id="edge8" class="edge">
<title>¿En qué se diferencian ahora?&#45;&gt;How are they different now?</title>
<path fill="none" stroke="black" d="M285.51,-398C323.97,-398 367.03,-398 405.71,-398"/>
<polygon fill="black" stroke="black" points="405.97,-401.5 415.97,-398 405.97,-394.5 405.97,-401.5"/>
</g>
<!-- ¿En qué se diferencian de antes? -->
<g id="node17" class="node">
<title>¿En qué se diferencian de antes?</title>
<path fill="#f5f5f5" stroke="black" d="M283.5,-470C283.5,-470 60.5,-470 60.5,-470 54.5,-470 48.5,-464 48.5,-458 48.5,-458 48.5,-446 48.5,-446 48.5,-440 54.5,-434 60.5,-434 60.5,-434 283.5,-434 283.5,-434 289.5,-434 295.5,-440 295.5,-446 295.5,-446 295.5,-458 295.5,-458 295.5,-464 289.5,-470 283.5,-470"/>
<text text-anchor="middle" x="172" y="-448.3" font-family="Times-Roman" font-size="14.00">¿En qué se diferencian de antes?</text>
</g>
<!-- How are they differente from before? -->
<g id="node18" class="node">
<title>How are they differente from before?</title>
<path fill="#f5f5f5" stroke="black" d="M646,-470C646,-470 398,-470 398,-470 392,-470 386,-464 386,-458 386,-458 386,-446 386,-446 386,-440 392,-434 398,-434 398,-434 646,-434 646,-434 652,-434 658,-440 658,-446 658,-446 658,-458 658,-458 658,-464 652,-470 646,-470"/>
<text text-anchor="middle" x="522" y="-448.3" font-family="Times-Roman" font-size="14.00">How are they differente from before?</text>
</g>
<!-- ¿En qué se diferencian de antes?&#45;&gt;How are they differente from before? -->
<g id="edge9" class="edge">
<title>¿En qué se diferencian de antes?&#45;&gt;How are they differente from before?</title>
<path fill="none" stroke="black" d="M295.69,-452C321.55,-452 349.06,-452 375.66,-452"/>
<polygon fill="black" stroke="black" points="375.8,-455.5 385.8,-452 375.8,-448.5 375.8,-455.5"/>
</g>
<!-- Esto es muy popular en este momento. -->
<g id="node19" class="node">
<title>Esto es muy popular en este momento.</title>
<path fill="#f5f5f5" stroke="black" d="M305,-524C305,-524 39,-524 39,-524 33,-524 27,-518 27,-512 27,-512 27,-500 27,-500 27,-494 33,-488 39,-488 39,-488 305,-488 305,-488 311,-488 317,-494 317,-500 317,-500 317,-512 317,-512 317,-518 311,-524 305,-524"/>
<text text-anchor="middle" x="172" y="-502.3" font-family="Times-Roman" font-size="14.00">Esto es muy popular en este momento.</text>
</g>
<!-- It&#39;s very popular at the moment. -->
<g id="node20" class="node">
<title>It&#39;s very popular at the moment.</title>
<path fill="#f5f5f5" stroke="black" d="M631,-524C631,-524 413,-524 413,-524 407,-524 401,-518 401,-512 401,-512 401,-500 401,-500 401,-494 407,-488 413,-488 413,-488 631,-488 631,-488 637,-488 643,-494 643,-500 643,-500 643,-512 643,-512 643,-518 637,-524 631,-524"/>
<text text-anchor="middle" x="522" y="-502.3" font-family="Times-Roman" font-size="14.00">It&#39;s very popular at the moment.</text>
</g>
<!-- Esto es muy popular en este momento.&#45;&gt;It&#39;s very popular at the moment. -->
<g id="edge10" class="edge">
<title>Esto es muy popular en este momento.&#45;&gt;It&#39;s very popular at the moment.</title>
<path fill="none" stroke="black" d="M317.06,-506C341.44,-506 366.62,-506 390.63,-506"/>
<polygon fill="black" stroke="black" points="390.83,-509.5 400.83,-506 390.83,-502.5 390.83,-509.5"/>
</g>
<!-- Ellos son muy populares en este momento. -->
<g id="node21" class="node">
<title>Ellos son muy populares en este momento.</title>
<path fill="#f5f5f5" stroke="black" d="M318.5,-578C318.5,-578 25.5,-578 25.5,-578 19.5,-578 13.5,-572 13.5,-566 13.5,-566 13.5,-554 13.5,-554 13.5,-548 19.5,-542 25.5,-542 25.5,-542 318.5,-542 318.5,-542 324.5,-542 330.5,-548 330.5,-554 330.5,-554 330.5,-566 330.5,-566 330.5,-572 324.5,-578 318.5,-578"/>
<text text-anchor="middle" x="172" y="-556.3" font-family="Times-Roman" font-size="14.00">Ellos son muy populares en este momento.</text>
</g>
<!-- They&#39;re very popular at the moment. -->
<g id="node22" class="node">
<title>They&#39;re very popular at the moment.</title>
<path fill="#f5f5f5" stroke="black" d="M646,-578C646,-578 398,-578 398,-578 392,-578 386,-572 386,-566 386,-566 386,-554 386,-554 386,-548 392,-542 398,-542 398,-542 646,-542 646,-542 652,-542 658,-548 658,-554 658,-554 658,-566 658,-566 658,-572 652,-578 646,-578"/>
<text text-anchor="middle" x="522" y="-556.3" font-family="Times-Roman" font-size="14.00">They&#39;re very popular at the moment.</text>
</g>
<!-- Ellos son muy populares en este momento.&#45;&gt;They&#39;re very popular at the moment. -->
<g id="edge11" class="edge">
<title>Ellos son muy populares en este momento.&#45;&gt;They&#39;re very popular at the moment.</title>
<path fill="none" stroke="black" d="M330.71,-560C345.69,-560 360.83,-560 375.68,-560"/>
<polygon fill="black" stroke="black" points="375.91,-563.5 385.91,-560 375.91,-556.5 375.91,-563.5"/>
</g>
<!-- La seguridad es mucho mejor que antes. -->
<g id="node23" class="node">
<title>La seguridad es mucho mejor que antes.</title>
<path fill="#f5f5f5" stroke="black" d="M310.5,-632C310.5,-632 33.5,-632 33.5,-632 27.5,-632 21.5,-626 21.5,-620 21.5,-620 21.5,-608 21.5,-608 21.5,-602 27.5,-596 33.5,-596 33.5,-596 310.5,-596 310.5,-596 316.5,-596 322.5,-602 322.5,-608 322.5,-608 322.5,-620 322.5,-620 322.5,-626 316.5,-632 310.5,-632"/>
<text text-anchor="middle" x="172" y="-610.3" font-family="Times-Roman" font-size="14.00">La seguridad es mucho mejor que antes.</text>
</g>
<!-- Security is much better than before -->
<g id="node24" class="node">
<title>Security is much better than before</title>
<path fill="#f5f5f5" stroke="black" d="M642,-632C642,-632 402,-632 402,-632 396,-632 390,-626 390,-620 390,-620 390,-608 390,-608 390,-602 396,-596 402,-596 402,-596 642,-596 642,-596 648,-596 654,-602 654,-608 654,-608 654,-620 654,-620 654,-626 648,-632 642,-632"/>
<text text-anchor="middle" x="522" y="-610.3" font-family="Times-Roman" font-size="14.00">Security is much better than before</text>
</g>
<!-- La seguridad es mucho mejor que antes.&#45;&gt;Security is much better than before -->
<g id="edge12" class="edge">
<title>La seguridad es mucho mejor que antes.&#45;&gt;Security is much better than before</title>
<path fill="none" stroke="black" d="M322.6,-614C341.58,-614 360.94,-614 379.78,-614"/>
<polygon fill="black" stroke="black" points="379.88,-617.5 389.88,-614 379.88,-610.5 379.88,-617.5"/>
</g>
<!-- Los precios son mucho más caros que antes. -->
<g id="node25" class="node">
<title>Los precios son mucho más caros que antes.</title>
<path fill="#f5f5f5" stroke="black" d="M324,-686C324,-686 20,-686 20,-686 14,-686 8,-680 8,-674 8,-674 8,-662 8,-662 8,-656 14,-650 20,-650 20,-650 324,-650 324,-650 330,-650 336,-656 336,-662 336,-662 336,-674 336,-674 336,-680 330,-686 324,-686"/>
<text text-anchor="middle" x="172" y="-664.3" font-family="Times-Roman" font-size="14.00">Los precios son mucho más caros que antes.</text>
</g>
<!-- Prices are more expensive than before -->
<g id="node26" class="node">
<title>Prices are more expensive than before</title>
<path fill="#f5f5f5" stroke="black" d="M652,-686C652,-686 392,-686 392,-686 386,-686 380,-680 380,-674 380,-674 380,-662 380,-662 380,-656 386,-650 392,-650 392,-650 652,-650 652,-650 658,-650 664,-656 664,-662 664,-662 664,-674 664,-674 664,-680 658,-686 652,-686"/>
<text text-anchor="middle" x="522" y="-664.3" font-family="Times-Roman" font-size="14.00">Prices are more expensive than before</text>
</g>
<!-- Los precios son mucho más caros que antes.&#45;&gt;Prices are more expensive than before -->
<g id="edge13" class="edge">
<title>Los precios son mucho más caros que antes.&#45;&gt;Prices are more expensive than before</title>
<path fill="none" stroke="black" d="M336.05,-668C347.28,-668 358.57,-668 369.74,-668"/>
<polygon fill="black" stroke="black" points="369.95,-671.5 379.95,-668 369.95,-664.5 369.95,-671.5"/>
</g>
<!-- Los precios son mucho más baratos que antes. -->
<g id="node27" class="node">
<title>Los precios son mucho más baratos que antes.</title>
<path fill="#f5f5f5" stroke="black" d="M332,-740C332,-740 12,-740 12,-740 6,-740 0,-734 0,-728 0,-728 0,-716 0,-716 0,-710 6,-704 12,-704 12,-704 332,-704 332,-704 338,-704 344,-710 344,-716 344,-716 344,-728 344,-728 344,-734 338,-740 332,-740"/>
<text text-anchor="middle" x="172" y="-718.3" font-family="Times-Roman" font-size="14.00">Los precios son mucho más baratos que antes.</text>
</g>
<!-- Prices are cheaper than before -->
<g id="node28" class="node">
<title>Prices are cheaper than before</title>
<path fill="#f5f5f5" stroke="black" d="M625,-740C625,-740 419,-740 419,-740 413,-740 407,-734 407,-728 407,-728 407,-716 407,-716 407,-710 413,-704 419,-704 419,-704 625,-704 625,-704 631,-704 637,-710 637,-716 637,-716 637,-728 637,-728 637,-734 631,-740 625,-740"/>
<text text-anchor="middle" x="522" y="-718.3" font-family="Times-Roman" font-size="14.00">Prices are cheaper than before</text>
</g>
<!-- Los precios son mucho más baratos que antes.&#45;&gt;Prices are cheaper than before -->
<g id="edge14" class="edge">
<title>Los precios son mucho más baratos que antes.&#45;&gt;Prices are cheaper than before</title>
<path fill="none" stroke="black" d="M344.2,-722C362,-722 379.84,-722 396.97,-722"/>
<polygon fill="black" stroke="black" points="396.97,-725.5 406.97,-722 396.97,-718.5 396.97,-725.5"/>
</g>
</g>
</svg>
