<?xml version="1.0" encoding="UTF-8" standalone="no"?>
<!DOCTYPE svg PUBLIC "-//W3C//DTD SVG 1.1//EN"
 "http://www.w3.org/Graphics/SVG/1.1/DTD/svg11.dtd">
<!-- Generated by graphviz version 2.44.0 (0)
 -->
<!-- Pages: 1 -->
<svg width="660pt" height="369pt"
 viewBox="0.00 0.00 660.00 369.00" xmlns="http://www.w3.org/2000/svg" xmlns:xlink="http://www.w3.org/1999/xlink">
<g id="graph0" class="graph" transform="scale(1 1) rotate(0) translate(4 365)">
<polygon fill="white" stroke="transparent" points="-4,4 -4,-365 656,-365 656,4 -4,4"/>
<!-- película romántica -->
<g id="node1" class="node">
<title>película romántica</title>
<path fill="#f5f5f5" stroke="black" d="M313,-101C313,-101 194,-101 194,-101 188,-101 182,-95 182,-89 182,-89 182,-77 182,-77 182,-71 188,-65 194,-65 194,-65 313,-65 313,-65 319,-65 325,-71 325,-77 325,-77 325,-89 325,-89 325,-95 319,-101 313,-101"/>
<text text-anchor="middle" x="253.5" y="-79.3" font-family="Times-Roman" font-size="14.00">película romántica</text>
</g>
<!-- romantic film -->
<g id="node2" class="node">
<title>romantic film</title>
<path fill="#f5f5f5" stroke="black" d="M493,-101C493,-101 409,-101 409,-101 403,-101 397,-95 397,-89 397,-89 397,-77 397,-77 397,-71 403,-65 409,-65 409,-65 493,-65 493,-65 499,-65 505,-71 505,-77 505,-77 505,-89 505,-89 505,-95 499,-101 493,-101"/>
<text text-anchor="middle" x="451" y="-79.3" font-family="Times-Roman" font-size="14.00">romantic film</text>
</g>
<!-- película romántica&#45;&gt;romantic film -->
<g id="edge1" class="edge">
<title>película romántica&#45;&gt;romantic film</title>
<path fill="none" stroke="black" d="M325.08,-83C345.2,-83 366.95,-83 386.62,-83"/>
<polygon fill="black" stroke="black" points="386.69,-86.5 396.69,-83 386.69,-79.5 386.69,-86.5"/>
</g>
<!-- película de terror -->
<g id="node3" class="node">
<title>película de terror</title>
<path fill="#f5f5f5" stroke="black" d="M148,-361C148,-361 38,-361 38,-361 32,-361 26,-355 26,-349 26,-349 26,-337 26,-337 26,-331 32,-325 38,-325 38,-325 148,-325 148,-325 154,-325 160,-331 160,-337 160,-337 160,-349 160,-349 160,-355 154,-361 148,-361"/>
<text text-anchor="middle" x="93" y="-339.3" font-family="Times-Roman" font-size="14.00">película de terror</text>
</g>
<!-- horror film -->
<g id="node4" class="node">
<title>horror film</title>
<path fill="#f5f5f5" stroke="black" d="M309,-361C309,-361 244,-361 244,-361 238,-361 232,-355 232,-349 232,-349 232,-337 232,-337 232,-331 238,-325 244,-325 244,-325 309,-325 309,-325 315,-325 321,-331 321,-337 321,-337 321,-349 321,-349 321,-355 315,-361 309,-361"/>
<text text-anchor="middle" x="276.5" y="-339.3" font-family="Times-Roman" font-size="14.00">horror film</text>
</g>
<!-- película de terror&#45;&gt;horror film -->
<g id="edge2" class="edge">
<title>película de terror&#45;&gt;horror film</title>
<path fill="none" stroke="black" d="M160.03,-343C180.33,-343 202.39,-343 221.79,-343"/>
<polygon fill="black" stroke="black" points="221.96,-346.5 231.96,-343 221.96,-339.5 221.96,-346.5"/>
</g>
<!-- drama -->
<g id="node5" class="node">
<title>drama</title>
<path fill="#f5f5f5" stroke="black" d="M140.5,-101C140.5,-101 102.5,-101 102.5,-101 96.5,-101 90.5,-95 90.5,-89 90.5,-89 90.5,-77 90.5,-77 90.5,-71 96.5,-65 102.5,-65 102.5,-65 140.5,-65 140.5,-65 146.5,-65 152.5,-71 152.5,-77 152.5,-77 152.5,-89 152.5,-89 152.5,-95 146.5,-101 140.5,-101"/>
<text text-anchor="middle" x="121.5" y="-79.3" font-family="Times-Roman" font-size="14.00">drama</text>
</g>
<!-- drama&#45;&gt;drama -->
<g id="edge3" class="edge">
<title>drama&#45;&gt;drama</title>
<path fill="none" stroke="black" d="M152.6,-89.75C162.59,-89.68 170.5,-87.43 170.5,-83 170.5,-80.23 167.41,-78.31 162.65,-77.25"/>
<polygon fill="black" stroke="black" points="162.9,-73.76 152.6,-76.25 162.21,-80.72 162.9,-73.76"/>
</g>
<!-- musical -->
<g id="node6" class="node">
<title>musical</title>
<path fill="#f5f5f5" stroke="black" d="M174.5,-231C174.5,-231 128.5,-231 128.5,-231 122.5,-231 116.5,-225 116.5,-219 116.5,-219 116.5,-207 116.5,-207 116.5,-201 122.5,-195 128.5,-195 128.5,-195 174.5,-195 174.5,-195 180.5,-195 186.5,-201 186.5,-207 186.5,-207 186.5,-219 186.5,-219 186.5,-225 180.5,-231 174.5,-231"/>
<text text-anchor="middle" x="151.5" y="-209.3" font-family="Times-Roman" font-size="14.00">musical</text>
</g>
<!-- musical&#45;&gt;musical -->
<g id="edge4" class="edge">
<title>musical&#45;&gt;musical</title>
<path fill="none" stroke="black" d="M186.67,-219.72C196.74,-219.46 204.5,-217.22 204.5,-213 204.5,-210.36 201.47,-208.5 196.73,-207.41"/>
<polygon fill="black" stroke="black" points="197,-203.91 186.67,-206.28 196.21,-210.87 197,-203.91"/>
</g>
<!-- película de acción -->
<g id="node7" class="node">
<title>película de acción</title>
<path fill="#f5f5f5" stroke="black" d="M479,-361C479,-361 363,-361 363,-361 357,-361 351,-355 351,-349 351,-349 351,-337 351,-337 351,-331 357,-325 363,-325 363,-325 479,-325 479,-325 485,-325 491,-331 491,-337 491,-337 491,-349 491,-349 491,-355 485,-361 479,-361"/>
<text text-anchor="middle" x="421" y="-339.3" font-family="Times-Roman" font-size="14.00">película de acción</text>
</g>
<!-- action film -->
<g id="node8" class="node">
<title>action film</title>
<path fill="#f5f5f5" stroke="black" d="M640,-361C640,-361 575,-361 575,-361 569,-361 563,-355 563,-349 563,-349 563,-337 563,-337 563,-331 569,-325 575,-325 575,-325 640,-325 640,-325 646,-325 652,-331 652,-337 652,-337 652,-349 652,-349 652,-355 646,-361 640,-361"/>
<text text-anchor="middle" x="607.5" y="-339.3" font-family="Times-Roman" font-size="14.00">action film</text>
</g>
<!-- película de acción&#45;&gt;action film -->
<g id="edge5" class="edge">
<title>película de acción&#45;&gt;action film</title>
<path fill="none" stroke="black" d="M491.24,-343C511.64,-343 533.59,-343 552.88,-343"/>
<polygon fill="black" stroke="black" points="552.99,-346.5 562.99,-343 552.99,-339.5 552.99,-346.5"/>
</g>
<!-- comedia -->
<g id="node9" class="node">
<title>comedia</title>
<path fill="#f5f5f5" stroke="black" d="M101.5,-296C101.5,-296 50.5,-296 50.5,-296 44.5,-296 38.5,-290 38.5,-284 38.5,-284 38.5,-272 38.5,-272 38.5,-266 44.5,-260 50.5,-260 50.5,-260 101.5,-260 101.5,-260 107.5,-260 113.5,-266 113.5,-272 113.5,-272 113.5,-284 113.5,-284 113.5,-290 107.5,-296 101.5,-296"/>
<text text-anchor="middle" x="76" y="-274.3" font-family="Times-Roman" font-size="14.00">comedia</text>
</g>
<!-- comedy -->
<g id="node10" class="node">
<title>comedy</title>
<path fill="#f5f5f5" stroke="black" d="M244.5,-296C244.5,-296 197.5,-296 197.5,-296 191.5,-296 185.5,-290 185.5,-284 185.5,-284 185.5,-272 185.5,-272 185.5,-266 191.5,-260 197.5,-260 197.5,-260 244.5,-260 244.5,-260 250.5,-260 256.5,-266 256.5,-272 256.5,-272 256.5,-284 256.5,-284 256.5,-290 250.5,-296 244.5,-296"/>
<text text-anchor="middle" x="221" y="-274.3" font-family="Times-Roman" font-size="14.00">comedy</text>
</g>
<!-- comedia&#45;&gt;comedy -->
<g id="edge6" class="edge">
<title>comedia&#45;&gt;comedy</title>
<path fill="none" stroke="black" d="M113.72,-278C132.58,-278 155.56,-278 175.41,-278"/>
<polygon fill="black" stroke="black" points="175.47,-281.5 185.47,-278 175.47,-274.5 175.47,-281.5"/>
</g>
<!-- película de ciencia ficción -->
<g id="node11" class="node">
<title>película de ciencia ficción</title>
<path fill="#f5f5f5" stroke="black" d="M402.5,-231C402.5,-231 232.5,-231 232.5,-231 226.5,-231 220.5,-225 220.5,-219 220.5,-219 220.5,-207 220.5,-207 220.5,-201 226.5,-195 232.5,-195 232.5,-195 402.5,-195 402.5,-195 408.5,-195 414.5,-201 414.5,-207 414.5,-207 414.5,-219 414.5,-219 414.5,-225 408.5,-231 402.5,-231"/>
<text text-anchor="middle" x="317.5" y="-209.3" font-family="Times-Roman" font-size="14.00">película de ciencia ficción</text>
</g>
<!-- sci&#45;fi film -->
<g id="node12" class="node">
<title>sci&#45;fi film</title>
<path fill="#f5f5f5" stroke="black" d="M554.5,-231C554.5,-231 498.5,-231 498.5,-231 492.5,-231 486.5,-225 486.5,-219 486.5,-219 486.5,-207 486.5,-207 486.5,-201 492.5,-195 498.5,-195 498.5,-195 554.5,-195 554.5,-195 560.5,-195 566.5,-201 566.5,-207 566.5,-207 566.5,-219 566.5,-219 566.5,-225 560.5,-231 554.5,-231"/>
<text text-anchor="middle" x="526.5" y="-209.3" font-family="Times-Roman" font-size="14.00">sci&#45;fi film</text>
</g>
<!-- película de ciencia ficción&#45;&gt;sci&#45;fi film -->
<g id="edge7" class="edge">
<title>película de ciencia ficción&#45;&gt;sci&#45;fi film</title>
<path fill="none" stroke="black" d="M414.66,-213C435.97,-213 457.68,-213 476.24,-213"/>
<polygon fill="black" stroke="black" points="476.49,-216.5 486.49,-213 476.49,-209.5 476.49,-216.5"/>
</g>
<!-- película de animación -->
<g id="node13" class="node">
<title>película de animación</title>
<path fill="#f5f5f5" stroke="black" d="M155,-166C155,-166 12,-166 12,-166 6,-166 0,-160 0,-154 0,-154 0,-142 0,-142 0,-136 6,-130 12,-130 12,-130 155,-130 155,-130 161,-130 167,-136 167,-142 167,-142 167,-154 167,-154 167,-160 161,-166 155,-166"/>
<text text-anchor="middle" x="83.5" y="-144.3" font-family="Times-Roman" font-size="14.00">película de animación</text>
</g>
<!-- animation film -->
<g id="node14" class="node">
<title>animation film</title>
<path fill="#f5f5f5" stroke="black" d="M343,-166C343,-166 251,-166 251,-166 245,-166 239,-160 239,-154 239,-154 239,-142 239,-142 239,-136 245,-130 251,-130 251,-130 343,-130 343,-130 349,-130 355,-136 355,-142 355,-142 355,-154 355,-154 355,-160 349,-166 343,-166"/>
<text text-anchor="middle" x="297" y="-144.3" font-family="Times-Roman" font-size="14.00">animation film</text>
</g>
<!-- película de animación&#45;&gt;animation film -->
<g id="edge8" class="edge">
<title>película de animación&#45;&gt;animation film</title>
<path fill="none" stroke="black" d="M167.27,-148C187.66,-148 209.23,-148 228.8,-148"/>
<polygon fill="black" stroke="black" points="228.84,-151.5 238.84,-148 228.84,-144.5 228.84,-151.5"/>
</g>
<!-- suspenso -->
<g id="node15" class="node">
<title>suspenso</title>
<path fill="#f5f5f5" stroke="black" d="M448,-166C448,-166 389,-166 389,-166 383,-166 377,-160 377,-154 377,-154 377,-142 377,-142 377,-136 383,-130 389,-130 389,-130 448,-130 448,-130 454,-130 460,-136 460,-142 460,-142 460,-154 460,-154 460,-160 454,-166 448,-166"/>
<text text-anchor="middle" x="418.5" y="-144.3" font-family="Times-Roman" font-size="14.00">suspenso</text>
</g>
<!-- thriller -->
<g id="node16" class="node">
<title>thriller</title>
<path fill="#f5f5f5" stroke="black" d="M582,-166C582,-166 544,-166 544,-166 538,-166 532,-160 532,-154 532,-154 532,-142 532,-142 532,-136 538,-130 544,-130 544,-130 582,-130 582,-130 588,-130 594,-136 594,-142 594,-142 594,-154 594,-154 594,-160 588,-166 582,-166"/>
<text text-anchor="middle" x="563" y="-144.3" font-family="Times-Roman" font-size="14.00">thriller</text>
</g>
<!-- suspenso&#45;&gt;thriller -->
<g id="edge9" class="edge">
<title>suspenso&#45;&gt;thriller</title>
<path fill="none" stroke="black" d="M460.3,-148C479.57,-148 502.37,-148 521.6,-148"/>
<polygon fill="black" stroke="black" points="521.86,-151.5 531.86,-148 521.86,-144.5 521.86,-151.5"/>
</g>
<!-- película de fantasía -->
<g id="node17" class="node">
<title>película de fantasía</title>
<path fill="#f5f5f5" stroke="black" d="M426,-296C426,-296 298,-296 298,-296 292,-296 286,-290 286,-284 286,-284 286,-272 286,-272 286,-266 292,-260 298,-260 298,-260 426,-260 426,-260 432,-260 438,-266 438,-272 438,-272 438,-284 438,-284 438,-290 432,-296 426,-296"/>
<text text-anchor="middle" x="362" y="-274.3" font-family="Times-Roman" font-size="14.00">película de fantasía</text>
</g>
<!-- fantasy film -->
<g id="node18" class="node">
<title>fantasy film</title>
<path fill="#f5f5f5" stroke="black" d="M597,-296C597,-296 522,-296 522,-296 516,-296 510,-290 510,-284 510,-284 510,-272 510,-272 510,-266 516,-260 522,-260 522,-260 597,-260 597,-260 603,-260 609,-266 609,-272 609,-272 609,-284 609,-284 609,-290 603,-296 597,-296"/>
<text text-anchor="middle" x="559.5" y="-274.3" font-family="Times-Roman" font-size="14.00">fantasy film</text>
</g>
<!-- película de fantasía&#45;&gt;fantasy film -->
<g id="edge10" class="edge">
<title>película de fantasía&#45;&gt;fantasy film</title>
<path fill="none" stroke="black" d="M438.08,-278C458.52,-278 480.34,-278 499.77,-278"/>
<polygon fill="black" stroke="black" points="499.98,-281.5 509.98,-278 499.98,-274.5 499.98,-281.5"/>
</g>
<!-- película histórica -->
<g id="node19" class="node">
<title>película histórica</title>
<path fill="#f5f5f5" stroke="black" d="M303.5,-36C303.5,-36 193.5,-36 193.5,-36 187.5,-36 181.5,-30 181.5,-24 181.5,-24 181.5,-12 181.5,-12 181.5,-6 187.5,0 193.5,0 193.5,0 303.5,0 303.5,0 309.5,0 315.5,-6 315.5,-12 315.5,-12 315.5,-24 315.5,-24 315.5,-30 309.5,-36 303.5,-36"/>
<text text-anchor="middle" x="248.5" y="-14.3" font-family="Times-Roman" font-size="14.00">película histórica</text>
</g>
<!-- historical film -->
<g id="node20" class="node">
<title>historical film</title>
<path fill="#f5f5f5" stroke="black" d="M485.5,-36C485.5,-36 399.5,-36 399.5,-36 393.5,-36 387.5,-30 387.5,-24 387.5,-24 387.5,-12 387.5,-12 387.5,-6 393.5,0 399.5,0 399.5,0 485.5,0 485.5,0 491.5,0 497.5,-6 497.5,-12 497.5,-12 497.5,-24 497.5,-24 497.5,-30 491.5,-36 485.5,-36"/>
<text text-anchor="middle" x="442.5" y="-14.3" font-family="Times-Roman" font-size="14.00">historical film</text>
</g>
<!-- película histórica&#45;&gt;historical film -->
<g id="edge11" class="edge">
<title>película histórica&#45;&gt;historical film</title>
<path fill="none" stroke="black" d="M315.54,-18C335.49,-18 357.33,-18 377.18,-18"/>
<polygon fill="black" stroke="black" points="377.35,-21.5 387.35,-18 377.35,-14.5 377.35,-21.5"/>
</g>
</g>
</svg>
