<?xml version="1.0" encoding="UTF-8" standalone="no"?>
<!DOCTYPE svg PUBLIC "-//W3C//DTD SVG 1.1//EN"
 "http://www.w3.org/Graphics/SVG/1.1/DTD/svg11.dtd">
<!-- Generated by graphviz version 2.44.0 (0)
 -->
<!-- Pages: 1 -->
<svg width="691pt" height="551pt"
 viewBox="0.00 0.00 690.50 551.00" xmlns="http://www.w3.org/2000/svg" xmlns:xlink="http://www.w3.org/1999/xlink">
<g id="graph0" class="graph" transform="scale(1 1) rotate(0) translate(4 547)">
<polygon fill="white" stroke="transparent" points="-4,4 -4,-547 686.5,-547 686.5,4 -4,4"/>
<!-- conveniente -->
<g id="node1" class="node">
<title>conveniente</title>
<path fill="#f5f5f5" stroke="black" d="M310,-153C310,-153 233,-153 233,-153 227,-153 221,-147 221,-141 221,-141 221,-129 221,-129 221,-123 227,-117 233,-117 233,-117 310,-117 310,-117 316,-117 322,-123 322,-129 322,-129 322,-141 322,-141 322,-147 316,-153 310,-153"/>
<text text-anchor="middle" x="271.5" y="-131.3" font-family="Times-Roman" font-size="14.00">conveniente</text>
</g>
<!-- convenient -->
<g id="node2" class="node">
<title>convenient</title>
<path fill="#f5f5f5" stroke="black" d="M475,-153C475,-153 406,-153 406,-153 400,-153 394,-147 394,-141 394,-141 394,-129 394,-129 394,-123 400,-117 406,-117 406,-117 475,-117 475,-117 481,-117 487,-123 487,-129 487,-129 487,-141 487,-141 487,-147 481,-153 475,-153"/>
<text text-anchor="middle" x="440.5" y="-131.3" font-family="Times-Roman" font-size="14.00">convenient</text>
</g>
<!-- conveniente&#45;&gt;convenient -->
<g id="edge1" class="edge">
<title>conveniente&#45;&gt;convenient</title>
<path fill="none" stroke="black" d="M322.21,-135C341.58,-135 363.79,-135 383.7,-135"/>
<polygon fill="black" stroke="black" points="383.87,-138.5 393.87,-135 383.87,-131.5 383.87,-138.5"/>
</g>
<!-- inconveniente -->
<g id="node3" class="node">
<title>inconveniente</title>
<path fill="#f5f5f5" stroke="black" d="M323,-218C323,-218 233,-218 233,-218 227,-218 221,-212 221,-206 221,-206 221,-194 221,-194 221,-188 227,-182 233,-182 233,-182 323,-182 323,-182 329,-182 335,-188 335,-194 335,-194 335,-206 335,-206 335,-212 329,-218 323,-218"/>
<text text-anchor="middle" x="278" y="-196.3" font-family="Times-Roman" font-size="14.00">inconveniente</text>
</g>
<!-- inconvenient -->
<g id="node4" class="node">
<title>inconvenient</title>
<path fill="#f5f5f5" stroke="black" d="M501,-218C501,-218 419,-218 419,-218 413,-218 407,-212 407,-206 407,-206 407,-194 407,-194 407,-188 413,-182 419,-182 419,-182 501,-182 501,-182 507,-182 513,-188 513,-194 513,-194 513,-206 513,-206 513,-212 507,-218 501,-218"/>
<text text-anchor="middle" x="460" y="-196.3" font-family="Times-Roman" font-size="14.00">inconvenient</text>
</g>
<!-- inconveniente&#45;&gt;inconvenient -->
<g id="edge2" class="edge">
<title>inconveniente&#45;&gt;inconvenient</title>
<path fill="none" stroke="black" d="M335.09,-200C354.62,-200 376.58,-200 396.58,-200"/>
<polygon fill="black" stroke="black" points="396.83,-203.5 406.83,-200 396.83,-196.5 396.83,-203.5"/>
</g>
<!-- saludable -->
<g id="node5" class="node">
<title>saludable</title>
<path fill="#f5f5f5" stroke="black" d="M84.5,-348C84.5,-348 25.5,-348 25.5,-348 19.5,-348 13.5,-342 13.5,-336 13.5,-336 13.5,-324 13.5,-324 13.5,-318 19.5,-312 25.5,-312 25.5,-312 84.5,-312 84.5,-312 90.5,-312 96.5,-318 96.5,-324 96.5,-324 96.5,-336 96.5,-336 96.5,-342 90.5,-348 84.5,-348"/>
<text text-anchor="middle" x="55" y="-326.3" font-family="Times-Roman" font-size="14.00">saludable</text>
</g>
<!-- healthy -->
<g id="node6" class="node">
<title>healthy</title>
<path fill="#f5f5f5" stroke="black" d="M224.5,-348C224.5,-348 180.5,-348 180.5,-348 174.5,-348 168.5,-342 168.5,-336 168.5,-336 168.5,-324 168.5,-324 168.5,-318 174.5,-312 180.5,-312 180.5,-312 224.5,-312 224.5,-312 230.5,-312 236.5,-318 236.5,-324 236.5,-324 236.5,-336 236.5,-336 236.5,-342 230.5,-348 224.5,-348"/>
<text text-anchor="middle" x="202.5" y="-326.3" font-family="Times-Roman" font-size="14.00">healthy</text>
</g>
<!-- saludable&#45;&gt;healthy -->
<g id="edge3" class="edge">
<title>saludable&#45;&gt;healthy</title>
<path fill="none" stroke="black" d="M96.87,-330C116.08,-330 138.85,-330 158.33,-330"/>
<polygon fill="black" stroke="black" points="158.47,-333.5 168.47,-330 158.47,-326.5 158.47,-333.5"/>
</g>
<!-- no saludable -->
<g id="node7" class="node">
<title>no saludable</title>
<path fill="#f5f5f5" stroke="black" d="M483.5,-478C483.5,-478 402.5,-478 402.5,-478 396.5,-478 390.5,-472 390.5,-466 390.5,-466 390.5,-454 390.5,-454 390.5,-448 396.5,-442 402.5,-442 402.5,-442 483.5,-442 483.5,-442 489.5,-442 495.5,-448 495.5,-454 495.5,-454 495.5,-466 495.5,-466 495.5,-472 489.5,-478 483.5,-478"/>
<text text-anchor="middle" x="443" y="-456.3" font-family="Times-Roman" font-size="14.00">no saludable</text>
</g>
<!-- unhealthy -->
<g id="node8" class="node">
<title>unhealthy</title>
<path fill="#f5f5f5" stroke="black" d="M641.5,-478C641.5,-478 579.5,-478 579.5,-478 573.5,-478 567.5,-472 567.5,-466 567.5,-466 567.5,-454 567.5,-454 567.5,-448 573.5,-442 579.5,-442 579.5,-442 641.5,-442 641.5,-442 647.5,-442 653.5,-448 653.5,-454 653.5,-454 653.5,-466 653.5,-466 653.5,-472 647.5,-478 641.5,-478"/>
<text text-anchor="middle" x="610.5" y="-456.3" font-family="Times-Roman" font-size="14.00">unhealthy</text>
</g>
<!-- no saludable&#45;&gt;unhealthy -->
<g id="edge4" class="edge">
<title>no saludable&#45;&gt;unhealthy</title>
<path fill="none" stroke="black" d="M495.54,-460C515.23,-460 537.6,-460 557.35,-460"/>
<polygon fill="black" stroke="black" points="557.41,-463.5 567.41,-460 557.41,-456.5 557.41,-463.5"/>
</g>
<!-- lento -->
<g id="node9" class="node">
<title>lento</title>
<path fill="#f5f5f5" stroke="black" d="M42,-88C42,-88 12,-88 12,-88 6,-88 0,-82 0,-76 0,-76 0,-64 0,-64 0,-58 6,-52 12,-52 12,-52 42,-52 42,-52 48,-52 54,-58 54,-64 54,-64 54,-76 54,-76 54,-82 48,-88 42,-88"/>
<text text-anchor="middle" x="27" y="-66.3" font-family="Times-Roman" font-size="14.00">lento</text>
</g>
<!-- slow -->
<g id="node10" class="node">
<title>slow</title>
<path fill="#f5f5f5" stroke="black" d="M168,-88C168,-88 138,-88 138,-88 132,-88 126,-82 126,-76 126,-76 126,-64 126,-64 126,-58 132,-52 138,-52 138,-52 168,-52 168,-52 174,-52 180,-58 180,-64 180,-64 180,-76 180,-76 180,-82 174,-88 168,-88"/>
<text text-anchor="middle" x="153" y="-66.3" font-family="Times-Roman" font-size="14.00">slow</text>
</g>
<!-- lento&#45;&gt;slow -->
<g id="edge5" class="edge">
<title>lento&#45;&gt;slow</title>
<path fill="none" stroke="black" d="M54.03,-70C71.93,-70 95.65,-70 115.38,-70"/>
<polygon fill="black" stroke="black" points="115.58,-73.5 125.58,-70 115.58,-66.5 115.58,-73.5"/>
</g>
<!-- rápido -->
<g id="node11" class="node">
<title>rápido</title>
<path fill="#f5f5f5" stroke="black" d="M283.5,-543C283.5,-543 246.5,-543 246.5,-543 240.5,-543 234.5,-537 234.5,-531 234.5,-531 234.5,-519 234.5,-519 234.5,-513 240.5,-507 246.5,-507 246.5,-507 283.5,-507 283.5,-507 289.5,-507 295.5,-513 295.5,-519 295.5,-519 295.5,-531 295.5,-531 295.5,-537 289.5,-543 283.5,-543"/>
<text text-anchor="middle" x="265" y="-521.3" font-family="Times-Roman" font-size="14.00">rápido</text>
</g>
<!-- fast -->
<g id="node12" class="node">
<title>fast</title>
<path fill="#f5f5f5" stroke="black" d="M409.5,-543C409.5,-543 379.5,-543 379.5,-543 373.5,-543 367.5,-537 367.5,-531 367.5,-531 367.5,-519 367.5,-519 367.5,-513 373.5,-507 379.5,-507 379.5,-507 409.5,-507 409.5,-507 415.5,-507 421.5,-513 421.5,-519 421.5,-519 421.5,-531 421.5,-531 421.5,-537 415.5,-543 409.5,-543"/>
<text text-anchor="middle" x="394.5" y="-521.3" font-family="Times-Roman" font-size="14.00">fast</text>
</g>
<!-- rápido&#45;&gt;fast -->
<g id="edge6" class="edge">
<title>rápido&#45;&gt;fast</title>
<path fill="none" stroke="black" d="M295.69,-525C314.08,-525 337.58,-525 357.06,-525"/>
<polygon fill="black" stroke="black" points="357.11,-528.5 367.11,-525 357.11,-521.5 357.11,-528.5"/>
</g>
<!-- contaminadora -->
<g id="node13" class="node">
<title>contaminadora</title>
<path fill="#f5f5f5" stroke="black" d="M200,-478C200,-478 103,-478 103,-478 97,-478 91,-472 91,-466 91,-466 91,-454 91,-454 91,-448 97,-442 103,-442 103,-442 200,-442 200,-442 206,-442 212,-448 212,-454 212,-454 212,-466 212,-466 212,-472 206,-478 200,-478"/>
<text text-anchor="middle" x="151.5" y="-456.3" font-family="Times-Roman" font-size="14.00">contaminadora</text>
</g>
<!-- polluting -->
<g id="node14" class="node">
<title>polluting</title>
<path fill="#f5f5f5" stroke="black" d="M349,-478C349,-478 296,-478 296,-478 290,-478 284,-472 284,-466 284,-466 284,-454 284,-454 284,-448 290,-442 296,-442 296,-442 349,-442 349,-442 355,-442 361,-448 361,-454 361,-454 361,-466 361,-466 361,-472 355,-478 349,-478"/>
<text text-anchor="middle" x="322.5" y="-456.3" font-family="Times-Roman" font-size="14.00">polluting</text>
</g>
<!-- contaminadora&#45;&gt;polluting -->
<g id="edge7" class="edge">
<title>contaminadora&#45;&gt;polluting</title>
<path fill="none" stroke="black" d="M212.27,-460C232.45,-460 254.64,-460 273.79,-460"/>
<polygon fill="black" stroke="black" points="273.79,-463.5 283.79,-460 273.79,-456.5 273.79,-463.5"/>
</g>
<!-- amigable con el ambiente -->
<g id="node15" class="node">
<title>amigable con el ambiente</title>
<path fill="#f5f5f5" stroke="black" d="M236,-283C236,-283 64,-283 64,-283 58,-283 52,-277 52,-271 52,-271 52,-259 52,-259 52,-253 58,-247 64,-247 64,-247 236,-247 236,-247 242,-247 248,-253 248,-259 248,-259 248,-271 248,-271 248,-277 242,-283 236,-283"/>
<text text-anchor="middle" x="150" y="-261.3" font-family="Times-Roman" font-size="14.00">amigable con el ambiente</text>
</g>
<!-- green -->
<g id="node16" class="node">
<title>green</title>
<path fill="#f5f5f5" stroke="black" d="M364,-283C364,-283 332,-283 332,-283 326,-283 320,-277 320,-271 320,-271 320,-259 320,-259 320,-253 326,-247 332,-247 332,-247 364,-247 364,-247 370,-247 376,-253 376,-259 376,-259 376,-271 376,-271 376,-277 370,-283 364,-283"/>
<text text-anchor="middle" x="348" y="-261.3" font-family="Times-Roman" font-size="14.00">green</text>
</g>
<!-- amigable con el ambiente&#45;&gt;green -->
<g id="edge8" class="edge">
<title>amigable con el ambiente&#45;&gt;green</title>
<path fill="none" stroke="black" d="M248.13,-265C269.87,-265 291.67,-265 309.33,-265"/>
<polygon fill="black" stroke="black" points="309.75,-268.5 319.75,-265 309.75,-261.5 309.75,-268.5"/>
</g>
<!-- seguro -->
<g id="node17" class="node">
<title>seguro</title>
<path fill="#f5f5f5" stroke="black" d="M65,-543C65,-543 25,-543 25,-543 19,-543 13,-537 13,-531 13,-531 13,-519 13,-519 13,-513 19,-507 25,-507 25,-507 65,-507 65,-507 71,-507 77,-513 77,-519 77,-519 77,-531 77,-531 77,-537 71,-543 65,-543"/>
<text text-anchor="middle" x="45" y="-521.3" font-family="Times-Roman" font-size="14.00">seguro</text>
</g>
<!-- safe -->
<g id="node18" class="node">
<title>safe</title>
<path fill="#f5f5f5" stroke="black" d="M191,-543C191,-543 161,-543 161,-543 155,-543 149,-537 149,-531 149,-531 149,-519 149,-519 149,-513 155,-507 161,-507 161,-507 191,-507 191,-507 197,-507 203,-513 203,-519 203,-519 203,-531 203,-531 203,-537 197,-543 191,-543"/>
<text text-anchor="middle" x="176" y="-521.3" font-family="Times-Roman" font-size="14.00">safe</text>
</g>
<!-- seguro&#45;&gt;safe -->
<g id="edge9" class="edge">
<title>seguro&#45;&gt;safe</title>
<path fill="none" stroke="black" d="M77.05,-525C95.67,-525 119.22,-525 138.67,-525"/>
<polygon fill="black" stroke="black" points="138.71,-528.5 148.71,-525 138.71,-521.5 138.71,-528.5"/>
</g>
<!-- difícil -->
<g id="node19" class="node">
<title>difícil</title>
<path fill="#f5f5f5" stroke="black" d="M42,-218C42,-218 12,-218 12,-218 6,-218 0,-212 0,-206 0,-206 0,-194 0,-194 0,-188 6,-182 12,-182 12,-182 42,-182 42,-182 48,-182 54,-188 54,-194 54,-194 54,-206 54,-206 54,-212 48,-218 42,-218"/>
<text text-anchor="middle" x="27" y="-196.3" font-family="Times-Roman" font-size="14.00">difícil</text>
</g>
<!-- difficult -->
<g id="node20" class="node">
<title>difficult</title>
<path fill="#f5f5f5" stroke="black" d="M182,-218C182,-218 138,-218 138,-218 132,-218 126,-212 126,-206 126,-206 126,-194 126,-194 126,-188 132,-182 138,-182 138,-182 182,-182 182,-182 188,-182 194,-188 194,-194 194,-194 194,-206 194,-206 194,-212 188,-218 182,-218"/>
<text text-anchor="middle" x="160" y="-196.3" font-family="Times-Roman" font-size="14.00">difficult</text>
</g>
<!-- difícil&#45;&gt;difficult -->
<g id="edge10" class="edge">
<title>difícil&#45;&gt;difficult</title>
<path fill="none" stroke="black" d="M54.24,-200C71.84,-200 95.16,-200 115.42,-200"/>
<polygon fill="black" stroke="black" points="115.7,-203.5 125.7,-200 115.7,-196.5 115.7,-203.5"/>
</g>
<!-- fácil -->
<g id="node21" class="node">
<title>fácil</title>
<path fill="#f5f5f5" stroke="black" d="M536,-36C536,-36 506,-36 506,-36 500,-36 494,-30 494,-24 494,-24 494,-12 494,-12 494,-6 500,0 506,0 506,0 536,0 536,0 542,0 548,-6 548,-12 548,-12 548,-24 548,-24 548,-30 542,-36 536,-36"/>
<text text-anchor="middle" x="521" y="-14.3" font-family="Times-Roman" font-size="14.00">fácil</text>
</g>
<!-- easy -->
<g id="node22" class="node">
<title>easy</title>
<path fill="#f5f5f5" stroke="black" d="M662,-36C662,-36 632,-36 632,-36 626,-36 620,-30 620,-24 620,-24 620,-12 620,-12 620,-6 626,0 632,0 632,0 662,0 662,0 668,0 674,-6 674,-12 674,-12 674,-24 674,-24 674,-30 668,-36 662,-36"/>
<text text-anchor="middle" x="647" y="-14.3" font-family="Times-Roman" font-size="14.00">easy</text>
</g>
<!-- fácil&#45;&gt;easy -->
<g id="edge11" class="edge">
<title>fácil&#45;&gt;easy</title>
<path fill="none" stroke="black" d="M548.03,-18C565.93,-18 589.65,-18 609.38,-18"/>
<polygon fill="black" stroke="black" points="609.58,-21.5 619.58,-18 609.58,-14.5 609.58,-21.5"/>
</g>
<!-- peligroso -->
<g id="node23" class="node">
<title>peligroso</title>
<path fill="#f5f5f5" stroke="black" d="M471,-283C471,-283 415,-283 415,-283 409,-283 403,-277 403,-271 403,-271 403,-259 403,-259 403,-253 409,-247 415,-247 415,-247 471,-247 471,-247 477,-247 483,-253 483,-259 483,-259 483,-271 483,-271 483,-277 477,-283 471,-283"/>
<text text-anchor="middle" x="443" y="-261.3" font-family="Times-Roman" font-size="14.00">peligroso</text>
</g>
<!-- dangerous -->
<g id="node24" class="node">
<title>dangerous</title>
<path fill="#f5f5f5" stroke="black" d="M633,-283C633,-283 567,-283 567,-283 561,-283 555,-277 555,-271 555,-271 555,-259 555,-259 555,-253 561,-247 567,-247 567,-247 633,-247 633,-247 639,-247 645,-253 645,-259 645,-259 645,-271 645,-271 645,-277 639,-283 633,-283"/>
<text text-anchor="middle" x="600" y="-261.3" font-family="Times-Roman" font-size="14.00">dangerous</text>
</g>
<!-- peligroso&#45;&gt;dangerous -->
<g id="edge12" class="edge">
<title>peligroso&#45;&gt;dangerous</title>
<path fill="none" stroke="black" d="M483.02,-265C501.75,-265 524.37,-265 544.7,-265"/>
<polygon fill="black" stroke="black" points="544.78,-268.5 554.78,-265 544.78,-261.5 544.78,-268.5"/>
</g>
<!-- cómodo -->
<g id="node25" class="node">
<title>cómodo</title>
<path fill="#f5f5f5" stroke="black" d="M280.5,-88C280.5,-88 233.5,-88 233.5,-88 227.5,-88 221.5,-82 221.5,-76 221.5,-76 221.5,-64 221.5,-64 221.5,-58 227.5,-52 233.5,-52 233.5,-52 280.5,-52 280.5,-52 286.5,-52 292.5,-58 292.5,-64 292.5,-64 292.5,-76 292.5,-76 292.5,-82 286.5,-88 280.5,-88"/>
<text text-anchor="middle" x="257" y="-66.3" font-family="Times-Roman" font-size="14.00">cómodo</text>
</g>
<!-- comfortable -->
<g id="node26" class="node">
<title>comfortable</title>
<path fill="#f5f5f5" stroke="black" d="M452.5,-88C452.5,-88 376.5,-88 376.5,-88 370.5,-88 364.5,-82 364.5,-76 364.5,-76 364.5,-64 364.5,-64 364.5,-58 370.5,-52 376.5,-52 376.5,-52 452.5,-52 452.5,-52 458.5,-52 464.5,-58 464.5,-64 464.5,-64 464.5,-76 464.5,-76 464.5,-82 458.5,-88 452.5,-88"/>
<text text-anchor="middle" x="414.5" y="-66.3" font-family="Times-Roman" font-size="14.00">comfortable</text>
</g>
<!-- cómodo&#45;&gt;comfortable -->
<g id="edge13" class="edge">
<title>cómodo&#45;&gt;comfortable</title>
<path fill="none" stroke="black" d="M292.74,-70C310.91,-70 333.49,-70 354.26,-70"/>
<polygon fill="black" stroke="black" points="354.28,-73.5 364.28,-70 354.28,-66.5 354.28,-73.5"/>
</g>
<!-- incómodo -->
<g id="node27" class="node">
<title>incómodo</title>
<path fill="#f5f5f5" stroke="black" d="M397,-413C397,-413 337,-413 337,-413 331,-413 325,-407 325,-401 325,-401 325,-389 325,-389 325,-383 331,-377 337,-377 337,-377 397,-377 397,-377 403,-377 409,-383 409,-389 409,-389 409,-401 409,-401 409,-407 403,-413 397,-413"/>
<text text-anchor="middle" x="367" y="-391.3" font-family="Times-Roman" font-size="14.00">incómodo</text>
</g>
<!-- uncomfortable -->
<g id="node28" class="node">
<title>uncomfortable</title>
<path fill="#f5f5f5" stroke="black" d="M587,-413C587,-413 493,-413 493,-413 487,-413 481,-407 481,-401 481,-401 481,-389 481,-389 481,-383 487,-377 493,-377 493,-377 587,-377 587,-377 593,-377 599,-383 599,-389 599,-389 599,-401 599,-401 599,-407 593,-413 587,-413"/>
<text text-anchor="middle" x="540" y="-391.3" font-family="Times-Roman" font-size="14.00">uncomfortable</text>
</g>
<!-- incómodo&#45;&gt;uncomfortable -->
<g id="edge14" class="edge">
<title>incómodo&#45;&gt;uncomfortable</title>
<path fill="none" stroke="black" d="M409.32,-395C427.8,-395 449.96,-395 470.74,-395"/>
<polygon fill="black" stroke="black" points="470.81,-398.5 480.81,-395 470.81,-391.5 470.81,-398.5"/>
</g>
<!-- exitoso -->
<g id="node29" class="node">
<title>exitoso</title>
<path fill="#f5f5f5" stroke="black" d="M509.5,-543C509.5,-543 467.5,-543 467.5,-543 461.5,-543 455.5,-537 455.5,-531 455.5,-531 455.5,-519 455.5,-519 455.5,-513 461.5,-507 467.5,-507 467.5,-507 509.5,-507 509.5,-507 515.5,-507 521.5,-513 521.5,-519 521.5,-519 521.5,-531 521.5,-531 521.5,-537 515.5,-543 509.5,-543"/>
<text text-anchor="middle" x="488.5" y="-521.3" font-family="Times-Roman" font-size="14.00">exitoso</text>
</g>
<!-- successful -->
<g id="node30" class="node">
<title>successful</title>
<path fill="#f5f5f5" stroke="black" d="M670.5,-543C670.5,-543 605.5,-543 605.5,-543 599.5,-543 593.5,-537 593.5,-531 593.5,-531 593.5,-519 593.5,-519 593.5,-513 599.5,-507 605.5,-507 605.5,-507 670.5,-507 670.5,-507 676.5,-507 682.5,-513 682.5,-519 682.5,-519 682.5,-531 682.5,-531 682.5,-537 676.5,-543 670.5,-543"/>
<text text-anchor="middle" x="638" y="-521.3" font-family="Times-Roman" font-size="14.00">successful</text>
</g>
<!-- exitoso&#45;&gt;successful -->
<g id="edge15" class="edge">
<title>exitoso&#45;&gt;successful</title>
<path fill="none" stroke="black" d="M521.68,-525C539.71,-525 562.47,-525 583.07,-525"/>
<polygon fill="black" stroke="black" points="583.29,-528.5 593.29,-525 583.29,-521.5 583.29,-528.5"/>
</g>
<!-- fracaso -->
<g id="node31" class="node">
<title>fracaso</title>
<path fill="#f5f5f5" stroke="black" d="M108.5,-413C108.5,-413 64.5,-413 64.5,-413 58.5,-413 52.5,-407 52.5,-401 52.5,-401 52.5,-389 52.5,-389 52.5,-383 58.5,-377 64.5,-377 64.5,-377 108.5,-377 108.5,-377 114.5,-377 120.5,-383 120.5,-389 120.5,-389 120.5,-401 120.5,-401 120.5,-407 114.5,-413 108.5,-413"/>
<text text-anchor="middle" x="86.5" y="-391.3" font-family="Times-Roman" font-size="14.00">fracaso</text>
</g>
<!-- unsuccessful -->
<g id="node32" class="node">
<title>unsuccessful</title>
<path fill="#f5f5f5" stroke="black" d="M287.5,-413C287.5,-413 204.5,-413 204.5,-413 198.5,-413 192.5,-407 192.5,-401 192.5,-401 192.5,-389 192.5,-389 192.5,-383 198.5,-377 204.5,-377 204.5,-377 287.5,-377 287.5,-377 293.5,-377 299.5,-383 299.5,-389 299.5,-389 299.5,-401 299.5,-401 299.5,-407 293.5,-413 287.5,-413"/>
<text text-anchor="middle" x="246" y="-391.3" font-family="Times-Roman" font-size="14.00">unsuccessful</text>
</g>
<!-- fracaso&#45;&gt;unsuccessful -->
<g id="edge16" class="edge">
<title>fracaso&#45;&gt;unsuccessful</title>
<path fill="none" stroke="black" d="M120.72,-395C138.65,-395 161.21,-395 182.22,-395"/>
<polygon fill="black" stroke="black" points="182.39,-398.5 192.39,-395 182.39,-391.5 182.39,-398.5"/>
</g>
<!-- casco -->
<g id="node33" class="node">
<title>casco</title>
<path fill="#f5f5f5" stroke="black" d="M44.5,-153C44.5,-153 12.5,-153 12.5,-153 6.5,-153 0.5,-147 0.5,-141 0.5,-141 0.5,-129 0.5,-129 0.5,-123 6.5,-117 12.5,-117 12.5,-117 44.5,-117 44.5,-117 50.5,-117 56.5,-123 56.5,-129 56.5,-129 56.5,-141 56.5,-141 56.5,-147 50.5,-153 44.5,-153"/>
<text text-anchor="middle" x="28.5" y="-131.3" font-family="Times-Roman" font-size="14.00">casco</text>
</g>
<!-- helmet -->
<g id="node34" class="node">
<title>helmet</title>
<path fill="#f5f5f5" stroke="black" d="M181.5,-153C181.5,-153 140.5,-153 140.5,-153 134.5,-153 128.5,-147 128.5,-141 128.5,-141 128.5,-129 128.5,-129 128.5,-123 134.5,-117 140.5,-117 140.5,-117 181.5,-117 181.5,-117 187.5,-117 193.5,-123 193.5,-129 193.5,-129 193.5,-141 193.5,-141 193.5,-147 187.5,-153 181.5,-153"/>
<text text-anchor="middle" x="161" y="-131.3" font-family="Times-Roman" font-size="14.00">helmet</text>
</g>
<!-- casco&#45;&gt;helmet -->
<g id="edge17" class="edge">
<title>casco&#45;&gt;helmet</title>
<path fill="none" stroke="black" d="M56.6,-135C74.45,-135 97.92,-135 118.07,-135"/>
<polygon fill="black" stroke="black" points="118.27,-138.5 128.27,-135 118.27,-131.5 118.27,-138.5"/>
</g>
<!-- cinturón de seguridad -->
<g id="node35" class="node">
<title>cinturón de seguridad</title>
<path fill="#f5f5f5" stroke="black" d="M418,-348C418,-348 272,-348 272,-348 266,-348 260,-342 260,-336 260,-336 260,-324 260,-324 260,-318 266,-312 272,-312 272,-312 418,-312 418,-312 424,-312 430,-318 430,-324 430,-324 430,-336 430,-336 430,-342 424,-348 418,-348"/>
<text text-anchor="middle" x="345" y="-326.3" font-family="Times-Roman" font-size="14.00">cinturón de seguridad</text>
</g>
<!-- seatbelt -->
<g id="node36" class="node">
<title>seatbelt</title>
<path fill="#f5f5f5" stroke="black" d="M562,-348C562,-348 514,-348 514,-348 508,-348 502,-342 502,-336 502,-336 502,-324 502,-324 502,-318 508,-312 514,-312 514,-312 562,-312 562,-312 568,-312 574,-318 574,-324 574,-324 574,-336 574,-336 574,-342 568,-348 562,-348"/>
<text text-anchor="middle" x="538" y="-326.3" font-family="Times-Roman" font-size="14.00">seatbelt</text>
</g>
<!-- cinturón de seguridad&#45;&gt;seatbelt -->
<g id="edge18" class="edge">
<title>cinturón de seguridad&#45;&gt;seatbelt</title>
<path fill="none" stroke="black" d="M430.21,-330C451.25,-330 473,-330 491.42,-330"/>
<polygon fill="black" stroke="black" points="491.56,-333.5 501.56,-330 491.56,-326.5 491.56,-333.5"/>
</g>
</g>
</svg>
