<?xml version="1.0" encoding="UTF-8" standalone="no"?>
<!DOCTYPE svg PUBLIC "-//W3C//DTD SVG 1.1//EN"
 "http://www.w3.org/Graphics/SVG/1.1/DTD/svg11.dtd">
<!-- Generated by graphviz version 2.44.0 (0)
 -->
<!-- Pages: 1 -->
<svg width="442pt" height="224pt"
 viewBox="0.00 0.00 441.50 224.00" xmlns="http://www.w3.org/2000/svg" xmlns:xlink="http://www.w3.org/1999/xlink">
<g id="graph0" class="graph" transform="scale(1 1) rotate(0) translate(4 220)">
<polygon fill="white" stroke="transparent" points="-4,4 -4,-220 437.5,-220 437.5,4 -4,4"/>
<!-- Poder -->
<g id="node1" class="node">
<title>Poder</title>
<path fill="#f5f5f5" stroke="black" d="M295.5,-216C295.5,-216 263.5,-216 263.5,-216 257.5,-216 251.5,-210 251.5,-204 251.5,-204 251.5,-192 251.5,-192 251.5,-186 257.5,-180 263.5,-180 263.5,-180 295.5,-180 295.5,-180 301.5,-180 307.5,-186 307.5,-192 307.5,-192 307.5,-204 307.5,-204 307.5,-210 301.5,-216 295.5,-216"/>
<text text-anchor="middle" x="279.5" y="-194.3" font-family="Times-Roman" font-size="14.00">Poder</text>
</g>
<!-- Can -->
<g id="node2" class="node">
<title>Can</title>
<path fill="#f5f5f5" stroke="black" d="M421.5,-216C421.5,-216 391.5,-216 391.5,-216 385.5,-216 379.5,-210 379.5,-204 379.5,-204 379.5,-192 379.5,-192 379.5,-186 385.5,-180 391.5,-180 391.5,-180 421.5,-180 421.5,-180 427.5,-180 433.5,-186 433.5,-192 433.5,-192 433.5,-204 433.5,-204 433.5,-210 427.5,-216 421.5,-216"/>
<text text-anchor="middle" x="406.5" y="-194.3" font-family="Times-Roman" font-size="14.00">Can</text>
</g>
<!-- Poder&#45;&gt;Can -->
<g id="edge1" class="edge">
<title>Poder&#45;&gt;Can</title>
<path fill="none" stroke="black" d="M307.69,-198C325.77,-198 349.47,-198 369.12,-198"/>
<polygon fill="black" stroke="black" points="369.27,-201.5 379.27,-198 369.27,-194.5 369.27,-201.5"/>
</g>
<!-- No poder -->
<g id="node3" class="node">
<title>No poder</title>
<path fill="#f5f5f5" stroke="black" d="M223.5,-36C223.5,-36 167.5,-36 167.5,-36 161.5,-36 155.5,-30 155.5,-24 155.5,-24 155.5,-12 155.5,-12 155.5,-6 161.5,0 167.5,0 167.5,0 223.5,0 223.5,0 229.5,0 235.5,-6 235.5,-12 235.5,-12 235.5,-24 235.5,-24 235.5,-30 229.5,-36 223.5,-36"/>
<text text-anchor="middle" x="195.5" y="-14.3" font-family="Times-Roman" font-size="14.00">No poder</text>
</g>
<!-- Can&#39;t -->
<g id="node4" class="node">
<title>Can&#39;t</title>
<path fill="#f5f5f5" stroke="black" d="M349.5,-36C349.5,-36 319.5,-36 319.5,-36 313.5,-36 307.5,-30 307.5,-24 307.5,-24 307.5,-12 307.5,-12 307.5,-6 313.5,0 319.5,0 319.5,0 349.5,0 349.5,0 355.5,0 361.5,-6 361.5,-12 361.5,-12 361.5,-24 361.5,-24 361.5,-30 355.5,-36 349.5,-36"/>
<text text-anchor="middle" x="334.5" y="-14.3" font-family="Times-Roman" font-size="14.00">Can&#39;t</text>
</g>
<!-- No poder&#45;&gt;Can&#39;t -->
<g id="edge2" class="edge">
<title>No poder&#45;&gt;Can&#39;t</title>
<path fill="none" stroke="black" d="M235.7,-18C255.05,-18 278.11,-18 297.08,-18"/>
<polygon fill="black" stroke="black" points="297.15,-21.5 307.15,-18 297.15,-14.5 297.15,-21.5"/>
</g>
<!-- Tener que -->
<g id="node5" class="node">
<title>Tener que</title>
<path fill="#f5f5f5" stroke="black" d="M265,-156C265,-156 204,-156 204,-156 198,-156 192,-150 192,-144 192,-144 192,-132 192,-132 192,-126 198,-120 204,-120 204,-120 265,-120 265,-120 271,-120 277,-126 277,-132 277,-132 277,-144 277,-144 277,-150 271,-156 265,-156"/>
<text text-anchor="middle" x="234.5" y="-134.3" font-family="Times-Roman" font-size="14.00">Tener que</text>
</g>
<!-- Have to -->
<g id="node6" class="node">
<title>Have to</title>
<path fill="#f5f5f5" stroke="black" d="M407,-156C407,-156 361,-156 361,-156 355,-156 349,-150 349,-144 349,-144 349,-132 349,-132 349,-126 355,-120 361,-120 361,-120 407,-120 407,-120 413,-120 419,-126 419,-132 419,-132 419,-144 419,-144 419,-150 413,-156 407,-156"/>
<text text-anchor="middle" x="384" y="-134.3" font-family="Times-Roman" font-size="14.00">Have to</text>
</g>
<!-- Tener que&#45;&gt;Have to -->
<g id="edge3" class="edge">
<title>Tener que&#45;&gt;Have to</title>
<path fill="none" stroke="black" d="M277.34,-138C296.5,-138 319.11,-138 338.57,-138"/>
<polygon fill="black" stroke="black" points="338.71,-141.5 348.71,-138 338.71,-134.5 338.71,-141.5"/>
</g>
<!-- No tener que -->
<g id="node7" class="node">
<title>No tener que</title>
<path fill="#f5f5f5" stroke="black" d="M95,-96C95,-96 12,-96 12,-96 6,-96 0,-90 0,-84 0,-84 0,-72 0,-72 0,-66 6,-60 12,-60 12,-60 95,-60 95,-60 101,-60 107,-66 107,-72 107,-72 107,-84 107,-84 107,-90 101,-96 95,-96"/>
<text text-anchor="middle" x="53.5" y="-74.3" font-family="Times-Roman" font-size="14.00">No tener que</text>
</g>
<!-- Don&#39;t have to -->
<g id="node8" class="node">
<title>Don&#39;t have to</title>
<path fill="#f5f5f5" stroke="black" d="M277,-96C277,-96 191,-96 191,-96 185,-96 179,-90 179,-84 179,-84 179,-72 179,-72 179,-66 185,-60 191,-60 191,-60 277,-60 277,-60 283,-60 289,-66 289,-72 289,-72 289,-84 289,-84 289,-90 283,-96 277,-96"/>
<text text-anchor="middle" x="234" y="-74.3" font-family="Times-Roman" font-size="14.00">Don&#39;t have to</text>
</g>
<!-- No tener que&#45;&gt;Don&#39;t have to -->
<g id="edge4" class="edge">
<title>No tener que&#45;&gt;Don&#39;t have to</title>
<path fill="none" stroke="black" d="M107.17,-78C126.55,-78 148.64,-78 168.89,-78"/>
<polygon fill="black" stroke="black" points="168.98,-81.5 178.98,-78 168.98,-74.5 168.98,-81.5"/>
</g>
</g>
</svg>
