<?xml version="1.0" encoding="UTF-8" standalone="no"?>
<!DOCTYPE svg PUBLIC "-//W3C//DTD SVG 1.1//EN"
 "http://www.w3.org/Graphics/SVG/1.1/DTD/svg11.dtd">
<!-- Generated by graphviz version 2.44.0 (0)
 -->
<!-- Pages: 1 -->
<svg width="628pt" height="116pt"
 viewBox="0.00 0.00 628.00 116.00" xmlns="http://www.w3.org/2000/svg" xmlns:xlink="http://www.w3.org/1999/xlink">
<g id="graph0" class="graph" transform="scale(1 1) rotate(0) translate(4 112)">
<polygon fill="white" stroke="transparent" points="-4,4 -4,-112 624,-112 624,4 -4,4"/>
<!-- take -->
<g id="node1" class="node">
<title>take</title>
<path fill="#f5f5f5" stroke="black" d="M93,-108C93,-108 63,-108 63,-108 57,-108 51,-102 51,-96 51,-96 51,-84 51,-84 51,-78 57,-72 63,-72 63,-72 93,-72 93,-72 99,-72 105,-78 105,-84 105,-84 105,-96 105,-96 105,-102 99,-108 93,-108"/>
<text text-anchor="middle" x="78" y="-86.3" font-family="Times-Roman" font-size="14.00">take</text>
</g>
<!-- a train -->
<g id="node2" class="node">
<title>a train</title>
<path fill="#f5f5f5" stroke="black" d="M50,-36C50,-36 12,-36 12,-36 6,-36 0,-30 0,-24 0,-24 0,-12 0,-12 0,-6 6,0 12,0 12,0 50,0 50,0 56,0 62,-6 62,-12 62,-12 62,-24 62,-24 62,-30 56,-36 50,-36"/>
<text text-anchor="middle" x="31" y="-14.3" font-family="Times-Roman" font-size="14.00">a train</text>
</g>
<!-- take&#45;&gt;a train -->
<g id="edge1" class="edge">
<title>take&#45;&gt;a train</title>
<path fill="none" stroke="black" d="M66.38,-71.7C60.86,-63.47 54.15,-53.48 48.07,-44.42"/>
<polygon fill="black" stroke="black" points="50.96,-42.46 42.48,-36.1 45.15,-46.36 50.96,-42.46"/>
</g>
<!-- a taxi -->
<g id="node3" class="node">
<title>a taxi</title>
<path fill="#f5f5f5" stroke="black" d="M123.5,-36C123.5,-36 92.5,-36 92.5,-36 86.5,-36 80.5,-30 80.5,-24 80.5,-24 80.5,-12 80.5,-12 80.5,-6 86.5,0 92.5,0 92.5,0 123.5,0 123.5,0 129.5,0 135.5,-6 135.5,-12 135.5,-12 135.5,-24 135.5,-24 135.5,-30 129.5,-36 123.5,-36"/>
<text text-anchor="middle" x="108" y="-14.3" font-family="Times-Roman" font-size="14.00">a taxi</text>
</g>
<!-- take&#45;&gt;a taxi -->
<g id="edge2" class="edge">
<title>take&#45;&gt;a taxi</title>
<path fill="none" stroke="black" d="M85.42,-71.7C88.79,-63.81 92.87,-54.3 96.62,-45.55"/>
<polygon fill="black" stroke="black" points="99.95,-46.67 100.67,-36.1 93.51,-43.92 99.95,-46.67"/>
</g>
<!-- a bus -->
<g id="node4" class="node">
<title>a bus</title>
<path fill="#f5f5f5" stroke="black" d="M269.5,-36C269.5,-36 238.5,-36 238.5,-36 232.5,-36 226.5,-30 226.5,-24 226.5,-24 226.5,-12 226.5,-12 226.5,-6 232.5,0 238.5,0 238.5,0 269.5,0 269.5,0 275.5,0 281.5,-6 281.5,-12 281.5,-12 281.5,-24 281.5,-24 281.5,-30 275.5,-36 269.5,-36"/>
<text text-anchor="middle" x="254" y="-14.3" font-family="Times-Roman" font-size="14.00">a bus</text>
</g>
<!-- take&#45;&gt;a bus -->
<g id="edge3" class="edge">
<title>take&#45;&gt;a bus</title>
<path fill="none" stroke="black" d="M105.39,-75.71C108.28,-74.41 111.19,-73.15 114,-72 158.88,-53.62 172.03,-54.14 217,-36 217.09,-35.96 217.19,-35.92 217.28,-35.89"/>
<polygon fill="black" stroke="black" points="218.4,-39.21 226.24,-32.09 215.67,-32.77 218.4,-39.21"/>
</g>
<!-- get on/off -->
<g id="node5" class="node">
<title>get on/off</title>
<path fill="#f5f5f5" stroke="black" d="M343.5,-108C343.5,-108 284.5,-108 284.5,-108 278.5,-108 272.5,-102 272.5,-96 272.5,-96 272.5,-84 272.5,-84 272.5,-78 278.5,-72 284.5,-72 284.5,-72 343.5,-72 343.5,-72 349.5,-72 355.5,-78 355.5,-84 355.5,-84 355.5,-96 355.5,-96 355.5,-102 349.5,-108 343.5,-108"/>
<text text-anchor="middle" x="314" y="-86.3" font-family="Times-Roman" font-size="14.00">get on/off</text>
</g>
<!-- get on/off&#45;&gt;a bus -->
<g id="edge4" class="edge">
<title>get on/off&#45;&gt;a bus</title>
<path fill="none" stroke="black" d="M299.17,-71.7C291.98,-63.3 283.2,-53.07 275.31,-43.86"/>
<polygon fill="black" stroke="black" points="277.83,-41.42 268.66,-36.1 272.51,-45.97 277.83,-41.42"/>
</g>
<!-- a bike -->
<g id="node6" class="node">
<title>a bike</title>
<path fill="#f5f5f5" stroke="black" d="M346,-36C346,-36 312,-36 312,-36 306,-36 300,-30 300,-24 300,-24 300,-12 300,-12 300,-6 306,0 312,0 312,0 346,0 346,0 352,0 358,-6 358,-12 358,-12 358,-24 358,-24 358,-30 352,-36 346,-36"/>
<text text-anchor="middle" x="329" y="-14.3" font-family="Times-Roman" font-size="14.00">a bike</text>
</g>
<!-- get on/off&#45;&gt;a bike -->
<g id="edge5" class="edge">
<title>get on/off&#45;&gt;a bike</title>
<path fill="none" stroke="black" d="M317.71,-71.7C319.36,-63.98 321.35,-54.71 323.19,-46.11"/>
<polygon fill="black" stroke="black" points="326.66,-46.62 325.33,-36.1 319.82,-45.15 326.66,-46.62"/>
</g>
<!-- get into/out of -->
<g id="node7" class="node">
<title>get into/out of</title>
<path fill="#f5f5f5" stroke="black" d="M226.5,-108C226.5,-108 135.5,-108 135.5,-108 129.5,-108 123.5,-102 123.5,-96 123.5,-96 123.5,-84 123.5,-84 123.5,-78 129.5,-72 135.5,-72 135.5,-72 226.5,-72 226.5,-72 232.5,-72 238.5,-78 238.5,-84 238.5,-84 238.5,-96 238.5,-96 238.5,-102 232.5,-108 226.5,-108"/>
<text text-anchor="middle" x="181" y="-86.3" font-family="Times-Roman" font-size="14.00">get into/out of</text>
</g>
<!-- get into/out of&#45;&gt;a taxi -->
<g id="edge6" class="edge">
<title>get into/out of&#45;&gt;a taxi</title>
<path fill="none" stroke="black" d="M162.96,-71.7C153.94,-63.05 142.88,-52.45 133.06,-43.03"/>
<polygon fill="black" stroke="black" points="135.48,-40.5 125.84,-36.1 130.63,-45.55 135.48,-40.5"/>
</g>
<!-- a car -->
<g id="node8" class="node">
<title>a car</title>
<path fill="#f5f5f5" stroke="black" d="M196,-36C196,-36 166,-36 166,-36 160,-36 154,-30 154,-24 154,-24 154,-12 154,-12 154,-6 160,0 166,0 166,0 196,0 196,0 202,0 208,-6 208,-12 208,-12 208,-24 208,-24 208,-30 202,-36 196,-36"/>
<text text-anchor="middle" x="181" y="-14.3" font-family="Times-Roman" font-size="14.00">a car</text>
</g>
<!-- get into/out of&#45;&gt;a car -->
<g id="edge7" class="edge">
<title>get into/out of&#45;&gt;a car</title>
<path fill="none" stroke="black" d="M181,-71.7C181,-63.98 181,-54.71 181,-46.11"/>
<polygon fill="black" stroke="black" points="184.5,-46.1 181,-36.1 177.5,-46.1 184.5,-46.1"/>
</g>
<!-- ride -->
<g id="node9" class="node">
<title>ride</title>
<path fill="#f5f5f5" stroke="black" d="M429,-108C429,-108 399,-108 399,-108 393,-108 387,-102 387,-96 387,-96 387,-84 387,-84 387,-78 393,-72 399,-72 399,-72 429,-72 429,-72 435,-72 441,-78 441,-84 441,-84 441,-96 441,-96 441,-102 435,-108 429,-108"/>
<text text-anchor="middle" x="414" y="-86.3" font-family="Times-Roman" font-size="14.00">ride</text>
</g>
<!-- ride&#45;&gt;a bike -->
<g id="edge8" class="edge">
<title>ride&#45;&gt;a bike</title>
<path fill="none" stroke="black" d="M392.99,-71.7C382.28,-62.88 369.11,-52.03 357.5,-42.47"/>
<polygon fill="black" stroke="black" points="359.71,-39.76 349.77,-36.1 355.26,-45.16 359.71,-39.76"/>
</g>
<!-- a motorbike -->
<g id="node10" class="node">
<title>a motorbike</title>
<path fill="#f5f5f5" stroke="black" d="M463.5,-36C463.5,-36 388.5,-36 388.5,-36 382.5,-36 376.5,-30 376.5,-24 376.5,-24 376.5,-12 376.5,-12 376.5,-6 382.5,0 388.5,0 388.5,0 463.5,0 463.5,0 469.5,0 475.5,-6 475.5,-12 475.5,-12 475.5,-24 475.5,-24 475.5,-30 469.5,-36 463.5,-36"/>
<text text-anchor="middle" x="426" y="-14.3" font-family="Times-Roman" font-size="14.00">a motorbike</text>
</g>
<!-- ride&#45;&gt;a motorbike -->
<g id="edge9" class="edge">
<title>ride&#45;&gt;a motorbike</title>
<path fill="none" stroke="black" d="M416.97,-71.7C418.29,-63.98 419.88,-54.71 421.35,-46.11"/>
<polygon fill="black" stroke="black" points="424.83,-46.55 423.07,-36.1 417.93,-45.37 424.83,-46.55"/>
</g>
<!-- go by -->
<g id="node11" class="node">
<title>go by</title>
<path fill="#f5f5f5" stroke="black" d="M573,-108C573,-108 541,-108 541,-108 535,-108 529,-102 529,-96 529,-96 529,-84 529,-84 529,-78 535,-72 541,-72 541,-72 573,-72 573,-72 579,-72 585,-78 585,-84 585,-84 585,-96 585,-96 585,-102 579,-108 573,-108"/>
<text text-anchor="middle" x="557" y="-86.3" font-family="Times-Roman" font-size="14.00">go by</text>
</g>
<!-- car -->
<g id="node12" class="node">
<title>car</title>
<path fill="#f5f5f5" stroke="black" d="M536,-36C536,-36 506,-36 506,-36 500,-36 494,-30 494,-24 494,-24 494,-12 494,-12 494,-6 500,0 506,0 506,0 536,0 536,0 542,0 548,-6 548,-12 548,-12 548,-24 548,-24 548,-30 542,-36 536,-36"/>
<text text-anchor="middle" x="521" y="-14.3" font-family="Times-Roman" font-size="14.00">car</text>
</g>
<!-- go by&#45;&gt;car -->
<g id="edge10" class="edge">
<title>go by&#45;&gt;car</title>
<path fill="none" stroke="black" d="M548.1,-71.7C544,-63.73 539.05,-54.1 534.51,-45.26"/>
<polygon fill="black" stroke="black" points="537.48,-43.4 529.8,-36.1 531.26,-46.6 537.48,-43.4"/>
</g>
<!-- train -->
<g id="node13" class="node">
<title>train</title>
<path fill="#f5f5f5" stroke="black" d="M608,-36C608,-36 578,-36 578,-36 572,-36 566,-30 566,-24 566,-24 566,-12 566,-12 566,-6 572,0 578,0 578,0 608,0 608,0 614,0 620,-6 620,-12 620,-12 620,-24 620,-24 620,-30 614,-36 608,-36"/>
<text text-anchor="middle" x="593" y="-14.3" font-family="Times-Roman" font-size="14.00">train</text>
</g>
<!-- go by&#45;&gt;train -->
<g id="edge11" class="edge">
<title>go by&#45;&gt;train</title>
<path fill="none" stroke="black" d="M565.9,-71.7C570,-63.73 574.95,-54.1 579.49,-45.26"/>
<polygon fill="black" stroke="black" points="582.74,-46.6 584.2,-36.1 576.52,-43.4 582.74,-46.6"/>
</g>
</g>
</svg>
