<?xml version="1.0" encoding="UTF-8" standalone="no"?>
<!DOCTYPE svg PUBLIC "-//W3C//DTD SVG 1.1//EN"
 "http://www.w3.org/Graphics/SVG/1.1/DTD/svg11.dtd">
<!-- Generated by graphviz version 2.44.0 (0)
 -->
<!-- Pages: 1 -->
<svg width="891pt" height="314pt"
 viewBox="0.00 0.00 891.00 314.00" xmlns="http://www.w3.org/2000/svg" xmlns:xlink="http://www.w3.org/1999/xlink">
<g id="graph0" class="graph" transform="scale(1 1) rotate(0) translate(4 310)">
<polygon fill="white" stroke="transparent" points="-4,4 -4,-310 887,-310 887,4 -4,4"/>
<!-- I&#39;m very sorry I&#39;m late. -->
<g id="node1" class="node">
<title>I&#39;m very sorry I&#39;m late.</title>
<path fill="#f5f5f5" stroke="black" d="M216,-36C216,-36 66,-36 66,-36 60,-36 54,-30 54,-24 54,-24 54,-12 54,-12 54,-6 60,0 66,0 66,0 216,0 216,0 222,0 228,-6 228,-12 228,-12 228,-24 228,-24 228,-30 222,-36 216,-36"/>
<text text-anchor="middle" x="141" y="-14.3" font-family="Times-Roman" font-size="14.00">I&#39;m very sorry I&#39;m late.</text>
</g>
<!-- I thought today was Sunday, so I stayed in bed. -->
<g id="node2" class="node">
<title>I thought today was Sunday, so I stayed in bed.</title>
<path fill="#f5f5f5" stroke="black" d="M763.5,-36C763.5,-36 437.5,-36 437.5,-36 431.5,-36 425.5,-30 425.5,-24 425.5,-24 425.5,-12 425.5,-12 425.5,-6 431.5,0 437.5,0 437.5,0 763.5,0 763.5,0 769.5,0 775.5,-6 775.5,-12 775.5,-12 775.5,-24 775.5,-24 775.5,-30 769.5,-36 763.5,-36"/>
<text text-anchor="middle" x="600.5" y="-14.3" font-family="Times-Roman" font-size="14.00">I thought today was Sunday, so I stayed in bed.</text>
</g>
<!-- I&#39;m very sorry I&#39;m late.&#45;&gt;I thought today was Sunday, so I stayed in bed. -->
<g id="edge1" class="edge">
<title>I&#39;m very sorry I&#39;m late.&#45;&gt;I thought today was Sunday, so I stayed in bed.</title>
<path fill="none" stroke="black" d="M228.05,-18C280.75,-18 350.28,-18 414.92,-18"/>
<polygon fill="black" stroke="black" points="415.25,-21.5 425.25,-18 415.25,-14.5 415.25,-21.5"/>
</g>
<!-- Sorry to be late. -->
<g id="node3" class="node">
<title>Sorry to be late.</title>
<path fill="#f5f5f5" stroke="black" d="M193,-90C193,-90 89,-90 89,-90 83,-90 77,-84 77,-78 77,-78 77,-66 77,-66 77,-60 83,-54 89,-54 89,-54 193,-54 193,-54 199,-54 205,-60 205,-66 205,-66 205,-78 205,-78 205,-84 199,-90 193,-90"/>
<text text-anchor="middle" x="141" y="-68.3" font-family="Times-Roman" font-size="14.00">Sorry to be late.</text>
</g>
<!-- There was a long queue at the coffee shop. I brought you one &#45; here. -->
<g id="node4" class="node">
<title>There was a long queue at the coffee shop. I brought you one &#45; here.</title>
<path fill="#f5f5f5" stroke="black" d="M835.5,-90C835.5,-90 365.5,-90 365.5,-90 359.5,-90 353.5,-84 353.5,-78 353.5,-78 353.5,-66 353.5,-66 353.5,-60 359.5,-54 365.5,-54 365.5,-54 835.5,-54 835.5,-54 841.5,-54 847.5,-60 847.5,-66 847.5,-66 847.5,-78 847.5,-78 847.5,-84 841.5,-90 835.5,-90"/>
<text text-anchor="middle" x="600.5" y="-68.3" font-family="Times-Roman" font-size="14.00">There was a long queue at the coffee shop. I brought you one &#45; here.</text>
</g>
<!-- Sorry to be late.&#45;&gt;There was a long queue at the coffee shop. I brought you one &#45; here. -->
<g id="edge2" class="edge">
<title>Sorry to be late.&#45;&gt;There was a long queue at the coffee shop. I brought you one &#45; here.</title>
<path fill="none" stroke="black" d="M205.13,-72C242.19,-72 291.74,-72 343.18,-72"/>
<polygon fill="black" stroke="black" points="343.49,-75.5 353.49,-72 343.49,-68.5 343.49,-75.5"/>
</g>
<!-- I&#39;m terribly sorry I&#39;m late. -->
<g id="node5" class="node">
<title>I&#39;m terribly sorry I&#39;m late.</title>
<path fill="#f5f5f5" stroke="black" d="M225.5,-144C225.5,-144 56.5,-144 56.5,-144 50.5,-144 44.5,-138 44.5,-132 44.5,-132 44.5,-120 44.5,-120 44.5,-114 50.5,-108 56.5,-108 56.5,-108 225.5,-108 225.5,-108 231.5,-108 237.5,-114 237.5,-120 237.5,-120 237.5,-132 237.5,-132 237.5,-138 231.5,-144 225.5,-144"/>
<text text-anchor="middle" x="141" y="-122.3" font-family="Times-Roman" font-size="14.00">I&#39;m terribly sorry I&#39;m late.</text>
</g>
<!-- My train hit a cow. -->
<g id="node6" class="node">
<title>My train hit a cow.</title>
<path fill="#f5f5f5" stroke="black" d="M660.5,-144C660.5,-144 540.5,-144 540.5,-144 534.5,-144 528.5,-138 528.5,-132 528.5,-132 528.5,-120 528.5,-120 528.5,-114 534.5,-108 540.5,-108 540.5,-108 660.5,-108 660.5,-108 666.5,-108 672.5,-114 672.5,-120 672.5,-120 672.5,-132 672.5,-132 672.5,-138 666.5,-144 660.5,-144"/>
<text text-anchor="middle" x="600.5" y="-122.3" font-family="Times-Roman" font-size="14.00">My train hit a cow.</text>
</g>
<!-- I&#39;m terribly sorry I&#39;m late.&#45;&gt;My train hit a cow. -->
<g id="edge3" class="edge">
<title>I&#39;m terribly sorry I&#39;m late.&#45;&gt;My train hit a cow.</title>
<path fill="none" stroke="black" d="M237.63,-126C320.61,-126 439.43,-126 517.98,-126"/>
<polygon fill="black" stroke="black" points="518.31,-129.5 528.31,-126 518.31,-122.5 518.31,-129.5"/>
</g>
<!-- I&#39;m really sorry I&#39;m late. -->
<g id="node7" class="node">
<title>I&#39;m really sorry I&#39;m late.</title>
<path fill="#f5f5f5" stroke="black" d="M219.5,-198C219.5,-198 62.5,-198 62.5,-198 56.5,-198 50.5,-192 50.5,-186 50.5,-186 50.5,-174 50.5,-174 50.5,-168 56.5,-162 62.5,-162 62.5,-162 219.5,-162 219.5,-162 225.5,-162 231.5,-168 231.5,-174 231.5,-174 231.5,-186 231.5,-186 231.5,-192 225.5,-198 219.5,-198"/>
<text text-anchor="middle" x="141" y="-176.3" font-family="Times-Roman" font-size="14.00">I&#39;m really sorry I&#39;m late.</text>
</g>
<!-- My son took my car keys to school, so I took the bus to his school to get them. -->
<g id="node8" class="node">
<title>My son took my car keys to school, so I took the bus to his school to get them.</title>
<path fill="#f5f5f5" stroke="black" d="M870,-198C870,-198 331,-198 331,-198 325,-198 319,-192 319,-186 319,-186 319,-174 319,-174 319,-168 325,-162 331,-162 331,-162 870,-162 870,-162 876,-162 882,-168 882,-174 882,-174 882,-186 882,-186 882,-192 876,-198 870,-198"/>
<text text-anchor="middle" x="600.5" y="-176.3" font-family="Times-Roman" font-size="14.00">My son took my car keys to school, so I took the bus to his school to get them.</text>
</g>
<!-- I&#39;m really sorry I&#39;m late.&#45;&gt;My son took my car keys to school, so I took the bus to his school to get them. -->
<g id="edge4" class="edge">
<title>I&#39;m really sorry I&#39;m late.&#45;&gt;My son took my car keys to school, so I took the bus to his school to get them.</title>
<path fill="none" stroke="black" d="M231.57,-180C254.74,-180 280.98,-180 308.52,-180"/>
<polygon fill="black" stroke="black" points="308.73,-183.5 318.73,-180 308.73,-176.5 308.73,-183.5"/>
</g>
<!-- I&#39;m so sorry. -->
<g id="node9" class="node">
<title>I&#39;m so sorry.</title>
<path fill="#f5f5f5" stroke="black" d="M179.5,-252C179.5,-252 102.5,-252 102.5,-252 96.5,-252 90.5,-246 90.5,-240 90.5,-240 90.5,-228 90.5,-228 90.5,-222 96.5,-216 102.5,-216 102.5,-216 179.5,-216 179.5,-216 185.5,-216 191.5,-222 191.5,-228 191.5,-228 191.5,-240 191.5,-240 191.5,-246 185.5,-252 179.5,-252"/>
<text text-anchor="middle" x="141" y="-230.3" font-family="Times-Roman" font-size="14.00">I&#39;m so sorry.</text>
</g>
<!-- I messed the meeting. I feel awful about it. I drove to my old office by mistake. -->
<g id="node10" class="node">
<title>I messed the meeting. I feel awful about it. I drove to my old office by mistake.</title>
<path fill="#f5f5f5" stroke="black" d="M871,-252C871,-252 330,-252 330,-252 324,-252 318,-246 318,-240 318,-240 318,-228 318,-228 318,-222 324,-216 330,-216 330,-216 871,-216 871,-216 877,-216 883,-222 883,-228 883,-228 883,-240 883,-240 883,-246 877,-252 871,-252"/>
<text text-anchor="middle" x="600.5" y="-230.3" font-family="Times-Roman" font-size="14.00">I messed the meeting. I feel awful about it. I drove to my old office by mistake.</text>
</g>
<!-- I&#39;m so sorry.&#45;&gt;I messed the meeting. I feel awful about it. I drove to my old office by mistake. -->
<g id="edge5" class="edge">
<title>I&#39;m so sorry.&#45;&gt;I messed the meeting. I feel awful about it. I drove to my old office by mistake.</title>
<path fill="none" stroke="black" d="M191.83,-234C221.97,-234 263.14,-234 307.77,-234"/>
<polygon fill="black" stroke="black" points="307.95,-237.5 317.95,-234 307.95,-230.5 307.95,-237.5"/>
</g>
<!-- I&#39;m afraid I didn&#39;t hear my alarm clock -->
<g id="node11" class="node">
<title>I&#39;m afraid I didn&#39;t hear my alarm clock</title>
<path fill="#f5f5f5" stroke="black" d="M270,-306C270,-306 12,-306 12,-306 6,-306 0,-300 0,-294 0,-294 0,-282 0,-282 0,-276 6,-270 12,-270 12,-270 270,-270 270,-270 276,-270 282,-276 282,-282 282,-282 282,-294 282,-294 282,-300 276,-306 270,-306"/>
<text text-anchor="middle" x="141" y="-284.3" font-family="Times-Roman" font-size="14.00">I&#39;m afraid I didn&#39;t hear my alarm clock</text>
</g>
<!-- because I had ear plugs in. -->
<g id="node12" class="node">
<title>because I had ear plugs in.</title>
<path fill="#f5f5f5" stroke="black" d="M691.5,-306C691.5,-306 509.5,-306 509.5,-306 503.5,-306 497.5,-300 497.5,-294 497.5,-294 497.5,-282 497.5,-282 497.5,-276 503.5,-270 509.5,-270 509.5,-270 691.5,-270 691.5,-270 697.5,-270 703.5,-276 703.5,-282 703.5,-282 703.5,-294 703.5,-294 703.5,-300 697.5,-306 691.5,-306"/>
<text text-anchor="middle" x="600.5" y="-284.3" font-family="Times-Roman" font-size="14.00">because I had ear plugs in.</text>
</g>
<!-- I&#39;m afraid I didn&#39;t hear my alarm clock&#45;&gt;because I had ear plugs in. -->
<g id="edge6" class="edge">
<title>I&#39;m afraid I didn&#39;t hear my alarm clock&#45;&gt;because I had ear plugs in.</title>
<path fill="none" stroke="black" d="M282.06,-288C347.89,-288 425.31,-288 487.21,-288"/>
<polygon fill="black" stroke="black" points="487.4,-291.5 497.4,-288 487.4,-284.5 487.4,-291.5"/>
</g>
</g>
</svg>
