<?xml version="1.0" encoding="UTF-8" standalone="no"?>
<!DOCTYPE svg PUBLIC "-//W3C//DTD SVG 1.1//EN"
 "http://www.w3.org/Graphics/SVG/1.1/DTD/svg11.dtd">
<!-- Generated by graphviz version 2.44.0 (0)
 -->
<!-- Pages: 1 -->
<svg width="547pt" height="116pt"
 viewBox="0.00 0.00 547.00 116.00" xmlns="http://www.w3.org/2000/svg" xmlns:xlink="http://www.w3.org/1999/xlink">
<g id="graph0" class="graph" transform="scale(1 1) rotate(0) translate(4 112)">
<polygon fill="white" stroke="transparent" points="-4,4 -4,-112 543,-112 543,4 -4,4"/>
<!-- I lost -->
<g id="node1" class="node">
<title>I lost</title>
<path fill="#f5f5f5" stroke="black" d="M54.5,-108C54.5,-108 24.5,-108 24.5,-108 18.5,-108 12.5,-102 12.5,-96 12.5,-96 12.5,-84 12.5,-84 12.5,-78 18.5,-72 24.5,-72 24.5,-72 54.5,-72 54.5,-72 60.5,-72 66.5,-78 66.5,-84 66.5,-84 66.5,-96 66.5,-96 66.5,-102 60.5,-108 54.5,-108"/>
<text text-anchor="middle" x="39.5" y="-86.3" font-family="Times-Roman" font-size="14.00">I lost</text>
</g>
<!-- my keys. -->
<g id="node2" class="node">
<title>my keys.</title>
<path fill="#f5f5f5" stroke="black" d="M67,-36C67,-36 12,-36 12,-36 6,-36 0,-30 0,-24 0,-24 0,-12 0,-12 0,-6 6,0 12,0 12,0 67,0 67,0 73,0 79,-6 79,-12 79,-12 79,-24 79,-24 79,-30 73,-36 67,-36"/>
<text text-anchor="middle" x="39.5" y="-14.3" font-family="Times-Roman" font-size="14.00">my keys.</text>
</g>
<!-- I lost&#45;&gt;my keys. -->
<g id="edge1" class="edge">
<title>I lost&#45;&gt;my keys.</title>
<path fill="none" stroke="black" d="M39.5,-71.7C39.5,-63.98 39.5,-54.71 39.5,-46.11"/>
<polygon fill="black" stroke="black" points="43,-46.1 39.5,-36.1 36,-46.1 43,-46.1"/>
</g>
<!-- I missed -->
<g id="node3" class="node">
<title>I missed</title>
<path fill="#f5f5f5" stroke="black" d="M163,-108C163,-108 112,-108 112,-108 106,-108 100,-102 100,-96 100,-96 100,-84 100,-84 100,-78 106,-72 112,-72 112,-72 163,-72 163,-72 169,-72 175,-78 175,-84 175,-84 175,-96 175,-96 175,-102 169,-108 163,-108"/>
<text text-anchor="middle" x="137.5" y="-86.3" font-family="Times-Roman" font-size="14.00">I missed</text>
</g>
<!-- the train. -->
<g id="node4" class="node">
<title>the train.</title>
<path fill="#f5f5f5" stroke="black" d="M165.5,-36C165.5,-36 109.5,-36 109.5,-36 103.5,-36 97.5,-30 97.5,-24 97.5,-24 97.5,-12 97.5,-12 97.5,-6 103.5,0 109.5,0 109.5,0 165.5,0 165.5,0 171.5,0 177.5,-6 177.5,-12 177.5,-12 177.5,-24 177.5,-24 177.5,-30 171.5,-36 165.5,-36"/>
<text text-anchor="middle" x="137.5" y="-14.3" font-family="Times-Roman" font-size="14.00">the train.</text>
</g>
<!-- I missed&#45;&gt;the train. -->
<g id="edge2" class="edge">
<title>I missed&#45;&gt;the train.</title>
<path fill="none" stroke="black" d="M137.5,-71.7C137.5,-63.98 137.5,-54.71 137.5,-46.11"/>
<polygon fill="black" stroke="black" points="141,-46.1 137.5,-36.1 134,-46.1 141,-46.1"/>
</g>
<!-- My car -->
<g id="node5" class="node">
<title>My car</title>
<path fill="#f5f5f5" stroke="black" d="M266,-108C266,-108 227,-108 227,-108 221,-108 215,-102 215,-96 215,-96 215,-84 215,-84 215,-78 221,-72 227,-72 227,-72 266,-72 266,-72 272,-72 278,-78 278,-84 278,-84 278,-96 278,-96 278,-102 272,-108 266,-108"/>
<text text-anchor="middle" x="246.5" y="-86.3" font-family="Times-Roman" font-size="14.00">My car</text>
</g>
<!-- broke down. -->
<g id="node6" class="node">
<title>broke down.</title>
<path fill="#f5f5f5" stroke="black" d="M285,-36C285,-36 208,-36 208,-36 202,-36 196,-30 196,-24 196,-24 196,-12 196,-12 196,-6 202,0 208,0 208,0 285,0 285,0 291,0 297,-6 297,-12 297,-12 297,-24 297,-24 297,-30 291,-36 285,-36"/>
<text text-anchor="middle" x="246.5" y="-14.3" font-family="Times-Roman" font-size="14.00">broke down.</text>
</g>
<!-- My car&#45;&gt;broke down. -->
<g id="edge3" class="edge">
<title>My car&#45;&gt;broke down.</title>
<path fill="none" stroke="black" d="M246.5,-71.7C246.5,-63.98 246.5,-54.71 246.5,-46.11"/>
<polygon fill="black" stroke="black" points="250,-46.1 246.5,-36.1 243,-46.1 250,-46.1"/>
</g>
<!-- The traffic -->
<g id="node7" class="node">
<title>The traffic</title>
<path fill="#f5f5f5" stroke="black" d="M386,-108C386,-108 323,-108 323,-108 317,-108 311,-102 311,-96 311,-96 311,-84 311,-84 311,-78 317,-72 323,-72 323,-72 386,-72 386,-72 392,-72 398,-78 398,-84 398,-84 398,-96 398,-96 398,-102 392,-108 386,-108"/>
<text text-anchor="middle" x="354.5" y="-86.3" font-family="Times-Roman" font-size="14.00">The traffic</text>
</g>
<!-- was bad. -->
<g id="node8" class="node">
<title>was bad.</title>
<path fill="#f5f5f5" stroke="black" d="M382,-36C382,-36 327,-36 327,-36 321,-36 315,-30 315,-24 315,-24 315,-12 315,-12 315,-6 321,0 327,0 327,0 382,0 382,0 388,0 394,-6 394,-12 394,-12 394,-24 394,-24 394,-30 388,-36 382,-36"/>
<text text-anchor="middle" x="354.5" y="-14.3" font-family="Times-Roman" font-size="14.00">was bad.</text>
</g>
<!-- The traffic&#45;&gt;was bad. -->
<g id="edge4" class="edge">
<title>The traffic&#45;&gt;was bad.</title>
<path fill="none" stroke="black" d="M354.5,-71.7C354.5,-63.98 354.5,-54.71 354.5,-46.11"/>
<polygon fill="black" stroke="black" points="358,-46.1 354.5,-36.1 351,-46.1 358,-46.1"/>
</g>
<!-- I didn&#39;t hear -->
<g id="node9" class="node">
<title>I didn&#39;t hear</title>
<path fill="#f5f5f5" stroke="black" d="M514,-108C514,-108 437,-108 437,-108 431,-108 425,-102 425,-96 425,-96 425,-84 425,-84 425,-78 431,-72 437,-72 437,-72 514,-72 514,-72 520,-72 526,-78 526,-84 526,-84 526,-96 526,-96 526,-102 520,-108 514,-108"/>
<text text-anchor="middle" x="475.5" y="-86.3" font-family="Times-Roman" font-size="14.00">I didn&#39;t hear</text>
</g>
<!-- the alarm clock. -->
<g id="node10" class="node">
<title>the alarm clock.</title>
<path fill="#f5f5f5" stroke="black" d="M527,-36C527,-36 424,-36 424,-36 418,-36 412,-30 412,-24 412,-24 412,-12 412,-12 412,-6 418,0 424,0 424,0 527,0 527,0 533,0 539,-6 539,-12 539,-12 539,-24 539,-24 539,-30 533,-36 527,-36"/>
<text text-anchor="middle" x="475.5" y="-14.3" font-family="Times-Roman" font-size="14.00">the alarm clock.</text>
</g>
<!-- I didn&#39;t hear&#45;&gt;the alarm clock. -->
<g id="edge5" class="edge">
<title>I didn&#39;t hear&#45;&gt;the alarm clock.</title>
<path fill="none" stroke="black" d="M475.5,-71.7C475.5,-63.98 475.5,-54.71 475.5,-46.11"/>
<polygon fill="black" stroke="black" points="479,-46.1 475.5,-36.1 472,-46.1 479,-46.1"/>
</g>
</g>
</svg>
