<?xml version="1.0" encoding="UTF-8" standalone="no"?>
<!DOCTYPE svg PUBLIC "-//W3C//DTD SVG 1.1//EN"
 "http://www.w3.org/Graphics/SVG/1.1/DTD/svg11.dtd">
<!-- Generated by graphviz version 2.44.0 (0)
 -->
<!-- Pages: 1 -->
<svg width="756pt" height="314pt"
 viewBox="0.00 0.00 756.00 314.00" xmlns="http://www.w3.org/2000/svg" xmlns:xlink="http://www.w3.org/1999/xlink">
<g id="graph0" class="graph" transform="scale(1 1) rotate(0) translate(4 310)">
<polygon fill="white" stroke="transparent" points="-4,4 -4,-310 752,-310 752,4 -4,4"/>
<!-- My brother -->
<g id="node1" class="node">
<title>My brother</title>
<path fill="#f5f5f5" stroke="black" d="M193.5,-36C193.5,-36 125.5,-36 125.5,-36 119.5,-36 113.5,-30 113.5,-24 113.5,-24 113.5,-12 113.5,-12 113.5,-6 119.5,0 125.5,0 125.5,0 193.5,0 193.5,0 199.5,0 205.5,-6 205.5,-12 205.5,-12 205.5,-24 205.5,-24 205.5,-30 199.5,-36 193.5,-36"/>
<text text-anchor="middle" x="159.5" y="-14.3" font-family="Times-Roman" font-size="14.00">My brother</text>
</g>
<!-- is taller than -->
<g id="node2" class="node">
<title>is taller than</title>
<path fill="#f5f5f5" stroke="black" d="M491.5,-36C491.5,-36 411.5,-36 411.5,-36 405.5,-36 399.5,-30 399.5,-24 399.5,-24 399.5,-12 399.5,-12 399.5,-6 405.5,0 411.5,0 411.5,0 491.5,0 491.5,0 497.5,0 503.5,-6 503.5,-12 503.5,-12 503.5,-24 503.5,-24 503.5,-30 497.5,-36 491.5,-36"/>
<text text-anchor="middle" x="451.5" y="-14.3" font-family="Times-Roman" font-size="14.00">is taller than</text>
</g>
<!-- My brother&#45;&gt;is taller than -->
<g id="edge1" class="edge">
<title>My brother&#45;&gt;is taller than</title>
<path fill="none" stroke="black" d="M205.81,-18C255.05,-18 334.01,-18 388.86,-18"/>
<polygon fill="black" stroke="black" points="389.15,-21.5 399.15,-18 389.15,-14.5 389.15,-21.5"/>
</g>
<!-- me. -->
<g id="node3" class="node">
<title>me.</title>
<path fill="#f5f5f5" stroke="black" d="M681,-36C681,-36 651,-36 651,-36 645,-36 639,-30 639,-24 639,-24 639,-12 639,-12 639,-6 645,0 651,0 651,0 681,0 681,0 687,0 693,-6 693,-12 693,-12 693,-24 693,-24 693,-30 687,-36 681,-36"/>
<text text-anchor="middle" x="666" y="-14.3" font-family="Times-Roman" font-size="14.00">me.</text>
</g>
<!-- is taller than&#45;&gt;me. -->
<g id="edge2" class="edge">
<title>is taller than&#45;&gt;me.</title>
<path fill="none" stroke="black" d="M503.67,-18C542.29,-18 594.33,-18 628.73,-18"/>
<polygon fill="black" stroke="black" points="628.81,-21.5 638.81,-18 628.81,-14.5 628.81,-21.5"/>
</g>
<!-- I&#39;m eighteen but my best friend -->
<g id="node4" class="node">
<title>I&#39;m eighteen but my best friend</title>
<path fill="#f5f5f5" stroke="black" d="M266.5,-90C266.5,-90 52.5,-90 52.5,-90 46.5,-90 40.5,-84 40.5,-78 40.5,-78 40.5,-66 40.5,-66 40.5,-60 46.5,-54 52.5,-54 52.5,-54 266.5,-54 266.5,-54 272.5,-54 278.5,-60 278.5,-66 278.5,-66 278.5,-78 278.5,-78 278.5,-84 272.5,-90 266.5,-90"/>
<text text-anchor="middle" x="159.5" y="-68.3" font-family="Times-Roman" font-size="14.00">I&#39;m eighteen but my best friend</text>
</g>
<!-- is younger than -->
<g id="node5" class="node">
<title>is younger than</title>
<path fill="#f5f5f5" stroke="black" d="M502.5,-90C502.5,-90 400.5,-90 400.5,-90 394.5,-90 388.5,-84 388.5,-78 388.5,-78 388.5,-66 388.5,-66 388.5,-60 394.5,-54 400.5,-54 400.5,-54 502.5,-54 502.5,-54 508.5,-54 514.5,-60 514.5,-66 514.5,-66 514.5,-78 514.5,-78 514.5,-84 508.5,-90 502.5,-90"/>
<text text-anchor="middle" x="451.5" y="-68.3" font-family="Times-Roman" font-size="14.00">is younger than</text>
</g>
<!-- I&#39;m eighteen but my best friend&#45;&gt;is younger than -->
<g id="edge3" class="edge">
<title>I&#39;m eighteen but my best friend&#45;&gt;is younger than</title>
<path fill="none" stroke="black" d="M278.87,-72C312.5,-72 348.1,-72 378.11,-72"/>
<polygon fill="black" stroke="black" points="378.48,-75.5 388.48,-72 378.48,-68.5 378.48,-75.5"/>
</g>
<!-- me; she&#39;s seventeen. -->
<g id="node6" class="node">
<title>me; she&#39;s seventeen.</title>
<path fill="#f5f5f5" stroke="black" d="M736,-90C736,-90 596,-90 596,-90 590,-90 584,-84 584,-78 584,-78 584,-66 584,-66 584,-60 590,-54 596,-54 596,-54 736,-54 736,-54 742,-54 748,-60 748,-66 748,-66 748,-78 748,-78 748,-84 742,-90 736,-90"/>
<text text-anchor="middle" x="666" y="-68.3" font-family="Times-Roman" font-size="14.00">me; she&#39;s seventeen.</text>
</g>
<!-- is younger than&#45;&gt;me; she&#39;s seventeen. -->
<g id="edge4" class="edge">
<title>is younger than&#45;&gt;me; she&#39;s seventeen.</title>
<path fill="none" stroke="black" d="M514.54,-72C533.08,-72 553.82,-72 573.83,-72"/>
<polygon fill="black" stroke="black" points="573.9,-75.5 583.9,-72 573.9,-68.5 573.9,-75.5"/>
</g>
<!-- Do you like Lucy? I think Mariela -->
<g id="node7" class="node">
<title>Do you like Lucy? I think Mariela</title>
<path fill="#f5f5f5" stroke="black" d="M268,-144C268,-144 51,-144 51,-144 45,-144 39,-138 39,-132 39,-132 39,-120 39,-120 39,-114 45,-108 51,-108 51,-108 268,-108 268,-108 274,-108 280,-114 280,-120 280,-120 280,-132 280,-132 280,-138 274,-144 268,-144"/>
<text text-anchor="middle" x="159.5" y="-122.3" font-family="Times-Roman" font-size="14.00">Do you like Lucy? I think Mariela</text>
</g>
<!-- is nicer than -->
<g id="node8" class="node">
<title>is nicer than</title>
<path fill="#f5f5f5" stroke="black" d="M491,-144C491,-144 412,-144 412,-144 406,-144 400,-138 400,-132 400,-132 400,-120 400,-120 400,-114 406,-108 412,-108 412,-108 491,-108 491,-108 497,-108 503,-114 503,-120 503,-120 503,-132 503,-132 503,-138 497,-144 491,-144"/>
<text text-anchor="middle" x="451.5" y="-122.3" font-family="Times-Roman" font-size="14.00">is nicer than</text>
</g>
<!-- Do you like Lucy? I think Mariela&#45;&gt;is nicer than -->
<g id="edge5" class="edge">
<title>Do you like Lucy? I think Mariela&#45;&gt;is nicer than</title>
<path fill="none" stroke="black" d="M280.13,-126C317.86,-126 357.96,-126 389.77,-126"/>
<polygon fill="black" stroke="black" points="389.79,-129.5 399.79,-126 389.79,-122.5 389.79,-129.5"/>
</g>
<!-- she. -->
<g id="node9" class="node">
<title>she.</title>
<path fill="#f5f5f5" stroke="black" d="M681,-144C681,-144 651,-144 651,-144 645,-144 639,-138 639,-132 639,-132 639,-120 639,-120 639,-114 645,-108 651,-108 651,-108 681,-108 681,-108 687,-108 693,-114 693,-120 693,-120 693,-132 693,-132 693,-138 687,-144 681,-144"/>
<text text-anchor="middle" x="666" y="-122.3" font-family="Times-Roman" font-size="14.00">she.</text>
</g>
<!-- is nicer than&#45;&gt;she. -->
<g id="edge6" class="edge">
<title>is nicer than&#45;&gt;she.</title>
<path fill="none" stroke="black" d="M503.13,-126C541.84,-126 594.28,-126 628.85,-126"/>
<polygon fill="black" stroke="black" points="628.96,-129.5 638.96,-126 628.96,-122.5 628.96,-129.5"/>
</g>
<!-- I don&#39;t like horror films; I think actions films -->
<g id="node10" class="node">
<title>I don&#39;t like horror films; I think actions films</title>
<path fill="#f5f5f5" stroke="black" d="M307,-198C307,-198 12,-198 12,-198 6,-198 0,-192 0,-186 0,-186 0,-174 0,-174 0,-168 6,-162 12,-162 12,-162 307,-162 307,-162 313,-162 319,-168 319,-174 319,-174 319,-186 319,-186 319,-192 313,-198 307,-198"/>
<text text-anchor="middle" x="159.5" y="-176.3" font-family="Times-Roman" font-size="14.00">I don&#39;t like horror films; I think actions films</text>
</g>
<!-- are more interesting than -->
<g id="node11" class="node">
<title>are more interesting than</title>
<path fill="#f5f5f5" stroke="black" d="M536,-198C536,-198 367,-198 367,-198 361,-198 355,-192 355,-186 355,-186 355,-174 355,-174 355,-168 361,-162 367,-162 367,-162 536,-162 536,-162 542,-162 548,-168 548,-174 548,-174 548,-186 548,-186 548,-192 542,-198 536,-198"/>
<text text-anchor="middle" x="451.5" y="-176.3" font-family="Times-Roman" font-size="14.00">are more interesting than</text>
</g>
<!-- I don&#39;t like horror films; I think actions films&#45;&gt;are more interesting than -->
<g id="edge7" class="edge">
<title>I don&#39;t like horror films; I think actions films&#45;&gt;are more interesting than</title>
<path fill="none" stroke="black" d="M319.08,-180C327.72,-180 336.31,-180 344.7,-180"/>
<polygon fill="black" stroke="black" points="344.84,-183.5 354.84,-180 344.84,-176.5 344.84,-183.5"/>
</g>
<!-- them. -->
<g id="node12" class="node">
<title>them.</title>
<path fill="#f5f5f5" stroke="black" d="M682.5,-198C682.5,-198 649.5,-198 649.5,-198 643.5,-198 637.5,-192 637.5,-186 637.5,-186 637.5,-174 637.5,-174 637.5,-168 643.5,-162 649.5,-162 649.5,-162 682.5,-162 682.5,-162 688.5,-162 694.5,-168 694.5,-174 694.5,-174 694.5,-186 694.5,-186 694.5,-192 688.5,-198 682.5,-198"/>
<text text-anchor="middle" x="666" y="-176.3" font-family="Times-Roman" font-size="14.00">them.</text>
</g>
<!-- are more interesting than&#45;&gt;them. -->
<g id="edge8" class="edge">
<title>are more interesting than&#45;&gt;them.</title>
<path fill="none" stroke="black" d="M548.18,-180C576.02,-180 604.83,-180 626.87,-180"/>
<polygon fill="black" stroke="black" points="627.12,-183.5 637.12,-180 627.12,-176.5 627.12,-183.5"/>
</g>
<!-- Our neighbours -->
<g id="node13" class="node">
<title>Our neighbours</title>
<path fill="#f5f5f5" stroke="black" d="M210.5,-252C210.5,-252 108.5,-252 108.5,-252 102.5,-252 96.5,-246 96.5,-240 96.5,-240 96.5,-228 96.5,-228 96.5,-222 102.5,-216 108.5,-216 108.5,-216 210.5,-216 210.5,-216 216.5,-216 222.5,-222 222.5,-228 222.5,-228 222.5,-240 222.5,-240 222.5,-246 216.5,-252 210.5,-252"/>
<text text-anchor="middle" x="159.5" y="-230.3" font-family="Times-Roman" font-size="14.00">Our neighbours</text>
</g>
<!-- are richer than -->
<g id="node14" class="node">
<title>are richer than</title>
<path fill="#f5f5f5" stroke="black" d="M499,-252C499,-252 404,-252 404,-252 398,-252 392,-246 392,-240 392,-240 392,-228 392,-228 392,-222 398,-216 404,-216 404,-216 499,-216 499,-216 505,-216 511,-222 511,-228 511,-228 511,-240 511,-240 511,-246 505,-252 499,-252"/>
<text text-anchor="middle" x="451.5" y="-230.3" font-family="Times-Roman" font-size="14.00">are richer than</text>
</g>
<!-- Our neighbours&#45;&gt;are richer than -->
<g id="edge9" class="edge">
<title>Our neighbours&#45;&gt;are richer than</title>
<path fill="none" stroke="black" d="M222.71,-234C269.48,-234 333.53,-234 381.8,-234"/>
<polygon fill="black" stroke="black" points="381.85,-237.5 391.85,-234 381.85,-230.5 381.85,-237.5"/>
</g>
<!-- us. -->
<g id="node15" class="node">
<title>us.</title>
<path fill="#f5f5f5" stroke="black" d="M681,-252C681,-252 651,-252 651,-252 645,-252 639,-246 639,-240 639,-240 639,-228 639,-228 639,-222 645,-216 651,-216 651,-216 681,-216 681,-216 687,-216 693,-222 693,-228 693,-228 693,-240 693,-240 693,-246 687,-252 681,-252"/>
<text text-anchor="middle" x="666" y="-230.3" font-family="Times-Roman" font-size="14.00">us.</text>
</g>
<!-- are richer than&#45;&gt;us. -->
<g id="edge10" class="edge">
<title>are richer than&#45;&gt;us.</title>
<path fill="none" stroke="black" d="M511.13,-234C548.77,-234 596.45,-234 628.69,-234"/>
<polygon fill="black" stroke="black" points="628.99,-237.5 638.99,-234 628.99,-230.5 628.99,-237.5"/>
</g>
<!-- My uncle is forty&#45;five but my aunt -->
<g id="node16" class="node">
<title>My uncle is forty&#45;five but my aunt</title>
<path fill="#f5f5f5" stroke="black" d="M274,-306C274,-306 45,-306 45,-306 39,-306 33,-300 33,-294 33,-294 33,-282 33,-282 33,-276 39,-270 45,-270 45,-270 274,-270 274,-270 280,-270 286,-276 286,-282 286,-282 286,-294 286,-294 286,-300 280,-306 274,-306"/>
<text text-anchor="middle" x="159.5" y="-284.3" font-family="Times-Roman" font-size="14.00">My uncle is forty&#45;five but my aunt</text>
</g>
<!-- is older than -->
<g id="node17" class="node">
<title>is older than</title>
<path fill="#f5f5f5" stroke="black" d="M491.5,-306C491.5,-306 411.5,-306 411.5,-306 405.5,-306 399.5,-300 399.5,-294 399.5,-294 399.5,-282 399.5,-282 399.5,-276 405.5,-270 411.5,-270 411.5,-270 491.5,-270 491.5,-270 497.5,-270 503.5,-276 503.5,-282 503.5,-282 503.5,-294 503.5,-294 503.5,-300 497.5,-306 491.5,-306"/>
<text text-anchor="middle" x="451.5" y="-284.3" font-family="Times-Roman" font-size="14.00">is older than</text>
</g>
<!-- My uncle is forty&#45;five but my aunt&#45;&gt;is older than -->
<g id="edge11" class="edge">
<title>My uncle is forty&#45;five but my aunt&#45;&gt;is older than</title>
<path fill="none" stroke="black" d="M286.01,-288C321.75,-288 359.1,-288 389.16,-288"/>
<polygon fill="black" stroke="black" points="389.47,-291.5 399.47,-288 389.47,-284.5 389.47,-291.5"/>
</g>
<!-- he is. -->
<g id="node18" class="node">
<title>he is.</title>
<path fill="#f5f5f5" stroke="black" d="M681,-306C681,-306 651,-306 651,-306 645,-306 639,-300 639,-294 639,-294 639,-282 639,-282 639,-276 645,-270 651,-270 651,-270 681,-270 681,-270 687,-270 693,-276 693,-282 693,-282 693,-294 693,-294 693,-300 687,-306 681,-306"/>
<text text-anchor="middle" x="666" y="-284.3" font-family="Times-Roman" font-size="14.00">he is.</text>
</g>
<!-- is older than&#45;&gt;he is. -->
<g id="edge12" class="edge">
<title>is older than&#45;&gt;he is.</title>
<path fill="none" stroke="black" d="M503.67,-288C542.29,-288 594.33,-288 628.73,-288"/>
<polygon fill="black" stroke="black" points="628.81,-291.5 638.81,-288 628.81,-284.5 628.81,-291.5"/>
</g>
</g>
</svg>
