<?xml version="1.0" encoding="UTF-8" standalone="no"?>
<!DOCTYPE svg PUBLIC "-//W3C//DTD SVG 1.1//EN"
 "http://www.w3.org/Graphics/SVG/1.1/DTD/svg11.dtd">
<!-- Generated by graphviz version 2.44.0 (0)
 -->
<!-- Pages: 1 -->
<svg width="959pt" height="314pt"
 viewBox="0.00 0.00 958.72 314.00" xmlns="http://www.w3.org/2000/svg" xmlns:xlink="http://www.w3.org/1999/xlink">
<g id="graph0" class="graph" transform="scale(1 1) rotate(0) translate(4 310)">
<polygon fill="white" stroke="transparent" points="-4,4 -4,-310 954.72,-310 954.72,4 -4,4"/>
<!-- My brother -->
<g id="node1" class="node">
<title>My brother</title>
<ellipse fill="none" stroke="black" cx="207.33" cy="-18" rx="59.59" ry="18"/>
<text text-anchor="middle" x="207.33" y="-14.3" font-family="Times-Roman" font-size="14.00">My brother</text>
</g>
<!-- is taller than -->
<g id="node2" class="node">
<title>is taller than</title>
<ellipse fill="none" stroke="black" cx="576.1" cy="-18" rx="67.69" ry="18"/>
<text text-anchor="middle" x="576.1" y="-14.3" font-family="Times-Roman" font-size="14.00">is taller than</text>
</g>
<!-- My brother&#45;&gt;is taller than -->
<g id="edge1" class="edge">
<title>My brother&#45;&gt;is taller than</title>
<path fill="none" stroke="black" d="M267.26,-18C329.86,-18 429.09,-18 497.89,-18"/>
<polygon fill="black" stroke="black" points="498.24,-21.5 508.24,-18 498.24,-14.5 498.24,-21.5"/>
</g>
<!-- me. -->
<g id="node3" class="node">
<title>me.</title>
<ellipse fill="none" stroke="black" cx="844.13" cy="-18" rx="27.9" ry="18"/>
<text text-anchor="middle" x="844.13" y="-14.3" font-family="Times-Roman" font-size="14.00">me.</text>
</g>
<!-- is taller than&#45;&gt;me. -->
<g id="edge2" class="edge">
<title>is taller than&#45;&gt;me.</title>
<path fill="none" stroke="black" d="M643.89,-18C695.11,-18 763.92,-18 805.82,-18"/>
<polygon fill="black" stroke="black" points="805.86,-21.5 815.86,-18 805.86,-14.5 805.86,-21.5"/>
</g>
<!-- I&#39;m eighteen but my best friend -->
<g id="node4" class="node">
<title>I&#39;m eighteen but my best friend</title>
<ellipse fill="none" stroke="black" cx="207.33" cy="-72" rx="154.87" ry="18"/>
<text text-anchor="middle" x="207.33" y="-68.3" font-family="Times-Roman" font-size="14.00">I&#39;m eighteen but my best friend</text>
</g>
<!-- is younger than -->
<g id="node5" class="node">
<title>is younger than</title>
<ellipse fill="none" stroke="black" cx="576.1" cy="-72" rx="81.79" ry="18"/>
<text text-anchor="middle" x="576.1" y="-68.3" font-family="Times-Roman" font-size="14.00">is younger than</text>
</g>
<!-- I&#39;m eighteen but my best friend&#45;&gt;is younger than -->
<g id="edge3" class="edge">
<title>I&#39;m eighteen but my best friend&#45;&gt;is younger than</title>
<path fill="none" stroke="black" d="M362.28,-72C403.67,-72 447.12,-72 483.89,-72"/>
<polygon fill="black" stroke="black" points="484.07,-75.5 494.07,-72 484.07,-68.5 484.07,-75.5"/>
</g>
<!-- me; she&#39;s seventeen. -->
<g id="node6" class="node">
<title>me; she&#39;s seventeen.</title>
<ellipse fill="none" stroke="black" cx="844.13" cy="-72" rx="106.68" ry="18"/>
<text text-anchor="middle" x="844.13" y="-68.3" font-family="Times-Roman" font-size="14.00">me; she&#39;s seventeen.</text>
</g>
<!-- is younger than&#45;&gt;me; she&#39;s seventeen. -->
<g id="edge4" class="edge">
<title>is younger than&#45;&gt;me; she&#39;s seventeen.</title>
<path fill="none" stroke="black" d="M658,-72C679.71,-72 703.61,-72 726.83,-72"/>
<polygon fill="black" stroke="black" points="727.08,-75.5 737.08,-72 727.08,-68.5 727.08,-75.5"/>
</g>
<!-- Do you like Lucy? I think Mariela -->
<g id="node7" class="node">
<title>Do you like Lucy? I think Mariela</title>
<ellipse fill="none" stroke="black" cx="207.33" cy="-126" rx="156.77" ry="18"/>
<text text-anchor="middle" x="207.33" y="-122.3" font-family="Times-Roman" font-size="14.00">Do you like Lucy? I think Mariela</text>
</g>
<!-- is nicer than -->
<g id="node8" class="node">
<title>is nicer than</title>
<ellipse fill="none" stroke="black" cx="576.1" cy="-126" rx="66.89" ry="18"/>
<text text-anchor="middle" x="576.1" y="-122.3" font-family="Times-Roman" font-size="14.00">is nicer than</text>
</g>
<!-- Do you like Lucy? I think Mariela&#45;&gt;is nicer than -->
<g id="edge5" class="edge">
<title>Do you like Lucy? I think Mariela&#45;&gt;is nicer than</title>
<path fill="none" stroke="black" d="M364.14,-126C410.71,-126 459.7,-126 498.74,-126"/>
<polygon fill="black" stroke="black" points="498.96,-129.5 508.96,-126 498.96,-122.5 498.96,-129.5"/>
</g>
<!-- she. -->
<g id="node9" class="node">
<title>she.</title>
<ellipse fill="none" stroke="black" cx="844.13" cy="-126" rx="29.8" ry="18"/>
<text text-anchor="middle" x="844.13" y="-122.3" font-family="Times-Roman" font-size="14.00">she.</text>
</g>
<!-- is nicer than&#45;&gt;she. -->
<g id="edge6" class="edge">
<title>is nicer than&#45;&gt;she.</title>
<path fill="none" stroke="black" d="M643.2,-126C693.71,-126 761.61,-126 803.86,-126"/>
<polygon fill="black" stroke="black" points="804.02,-129.5 814.02,-126 804.02,-122.5 804.02,-129.5"/>
</g>
<!-- I don&#39;t like horror films; I think actions films -->
<g id="node10" class="node">
<title>I don&#39;t like horror films; I think actions films</title>
<ellipse fill="none" stroke="black" cx="207.33" cy="-180" rx="207.16" ry="18"/>
<text text-anchor="middle" x="207.33" y="-176.3" font-family="Times-Roman" font-size="14.00">I don&#39;t like horror films; I think actions films</text>
</g>
<!-- are more interesting than -->
<g id="node11" class="node">
<title>are more interesting than</title>
<ellipse fill="none" stroke="black" cx="576.1" cy="-180" rx="125.38" ry="18"/>
<text text-anchor="middle" x="576.1" y="-176.3" font-family="Times-Roman" font-size="14.00">are more interesting than</text>
</g>
<!-- I don&#39;t like horror films; I think actions films&#45;&gt;are more interesting than -->
<g id="edge7" class="edge">
<title>I don&#39;t like horror films; I think actions films&#45;&gt;are more interesting than</title>
<path fill="none" stroke="black" d="M414.76,-180C423.33,-180 431.84,-180 440.19,-180"/>
<polygon fill="black" stroke="black" points="440.31,-183.5 450.31,-180 440.31,-176.5 440.31,-183.5"/>
</g>
<!-- them. -->
<g id="node12" class="node">
<title>them.</title>
<ellipse fill="none" stroke="black" cx="844.13" cy="-180" rx="37.09" ry="18"/>
<text text-anchor="middle" x="844.13" y="-176.3" font-family="Times-Roman" font-size="14.00">them.</text>
</g>
<!-- are more interesting than&#45;&gt;them. -->
<g id="edge8" class="edge">
<title>are more interesting than&#45;&gt;them.</title>
<path fill="none" stroke="black" d="M701.55,-180C735.57,-180 770.35,-180 796.92,-180"/>
<polygon fill="black" stroke="black" points="797.04,-183.5 807.04,-180 797.04,-176.5 797.04,-183.5"/>
</g>
<!-- Our neighbours -->
<g id="node13" class="node">
<title>Our neighbours</title>
<ellipse fill="none" stroke="black" cx="207.33" cy="-234" rx="81.79" ry="18"/>
<text text-anchor="middle" x="207.33" y="-230.3" font-family="Times-Roman" font-size="14.00">Our neighbours</text>
</g>
<!-- are richer than -->
<g id="node14" class="node">
<title>are richer than</title>
<ellipse fill="none" stroke="black" cx="576.1" cy="-234" rx="77.19" ry="18"/>
<text text-anchor="middle" x="576.1" y="-230.3" font-family="Times-Roman" font-size="14.00">are richer than</text>
</g>
<!-- Our neighbours&#45;&gt;are richer than -->
<g id="edge9" class="edge">
<title>Our neighbours&#45;&gt;are richer than</title>
<path fill="none" stroke="black" d="M289.27,-234C348.3,-234 428.18,-234 488.49,-234"/>
<polygon fill="black" stroke="black" points="488.75,-237.5 498.75,-234 488.75,-230.5 488.75,-237.5"/>
</g>
<!-- us. -->
<g id="node15" class="node">
<title>us.</title>
<ellipse fill="none" stroke="black" cx="844.13" cy="-234" rx="27" ry="18"/>
<text text-anchor="middle" x="844.13" y="-230.3" font-family="Times-Roman" font-size="14.00">us.</text>
</g>
<!-- are richer than&#45;&gt;us. -->
<g id="edge10" class="edge">
<title>are richer than&#45;&gt;us.</title>
<path fill="none" stroke="black" d="M653.69,-234C704.03,-234 767.6,-234 806.8,-234"/>
<polygon fill="black" stroke="black" points="806.94,-237.5 816.94,-234 806.94,-230.5 806.94,-237.5"/>
</g>
<!-- My uncle is forty&#45;five but my aunt -->
<g id="node16" class="node">
<title>My uncle is forty&#45;five but my aunt</title>
<ellipse fill="none" stroke="black" cx="207.33" cy="-288" rx="164.37" ry="18"/>
<text text-anchor="middle" x="207.33" y="-284.3" font-family="Times-Roman" font-size="14.00">My uncle is forty&#45;five but my aunt</text>
</g>
<!-- is older than -->
<g id="node17" class="node">
<title>is older than</title>
<ellipse fill="none" stroke="black" cx="576.1" cy="-288" rx="67.69" ry="18"/>
<text text-anchor="middle" x="576.1" y="-284.3" font-family="Times-Roman" font-size="14.00">is older than</text>
</g>
<!-- My uncle is forty&#45;five but my aunt&#45;&gt;is older than -->
<g id="edge11" class="edge">
<title>My uncle is forty&#45;five but my aunt&#45;&gt;is older than</title>
<path fill="none" stroke="black" d="M371.87,-288C415.87,-288 461.42,-288 498.21,-288"/>
<polygon fill="black" stroke="black" points="498.35,-291.5 508.35,-288 498.35,-284.5 498.35,-291.5"/>
</g>
<!-- he is. -->
<g id="node18" class="node">
<title>he is.</title>
<ellipse fill="none" stroke="black" cx="844.13" cy="-288" rx="35.19" ry="18"/>
<text text-anchor="middle" x="844.13" y="-284.3" font-family="Times-Roman" font-size="14.00">he is.</text>
</g>
<!-- is older than&#45;&gt;he is. -->
<g id="edge12" class="edge">
<title>is older than&#45;&gt;he is.</title>
<path fill="none" stroke="black" d="M643.89,-288C692.27,-288 756.35,-288 798.61,-288"/>
<polygon fill="black" stroke="black" points="798.87,-291.5 808.87,-288 798.87,-284.5 798.87,-291.5"/>
</g>
</g>
</svg>
