<?xml version="1.0" encoding="UTF-8" standalone="no"?>
<!DOCTYPE svg PUBLIC "-//W3C//DTD SVG 1.1//EN"
 "http://www.w3.org/Graphics/SVG/1.1/DTD/svg11.dtd">
<!-- Generated by graphviz version 2.44.0 (0)
 -->
<!-- Pages: 1 -->
<svg width="982pt" height="1124pt"
 viewBox="0.00 0.00 981.72 1124.00" xmlns="http://www.w3.org/2000/svg" xmlns:xlink="http://www.w3.org/1999/xlink">
<g id="graph0" class="graph" transform="scale(1 1) rotate(0) translate(4 1120)">
<polygon fill="white" stroke="transparent" points="-4,4 -4,-1120 977.72,-1120 977.72,4 -4,4"/>
<!-- It&#39;s in the -->
<g id="node1" class="node">
<title>It&#39;s in the</title>
<ellipse fill="none" stroke="black" cx="207.98" cy="-99" rx="53.09" ry="18"/>
<text text-anchor="middle" x="207.98" y="-95.3" font-family="Times-Roman" font-size="14.00">It&#39;s in the</text>
</g>
<!-- north -->
<g id="node2" class="node">
<title>north</title>
<ellipse fill="none" stroke="black" cx="531.26" cy="-180" rx="35.19" ry="18"/>
<text text-anchor="middle" x="531.26" y="-176.3" font-family="Times-Roman" font-size="14.00">north</text>
</g>
<!-- It&#39;s in the&#45;&gt;north -->
<g id="edge1" class="edge">
<title>It&#39;s in the&#45;&gt;north</title>
<path fill="none" stroke="black" d="M251.31,-109.67C313.33,-125.31 428.12,-154.25 489.33,-169.68"/>
<polygon fill="black" stroke="black" points="488.84,-173.17 499.39,-172.22 490.55,-166.38 488.84,-173.17"/>
</g>
<!-- south -->
<g id="node3" class="node">
<title>south</title>
<ellipse fill="none" stroke="black" cx="531.26" cy="-126" rx="36.29" ry="18"/>
<text text-anchor="middle" x="531.26" y="-122.3" font-family="Times-Roman" font-size="14.00">south</text>
</g>
<!-- It&#39;s in the&#45;&gt;south -->
<g id="edge2" class="edge">
<title>It&#39;s in the&#45;&gt;south</title>
<path fill="none" stroke="black" d="M259.89,-103.28C321.81,-108.48 425.41,-117.19 484.77,-122.18"/>
<polygon fill="black" stroke="black" points="484.71,-125.68 494.97,-123.03 485.3,-118.71 484.71,-125.68"/>
</g>
<!-- west -->
<g id="node4" class="node">
<title>west</title>
<ellipse fill="none" stroke="black" cx="531.26" cy="-72" rx="31.7" ry="18"/>
<text text-anchor="middle" x="531.26" y="-68.3" font-family="Times-Roman" font-size="14.00">west</text>
</g>
<!-- It&#39;s in the&#45;&gt;west -->
<g id="edge3" class="edge">
<title>It&#39;s in the&#45;&gt;west</title>
<path fill="none" stroke="black" d="M259.89,-94.72C323.48,-89.38 431.03,-80.34 489.48,-75.43"/>
<polygon fill="black" stroke="black" points="489.78,-78.91 499.45,-74.59 489.2,-71.94 489.78,-78.91"/>
</g>
<!-- east -->
<g id="node5" class="node">
<title>east</title>
<ellipse fill="none" stroke="black" cx="531.26" cy="-18" rx="29.8" ry="18"/>
<text text-anchor="middle" x="531.26" y="-14.3" font-family="Times-Roman" font-size="14.00">east</text>
</g>
<!-- It&#39;s in the&#45;&gt;east -->
<g id="edge4" class="edge">
<title>It&#39;s in the&#45;&gt;east</title>
<path fill="none" stroke="black" d="M251.31,-88.33C314.78,-72.33 433.52,-42.39 493.53,-27.26"/>
<polygon fill="black" stroke="black" points="494.49,-30.63 503.33,-24.79 492.78,-23.84 494.49,-30.63"/>
</g>
<!-- of London. -->
<g id="node6" class="node">
<title>of London.</title>
<ellipse fill="none" stroke="black" cx="705.04" cy="-99" rx="58.49" ry="18"/>
<text text-anchor="middle" x="705.04" y="-95.3" font-family="Times-Roman" font-size="14.00">of London.</text>
</g>
<!-- north&#45;&gt;of London. -->
<g id="edge5" class="edge">
<title>north&#45;&gt;of London.</title>
<path fill="none" stroke="black" d="M562.15,-171.18C576.97,-166.43 594.98,-160.1 610.55,-153 631.03,-143.66 652.86,-131.2 670.28,-120.61"/>
<polygon fill="black" stroke="black" points="672.27,-123.49 678.95,-115.26 668.6,-117.53 672.27,-123.49"/>
</g>
<!-- south&#45;&gt;of London. -->
<g id="edge6" class="edge">
<title>south&#45;&gt;of London.</title>
<path fill="none" stroke="black" d="M566.2,-120.67C587.95,-117.25 616.82,-112.71 642.52,-108.67"/>
<polygon fill="black" stroke="black" points="643.23,-112.1 652.57,-107.09 642.15,-105.19 643.23,-112.1"/>
</g>
<!-- west&#45;&gt;of London. -->
<g id="edge7" class="edge">
<title>west&#45;&gt;of London.</title>
<path fill="none" stroke="black" d="M562.18,-76.7C584.35,-80.19 615.34,-85.06 642.7,-89.36"/>
<polygon fill="black" stroke="black" points="642.17,-92.82 652.6,-90.91 643.26,-85.9 642.17,-92.82"/>
</g>
<!-- east&#45;&gt;of London. -->
<g id="edge8" class="edge">
<title>east&#45;&gt;of London.</title>
<path fill="none" stroke="black" d="M558.48,-25.66C573.93,-30.51 593.67,-37.3 610.55,-45 631.03,-54.34 652.86,-66.8 670.28,-77.39"/>
<polygon fill="black" stroke="black" points="668.6,-80.47 678.95,-82.74 672.27,-74.51 668.6,-80.47"/>
</g>
<!-- It&#39;s -->
<g id="node7" class="node">
<title>It&#39;s</title>
<ellipse fill="none" stroke="black" cx="207.98" cy="-342" rx="27" ry="18"/>
<text text-anchor="middle" x="207.98" y="-338.3" font-family="Times-Roman" font-size="14.00">It&#39;s</text>
</g>
<!-- near ... -->
<g id="node8" class="node">
<title>near ...</title>
<ellipse fill="none" stroke="black" cx="531.26" cy="-450" rx="42.79" ry="18"/>
<text text-anchor="middle" x="531.26" y="-446.3" font-family="Times-Roman" font-size="14.00">near ...</text>
</g>
<!-- It&#39;s&#45;&gt;near ... -->
<g id="edge9" class="edge">
<title>It&#39;s&#45;&gt;near ...</title>
<path fill="none" stroke="black" d="M234.61,-345.42C274.85,-351.49 354.58,-366.4 415.96,-396 433.98,-404.69 434.3,-413.63 451.96,-423 462.28,-428.47 473.93,-433.19 485.03,-437.08"/>
<polygon fill="black" stroke="black" points="484,-440.43 494.59,-440.29 486.22,-433.79 484,-440.43"/>
</g>
<!-- next to ... -->
<g id="node9" class="node">
<title>next to ...</title>
<ellipse fill="none" stroke="black" cx="531.26" cy="-396" rx="53.89" ry="18"/>
<text text-anchor="middle" x="531.26" y="-392.3" font-family="Times-Roman" font-size="14.00">next to ...</text>
</g>
<!-- It&#39;s&#45;&gt;next to ... -->
<g id="edge10" class="edge">
<title>It&#39;s&#45;&gt;next to ...</title>
<path fill="none" stroke="black" d="M234.46,-346.28C285.67,-354.89 402.19,-374.47 472.74,-386.33"/>
<polygon fill="black" stroke="black" points="472.36,-389.82 482.8,-388.02 473.52,-382.91 472.36,-389.82"/>
</g>
<!-- the best -->
<g id="node24" class="node">
<title>the best</title>
<ellipse fill="none" stroke="black" cx="531.26" cy="-342" rx="48.19" ry="18"/>
<text text-anchor="middle" x="531.26" y="-338.3" font-family="Times-Roman" font-size="14.00">the best</text>
</g>
<!-- It&#39;s&#45;&gt;the best -->
<g id="edge21" class="edge">
<title>It&#39;s&#45;&gt;the best</title>
<path fill="none" stroke="black" d="M235,-342C286.54,-342 402.7,-342 472.98,-342"/>
<polygon fill="black" stroke="black" points="473,-345.5 483,-342 473,-338.5 473,-345.5"/>
</g>
<!-- one of the best -->
<g id="node25" class="node">
<title>one of the best</title>
<ellipse fill="none" stroke="black" cx="531.26" cy="-288" rx="79.09" ry="18"/>
<text text-anchor="middle" x="531.26" y="-284.3" font-family="Times-Roman" font-size="14.00">one of the best</text>
</g>
<!-- It&#39;s&#45;&gt;one of the best -->
<g id="edge22" class="edge">
<title>It&#39;s&#45;&gt;one of the best</title>
<path fill="none" stroke="black" d="M234.46,-337.72C281.99,-329.73 385.79,-312.28 456.87,-300.34"/>
<polygon fill="black" stroke="black" points="457.82,-303.72 467.11,-298.61 456.66,-296.82 457.82,-303.72"/>
</g>
<!-- a good -->
<g id="node26" class="node">
<title>a good</title>
<ellipse fill="none" stroke="black" cx="531.26" cy="-234" rx="41.69" ry="18"/>
<text text-anchor="middle" x="531.26" y="-230.3" font-family="Times-Roman" font-size="14.00">a good</text>
</g>
<!-- It&#39;s&#45;&gt;a good -->
<g id="edge23" class="edge">
<title>It&#39;s&#45;&gt;a good</title>
<path fill="none" stroke="black" d="M232.35,-334.15C286.16,-316.06 419.47,-271.24 488.03,-248.19"/>
<polygon fill="black" stroke="black" points="489.3,-251.46 497.66,-244.96 487.07,-244.82 489.3,-251.46"/>
</g>
<!-- There are lots of ... -->
<g id="node10" class="node">
<title>There are lots of ...</title>
<ellipse fill="none" stroke="black" cx="207.98" cy="-423" rx="95.58" ry="18"/>
<text text-anchor="middle" x="207.98" y="-419.3" font-family="Times-Roman" font-size="14.00">There are lots of ...</text>
</g>
<!-- There are lots of -->
<g id="node11" class="node">
<title>There are lots of</title>
<ellipse fill="none" stroke="black" cx="207.98" cy="-504" rx="83.69" ry="18"/>
<text text-anchor="middle" x="207.98" y="-500.3" font-family="Times-Roman" font-size="14.00">There are lots of</text>
</g>
<!-- some ... -->
<g id="node12" class="node">
<title>some ...</title>
<ellipse fill="none" stroke="black" cx="531.26" cy="-504" rx="46.59" ry="18"/>
<text text-anchor="middle" x="531.26" y="-500.3" font-family="Times-Roman" font-size="14.00">some ...</text>
</g>
<!-- There are lots of&#45;&gt;some ... -->
<g id="edge11" class="edge">
<title>There are lots of&#45;&gt;some ...</title>
<path fill="none" stroke="black" d="M292.14,-504C349.36,-504 423.84,-504 474.15,-504"/>
<polygon fill="black" stroke="black" points="474.18,-507.5 484.18,-504 474.18,-500.5 474.18,-507.5"/>
</g>
<!-- One of the most important places in ... is ... -->
<g id="node13" class="node">
<title>One of the most important places in ... is ...</title>
<ellipse fill="none" stroke="black" cx="207.98" cy="-558" rx="207.96" ry="18"/>
<text text-anchor="middle" x="207.98" y="-554.3" font-family="Times-Roman" font-size="14.00">One of the most important places in ... is ...</text>
</g>
<!-- Most tourist don&#39;t know about it but... -->
<g id="node14" class="node">
<title>Most tourist don&#39;t know about it but...</title>
<ellipse fill="none" stroke="black" cx="207.98" cy="-612" rx="181.17" ry="18"/>
<text text-anchor="middle" x="207.98" y="-608.3" font-family="Times-Roman" font-size="14.00">Most tourist don&#39;t know about it but...</text>
</g>
<!-- Here you can -->
<g id="node15" class="node">
<title>Here you can</title>
<ellipse fill="none" stroke="black" cx="207.98" cy="-666" rx="70.39" ry="18"/>
<text text-anchor="middle" x="207.98" y="-662.3" font-family="Times-Roman" font-size="14.00">Here you can</text>
</g>
<!-- see ... -->
<g id="node16" class="node">
<title>see ...</title>
<ellipse fill="none" stroke="black" cx="531.26" cy="-720" rx="38.19" ry="18"/>
<text text-anchor="middle" x="531.26" y="-716.3" font-family="Times-Roman" font-size="14.00">see ...</text>
</g>
<!-- Here you can&#45;&gt;see ... -->
<g id="edge12" class="edge">
<title>Here you can&#45;&gt;see ...</title>
<path fill="none" stroke="black" d="M267.16,-675.78C329.64,-686.28 427.6,-702.74 484.7,-712.34"/>
<polygon fill="black" stroke="black" points="484.43,-715.85 494.87,-714.05 485.59,-708.94 484.43,-715.85"/>
</g>
<!-- eat ... -->
<g id="node17" class="node">
<title>eat ...</title>
<ellipse fill="none" stroke="black" cx="531.26" cy="-666" rx="36.29" ry="18"/>
<text text-anchor="middle" x="531.26" y="-662.3" font-family="Times-Roman" font-size="14.00">eat ...</text>
</g>
<!-- Here you can&#45;&gt;eat ... -->
<g id="edge13" class="edge">
<title>Here you can&#45;&gt;eat ...</title>
<path fill="none" stroke="black" d="M278.3,-666C340.73,-666 430.71,-666 484.55,-666"/>
<polygon fill="black" stroke="black" points="484.81,-669.5 494.81,-666 484.81,-662.5 484.81,-669.5"/>
</g>
<!-- find ... -->
<g id="node18" class="node">
<title>find ...</title>
<ellipse fill="none" stroke="black" cx="531.26" cy="-612" rx="40.09" ry="18"/>
<text text-anchor="middle" x="531.26" y="-608.3" font-family="Times-Roman" font-size="14.00">find ...</text>
</g>
<!-- Here you can&#45;&gt;find ... -->
<g id="edge14" class="edge">
<title>Here you can&#45;&gt;find ...</title>
<path fill="none" stroke="black" d="M273.58,-659.29C314.54,-654.62 368.55,-647.67 415.96,-639 439.32,-634.73 465.07,-628.76 486.21,-623.52"/>
<polygon fill="black" stroke="black" points="487.34,-626.84 496.19,-621.01 485.64,-620.05 487.34,-626.84"/>
</g>
<!-- Tourists -->
<g id="node19" class="node">
<title>Tourists</title>
<ellipse fill="none" stroke="black" cx="207.98" cy="-801" rx="45.49" ry="18"/>
<text text-anchor="middle" x="207.98" y="-797.3" font-family="Times-Roman" font-size="14.00">Tourists</text>
</g>
<!-- don&#39;t usually -->
<g id="node20" class="node">
<title>don&#39;t usually</title>
<ellipse fill="none" stroke="black" cx="531.26" cy="-828" rx="68.79" ry="18"/>
<text text-anchor="middle" x="531.26" y="-824.3" font-family="Times-Roman" font-size="14.00">don&#39;t usually</text>
</g>
<!-- Tourists&#45;&gt;don&#39;t usually -->
<g id="edge15" class="edge">
<title>Tourists&#45;&gt;don&#39;t usually</title>
<path fill="none" stroke="black" d="M252.64,-804.67C304.57,-809.03 392.11,-816.39 455.02,-821.68"/>
<polygon fill="black" stroke="black" points="455.02,-825.19 465.28,-822.54 455.61,-818.21 455.02,-825.19"/>
</g>
<!-- often -->
<g id="node21" class="node">
<title>often</title>
<ellipse fill="none" stroke="black" cx="531.26" cy="-774" rx="33.6" ry="18"/>
<text text-anchor="middle" x="531.26" y="-770.3" font-family="Times-Roman" font-size="14.00">often</text>
</g>
<!-- Tourists&#45;&gt;often -->
<g id="edge16" class="edge">
<title>Tourists&#45;&gt;often</title>
<path fill="none" stroke="black" d="M252.64,-797.33C314.27,-792.15 426.08,-782.76 487.31,-777.61"/>
<polygon fill="black" stroke="black" points="487.74,-781.09 497.41,-776.76 487.16,-774.11 487.74,-781.09"/>
</g>
<!-- go there. -->
<g id="node22" class="node">
<title>go there.</title>
<ellipse fill="none" stroke="black" cx="705.04" cy="-828" rx="51.19" ry="18"/>
<text text-anchor="middle" x="705.04" y="-824.3" font-family="Times-Roman" font-size="14.00">go there.</text>
</g>
<!-- don&#39;t usually&#45;&gt;go there. -->
<g id="edge17" class="edge">
<title>don&#39;t usually&#45;&gt;go there.</title>
<path fill="none" stroke="black" d="M600.15,-828C614.49,-828 629.53,-828 643.57,-828"/>
<polygon fill="black" stroke="black" points="643.6,-831.5 653.6,-828 643.6,-824.5 643.6,-831.5"/>
</g>
<!-- do that. -->
<g id="node23" class="node">
<title>do that.</title>
<ellipse fill="none" stroke="black" cx="705.04" cy="-774" rx="46.29" ry="18"/>
<text text-anchor="middle" x="705.04" y="-770.3" font-family="Times-Roman" font-size="14.00">do that.</text>
</g>
<!-- don&#39;t usually&#45;&gt;do that. -->
<g id="edge18" class="edge">
<title>don&#39;t usually&#45;&gt;do that.</title>
<path fill="none" stroke="black" d="M576.05,-814.23C601.41,-806.26 633.28,-796.24 658.87,-788.2"/>
<polygon fill="black" stroke="black" points="660.21,-791.45 668.7,-785.11 658.11,-784.77 660.21,-791.45"/>
</g>
<!-- often&#45;&gt;go there. -->
<g id="edge19" class="edge">
<title>often&#45;&gt;go there.</title>
<path fill="none" stroke="black" d="M560.62,-782.92C586.68,-791.11 625.8,-803.41 656.61,-813.09"/>
<polygon fill="black" stroke="black" points="655.71,-816.47 666.29,-816.13 657.8,-809.8 655.71,-816.47"/>
</g>
<!-- often&#45;&gt;do that. -->
<g id="edge20" class="edge">
<title>often&#45;&gt;do that.</title>
<path fill="none" stroke="black" d="M565.38,-774C588.89,-774 621.03,-774 648.44,-774"/>
<polygon fill="black" stroke="black" points="648.68,-777.5 658.68,-774 648.68,-770.5 648.68,-777.5"/>
</g>
<!-- place  -->
<g id="node27" class="node">
<title>place </title>
<ellipse fill="none" stroke="black" cx="705.04" cy="-315" rx="37.89" ry="18"/>
<text text-anchor="middle" x="705.04" y="-311.3" font-family="Times-Roman" font-size="14.00">place </text>
</g>
<!-- the best&#45;&gt;place  -->
<g id="edge24" class="edge">
<title>the best&#45;&gt;place </title>
<path fill="none" stroke="black" d="M576.05,-335.12C601.39,-331.13 633.22,-326.13 658.8,-322.11"/>
<polygon fill="black" stroke="black" points="659.65,-325.52 668.98,-320.51 658.56,-318.61 659.65,-325.52"/>
</g>
<!-- places -->
<g id="node28" class="node">
<title>places</title>
<ellipse fill="none" stroke="black" cx="705.04" cy="-261" rx="39.79" ry="18"/>
<text text-anchor="middle" x="705.04" y="-257.3" font-family="Times-Roman" font-size="14.00">places</text>
</g>
<!-- the best&#45;&gt;places -->
<g id="edge25" class="edge">
<title>the best&#45;&gt;places</title>
<path fill="none" stroke="black" d="M570.69,-331.39C583.71,-327.11 598.1,-321.6 610.55,-315 628.22,-305.63 629.41,-298.3 646.55,-288 652.65,-284.34 659.32,-280.8 665.89,-277.57"/>
<polygon fill="black" stroke="black" points="667.84,-280.52 675.37,-273.07 664.84,-274.2 667.84,-280.52"/>
</g>
<!-- one of the best&#45;&gt;place  -->
<g id="edge26" class="edge">
<title>one of the best&#45;&gt;place </title>
<path fill="none" stroke="black" d="M597.2,-298.21C617.72,-301.43 639.95,-304.93 658.78,-307.89"/>
<polygon fill="black" stroke="black" points="658.44,-311.38 668.87,-309.47 659.53,-304.46 658.44,-311.38"/>
</g>
<!-- one of the best&#45;&gt;places -->
<g id="edge27" class="edge">
<title>one of the best&#45;&gt;places</title>
<path fill="none" stroke="black" d="M597.2,-277.79C617.24,-274.64 638.91,-271.24 657.45,-268.32"/>
<polygon fill="black" stroke="black" points="658.07,-271.77 667.41,-266.76 656.98,-264.85 658.07,-271.77"/>
</g>
<!-- a good&#45;&gt;place  -->
<g id="edge28" class="edge">
<title>a good&#45;&gt;place </title>
<path fill="none" stroke="black" d="M567.14,-243.46C581.05,-247.89 596.96,-253.79 610.55,-261 628.22,-270.37 629.41,-277.7 646.55,-288 652.98,-291.87 660.06,-295.59 666.98,-298.96"/>
<polygon fill="black" stroke="black" points="665.71,-302.24 676.25,-303.34 668.7,-295.9 665.71,-302.24"/>
</g>
<!-- a good&#45;&gt;places -->
<g id="edge29" class="edge">
<title>a good&#45;&gt;places</title>
<path fill="none" stroke="black" d="M570.81,-240.06C596.42,-244.09 630.2,-249.39 657.34,-253.66"/>
<polygon fill="black" stroke="black" points="656.96,-257.14 667.39,-255.24 658.05,-250.23 656.96,-257.14"/>
</g>
<!-- you can ... there. -->
<g id="node29" class="node">
<title>you can ... there.</title>
<ellipse fill="none" stroke="black" cx="886.63" cy="-315" rx="87.18" ry="18"/>
<text text-anchor="middle" x="886.63" y="-311.3" font-family="Times-Roman" font-size="14.00">you can ... there.</text>
</g>
<!-- place &#45;&gt;you can ... there. -->
<g id="edge30" class="edge">
<title>place &#45;&gt;you can ... there.</title>
<path fill="none" stroke="black" d="M742.82,-315C756.42,-315 772.54,-315 788.97,-315"/>
<polygon fill="black" stroke="black" points="789.22,-318.5 799.22,-315 789.22,-311.5 789.22,-318.5"/>
</g>
<!-- to ... -->
<g id="node30" class="node">
<title>to ...</title>
<ellipse fill="none" stroke="black" cx="886.63" cy="-261" rx="31.4" ry="18"/>
<text text-anchor="middle" x="886.63" y="-257.3" font-family="Times-Roman" font-size="14.00">to ...</text>
</g>
<!-- place &#45;&gt;to ... -->
<g id="edge32" class="edge">
<title>place &#45;&gt;to ...</title>
<path fill="none" stroke="black" d="M737.33,-305.59C768.38,-296.26 815.98,-281.94 848.83,-272.07"/>
<polygon fill="black" stroke="black" points="849.95,-275.38 858.52,-269.15 847.94,-268.68 849.95,-275.38"/>
</g>
<!-- places&#45;&gt;you can ... there. -->
<g id="edge31" class="edge">
<title>places&#45;&gt;you can ... there.</title>
<path fill="none" stroke="black" d="M738.57,-270.78C763.09,-278.15 797.38,-288.46 826.69,-297.28"/>
<polygon fill="black" stroke="black" points="825.83,-300.67 836.42,-300.2 827.85,-293.97 825.83,-300.67"/>
</g>
<!-- places&#45;&gt;to ... -->
<g id="edge33" class="edge">
<title>places&#45;&gt;to ...</title>
<path fill="none" stroke="black" d="M745.01,-261C774.63,-261 815.26,-261 845.23,-261"/>
<polygon fill="black" stroke="black" points="845.35,-264.5 855.35,-261 845.35,-257.5 845.35,-264.5"/>
</g>
<!-- It&#39;s really -->
<g id="node31" class="node">
<title>It&#39;s really</title>
<ellipse fill="none" stroke="black" cx="207.98" cy="-990" rx="51.99" ry="18"/>
<text text-anchor="middle" x="207.98" y="-986.3" font-family="Times-Roman" font-size="14.00">It&#39;s really</text>
</g>
<!-- interesting ... -->
<g id="node32" class="node">
<title>interesting ...</title>
<ellipse fill="none" stroke="black" cx="531.26" cy="-1098" rx="70.69" ry="18"/>
<text text-anchor="middle" x="531.26" y="-1094.3" font-family="Times-Roman" font-size="14.00">interesting ...</text>
</g>
<!-- It&#39;s really&#45;&gt;interesting ... -->
<g id="edge34" class="edge">
<title>It&#39;s really&#45;&gt;interesting ...</title>
<path fill="none" stroke="black" d="M245.84,-1002.39C302.9,-1021.57 412.85,-1058.53 478.06,-1080.45"/>
<polygon fill="black" stroke="black" points="477.14,-1083.84 487.74,-1083.71 479.37,-1077.2 477.14,-1083.84"/>
</g>
<!-- delicious ... -->
<g id="node33" class="node">
<title>delicious ...</title>
<ellipse fill="none" stroke="black" cx="531.26" cy="-1044" rx="61.99" ry="18"/>
<text text-anchor="middle" x="531.26" y="-1040.3" font-family="Times-Roman" font-size="14.00">delicious ...</text>
</g>
<!-- It&#39;s really&#45;&gt;delicious ... -->
<g id="edge35" class="edge">
<title>It&#39;s really&#45;&gt;delicious ...</title>
<path fill="none" stroke="black" d="M255.01,-997.74C310.73,-1007.1 404.83,-1022.92 467.25,-1033.41"/>
<polygon fill="black" stroke="black" points="466.92,-1036.9 477.36,-1035.11 468.08,-1030 466.92,-1036.9"/>
</g>
<!-- fun ... -->
<g id="node34" class="node">
<title>fun ...</title>
<ellipse fill="none" stroke="black" cx="531.26" cy="-990" rx="37.89" ry="18"/>
<text text-anchor="middle" x="531.26" y="-986.3" font-family="Times-Roman" font-size="14.00">fun ...</text>
</g>
<!-- It&#39;s really&#45;&gt;fun ... -->
<g id="edge36" class="edge">
<title>It&#39;s really&#45;&gt;fun ...</title>
<path fill="none" stroke="black" d="M260.24,-990C321.58,-990 423.43,-990 482.95,-990"/>
<polygon fill="black" stroke="black" points="483.2,-993.5 493.2,-990 483.2,-986.5 483.2,-993.5"/>
</g>
<!-- quiet ... -->
<g id="node35" class="node">
<title>quiet ...</title>
<ellipse fill="none" stroke="black" cx="531.26" cy="-936" rx="45.49" ry="18"/>
<text text-anchor="middle" x="531.26" y="-932.3" font-family="Times-Roman" font-size="14.00">quiet ...</text>
</g>
<!-- It&#39;s really&#45;&gt;quiet ... -->
<g id="edge37" class="edge">
<title>It&#39;s really&#45;&gt;quiet ...</title>
<path fill="none" stroke="black" d="M255.01,-982.26C314.35,-972.29 417.2,-955 478.98,-944.62"/>
<polygon fill="black" stroke="black" points="479.62,-948.06 488.9,-942.95 478.46,-941.16 479.62,-948.06"/>
</g>
<!-- beaufiul ... -->
<g id="node36" class="node">
<title>beaufiul ...</title>
<ellipse fill="none" stroke="black" cx="531.26" cy="-882" rx="59.29" ry="18"/>
<text text-anchor="middle" x="531.26" y="-878.3" font-family="Times-Roman" font-size="14.00">beaufiul ...</text>
</g>
<!-- It&#39;s really&#45;&gt;beaufiul ... -->
<g id="edge38" class="edge">
<title>It&#39;s really&#45;&gt;beaufiul ...</title>
<path fill="none" stroke="black" d="M245.84,-977.61C303.84,-958.11 416.49,-920.24 481.25,-898.47"/>
<polygon fill="black" stroke="black" points="482.47,-901.76 490.83,-895.25 480.24,-895.12 482.47,-901.76"/>
</g>
</g>
</svg>
