<?xml version="1.0" encoding="UTF-8" standalone="no"?>
<!DOCTYPE svg PUBLIC "-//W3C//DTD SVG 1.1//EN"
 "http://www.w3.org/Graphics/SVG/1.1/DTD/svg11.dtd">
<!-- Generated by graphviz version 2.44.0 (0)
 -->
<!-- Pages: 1 -->
<svg width="782pt" height="1124pt"
 viewBox="0.00 0.00 782.00 1124.00" xmlns="http://www.w3.org/2000/svg" xmlns:xlink="http://www.w3.org/1999/xlink">
<g id="graph0" class="graph" transform="scale(1 1) rotate(0) translate(4 1120)">
<polygon fill="white" stroke="transparent" points="-4,4 -4,-1120 778,-1120 778,4 -4,4"/>
<!-- It&#39;s in the -->
<g id="node1" class="node">
<title>It&#39;s in the</title>
<path fill="#f5f5f5" stroke="black" d="M189,-117C189,-117 131,-117 131,-117 125,-117 119,-111 119,-105 119,-105 119,-93 119,-93 119,-87 125,-81 131,-81 131,-81 189,-81 189,-81 195,-81 201,-87 201,-93 201,-93 201,-105 201,-105 201,-111 195,-117 189,-117"/>
<text text-anchor="middle" x="160" y="-95.3" font-family="Times-Roman" font-size="14.00">It&#39;s in the</text>
</g>
<!-- north -->
<g id="node2" class="node">
<title>north</title>
<path fill="#f5f5f5" stroke="black" d="M432,-198C432,-198 402,-198 402,-198 396,-198 390,-192 390,-186 390,-186 390,-174 390,-174 390,-168 396,-162 402,-162 402,-162 432,-162 432,-162 438,-162 444,-168 444,-174 444,-174 444,-186 444,-186 444,-192 438,-198 432,-198"/>
<text text-anchor="middle" x="417" y="-176.3" font-family="Times-Roman" font-size="14.00">north</text>
</g>
<!-- It&#39;s in the&#45;&gt;north -->
<g id="edge1" class="edge">
<title>It&#39;s in the&#45;&gt;north</title>
<path fill="none" stroke="black" d="M201.12,-111.75C250.26,-127.35 332.74,-153.55 379.94,-168.55"/>
<polygon fill="black" stroke="black" points="379.14,-171.97 389.73,-171.66 381.26,-165.29 379.14,-171.97"/>
</g>
<!-- south -->
<g id="node3" class="node">
<title>south</title>
<path fill="#f5f5f5" stroke="black" d="M433,-144C433,-144 401,-144 401,-144 395,-144 389,-138 389,-132 389,-132 389,-120 389,-120 389,-114 395,-108 401,-108 401,-108 433,-108 433,-108 439,-108 445,-114 445,-120 445,-120 445,-132 445,-132 445,-138 439,-144 433,-144"/>
<text text-anchor="middle" x="417" y="-122.3" font-family="Times-Roman" font-size="14.00">south</text>
</g>
<!-- It&#39;s in the&#45;&gt;south -->
<g id="edge2" class="edge">
<title>It&#39;s in the&#45;&gt;south</title>
<path fill="none" stroke="black" d="M201.12,-103.25C249.76,-108.4 331.08,-117.01 378.51,-122.03"/>
<polygon fill="black" stroke="black" points="378.34,-125.53 388.66,-123.1 379.08,-118.57 378.34,-125.53"/>
</g>
<!-- west -->
<g id="node4" class="node">
<title>west</title>
<path fill="#f5f5f5" stroke="black" d="M432,-90C432,-90 402,-90 402,-90 396,-90 390,-84 390,-78 390,-78 390,-66 390,-66 390,-60 396,-54 402,-54 402,-54 432,-54 432,-54 438,-54 444,-60 444,-66 444,-66 444,-78 444,-78 444,-84 438,-90 432,-90"/>
<text text-anchor="middle" x="417" y="-68.3" font-family="Times-Roman" font-size="14.00">west</text>
</g>
<!-- It&#39;s in the&#45;&gt;west -->
<g id="edge3" class="edge">
<title>It&#39;s in the&#45;&gt;west</title>
<path fill="none" stroke="black" d="M201.12,-94.75C250.15,-89.56 332.39,-80.85 379.64,-75.85"/>
<polygon fill="black" stroke="black" points="380.16,-79.31 389.73,-74.78 379.42,-72.35 380.16,-79.31"/>
</g>
<!-- east -->
<g id="node5" class="node">
<title>east</title>
<path fill="#f5f5f5" stroke="black" d="M432,-36C432,-36 402,-36 402,-36 396,-36 390,-30 390,-24 390,-24 390,-12 390,-12 390,-6 396,0 402,0 402,0 432,0 432,0 438,0 444,-6 444,-12 444,-12 444,-24 444,-24 444,-30 438,-36 432,-36"/>
<text text-anchor="middle" x="417" y="-14.3" font-family="Times-Roman" font-size="14.00">east</text>
</g>
<!-- It&#39;s in the&#45;&gt;east -->
<g id="edge4" class="edge">
<title>It&#39;s in the&#45;&gt;east</title>
<path fill="none" stroke="black" d="M201.12,-86.25C250.26,-70.65 332.74,-44.45 379.94,-29.45"/>
<polygon fill="black" stroke="black" points="381.26,-32.71 389.73,-26.34 379.14,-26.03 381.26,-32.71"/>
</g>
<!-- of London. -->
<g id="node6" class="node">
<title>of London.</title>
<path fill="#f5f5f5" stroke="black" d="M592,-117C592,-117 526,-117 526,-117 520,-117 514,-111 514,-105 514,-105 514,-93 514,-93 514,-87 520,-81 526,-81 526,-81 592,-81 592,-81 598,-81 604,-87 604,-93 604,-93 604,-105 604,-105 604,-111 598,-117 592,-117"/>
<text text-anchor="middle" x="559" y="-95.3" font-family="Times-Roman" font-size="14.00">of London.</text>
</g>
<!-- north&#45;&gt;of London. -->
<g id="edge5" class="edge">
<title>north&#45;&gt;of London.</title>
<path fill="none" stroke="black" d="M444.17,-169.38C454.86,-164.75 467.22,-159 478,-153 494,-144.09 510.92,-132.94 525.06,-123.09"/>
<polygon fill="black" stroke="black" points="527.32,-125.78 533.47,-117.16 523.29,-120.06 527.32,-125.78"/>
</g>
<!-- south&#45;&gt;of London. -->
<g id="edge6" class="edge">
<title>south&#45;&gt;of London.</title>
<path fill="none" stroke="black" d="M445.33,-120.73C462,-117.51 483.91,-113.29 503.97,-109.42"/>
<polygon fill="black" stroke="black" points="504.78,-112.83 513.94,-107.5 503.46,-105.95 504.78,-112.83"/>
</g>
<!-- west&#45;&gt;of London. -->
<g id="edge7" class="edge">
<title>west&#45;&gt;of London.</title>
<path fill="none" stroke="black" d="M444,-77.02C460.86,-80.27 483.43,-84.62 504.05,-88.59"/>
<polygon fill="black" stroke="black" points="503.49,-92.05 513.97,-90.51 504.82,-85.18 503.49,-92.05"/>
</g>
<!-- east&#45;&gt;of London. -->
<g id="edge8" class="edge">
<title>east&#45;&gt;of London.</title>
<path fill="none" stroke="black" d="M444.17,-28.62C454.86,-33.25 467.22,-39 478,-45 494,-53.91 510.92,-65.06 525.06,-74.91"/>
<polygon fill="black" stroke="black" points="523.29,-77.94 533.47,-80.84 527.32,-72.22 523.29,-77.94"/>
</g>
<!-- It&#39;s -->
<g id="node7" class="node">
<title>It&#39;s</title>
<path fill="#f5f5f5" stroke="black" d="M175,-360C175,-360 145,-360 145,-360 139,-360 133,-354 133,-348 133,-348 133,-336 133,-336 133,-330 139,-324 145,-324 145,-324 175,-324 175,-324 181,-324 187,-330 187,-336 187,-336 187,-348 187,-348 187,-354 181,-360 175,-360"/>
<text text-anchor="middle" x="160" y="-338.3" font-family="Times-Roman" font-size="14.00">It&#39;s</text>
</g>
<!-- near ... -->
<g id="node8" class="node">
<title>near ...</title>
<path fill="#f5f5f5" stroke="black" d="M438,-468C438,-468 396,-468 396,-468 390,-468 384,-462 384,-456 384,-456 384,-444 384,-444 384,-438 390,-432 396,-432 396,-432 438,-432 438,-432 444,-432 450,-438 450,-444 450,-444 450,-456 450,-456 450,-462 444,-468 438,-468"/>
<text text-anchor="middle" x="417" y="-446.3" font-family="Times-Roman" font-size="14.00">near ...</text>
</g>
<!-- It&#39;s&#45;&gt;near ... -->
<g id="edge9" class="edge">
<title>It&#39;s&#45;&gt;near ...</title>
<path fill="none" stroke="black" d="M187.08,-348.14C219.45,-356.36 275.78,-372.67 320,-396 337.69,-405.33 338.78,-412.83 356,-423 361.88,-426.47 368.29,-429.79 374.66,-432.85"/>
<polygon fill="black" stroke="black" points="373.34,-436.1 383.89,-437.12 376.28,-429.74 373.34,-436.1"/>
</g>
<!-- next to ... -->
<g id="node9" class="node">
<title>next to ...</title>
<path fill="#f5f5f5" stroke="black" d="M446.5,-414C446.5,-414 387.5,-414 387.5,-414 381.5,-414 375.5,-408 375.5,-402 375.5,-402 375.5,-390 375.5,-390 375.5,-384 381.5,-378 387.5,-378 387.5,-378 446.5,-378 446.5,-378 452.5,-378 458.5,-384 458.5,-390 458.5,-390 458.5,-402 458.5,-402 458.5,-408 452.5,-414 446.5,-414"/>
<text text-anchor="middle" x="417" y="-392.3" font-family="Times-Roman" font-size="14.00">next to ...</text>
</g>
<!-- It&#39;s&#45;&gt;next to ... -->
<g id="edge10" class="edge">
<title>It&#39;s&#45;&gt;next to ...</title>
<path fill="none" stroke="black" d="M187.33,-347.58C229.17,-356.44 311.58,-373.89 365.2,-385.24"/>
<polygon fill="black" stroke="black" points="364.68,-388.71 375.18,-387.36 366.13,-381.86 364.68,-388.71"/>
</g>
<!-- the best -->
<g id="node24" class="node">
<title>the best</title>
<path fill="#f5f5f5" stroke="black" d="M442,-360C442,-360 392,-360 392,-360 386,-360 380,-354 380,-348 380,-348 380,-336 380,-336 380,-330 386,-324 392,-324 392,-324 442,-324 442,-324 448,-324 454,-330 454,-336 454,-336 454,-348 454,-348 454,-354 448,-360 442,-360"/>
<text text-anchor="middle" x="417" y="-338.3" font-family="Times-Roman" font-size="14.00">the best</text>
</g>
<!-- It&#39;s&#45;&gt;the best -->
<g id="edge21" class="edge">
<title>It&#39;s&#45;&gt;the best</title>
<path fill="none" stroke="black" d="M187.33,-342C230.28,-342 315.97,-342 369.39,-342"/>
<polygon fill="black" stroke="black" points="369.62,-345.5 379.62,-342 369.62,-338.5 369.62,-345.5"/>
</g>
<!-- one of the best -->
<g id="node25" class="node">
<title>one of the best</title>
<path fill="#f5f5f5" stroke="black" d="M466,-306C466,-306 368,-306 368,-306 362,-306 356,-300 356,-294 356,-294 356,-282 356,-282 356,-276 362,-270 368,-270 368,-270 466,-270 466,-270 472,-270 478,-276 478,-282 478,-282 478,-294 478,-294 478,-300 472,-306 466,-306"/>
<text text-anchor="middle" x="417" y="-284.3" font-family="Times-Roman" font-size="14.00">one of the best</text>
</g>
<!-- It&#39;s&#45;&gt;one of the best -->
<g id="edge22" class="edge">
<title>It&#39;s&#45;&gt;one of the best</title>
<path fill="none" stroke="black" d="M187.33,-336.42C224.45,-328.56 293.5,-313.94 346.04,-302.81"/>
<polygon fill="black" stroke="black" points="346.93,-306.21 355.98,-300.71 345.48,-299.36 346.93,-306.21"/>
</g>
<!-- a good -->
<g id="node26" class="node">
<title>a good</title>
<path fill="#f5f5f5" stroke="black" d="M437,-252C437,-252 397,-252 397,-252 391,-252 385,-246 385,-240 385,-240 385,-228 385,-228 385,-222 391,-216 397,-216 397,-216 437,-216 437,-216 443,-216 449,-222 449,-228 449,-228 449,-240 449,-240 449,-246 443,-252 437,-252"/>
<text text-anchor="middle" x="417" y="-230.3" font-family="Times-Roman" font-size="14.00">a good</text>
</g>
<!-- It&#39;s&#45;&gt;a good -->
<g id="edge23" class="edge">
<title>It&#39;s&#45;&gt;a good</title>
<path fill="none" stroke="black" d="M187.33,-330.85C231.89,-311.97 322.48,-273.61 375.28,-251.25"/>
<polygon fill="black" stroke="black" points="376.83,-254.39 384.68,-247.27 374.1,-247.94 376.83,-254.39"/>
</g>
<!-- There are lots of ... -->
<g id="node10" class="node">
<title>There are lots of ...</title>
<path fill="#f5f5f5" stroke="black" d="M221.5,-441C221.5,-441 98.5,-441 98.5,-441 92.5,-441 86.5,-435 86.5,-429 86.5,-429 86.5,-417 86.5,-417 86.5,-411 92.5,-405 98.5,-405 98.5,-405 221.5,-405 221.5,-405 227.5,-405 233.5,-411 233.5,-417 233.5,-417 233.5,-429 233.5,-429 233.5,-435 227.5,-441 221.5,-441"/>
<text text-anchor="middle" x="160" y="-419.3" font-family="Times-Roman" font-size="14.00">There are lots of ...</text>
</g>
<!-- There are lots of -->
<g id="node11" class="node">
<title>There are lots of</title>
<path fill="#f5f5f5" stroke="black" d="M212.5,-522C212.5,-522 107.5,-522 107.5,-522 101.5,-522 95.5,-516 95.5,-510 95.5,-510 95.5,-498 95.5,-498 95.5,-492 101.5,-486 107.5,-486 107.5,-486 212.5,-486 212.5,-486 218.5,-486 224.5,-492 224.5,-498 224.5,-498 224.5,-510 224.5,-510 224.5,-516 218.5,-522 212.5,-522"/>
<text text-anchor="middle" x="160" y="-500.3" font-family="Times-Roman" font-size="14.00">There are lots of</text>
</g>
<!-- some ... -->
<g id="node12" class="node">
<title>some ...</title>
<path fill="#f5f5f5" stroke="black" d="M441,-522C441,-522 393,-522 393,-522 387,-522 381,-516 381,-510 381,-510 381,-498 381,-498 381,-492 387,-486 393,-486 393,-486 441,-486 441,-486 447,-486 453,-492 453,-498 453,-498 453,-510 453,-510 453,-516 447,-522 441,-522"/>
<text text-anchor="middle" x="417" y="-500.3" font-family="Times-Roman" font-size="14.00">some ...</text>
</g>
<!-- There are lots of&#45;&gt;some ... -->
<g id="edge11" class="edge">
<title>There are lots of&#45;&gt;some ...</title>
<path fill="none" stroke="black" d="M224.69,-504C270.15,-504 330.19,-504 370.8,-504"/>
<polygon fill="black" stroke="black" points="370.94,-507.5 380.94,-504 370.94,-500.5 370.94,-507.5"/>
</g>
<!-- One of the most important places in ... is ... -->
<g id="node13" class="node">
<title>One of the most important places in ... is ...</title>
<path fill="#f5f5f5" stroke="black" d="M308,-576C308,-576 12,-576 12,-576 6,-576 0,-570 0,-564 0,-564 0,-552 0,-552 0,-546 6,-540 12,-540 12,-540 308,-540 308,-540 314,-540 320,-546 320,-552 320,-552 320,-564 320,-564 320,-570 314,-576 308,-576"/>
<text text-anchor="middle" x="160" y="-554.3" font-family="Times-Roman" font-size="14.00">One of the most important places in ... is ...</text>
</g>
<!-- Most tourist don&#39;t know about it but... -->
<g id="node14" class="node">
<title>Most tourist don&#39;t know about it but...</title>
<path fill="#f5f5f5" stroke="black" d="M287.5,-630C287.5,-630 32.5,-630 32.5,-630 26.5,-630 20.5,-624 20.5,-618 20.5,-618 20.5,-606 20.5,-606 20.5,-600 26.5,-594 32.5,-594 32.5,-594 287.5,-594 287.5,-594 293.5,-594 299.5,-600 299.5,-606 299.5,-606 299.5,-618 299.5,-618 299.5,-624 293.5,-630 287.5,-630"/>
<text text-anchor="middle" x="160" y="-608.3" font-family="Times-Roman" font-size="14.00">Most tourist don&#39;t know about it but...</text>
</g>
<!-- Here you can -->
<g id="node15" class="node">
<title>Here you can</title>
<path fill="#f5f5f5" stroke="black" d="M202,-684C202,-684 118,-684 118,-684 112,-684 106,-678 106,-672 106,-672 106,-660 106,-660 106,-654 112,-648 118,-648 118,-648 202,-648 202,-648 208,-648 214,-654 214,-660 214,-660 214,-672 214,-672 214,-678 208,-684 202,-684"/>
<text text-anchor="middle" x="160" y="-662.3" font-family="Times-Roman" font-size="14.00">Here you can</text>
</g>
<!-- see ... -->
<g id="node16" class="node">
<title>see ...</title>
<path fill="#f5f5f5" stroke="black" d="M434.5,-738C434.5,-738 399.5,-738 399.5,-738 393.5,-738 387.5,-732 387.5,-726 387.5,-726 387.5,-714 387.5,-714 387.5,-708 393.5,-702 399.5,-702 399.5,-702 434.5,-702 434.5,-702 440.5,-702 446.5,-708 446.5,-714 446.5,-714 446.5,-726 446.5,-726 446.5,-732 440.5,-738 434.5,-738"/>
<text text-anchor="middle" x="417" y="-716.3" font-family="Times-Roman" font-size="14.00">see ...</text>
</g>
<!-- Here you can&#45;&gt;see ... -->
<g id="edge12" class="edge">
<title>Here you can&#45;&gt;see ...</title>
<path fill="none" stroke="black" d="M214.15,-677.25C262.93,-687.58 334.03,-702.64 377.53,-711.85"/>
<polygon fill="black" stroke="black" points="376.93,-715.3 387.43,-713.95 378.38,-708.45 376.93,-715.3"/>
</g>
<!-- eat ... -->
<g id="node17" class="node">
<title>eat ...</title>
<path fill="#f5f5f5" stroke="black" d="M433,-684C433,-684 401,-684 401,-684 395,-684 389,-678 389,-672 389,-672 389,-660 389,-660 389,-654 395,-648 401,-648 401,-648 433,-648 433,-648 439,-648 445,-654 445,-660 445,-660 445,-672 445,-672 445,-678 439,-684 433,-684"/>
<text text-anchor="middle" x="417" y="-662.3" font-family="Times-Roman" font-size="14.00">eat ...</text>
</g>
<!-- Here you can&#45;&gt;eat ... -->
<g id="edge13" class="edge">
<title>Here you can&#45;&gt;eat ...</title>
<path fill="none" stroke="black" d="M214.15,-666C263.36,-666 335.31,-666 378.69,-666"/>
<polygon fill="black" stroke="black" points="378.81,-669.5 388.81,-666 378.81,-662.5 378.81,-669.5"/>
</g>
<!-- find ... -->
<g id="node18" class="node">
<title>find ...</title>
<path fill="#f5f5f5" stroke="black" d="M436,-630C436,-630 398,-630 398,-630 392,-630 386,-624 386,-618 386,-618 386,-606 386,-606 386,-600 392,-594 398,-594 398,-594 436,-594 436,-594 442,-594 448,-600 448,-606 448,-606 448,-618 448,-618 448,-624 442,-630 436,-630"/>
<text text-anchor="middle" x="417" y="-608.3" font-family="Times-Roman" font-size="14.00">find ...</text>
</g>
<!-- Here you can&#45;&gt;find ... -->
<g id="edge14" class="edge">
<title>Here you can&#45;&gt;find ...</title>
<path fill="none" stroke="black" d="M214.28,-658.4C245.28,-653.61 285.03,-646.86 320,-639 338.64,-634.81 359.05,-629.21 376.23,-624.21"/>
<polygon fill="black" stroke="black" points="377.34,-627.53 385.94,-621.34 375.36,-620.81 377.34,-627.53"/>
</g>
<!-- Tourists -->
<g id="node19" class="node">
<title>Tourists</title>
<path fill="#f5f5f5" stroke="black" d="M183,-819C183,-819 137,-819 137,-819 131,-819 125,-813 125,-807 125,-807 125,-795 125,-795 125,-789 131,-783 137,-783 137,-783 183,-783 183,-783 189,-783 195,-789 195,-795 195,-795 195,-807 195,-807 195,-813 189,-819 183,-819"/>
<text text-anchor="middle" x="160" y="-797.3" font-family="Times-Roman" font-size="14.00">Tourists</text>
</g>
<!-- don&#39;t usually -->
<g id="node20" class="node">
<title>don&#39;t usually</title>
<path fill="#f5f5f5" stroke="black" d="M458,-846C458,-846 376,-846 376,-846 370,-846 364,-840 364,-834 364,-834 364,-822 364,-822 364,-816 370,-810 376,-810 376,-810 458,-810 458,-810 464,-810 470,-816 470,-822 470,-822 470,-834 470,-834 470,-840 464,-846 458,-846"/>
<text text-anchor="middle" x="417" y="-824.3" font-family="Times-Roman" font-size="14.00">don&#39;t usually</text>
</g>
<!-- Tourists&#45;&gt;don&#39;t usually -->
<g id="edge15" class="edge">
<title>Tourists&#45;&gt;don&#39;t usually</title>
<path fill="none" stroke="black" d="M195.13,-804.61C235.63,-808.9 303.96,-816.14 353.91,-821.43"/>
<polygon fill="black" stroke="black" points="353.65,-824.92 363.96,-822.49 354.39,-817.96 353.65,-824.92"/>
</g>
<!-- often -->
<g id="node21" class="node">
<title>often</title>
<path fill="#f5f5f5" stroke="black" d="M432,-792C432,-792 402,-792 402,-792 396,-792 390,-786 390,-780 390,-780 390,-768 390,-768 390,-762 396,-756 402,-756 402,-756 432,-756 432,-756 438,-756 444,-762 444,-768 444,-768 444,-780 444,-780 444,-786 438,-792 432,-792"/>
<text text-anchor="middle" x="417" y="-770.3" font-family="Times-Roman" font-size="14.00">often</text>
</g>
<!-- Tourists&#45;&gt;often -->
<g id="edge16" class="edge">
<title>Tourists&#45;&gt;often</title>
<path fill="none" stroke="black" d="M195.13,-797.39C243.17,-792.3 330.38,-783.07 379.62,-777.85"/>
<polygon fill="black" stroke="black" points="380.23,-781.31 389.81,-776.77 379.5,-774.35 380.23,-781.31"/>
</g>
<!-- go there. -->
<g id="node22" class="node">
<title>go there.</title>
<path fill="#f5f5f5" stroke="black" d="M586.5,-846C586.5,-846 531.5,-846 531.5,-846 525.5,-846 519.5,-840 519.5,-834 519.5,-834 519.5,-822 519.5,-822 519.5,-816 525.5,-810 531.5,-810 531.5,-810 586.5,-810 586.5,-810 592.5,-810 598.5,-816 598.5,-822 598.5,-822 598.5,-834 598.5,-834 598.5,-840 592.5,-846 586.5,-846"/>
<text text-anchor="middle" x="559" y="-824.3" font-family="Times-Roman" font-size="14.00">go there.</text>
</g>
<!-- don&#39;t usually&#45;&gt;go there. -->
<g id="edge17" class="edge">
<title>don&#39;t usually&#45;&gt;go there.</title>
<path fill="none" stroke="black" d="M470.13,-828C482.89,-828 496.49,-828 509.09,-828"/>
<polygon fill="black" stroke="black" points="509.39,-831.5 519.39,-828 509.39,-824.5 509.39,-831.5"/>
</g>
<!-- do that. -->
<g id="node23" class="node">
<title>do that.</title>
<path fill="#f5f5f5" stroke="black" d="M582.5,-792C582.5,-792 535.5,-792 535.5,-792 529.5,-792 523.5,-786 523.5,-780 523.5,-780 523.5,-768 523.5,-768 523.5,-762 529.5,-756 535.5,-756 535.5,-756 582.5,-756 582.5,-756 588.5,-756 594.5,-762 594.5,-768 594.5,-768 594.5,-780 594.5,-780 594.5,-786 588.5,-792 582.5,-792"/>
<text text-anchor="middle" x="559" y="-770.3" font-family="Times-Roman" font-size="14.00">do that.</text>
</g>
<!-- don&#39;t usually&#45;&gt;do that. -->
<g id="edge18" class="edge">
<title>don&#39;t usually&#45;&gt;do that.</title>
<path fill="none" stroke="black" d="M465.01,-809.87C480.8,-803.78 498.34,-797.01 513.9,-791.01"/>
<polygon fill="black" stroke="black" points="515.22,-794.25 523.29,-787.39 512.7,-787.72 515.22,-794.25"/>
</g>
<!-- often&#45;&gt;go there. -->
<g id="edge19" class="edge">
<title>often&#45;&gt;go there.</title>
<path fill="none" stroke="black" d="M444,-784.03C462.47,-791.15 487.79,-800.92 509.88,-809.44"/>
<polygon fill="black" stroke="black" points="508.86,-812.8 519.45,-813.13 511.38,-806.26 508.86,-812.8"/>
</g>
<!-- often&#45;&gt;do that. -->
<g id="edge20" class="edge">
<title>often&#45;&gt;do that.</title>
<path fill="none" stroke="black" d="M444,-774C463.41,-774 490.4,-774 513.25,-774"/>
<polygon fill="black" stroke="black" points="513.42,-777.5 523.42,-774 513.42,-770.5 513.42,-777.5"/>
</g>
<!-- place  -->
<g id="node27" class="node">
<title>place </title>
<path fill="#f5f5f5" stroke="black" d="M576,-333C576,-333 542,-333 542,-333 536,-333 530,-327 530,-321 530,-321 530,-309 530,-309 530,-303 536,-297 542,-297 542,-297 576,-297 576,-297 582,-297 588,-303 588,-309 588,-309 588,-321 588,-321 588,-327 582,-333 576,-333"/>
<text text-anchor="middle" x="559" y="-311.3" font-family="Times-Roman" font-size="14.00">place </text>
</g>
<!-- the best&#45;&gt;place  -->
<g id="edge24" class="edge">
<title>the best&#45;&gt;place </title>
<path fill="none" stroke="black" d="M454.05,-335.05C474.15,-331.17 499.18,-326.34 519.64,-322.4"/>
<polygon fill="black" stroke="black" points="520.42,-325.81 529.57,-320.48 519.09,-318.94 520.42,-325.81"/>
</g>
<!-- places -->
<g id="node28" class="node">
<title>places</title>
<path fill="#f5f5f5" stroke="black" d="M577.5,-279C577.5,-279 540.5,-279 540.5,-279 534.5,-279 528.5,-273 528.5,-267 528.5,-267 528.5,-255 528.5,-255 528.5,-249 534.5,-243 540.5,-243 540.5,-243 577.5,-243 577.5,-243 583.5,-243 589.5,-249 589.5,-255 589.5,-255 589.5,-267 589.5,-267 589.5,-273 583.5,-279 577.5,-279"/>
<text text-anchor="middle" x="559" y="-257.3" font-family="Times-Roman" font-size="14.00">places</text>
</g>
<!-- the best&#45;&gt;places -->
<g id="edge25" class="edge">
<title>the best&#45;&gt;places</title>
<path fill="none" stroke="black" d="M454.19,-327.27C462.2,-323.58 470.52,-319.41 478,-315 495.22,-304.83 497.46,-299.24 514,-288 515.87,-286.73 517.79,-285.45 519.75,-284.17"/>
<polygon fill="black" stroke="black" points="521.87,-286.97 528.41,-278.63 518.1,-281.07 521.87,-286.97"/>
</g>
<!-- one of the best&#45;&gt;place  -->
<g id="edge26" class="edge">
<title>one of the best&#45;&gt;place </title>
<path fill="none" stroke="black" d="M478.19,-299.61C492.34,-302.34 507.03,-305.17 519.9,-307.65"/>
<polygon fill="black" stroke="black" points="519.3,-311.1 529.78,-309.56 520.63,-304.23 519.3,-311.1"/>
</g>
<!-- one of the best&#45;&gt;places -->
<g id="edge27" class="edge">
<title>one of the best&#45;&gt;places</title>
<path fill="none" stroke="black" d="M478.19,-276.39C491.73,-273.78 505.78,-271.07 518.25,-268.67"/>
<polygon fill="black" stroke="black" points="519.14,-272.06 528.3,-266.73 517.82,-265.19 519.14,-272.06"/>
</g>
<!-- a good&#45;&gt;place  -->
<g id="edge28" class="edge">
<title>a good&#45;&gt;place </title>
<path fill="none" stroke="black" d="M449.18,-246.47C458.66,-250.67 468.95,-255.66 478,-261 495.22,-271.17 497.46,-276.76 514,-288 516.36,-289.61 518.82,-291.23 521.31,-292.84"/>
<polygon fill="black" stroke="black" points="519.5,-295.84 529.82,-298.25 523.25,-289.93 519.5,-295.84"/>
</g>
<!-- a good&#45;&gt;places -->
<g id="edge29" class="edge">
<title>a good&#45;&gt;places</title>
<path fill="none" stroke="black" d="M449.07,-239.99C469.52,-243.94 496.46,-249.13 518.43,-253.37"/>
<polygon fill="black" stroke="black" points="517.97,-256.84 528.45,-255.3 519.3,-249.97 517.97,-256.84"/>
</g>
<!-- you can ... there. -->
<g id="node29" class="node">
<title>you can ... there.</title>
<path fill="#f5f5f5" stroke="black" d="M762,-333C762,-333 652,-333 652,-333 646,-333 640,-327 640,-321 640,-321 640,-309 640,-309 640,-303 646,-297 652,-297 652,-297 762,-297 762,-297 768,-297 774,-303 774,-309 774,-309 774,-321 774,-321 774,-327 768,-333 762,-333"/>
<text text-anchor="middle" x="707" y="-311.3" font-family="Times-Roman" font-size="14.00">you can ... there.</text>
</g>
<!-- place &#45;&gt;you can ... there. -->
<g id="edge30" class="edge">
<title>place &#45;&gt;you can ... there.</title>
<path fill="none" stroke="black" d="M588.15,-315C600.13,-315 614.75,-315 629.56,-315"/>
<polygon fill="black" stroke="black" points="629.81,-318.5 639.81,-315 629.81,-311.5 629.81,-318.5"/>
</g>
<!-- to ... -->
<g id="node30" class="node">
<title>to ...</title>
<path fill="#f5f5f5" stroke="black" d="M722,-279C722,-279 692,-279 692,-279 686,-279 680,-273 680,-267 680,-267 680,-255 680,-255 680,-249 686,-243 692,-243 692,-243 722,-243 722,-243 728,-243 734,-249 734,-255 734,-255 734,-267 734,-267 734,-273 728,-279 722,-279"/>
<text text-anchor="middle" x="707" y="-257.3" font-family="Times-Roman" font-size="14.00">to ...</text>
</g>
<!-- place &#45;&gt;to ... -->
<g id="edge32" class="edge">
<title>place &#45;&gt;to ...</title>
<path fill="none" stroke="black" d="M588.15,-304.59C611.56,-295.93 645.01,-283.56 670.3,-274.2"/>
<polygon fill="black" stroke="black" points="671.73,-277.41 679.9,-270.65 669.3,-270.84 671.73,-277.41"/>
</g>
<!-- places&#45;&gt;you can ... there. -->
<g id="edge31" class="edge">
<title>places&#45;&gt;you can ... there.</title>
<path fill="none" stroke="black" d="M589.55,-271.93C606.23,-278.1 627.68,-286.03 647.61,-293.4"/>
<polygon fill="black" stroke="black" points="646.65,-296.78 657.24,-296.97 649.08,-290.21 646.65,-296.78"/>
</g>
<!-- places&#45;&gt;to ... -->
<g id="edge33" class="edge">
<title>places&#45;&gt;to ...</title>
<path fill="none" stroke="black" d="M589.55,-261C612.73,-261 645.11,-261 669.84,-261"/>
<polygon fill="black" stroke="black" points="669.92,-264.5 679.92,-261 669.92,-257.5 669.92,-264.5"/>
</g>
<!-- It&#39;s really -->
<g id="node31" class="node">
<title>It&#39;s really</title>
<path fill="#f5f5f5" stroke="black" d="M188,-1008C188,-1008 132,-1008 132,-1008 126,-1008 120,-1002 120,-996 120,-996 120,-984 120,-984 120,-978 126,-972 132,-972 132,-972 188,-972 188,-972 194,-972 200,-978 200,-984 200,-984 200,-996 200,-996 200,-1002 194,-1008 188,-1008"/>
<text text-anchor="middle" x="160" y="-986.3" font-family="Times-Roman" font-size="14.00">It&#39;s really</text>
</g>
<!-- interesting ... -->
<g id="node32" class="node">
<title>interesting ...</title>
<path fill="#f5f5f5" stroke="black" d="M459.5,-1116C459.5,-1116 374.5,-1116 374.5,-1116 368.5,-1116 362.5,-1110 362.5,-1104 362.5,-1104 362.5,-1092 362.5,-1092 362.5,-1086 368.5,-1080 374.5,-1080 374.5,-1080 459.5,-1080 459.5,-1080 465.5,-1080 471.5,-1086 471.5,-1092 471.5,-1092 471.5,-1104 471.5,-1104 471.5,-1110 465.5,-1116 459.5,-1116"/>
<text text-anchor="middle" x="417" y="-1094.3" font-family="Times-Roman" font-size="14.00">interesting ...</text>
</g>
<!-- It&#39;s really&#45;&gt;interesting ... -->
<g id="edge34" class="edge">
<title>It&#39;s really&#45;&gt;interesting ...</title>
<path fill="none" stroke="black" d="M200.01,-1006.52C243.82,-1025.08 315.16,-1055.29 363.76,-1075.88"/>
<polygon fill="black" stroke="black" points="362.59,-1079.18 373.16,-1079.86 365.32,-1072.73 362.59,-1079.18"/>
</g>
<!-- delicious ... -->
<g id="node33" class="node">
<title>delicious ...</title>
<path fill="#f5f5f5" stroke="black" d="M452.5,-1062C452.5,-1062 381.5,-1062 381.5,-1062 375.5,-1062 369.5,-1056 369.5,-1050 369.5,-1050 369.5,-1038 369.5,-1038 369.5,-1032 375.5,-1026 381.5,-1026 381.5,-1026 452.5,-1026 452.5,-1026 458.5,-1026 464.5,-1032 464.5,-1038 464.5,-1038 464.5,-1050 464.5,-1050 464.5,-1056 458.5,-1062 452.5,-1062"/>
<text text-anchor="middle" x="417" y="-1040.3" font-family="Times-Roman" font-size="14.00">delicious ...</text>
</g>
<!-- It&#39;s really&#45;&gt;delicious ... -->
<g id="edge35" class="edge">
<title>It&#39;s really&#45;&gt;delicious ...</title>
<path fill="none" stroke="black" d="M200.01,-998.26C242.47,-1007.25 310.77,-1021.72 359.19,-1031.97"/>
<polygon fill="black" stroke="black" points="358.69,-1035.44 369.2,-1034.09 360.14,-1028.59 358.69,-1035.44"/>
</g>
<!-- fun ... -->
<g id="node34" class="node">
<title>fun ...</title>
<path fill="#f5f5f5" stroke="black" d="M434,-1008C434,-1008 400,-1008 400,-1008 394,-1008 388,-1002 388,-996 388,-996 388,-984 388,-984 388,-978 394,-972 400,-972 400,-972 434,-972 434,-972 440,-972 446,-978 446,-984 446,-984 446,-996 446,-996 446,-1002 440,-1008 434,-1008"/>
<text text-anchor="middle" x="417" y="-986.3" font-family="Times-Roman" font-size="14.00">fun ...</text>
</g>
<!-- It&#39;s really&#45;&gt;fun ... -->
<g id="edge36" class="edge">
<title>It&#39;s really&#45;&gt;fun ...</title>
<path fill="none" stroke="black" d="M200.01,-990C248.13,-990 329.44,-990 377.38,-990"/>
<polygon fill="black" stroke="black" points="377.66,-993.5 387.66,-990 377.66,-986.5 377.66,-993.5"/>
</g>
<!-- quiet ... -->
<g id="node35" class="node">
<title>quiet ...</title>
<path fill="#f5f5f5" stroke="black" d="M440,-954C440,-954 394,-954 394,-954 388,-954 382,-948 382,-942 382,-942 382,-930 382,-930 382,-924 388,-918 394,-918 394,-918 440,-918 440,-918 446,-918 452,-924 452,-930 452,-930 452,-942 452,-942 452,-948 446,-954 440,-954"/>
<text text-anchor="middle" x="417" y="-932.3" font-family="Times-Roman" font-size="14.00">quiet ...</text>
</g>
<!-- It&#39;s really&#45;&gt;quiet ... -->
<g id="edge37" class="edge">
<title>It&#39;s really&#45;&gt;quiet ...</title>
<path fill="none" stroke="black" d="M200.01,-981.74C246.38,-971.92 323.56,-955.58 372.01,-945.31"/>
<polygon fill="black" stroke="black" points="372.84,-948.72 381.9,-943.22 371.39,-941.87 372.84,-948.72"/>
</g>
<!-- beaufiul ... -->
<g id="node36" class="node">
<title>beaufiul ...</title>
<path fill="#f5f5f5" stroke="black" d="M450.5,-900C450.5,-900 383.5,-900 383.5,-900 377.5,-900 371.5,-894 371.5,-888 371.5,-888 371.5,-876 371.5,-876 371.5,-870 377.5,-864 383.5,-864 383.5,-864 450.5,-864 450.5,-864 456.5,-864 462.5,-870 462.5,-876 462.5,-876 462.5,-888 462.5,-888 462.5,-894 456.5,-900 450.5,-900"/>
<text text-anchor="middle" x="417" y="-878.3" font-family="Times-Roman" font-size="14.00">beaufiul ...</text>
</g>
<!-- It&#39;s really&#45;&gt;beaufiul ... -->
<g id="edge38" class="edge">
<title>It&#39;s really&#45;&gt;beaufiul ...</title>
<path fill="none" stroke="black" d="M200.01,-973.48C243.82,-954.92 315.16,-924.71 363.76,-904.12"/>
<polygon fill="black" stroke="black" points="365.32,-907.27 373.16,-900.14 362.59,-900.82 365.32,-907.27"/>
</g>
</g>
</svg>
