<?xml version="1.0" encoding="UTF-8" standalone="no"?>
<!DOCTYPE svg PUBLIC "-//W3C//DTD SVG 1.1//EN"
 "http://www.w3.org/Graphics/SVG/1.1/DTD/svg11.dtd">
<!-- Generated by graphviz version 2.44.0 (0)
 -->
<!-- Pages: 1 -->
<svg width="697pt" height="206pt"
 viewBox="0.00 0.00 697.00 206.00" xmlns="http://www.w3.org/2000/svg" xmlns:xlink="http://www.w3.org/1999/xlink">
<g id="graph0" class="graph" transform="scale(1 1) rotate(0) translate(4 202)">
<polygon fill="white" stroke="transparent" points="-4,4 -4,-202 693,-202 693,4 -4,4"/>
<!-- Short adjective -->
<g id="node1" class="node">
<title>Short adjective</title>
<path fill="#f5f5f5" stroke="black" d="M120,-90C120,-90 23,-90 23,-90 17,-90 11,-84 11,-78 11,-78 11,-66 11,-66 11,-60 17,-54 23,-54 23,-54 120,-54 120,-54 126,-54 132,-60 132,-66 132,-66 132,-78 132,-78 132,-84 126,-90 120,-90"/>
<text text-anchor="middle" x="71.5" y="-68.3" font-family="Times-Roman" font-size="14.00">Short adjective</text>
</g>
<!-- fast -->
<g id="node2" class="node">
<title>fast</title>
<path fill="#f5f5f5" stroke="black" d="M260,-90C260,-90 230,-90 230,-90 224,-90 218,-84 218,-78 218,-78 218,-66 218,-66 218,-60 224,-54 230,-54 230,-54 260,-54 260,-54 266,-54 272,-60 272,-66 272,-66 272,-78 272,-78 272,-84 266,-90 260,-90"/>
<text text-anchor="middle" x="245" y="-68.3" font-family="Times-Roman" font-size="14.00">fast</text>
</g>
<!-- Short adjective&#45;&gt;fast -->
<g id="edge1" class="edge">
<title>Short adjective&#45;&gt;fast</title>
<path fill="none" stroke="black" d="M132,-72C157.11,-72 185.54,-72 207.47,-72"/>
<polygon fill="black" stroke="black" points="207.68,-75.5 217.68,-72 207.68,-68.5 207.68,-75.5"/>
<text text-anchor="middle" x="169" y="-75.8" font-family="Times-Roman" font-size="14.00">as</text>
</g>
<!-- faster -->
<g id="node3" class="node">
<title>faster</title>
<path fill="#f5f5f5" stroke="black" d="M544.5,-90C544.5,-90 511.5,-90 511.5,-90 505.5,-90 499.5,-84 499.5,-78 499.5,-78 499.5,-66 499.5,-66 499.5,-60 505.5,-54 511.5,-54 511.5,-54 544.5,-54 544.5,-54 550.5,-54 556.5,-60 556.5,-66 556.5,-66 556.5,-78 556.5,-78 556.5,-84 550.5,-90 544.5,-90"/>
<text text-anchor="middle" x="528" y="-68.3" font-family="Times-Roman" font-size="14.00">faster</text>
</g>
<!-- fast&#45;&gt;faster -->
<g id="edge2" class="edge">
<title>fast&#45;&gt;faster</title>
<path fill="none" stroke="black" d="M272.18,-72C322.08,-72 430.96,-72 488.92,-72"/>
<polygon fill="black" stroke="black" points="489.12,-75.5 499.12,-72 489.12,-68.5 489.12,-75.5"/>
<text text-anchor="middle" x="376.5" y="-75.8" font-family="Times-Roman" font-size="14.00">adjective + &#39;&#45;er&#39;</text>
</g>
<!-- than -->
<g id="node12" class="node">
<title>than</title>
<path fill="#f5f5f5" stroke="black" d="M677,-62C677,-62 647,-62 647,-62 641,-62 635,-56 635,-50 635,-50 635,-38 635,-38 635,-32 641,-26 647,-26 647,-26 677,-26 677,-26 683,-26 689,-32 689,-38 689,-38 689,-50 689,-50 689,-56 683,-62 677,-62"/>
<text text-anchor="middle" x="662" y="-40.3" font-family="Times-Roman" font-size="14.00">than</text>
</g>
<!-- faster&#45;&gt;than -->
<g id="edge9" class="edge">
<title>faster&#45;&gt;than</title>
<path fill="none" stroke="black" d="M556.67,-66.13C576.42,-61.94 603.18,-56.26 624.65,-51.71"/>
<polygon fill="black" stroke="black" points="625.66,-55.07 634.71,-49.58 624.21,-48.23 625.66,-55.07"/>
</g>
<!-- Long adjective -->
<g id="node4" class="node">
<title>Long adjective</title>
<path fill="#f5f5f5" stroke="black" d="M118,-36C118,-36 25,-36 25,-36 19,-36 13,-30 13,-24 13,-24 13,-12 13,-12 13,-6 19,0 25,0 25,0 118,0 118,0 124,0 130,-6 130,-12 130,-12 130,-24 130,-24 130,-30 124,-36 118,-36"/>
<text text-anchor="middle" x="71.5" y="-14.3" font-family="Times-Roman" font-size="14.00">Long adjective</text>
</g>
<!-- comfortable -->
<g id="node5" class="node">
<title>comfortable</title>
<path fill="#f5f5f5" stroke="black" d="M283,-36C283,-36 207,-36 207,-36 201,-36 195,-30 195,-24 195,-24 195,-12 195,-12 195,-6 201,0 207,0 207,0 283,0 283,0 289,0 295,-6 295,-12 295,-12 295,-24 295,-24 295,-30 289,-36 283,-36"/>
<text text-anchor="middle" x="245" y="-14.3" font-family="Times-Roman" font-size="14.00">comfortable</text>
</g>
<!-- Long adjective&#45;&gt;comfortable -->
<g id="edge3" class="edge">
<title>Long adjective&#45;&gt;comfortable</title>
<path fill="none" stroke="black" d="M130.08,-18C147.65,-18 167,-18 184.68,-18"/>
<polygon fill="black" stroke="black" points="184.88,-21.5 194.88,-18 184.88,-14.5 184.88,-21.5"/>
<text text-anchor="middle" x="169" y="-21.8" font-family="Times-Roman" font-size="14.00">as</text>
</g>
<!-- more comfortable -->
<g id="node6" class="node">
<title>more comfortable</title>
<path fill="#f5f5f5" stroke="black" d="M586,-36C586,-36 470,-36 470,-36 464,-36 458,-30 458,-24 458,-24 458,-12 458,-12 458,-6 464,0 470,0 470,0 586,0 586,0 592,0 598,-6 598,-12 598,-12 598,-24 598,-24 598,-30 592,-36 586,-36"/>
<text text-anchor="middle" x="528" y="-14.3" font-family="Times-Roman" font-size="14.00">more comfortable</text>
</g>
<!-- comfortable&#45;&gt;more comfortable -->
<g id="edge4" class="edge">
<title>comfortable&#45;&gt;more comfortable</title>
<path fill="none" stroke="black" d="M295.27,-18C337.37,-18 398.72,-18 447.73,-18"/>
<polygon fill="black" stroke="black" points="447.99,-21.5 457.99,-18 447.99,-14.5 447.99,-21.5"/>
<text text-anchor="middle" x="376.5" y="-21.8" font-family="Times-Roman" font-size="14.00">&#39;more&#39; + adjective</text>
</g>
<!-- more comfortable&#45;&gt;than -->
<g id="edge10" class="edge">
<title>more comfortable&#45;&gt;than</title>
<path fill="none" stroke="black" d="M598.09,-31.61C607.3,-33.42 616.43,-35.22 624.76,-36.86"/>
<polygon fill="black" stroke="black" points="624.34,-40.35 634.83,-38.85 625.7,-33.48 624.34,-40.35"/>
</g>
<!-- Irregular adjective -->
<g id="node7" class="node">
<title>Irregular adjective</title>
<path fill="#f5f5f5" stroke="black" d="M131,-171C131,-171 12,-171 12,-171 6,-171 0,-165 0,-159 0,-159 0,-147 0,-147 0,-141 6,-135 12,-135 12,-135 131,-135 131,-135 137,-135 143,-141 143,-147 143,-147 143,-159 143,-159 143,-165 137,-171 131,-171"/>
<text text-anchor="middle" x="71.5" y="-149.3" font-family="Times-Roman" font-size="14.00">Irregular adjective</text>
</g>
<!-- good -->
<g id="node8" class="node">
<title>good</title>
<path fill="#f5f5f5" stroke="black" d="M260,-198C260,-198 230,-198 230,-198 224,-198 218,-192 218,-186 218,-186 218,-174 218,-174 218,-168 224,-162 230,-162 230,-162 260,-162 260,-162 266,-162 272,-168 272,-174 272,-174 272,-186 272,-186 272,-192 266,-198 260,-198"/>
<text text-anchor="middle" x="245" y="-176.3" font-family="Times-Roman" font-size="14.00">good</text>
</g>
<!-- Irregular adjective&#45;&gt;good -->
<g id="edge5" class="edge">
<title>Irregular adjective&#45;&gt;good</title>
<path fill="none" stroke="black" d="M143.25,-164.14C165.51,-167.64 189.17,-171.37 207.96,-174.33"/>
<polygon fill="black" stroke="black" points="207.44,-177.79 217.86,-175.89 208.53,-170.87 207.44,-177.79"/>
<text text-anchor="middle" x="169" y="-171.8" font-family="Times-Roman" font-size="14.00">as</text>
</g>
<!-- bad -->
<g id="node9" class="node">
<title>bad</title>
<path fill="#f5f5f5" stroke="black" d="M260,-144C260,-144 230,-144 230,-144 224,-144 218,-138 218,-132 218,-132 218,-120 218,-120 218,-114 224,-108 230,-108 230,-108 260,-108 260,-108 266,-108 272,-114 272,-120 272,-120 272,-132 272,-132 272,-138 266,-144 260,-144"/>
<text text-anchor="middle" x="245" y="-122.3" font-family="Times-Roman" font-size="14.00">bad</text>
</g>
<!-- Irregular adjective&#45;&gt;bad -->
<g id="edge6" class="edge">
<title>Irregular adjective&#45;&gt;bad</title>
<path fill="none" stroke="black" d="M143.25,-141.86C165.51,-138.36 189.17,-134.63 207.96,-131.67"/>
<polygon fill="black" stroke="black" points="208.53,-135.13 217.86,-130.11 207.44,-128.21 208.53,-135.13"/>
<text text-anchor="middle" x="169" y="-141.8" font-family="Times-Roman" font-size="14.00">as</text>
</g>
<!-- better -->
<g id="node10" class="node">
<title>better</title>
<path fill="#f5f5f5" stroke="black" d="M545.5,-198C545.5,-198 510.5,-198 510.5,-198 504.5,-198 498.5,-192 498.5,-186 498.5,-186 498.5,-174 498.5,-174 498.5,-168 504.5,-162 510.5,-162 510.5,-162 545.5,-162 545.5,-162 551.5,-162 557.5,-168 557.5,-174 557.5,-174 557.5,-186 557.5,-186 557.5,-192 551.5,-198 545.5,-198"/>
<text text-anchor="middle" x="528" y="-176.3" font-family="Times-Roman" font-size="14.00">better</text>
</g>
<!-- good&#45;&gt;better -->
<g id="edge7" class="edge">
<title>good&#45;&gt;better</title>
<path fill="none" stroke="black" d="M272.18,-180C321.82,-180 429.84,-180 488.02,-180"/>
<polygon fill="black" stroke="black" points="488.28,-183.5 498.28,-180 488.28,-176.5 488.28,-183.5"/>
</g>
<!-- worse -->
<g id="node11" class="node">
<title>worse</title>
<path fill="#f5f5f5" stroke="black" d="M545,-144C545,-144 511,-144 511,-144 505,-144 499,-138 499,-132 499,-132 499,-120 499,-120 499,-114 505,-108 511,-108 511,-108 545,-108 545,-108 551,-108 557,-114 557,-120 557,-120 557,-132 557,-132 557,-138 551,-144 545,-144"/>
<text text-anchor="middle" x="528" y="-122.3" font-family="Times-Roman" font-size="14.00">worse</text>
</g>
<!-- bad&#45;&gt;worse -->
<g id="edge8" class="edge">
<title>bad&#45;&gt;worse</title>
<path fill="none" stroke="black" d="M272.18,-126C321.95,-126 430.4,-126 488.47,-126"/>
<polygon fill="black" stroke="black" points="488.7,-129.5 498.7,-126 488.7,-122.5 488.7,-129.5"/>
</g>
</g>
</svg>
