<?xml version="1.0" encoding="UTF-8" standalone="no"?>
<!DOCTYPE svg PUBLIC "-//W3C//DTD SVG 1.1//EN"
 "http://www.w3.org/Graphics/SVG/1.1/DTD/svg11.dtd">
<!-- Generated by graphviz version 2.44.0 (0)
 -->
<!-- Pages: 1 -->
<svg width="616pt" height="206pt"
 viewBox="0.00 0.00 616.00 206.00" xmlns="http://www.w3.org/2000/svg" xmlns:xlink="http://www.w3.org/1999/xlink">
<g id="graph0" class="graph" transform="scale(1 1) rotate(0) translate(4 202)">
<polygon fill="white" stroke="transparent" points="-4,4 -4,-202 612,-202 612,4 -4,4"/>
<!-- Short adjective -->
<g id="node1" class="node">
<title>Short adjective</title>
<path fill="#f5f5f5" stroke="black" d="M120,-36C120,-36 23,-36 23,-36 17,-36 11,-30 11,-24 11,-24 11,-12 11,-12 11,-6 17,0 23,0 23,0 120,0 120,0 126,0 132,-6 132,-12 132,-12 132,-24 132,-24 132,-30 126,-36 120,-36"/>
<text text-anchor="middle" x="71.5" y="-14.3" font-family="Times-Roman" font-size="14.00">Short adjective</text>
</g>
<!-- great -->
<g id="node2" class="node">
<title>great</title>
<path fill="#f5f5f5" stroke="black" d="M245.5,-36C245.5,-36 215.5,-36 215.5,-36 209.5,-36 203.5,-30 203.5,-24 203.5,-24 203.5,-12 203.5,-12 203.5,-6 209.5,0 215.5,0 215.5,0 245.5,0 245.5,0 251.5,0 257.5,-6 257.5,-12 257.5,-12 257.5,-24 257.5,-24 257.5,-30 251.5,-36 245.5,-36"/>
<text text-anchor="middle" x="230.5" y="-14.3" font-family="Times-Roman" font-size="14.00">great</text>
</g>
<!-- Short adjective&#45;&gt;great -->
<g id="edge1" class="edge">
<title>Short adjective&#45;&gt;great</title>
<path fill="none" stroke="black" d="M132.3,-18C152.88,-18 175.27,-18 193.37,-18"/>
<polygon fill="black" stroke="black" points="193.48,-21.5 203.48,-18 193.48,-14.5 193.48,-21.5"/>
<text text-anchor="middle" x="169" y="-21.8" font-family="Times-Roman" font-size="14.00">as</text>
</g>
<!-- the greatest -->
<g id="node3" class="node">
<title>the greatest</title>
<path fill="#f5f5f5" stroke="black" d="M578,-36C578,-36 501,-36 501,-36 495,-36 489,-30 489,-24 489,-24 489,-12 489,-12 489,-6 495,0 501,0 501,0 578,0 578,0 584,0 590,-6 590,-12 590,-12 590,-24 590,-24 590,-30 584,-36 578,-36"/>
<text text-anchor="middle" x="539.5" y="-14.3" font-family="Times-Roman" font-size="14.00">the greatest</text>
</g>
<!-- great&#45;&gt;the greatest -->
<g id="edge2" class="edge">
<title>great&#45;&gt;the greatest</title>
<path fill="none" stroke="black" d="M257.67,-18C306.26,-18 411.53,-18 478.48,-18"/>
<polygon fill="black" stroke="black" points="478.88,-21.5 488.88,-18 478.88,-14.5 478.88,-21.5"/>
<text text-anchor="middle" x="368.5" y="-21.8" font-family="Times-Roman" font-size="14.00">&#39;the&#39; + adjective + &#39;&#45;est&#39;</text>
</g>
<!-- Long adjective -->
<g id="node4" class="node">
<title>Long adjective</title>
<path fill="#f5f5f5" stroke="black" d="M118,-90C118,-90 25,-90 25,-90 19,-90 13,-84 13,-78 13,-78 13,-66 13,-66 13,-60 19,-54 25,-54 25,-54 118,-54 118,-54 124,-54 130,-60 130,-66 130,-66 130,-78 130,-78 130,-84 124,-90 118,-90"/>
<text text-anchor="middle" x="71.5" y="-68.3" font-family="Times-Roman" font-size="14.00">Long adjective</text>
</g>
<!-- exciting -->
<g id="node5" class="node">
<title>exciting</title>
<path fill="#f5f5f5" stroke="black" d="M254,-90C254,-90 207,-90 207,-90 201,-90 195,-84 195,-78 195,-78 195,-66 195,-66 195,-60 201,-54 207,-54 207,-54 254,-54 254,-54 260,-54 266,-60 266,-66 266,-66 266,-78 266,-78 266,-84 260,-90 254,-90"/>
<text text-anchor="middle" x="230.5" y="-68.3" font-family="Times-Roman" font-size="14.00">exciting</text>
</g>
<!-- Long adjective&#45;&gt;exciting -->
<g id="edge3" class="edge">
<title>Long adjective&#45;&gt;exciting</title>
<path fill="none" stroke="black" d="M130.07,-72C148.04,-72 167.6,-72 184.57,-72"/>
<polygon fill="black" stroke="black" points="184.77,-75.5 194.77,-72 184.77,-68.5 184.77,-75.5"/>
<text text-anchor="middle" x="169" y="-75.8" font-family="Times-Roman" font-size="14.00">as</text>
</g>
<!-- the most exciting -->
<g id="node6" class="node">
<title>the most exciting</title>
<path fill="#f5f5f5" stroke="black" d="M596,-90C596,-90 483,-90 483,-90 477,-90 471,-84 471,-78 471,-78 471,-66 471,-66 471,-60 477,-54 483,-54 483,-54 596,-54 596,-54 602,-54 608,-60 608,-66 608,-66 608,-78 608,-78 608,-84 602,-90 596,-90"/>
<text text-anchor="middle" x="539.5" y="-68.3" font-family="Times-Roman" font-size="14.00">the most exciting</text>
</g>
<!-- exciting&#45;&gt;the most exciting -->
<g id="edge4" class="edge">
<title>exciting&#45;&gt;the most exciting</title>
<path fill="none" stroke="black" d="M266.12,-72C312.99,-72 397.95,-72 460.56,-72"/>
<polygon fill="black" stroke="black" points="460.8,-75.5 470.8,-72 460.8,-68.5 460.8,-75.5"/>
<text text-anchor="middle" x="368.5" y="-75.8" font-family="Times-Roman" font-size="14.00">&#39;the most&#39; + adjective </text>
</g>
<!-- Irregular adjective -->
<g id="node7" class="node">
<title>Irregular adjective</title>
<path fill="#f5f5f5" stroke="black" d="M131,-171C131,-171 12,-171 12,-171 6,-171 0,-165 0,-159 0,-159 0,-147 0,-147 0,-141 6,-135 12,-135 12,-135 131,-135 131,-135 137,-135 143,-141 143,-147 143,-147 143,-159 143,-159 143,-165 137,-171 131,-171"/>
<text text-anchor="middle" x="71.5" y="-149.3" font-family="Times-Roman" font-size="14.00">Irregular adjective</text>
</g>
<!-- good -->
<g id="node8" class="node">
<title>good</title>
<path fill="#f5f5f5" stroke="black" d="M245.5,-198C245.5,-198 215.5,-198 215.5,-198 209.5,-198 203.5,-192 203.5,-186 203.5,-186 203.5,-174 203.5,-174 203.5,-168 209.5,-162 215.5,-162 215.5,-162 245.5,-162 245.5,-162 251.5,-162 257.5,-168 257.5,-174 257.5,-174 257.5,-186 257.5,-186 257.5,-192 251.5,-198 245.5,-198"/>
<text text-anchor="middle" x="230.5" y="-176.3" font-family="Times-Roman" font-size="14.00">good</text>
</g>
<!-- Irregular adjective&#45;&gt;good -->
<g id="edge5" class="edge">
<title>Irregular adjective&#45;&gt;good</title>
<path fill="none" stroke="black" d="M143.19,-165.16C160.65,-168.16 178.63,-171.25 193.63,-173.83"/>
<polygon fill="black" stroke="black" points="193.04,-177.28 203.49,-175.53 194.23,-170.38 193.04,-177.28"/>
<text text-anchor="middle" x="169" y="-173.8" font-family="Times-Roman" font-size="14.00">as</text>
</g>
<!-- bad -->
<g id="node9" class="node">
<title>bad</title>
<path fill="#f5f5f5" stroke="black" d="M245.5,-144C245.5,-144 215.5,-144 215.5,-144 209.5,-144 203.5,-138 203.5,-132 203.5,-132 203.5,-120 203.5,-120 203.5,-114 209.5,-108 215.5,-108 215.5,-108 245.5,-108 245.5,-108 251.5,-108 257.5,-114 257.5,-120 257.5,-120 257.5,-132 257.5,-132 257.5,-138 251.5,-144 245.5,-144"/>
<text text-anchor="middle" x="230.5" y="-122.3" font-family="Times-Roman" font-size="14.00">bad</text>
</g>
<!-- Irregular adjective&#45;&gt;bad -->
<g id="edge6" class="edge">
<title>Irregular adjective&#45;&gt;bad</title>
<path fill="none" stroke="black" d="M143.19,-140.84C160.65,-137.84 178.63,-134.75 193.63,-132.17"/>
<polygon fill="black" stroke="black" points="194.23,-135.62 203.49,-130.47 193.04,-128.72 194.23,-135.62"/>
<text text-anchor="middle" x="169" y="-140.8" font-family="Times-Roman" font-size="14.00">as</text>
</g>
<!-- best -->
<g id="node10" class="node">
<title>best</title>
<path fill="#f5f5f5" stroke="black" d="M554.5,-198C554.5,-198 524.5,-198 524.5,-198 518.5,-198 512.5,-192 512.5,-186 512.5,-186 512.5,-174 512.5,-174 512.5,-168 518.5,-162 524.5,-162 524.5,-162 554.5,-162 554.5,-162 560.5,-162 566.5,-168 566.5,-174 566.5,-174 566.5,-186 566.5,-186 566.5,-192 560.5,-198 554.5,-198"/>
<text text-anchor="middle" x="539.5" y="-176.3" font-family="Times-Roman" font-size="14.00">best</text>
</g>
<!-- good&#45;&gt;best -->
<g id="edge7" class="edge">
<title>good&#45;&gt;best</title>
<path fill="none" stroke="black" d="M257.67,-180C312.5,-180 439.52,-180 502.19,-180"/>
<polygon fill="black" stroke="black" points="502.39,-183.5 512.39,-180 502.39,-176.5 502.39,-183.5"/>
</g>
<!-- worst -->
<g id="node11" class="node">
<title>worst</title>
<path fill="#f5f5f5" stroke="black" d="M555,-144C555,-144 524,-144 524,-144 518,-144 512,-138 512,-132 512,-132 512,-120 512,-120 512,-114 518,-108 524,-108 524,-108 555,-108 555,-108 561,-108 567,-114 567,-120 567,-120 567,-132 567,-132 567,-138 561,-144 555,-144"/>
<text text-anchor="middle" x="539.5" y="-122.3" font-family="Times-Roman" font-size="14.00">worst</text>
</g>
<!-- bad&#45;&gt;worst -->
<g id="edge8" class="edge">
<title>bad&#45;&gt;worst</title>
<path fill="none" stroke="black" d="M257.67,-126C312.37,-126 438.88,-126 501.72,-126"/>
<polygon fill="black" stroke="black" points="501.96,-129.5 511.96,-126 501.96,-122.5 501.96,-129.5"/>
</g>
</g>
</svg>
