<?xml version="1.0" encoding="UTF-8" standalone="no"?>
<!DOCTYPE svg PUBLIC "-//W3C//DTD SVG 1.1//EN"
 "http://www.w3.org/Graphics/SVG/1.1/DTD/svg11.dtd">
<!-- Generated by graphviz version 2.44.0 (0)
 -->
<!-- Pages: 1 -->
<svg width="820pt" height="206pt"
 viewBox="0.00 0.00 820.25 206.00" xmlns="http://www.w3.org/2000/svg" xmlns:xlink="http://www.w3.org/1999/xlink">
<g id="graph0" class="graph" transform="scale(1 1) rotate(0) translate(4 202)">
<polygon fill="white" stroke="transparent" points="-4,4 -4,-202 816.25,-202 816.25,4 -4,4"/>
<!-- Short adjective -->
<g id="node1" class="node">
<title>Short adjective</title>
<ellipse fill="none" stroke="black" cx="92.94" cy="-72" rx="78.79" ry="18"/>
<text text-anchor="middle" x="92.94" y="-68.3" font-family="Times-Roman" font-size="14.00">Short adjective</text>
</g>
<!-- fast -->
<g id="node2" class="node">
<title>fast</title>
<ellipse fill="none" stroke="black" cx="302.88" cy="-72" rx="27.9" ry="18"/>
<text text-anchor="middle" x="302.88" y="-68.3" font-family="Times-Roman" font-size="14.00">fast</text>
</g>
<!-- Short adjective&#45;&gt;fast -->
<g id="edge1" class="edge">
<title>Short adjective&#45;&gt;fast</title>
<path fill="none" stroke="black" d="M171.67,-72C203.5,-72 238.85,-72 264.67,-72"/>
<polygon fill="black" stroke="black" points="264.77,-75.5 274.77,-72 264.77,-68.5 264.77,-75.5"/>
<text text-anchor="middle" x="211.88" y="-75.8" font-family="Times-Roman" font-size="14.00">as</text>
</g>
<!-- faster -->
<g id="node3" class="node">
<title>faster</title>
<ellipse fill="none" stroke="black" cx="621.86" cy="-72" rx="37.09" ry="18"/>
<text text-anchor="middle" x="621.86" y="-68.3" font-family="Times-Roman" font-size="14.00">faster</text>
</g>
<!-- fast&#45;&gt;faster -->
<g id="edge2" class="edge">
<title>fast&#45;&gt;faster</title>
<path fill="none" stroke="black" d="M330.9,-72C384.98,-72 507.05,-72 574.28,-72"/>
<polygon fill="black" stroke="black" points="574.58,-75.5 584.58,-72 574.58,-68.5 574.58,-75.5"/>
<text text-anchor="middle" x="449.37" y="-75.8" font-family="Times-Roman" font-size="14.00">adjective + &#39;&#45;er&#39;</text>
</g>
<!-- than -->
<g id="node12" class="node">
<title>than</title>
<ellipse fill="none" stroke="black" cx="781.05" cy="-44" rx="31.4" ry="18"/>
<text text-anchor="middle" x="781.05" y="-40.3" font-family="Times-Roman" font-size="14.00">than</text>
</g>
<!-- faster&#45;&gt;than -->
<g id="edge9" class="edge">
<title>faster&#45;&gt;than</title>
<path fill="none" stroke="black" d="M656.97,-65.92C681.65,-61.53 715.06,-55.58 740.84,-50.98"/>
<polygon fill="black" stroke="black" points="741.79,-54.37 751.02,-49.17 740.56,-47.48 741.79,-54.37"/>
</g>
<!-- Long adjective -->
<g id="node4" class="node">
<title>Long adjective</title>
<ellipse fill="none" stroke="black" cx="92.94" cy="-18" rx="76.09" ry="18"/>
<text text-anchor="middle" x="92.94" y="-14.3" font-family="Times-Roman" font-size="14.00">Long adjective</text>
</g>
<!-- comfortable -->
<g id="node5" class="node">
<title>comfortable</title>
<ellipse fill="none" stroke="black" cx="302.88" cy="-18" rx="64.99" ry="18"/>
<text text-anchor="middle" x="302.88" y="-14.3" font-family="Times-Roman" font-size="14.00">comfortable</text>
</g>
<!-- Long adjective&#45;&gt;comfortable -->
<g id="edge3" class="edge">
<title>Long adjective&#45;&gt;comfortable</title>
<path fill="none" stroke="black" d="M169.01,-18C188.04,-18 208.48,-18 227.48,-18"/>
<polygon fill="black" stroke="black" points="227.56,-21.5 237.56,-18 227.56,-14.5 227.56,-21.5"/>
<text text-anchor="middle" x="211.88" y="-21.8" font-family="Times-Roman" font-size="14.00">as</text>
</g>
<!-- more comfortable -->
<g id="node6" class="node">
<title>more comfortable</title>
<ellipse fill="none" stroke="black" cx="621.86" cy="-18" rx="90.98" ry="18"/>
<text text-anchor="middle" x="621.86" y="-14.3" font-family="Times-Roman" font-size="14.00">more comfortable</text>
</g>
<!-- comfortable&#45;&gt;more comfortable -->
<g id="edge4" class="edge">
<title>comfortable&#45;&gt;more comfortable</title>
<path fill="none" stroke="black" d="M368.02,-18C411.77,-18 470.61,-18 520.51,-18"/>
<polygon fill="black" stroke="black" points="520.69,-21.5 530.69,-18 520.69,-14.5 520.69,-21.5"/>
<text text-anchor="middle" x="449.37" y="-21.8" font-family="Times-Roman" font-size="14.00">&#39;more&#39; + adjective</text>
</g>
<!-- more comfortable&#45;&gt;than -->
<g id="edge10" class="edge">
<title>more comfortable&#45;&gt;than</title>
<path fill="none" stroke="black" d="M692.27,-29.48C708.81,-32.22 725.91,-35.04 740.57,-37.47"/>
<polygon fill="black" stroke="black" points="740.33,-40.98 750.77,-39.16 741.47,-34.07 740.33,-40.98"/>
</g>
<!-- Irregular adjective -->
<g id="node7" class="node">
<title>Irregular adjective</title>
<ellipse fill="none" stroke="black" cx="92.94" cy="-153" rx="92.88" ry="18"/>
<text text-anchor="middle" x="92.94" y="-149.3" font-family="Times-Roman" font-size="14.00">Irregular adjective</text>
</g>
<!-- good -->
<g id="node8" class="node">
<title>good</title>
<ellipse fill="none" stroke="black" cx="302.88" cy="-180" rx="33.29" ry="18"/>
<text text-anchor="middle" x="302.88" y="-176.3" font-family="Times-Roman" font-size="14.00">good</text>
</g>
<!-- Irregular adjective&#45;&gt;good -->
<g id="edge5" class="edge">
<title>Irregular adjective&#45;&gt;good</title>
<path fill="none" stroke="black" d="M170.48,-162.94C200.91,-166.89 234.72,-171.28 260.42,-174.62"/>
<polygon fill="black" stroke="black" points="260.19,-178.12 270.55,-175.93 261.09,-171.17 260.19,-178.12"/>
<text text-anchor="middle" x="211.88" y="-171.8" font-family="Times-Roman" font-size="14.00">as</text>
</g>
<!-- bad -->
<g id="node9" class="node">
<title>bad</title>
<ellipse fill="none" stroke="black" cx="302.88" cy="-126" rx="27.9" ry="18"/>
<text text-anchor="middle" x="302.88" y="-122.3" font-family="Times-Roman" font-size="14.00">bad</text>
</g>
<!-- Irregular adjective&#45;&gt;bad -->
<g id="edge6" class="edge">
<title>Irregular adjective&#45;&gt;bad</title>
<path fill="none" stroke="black" d="M170.48,-143.06C202.85,-138.86 239.03,-134.16 265.22,-130.76"/>
<polygon fill="black" stroke="black" points="265.98,-134.19 275.44,-129.43 265.07,-127.25 265.98,-134.19"/>
<text text-anchor="middle" x="211.88" y="-141.8" font-family="Times-Roman" font-size="14.00">as</text>
</g>
<!-- better -->
<g id="node10" class="node">
<title>better</title>
<ellipse fill="none" stroke="black" cx="621.86" cy="-180" rx="38.19" ry="18"/>
<text text-anchor="middle" x="621.86" y="-176.3" font-family="Times-Roman" font-size="14.00">better</text>
</g>
<!-- good&#45;&gt;better -->
<g id="edge7" class="edge">
<title>good&#45;&gt;better</title>
<path fill="none" stroke="black" d="M336.31,-180C392.48,-180 508.08,-180 573.33,-180"/>
<polygon fill="black" stroke="black" points="573.36,-183.5 583.36,-180 573.36,-176.5 573.36,-183.5"/>
</g>
<!-- worse -->
<g id="node11" class="node">
<title>worse</title>
<ellipse fill="none" stroke="black" cx="621.86" cy="-126" rx="37.89" ry="18"/>
<text text-anchor="middle" x="621.86" y="-122.3" font-family="Times-Roman" font-size="14.00">worse</text>
</g>
<!-- bad&#45;&gt;worse -->
<g id="edge8" class="edge">
<title>bad&#45;&gt;worse</title>
<path fill="none" stroke="black" d="M330.9,-126C384.84,-126 506.41,-126 573.75,-126"/>
<polygon fill="black" stroke="black" points="574.07,-129.5 584.07,-126 574.07,-122.5 574.07,-129.5"/>
</g>
</g>
</svg>
