<?xml version="1.0" encoding="UTF-8" standalone="no"?>
<!DOCTYPE svg PUBLIC "-//W3C//DTD SVG 1.1//EN"
 "http://www.w3.org/Graphics/SVG/1.1/DTD/svg11.dtd">
<!-- Generated by graphviz version 2.44.0 (0)
 -->
<!-- Pages: 1 -->
<svg width="721pt" height="206pt"
 viewBox="0.00 0.00 721.26 206.00" xmlns="http://www.w3.org/2000/svg" xmlns:xlink="http://www.w3.org/1999/xlink">
<g id="graph0" class="graph" transform="scale(1 1) rotate(0) translate(4 202)">
<polygon fill="white" stroke="transparent" points="-4,4 -4,-202 717.26,-202 717.26,4 -4,4"/>
<!-- Short adjective -->
<g id="node1" class="node">
<title>Short adjective</title>
<ellipse fill="none" stroke="black" cx="92.94" cy="-18" rx="78.79" ry="18"/>
<text text-anchor="middle" x="92.94" y="-14.3" font-family="Times-Roman" font-size="14.00">Short adjective</text>
</g>
<!-- great -->
<g id="node2" class="node">
<title>great</title>
<ellipse fill="none" stroke="black" cx="284.03" cy="-18" rx="34.39" ry="18"/>
<text text-anchor="middle" x="284.03" y="-14.3" font-family="Times-Roman" font-size="14.00">great</text>
</g>
<!-- Short adjective&#45;&gt;great -->
<g id="edge1" class="edge">
<title>Short adjective&#45;&gt;great</title>
<path fill="none" stroke="black" d="M171.67,-18C194.74,-18 219.2,-18 239.29,-18"/>
<polygon fill="black" stroke="black" points="239.38,-21.5 249.38,-18 239.37,-14.5 239.38,-21.5"/>
<text text-anchor="middle" x="211.88" y="-21.8" font-family="Times-Roman" font-size="14.00">as</text>
</g>
<!-- the greatest -->
<g id="node3" class="node">
<title>the greatest</title>
<ellipse fill="none" stroke="black" cx="624.22" cy="-18" rx="65.79" ry="18"/>
<text text-anchor="middle" x="624.22" y="-14.3" font-family="Times-Roman" font-size="14.00">the greatest</text>
</g>
<!-- great&#45;&gt;the greatest -->
<g id="edge2" class="edge">
<title>great&#45;&gt;the greatest</title>
<path fill="none" stroke="black" d="M318.69,-18C371.8,-18 476.34,-18 547.98,-18"/>
<polygon fill="black" stroke="black" points="548.3,-21.5 558.3,-18 548.3,-14.5 548.3,-21.5"/>
<text text-anchor="middle" x="432.68" y="-21.8" font-family="Times-Roman" font-size="14.00">&#39;the&#39; + adjective + &#39;&#45;est&#39;</text>
</g>
<!-- Long adjective -->
<g id="node4" class="node">
<title>Long adjective</title>
<ellipse fill="none" stroke="black" cx="92.94" cy="-72" rx="76.09" ry="18"/>
<text text-anchor="middle" x="92.94" y="-68.3" font-family="Times-Roman" font-size="14.00">Long adjective</text>
</g>
<!-- exciting -->
<g id="node5" class="node">
<title>exciting</title>
<ellipse fill="none" stroke="black" cx="284.03" cy="-72" rx="46.29" ry="18"/>
<text text-anchor="middle" x="284.03" y="-68.3" font-family="Times-Roman" font-size="14.00">exciting</text>
</g>
<!-- Long adjective&#45;&gt;exciting -->
<g id="edge3" class="edge">
<title>Long adjective&#45;&gt;exciting</title>
<path fill="none" stroke="black" d="M169.22,-72C188.68,-72 209.28,-72 227.52,-72"/>
<polygon fill="black" stroke="black" points="227.68,-75.5 237.68,-72 227.68,-68.5 227.68,-75.5"/>
<text text-anchor="middle" x="211.88" y="-75.8" font-family="Times-Roman" font-size="14.00">as</text>
</g>
<!-- the most exciting -->
<g id="node6" class="node">
<title>the most exciting</title>
<ellipse fill="none" stroke="black" cx="624.22" cy="-72" rx="89.08" ry="18"/>
<text text-anchor="middle" x="624.22" y="-68.3" font-family="Times-Roman" font-size="14.00">the most exciting</text>
</g>
<!-- exciting&#45;&gt;the most exciting -->
<g id="edge4" class="edge">
<title>exciting&#45;&gt;the most exciting</title>
<path fill="none" stroke="black" d="M330.29,-72C379.75,-72 460.5,-72 524.7,-72"/>
<polygon fill="black" stroke="black" points="524.86,-75.5 534.86,-72 524.86,-68.5 524.86,-75.5"/>
<text text-anchor="middle" x="432.68" y="-75.8" font-family="Times-Roman" font-size="14.00">&#39;the most&#39; + adjective </text>
</g>
<!-- Irregular adjective -->
<g id="node7" class="node">
<title>Irregular adjective</title>
<ellipse fill="none" stroke="black" cx="92.94" cy="-153" rx="92.88" ry="18"/>
<text text-anchor="middle" x="92.94" y="-149.3" font-family="Times-Roman" font-size="14.00">Irregular adjective</text>
</g>
<!-- good -->
<g id="node8" class="node">
<title>good</title>
<ellipse fill="none" stroke="black" cx="284.03" cy="-180" rx="33.29" ry="18"/>
<text text-anchor="middle" x="284.03" y="-176.3" font-family="Times-Roman" font-size="14.00">good</text>
</g>
<!-- Irregular adjective&#45;&gt;good -->
<g id="edge5" class="edge">
<title>Irregular adjective&#45;&gt;good</title>
<path fill="none" stroke="black" d="M168.13,-163.59C193.03,-167.15 219.9,-170.99 241.39,-174.05"/>
<polygon fill="black" stroke="black" points="241.09,-177.55 251.48,-175.5 242.08,-170.62 241.09,-177.55"/>
<text text-anchor="middle" x="211.88" y="-173.8" font-family="Times-Roman" font-size="14.00">as</text>
</g>
<!-- bad -->
<g id="node9" class="node">
<title>bad</title>
<ellipse fill="none" stroke="black" cx="284.03" cy="-126" rx="27.9" ry="18"/>
<text text-anchor="middle" x="284.03" y="-122.3" font-family="Times-Roman" font-size="14.00">bad</text>
</g>
<!-- Irregular adjective&#45;&gt;bad -->
<g id="edge6" class="edge">
<title>Irregular adjective&#45;&gt;bad</title>
<path fill="none" stroke="black" d="M168.13,-142.41C195.11,-138.55 224.4,-134.37 246.66,-131.19"/>
<polygon fill="black" stroke="black" points="247.26,-134.64 256.67,-129.76 246.27,-127.71 247.26,-134.64"/>
<text text-anchor="middle" x="211.88" y="-140.8" font-family="Times-Roman" font-size="14.00">as</text>
</g>
<!-- best -->
<g id="node10" class="node">
<title>best</title>
<ellipse fill="none" stroke="black" cx="624.22" cy="-180" rx="30.59" ry="18"/>
<text text-anchor="middle" x="624.22" y="-176.3" font-family="Times-Roman" font-size="14.00">best</text>
</g>
<!-- good&#45;&gt;best -->
<g id="edge7" class="edge">
<title>good&#45;&gt;best</title>
<path fill="none" stroke="black" d="M317.46,-180C379.6,-180 515.3,-180 583.06,-180"/>
<polygon fill="black" stroke="black" points="583.33,-183.5 593.33,-180 583.33,-176.5 583.33,-183.5"/>
</g>
<!-- worst -->
<g id="node11" class="node">
<title>worst</title>
<ellipse fill="none" stroke="black" cx="624.22" cy="-126" rx="36" ry="18"/>
<text text-anchor="middle" x="624.22" y="-122.3" font-family="Times-Roman" font-size="14.00">worst</text>
</g>
<!-- bad&#45;&gt;worst -->
<g id="edge8" class="edge">
<title>bad&#45;&gt;worst</title>
<path fill="none" stroke="black" d="M312.13,-126C370.17,-126 506.97,-126 578.25,-126"/>
<polygon fill="black" stroke="black" points="578.28,-129.5 588.28,-126 578.28,-122.5 578.28,-129.5"/>
</g>
</g>
</svg>
