<?xml version="1.0" encoding="UTF-8" standalone="no"?>
<!DOCTYPE svg PUBLIC "-//W3C//DTD SVG 1.1//EN"
 "http://www.w3.org/Graphics/SVG/1.1/DTD/svg11.dtd">
<!-- Generated by graphviz version 2.44.0 (0)
 -->
<!-- Pages: 1 -->
<svg width="537pt" height="591pt"
 viewBox="0.00 0.00 537.00 591.00" xmlns="http://www.w3.org/2000/svg" xmlns:xlink="http://www.w3.org/1999/xlink">
<g id="graph0" class="graph" transform="scale(1 1) rotate(0) translate(4 587)">
<polygon fill="white" stroke="transparent" points="-4,4 -4,-587 533,-587 533,4 -4,4"/>
<!-- Which&#39;s the -->
<g id="node1" class="node">
<title>Which&#39;s the</title>
<path fill="#f5f5f5" stroke="black" d="M86,-198C86,-198 12,-198 12,-198 6,-198 0,-192 0,-186 0,-186 0,-174 0,-174 0,-168 6,-162 12,-162 12,-162 86,-162 86,-162 92,-162 98,-168 98,-174 98,-174 98,-186 98,-186 98,-192 92,-198 86,-198"/>
<text text-anchor="middle" x="49" y="-176.3" font-family="Times-Roman" font-size="14.00">Which&#39;s the</text>
</g>
<!-- fastest -->
<g id="node2" class="node">
<title>fastest</title>
<path fill="#f5f5f5" stroke="black" d="M223.5,-360C223.5,-360 183.5,-360 183.5,-360 177.5,-360 171.5,-354 171.5,-348 171.5,-348 171.5,-336 171.5,-336 171.5,-330 177.5,-324 183.5,-324 183.5,-324 223.5,-324 223.5,-324 229.5,-324 235.5,-330 235.5,-336 235.5,-336 235.5,-348 235.5,-348 235.5,-354 229.5,-360 223.5,-360"/>
<text text-anchor="middle" x="203.5" y="-338.3" font-family="Times-Roman" font-size="14.00">fastest</text>
</g>
<!-- Which&#39;s the&#45;&gt;fastest -->
<g id="edge1" class="edge">
<title>Which&#39;s the&#45;&gt;fastest</title>
<path fill="none" stroke="black" d="M56.94,-198.31C68.66,-226.97 94.98,-282.48 134,-315 142.03,-321.69 151.91,-326.86 161.65,-330.8"/>
<polygon fill="black" stroke="black" points="160.67,-334.17 171.27,-334.34 163.09,-327.6 160.67,-334.17"/>
</g>
<!-- slowest -->
<g id="node4" class="node">
<title>slowest</title>
<path fill="#f5f5f5" stroke="black" d="M225.5,-306C225.5,-306 181.5,-306 181.5,-306 175.5,-306 169.5,-300 169.5,-294 169.5,-294 169.5,-282 169.5,-282 169.5,-276 175.5,-270 181.5,-270 181.5,-270 225.5,-270 225.5,-270 231.5,-270 237.5,-276 237.5,-282 237.5,-282 237.5,-294 237.5,-294 237.5,-300 231.5,-306 225.5,-306"/>
<text text-anchor="middle" x="203.5" y="-284.3" font-family="Times-Roman" font-size="14.00">slowest</text>
</g>
<!-- Which&#39;s the&#45;&gt;slowest -->
<g id="edge3" class="edge">
<title>Which&#39;s the&#45;&gt;slowest</title>
<path fill="none" stroke="black" d="M65.08,-198.23C80.74,-216.21 106.73,-243.47 134,-261 141.9,-266.08 150.9,-270.46 159.72,-274.14"/>
<polygon fill="black" stroke="black" points="158.58,-277.45 169.17,-277.84 161.14,-270.93 158.58,-277.45"/>
</g>
<!-- most expensive -->
<g id="node6" class="node">
<title>most expensive</title>
<path fill="#f5f5f5" stroke="black" d="M254.5,-198C254.5,-198 152.5,-198 152.5,-198 146.5,-198 140.5,-192 140.5,-186 140.5,-186 140.5,-174 140.5,-174 140.5,-168 146.5,-162 152.5,-162 152.5,-162 254.5,-162 254.5,-162 260.5,-162 266.5,-168 266.5,-174 266.5,-174 266.5,-186 266.5,-186 266.5,-192 260.5,-198 254.5,-198"/>
<text text-anchor="middle" x="203.5" y="-176.3" font-family="Times-Roman" font-size="14.00">most expensive</text>
</g>
<!-- Which&#39;s the&#45;&gt;most expensive -->
<g id="edge5" class="edge">
<title>Which&#39;s the&#45;&gt;most expensive</title>
<path fill="none" stroke="black" d="M98.25,-180C108.37,-180 119.25,-180 130.03,-180"/>
<polygon fill="black" stroke="black" points="130.31,-183.5 140.31,-180 130.31,-176.5 130.31,-183.5"/>
</g>
<!-- cheapest -->
<g id="node7" class="node">
<title>cheapest</title>
<path fill="#f5f5f5" stroke="black" d="M231.5,-144C231.5,-144 175.5,-144 175.5,-144 169.5,-144 163.5,-138 163.5,-132 163.5,-132 163.5,-120 163.5,-120 163.5,-114 169.5,-108 175.5,-108 175.5,-108 231.5,-108 231.5,-108 237.5,-108 243.5,-114 243.5,-120 243.5,-120 243.5,-132 243.5,-132 243.5,-138 237.5,-144 231.5,-144"/>
<text text-anchor="middle" x="203.5" y="-122.3" font-family="Times-Roman" font-size="14.00">cheapest</text>
</g>
<!-- Which&#39;s the&#45;&gt;cheapest -->
<g id="edge6" class="edge">
<title>Which&#39;s the&#45;&gt;cheapest</title>
<path fill="none" stroke="black" d="M98.25,-162.91C115.92,-156.66 135.92,-149.58 153.65,-143.3"/>
<polygon fill="black" stroke="black" points="154.97,-146.54 163.23,-139.91 152.63,-139.95 154.97,-146.54"/>
</g>
<!-- most comfortable -->
<g id="node9" class="node">
<title>most comfortable</title>
<path fill="#f5f5f5" stroke="black" d="M261,-252C261,-252 146,-252 146,-252 140,-252 134,-246 134,-240 134,-240 134,-228 134,-228 134,-222 140,-216 146,-216 146,-216 261,-216 261,-216 267,-216 273,-222 273,-228 273,-228 273,-240 273,-240 273,-246 267,-252 261,-252"/>
<text text-anchor="middle" x="203.5" y="-230.3" font-family="Times-Roman" font-size="14.00">most comfortable</text>
</g>
<!-- Which&#39;s the&#45;&gt;most comfortable -->
<g id="edge9" class="edge">
<title>Which&#39;s the&#45;&gt;most comfortable</title>
<path fill="none" stroke="black" d="M98.25,-197.09C112.01,-201.96 127.17,-207.33 141.58,-212.43"/>
<polygon fill="black" stroke="black" points="140.81,-215.87 151.4,-215.91 143.14,-209.27 140.81,-215.87"/>
</g>
<!-- best -->
<g id="node10" class="node">
<title>best</title>
<path fill="#f5f5f5" stroke="black" d="M218.5,-90C218.5,-90 188.5,-90 188.5,-90 182.5,-90 176.5,-84 176.5,-78 176.5,-78 176.5,-66 176.5,-66 176.5,-60 182.5,-54 188.5,-54 188.5,-54 218.5,-54 218.5,-54 224.5,-54 230.5,-60 230.5,-66 230.5,-66 230.5,-78 230.5,-78 230.5,-84 224.5,-90 218.5,-90"/>
<text text-anchor="middle" x="203.5" y="-68.3" font-family="Times-Roman" font-size="14.00">best</text>
</g>
<!-- Which&#39;s the&#45;&gt;best -->
<g id="edge11" class="edge">
<title>Which&#39;s the&#45;&gt;best</title>
<path fill="none" stroke="black" d="M65.08,-161.77C80.74,-143.79 106.73,-116.53 134,-99 143.96,-92.6 155.68,-87.29 166.59,-83.13"/>
<polygon fill="black" stroke="black" points="168.08,-86.31 176.3,-79.63 165.7,-79.73 168.08,-86.31"/>
</g>
<!-- worst -->
<g id="node12" class="node">
<title>worst</title>
<path fill="#f5f5f5" stroke="black" d="M219,-36C219,-36 188,-36 188,-36 182,-36 176,-30 176,-24 176,-24 176,-12 176,-12 176,-6 182,0 188,0 188,0 219,0 219,0 225,0 231,-6 231,-12 231,-12 231,-24 231,-24 231,-30 225,-36 219,-36"/>
<text text-anchor="middle" x="203.5" y="-14.3" font-family="Times-Roman" font-size="14.00">worst</text>
</g>
<!-- Which&#39;s the&#45;&gt;worst -->
<g id="edge13" class="edge">
<title>Which&#39;s the&#45;&gt;worst</title>
<path fill="none" stroke="black" d="M56.94,-161.69C68.66,-133.03 94.98,-77.52 134,-45 143.27,-37.28 155.01,-31.58 166.14,-27.46"/>
<polygon fill="black" stroke="black" points="167.33,-30.75 175.69,-24.24 165.1,-24.12 167.33,-30.75"/>
</g>
<!-- way to travel? -->
<g id="node3" class="node">
<title>way to travel?</title>
<path fill="#f5f5f5" stroke="black" d="M464,-360C464,-360 374,-360 374,-360 368,-360 362,-354 362,-348 362,-348 362,-336 362,-336 362,-330 368,-324 374,-324 374,-324 464,-324 464,-324 470,-324 476,-330 476,-336 476,-336 476,-348 476,-348 476,-354 470,-360 464,-360"/>
<text text-anchor="middle" x="419" y="-338.3" font-family="Times-Roman" font-size="14.00">way to travel?</text>
</g>
<!-- fastest&#45;&gt;way to travel? -->
<g id="edge2" class="edge">
<title>fastest&#45;&gt;way to travel?</title>
<path fill="none" stroke="black" d="M235.54,-342C265.8,-342 312.78,-342 351.48,-342"/>
<polygon fill="black" stroke="black" points="351.64,-345.5 361.64,-342 351.64,-338.5 351.64,-345.5"/>
</g>
<!-- way to get there? -->
<g id="node5" class="node">
<title>way to get there?</title>
<path fill="#f5f5f5" stroke="black" d="M475.5,-279C475.5,-279 362.5,-279 362.5,-279 356.5,-279 350.5,-273 350.5,-267 350.5,-267 350.5,-255 350.5,-255 350.5,-249 356.5,-243 362.5,-243 362.5,-243 475.5,-243 475.5,-243 481.5,-243 487.5,-249 487.5,-255 487.5,-255 487.5,-267 487.5,-267 487.5,-273 481.5,-279 475.5,-279"/>
<text text-anchor="middle" x="419" y="-257.3" font-family="Times-Roman" font-size="14.00">way to get there?</text>
</g>
<!-- slowest&#45;&gt;way to get there? -->
<g id="edge4" class="edge">
<title>slowest&#45;&gt;way to get there?</title>
<path fill="none" stroke="black" d="M237.86,-283.78C265.19,-280.33 304.95,-275.3 340.17,-270.84"/>
<polygon fill="black" stroke="black" points="340.97,-274.27 350.45,-269.54 340.09,-267.33 340.97,-274.27"/>
</g>
<!-- form to transport? -->
<g id="node8" class="node">
<title>form to transport?</title>
<path fill="#f5f5f5" stroke="black" d="M478.5,-171C478.5,-171 359.5,-171 359.5,-171 353.5,-171 347.5,-165 347.5,-159 347.5,-159 347.5,-147 347.5,-147 347.5,-141 353.5,-135 359.5,-135 359.5,-135 478.5,-135 478.5,-135 484.5,-135 490.5,-141 490.5,-147 490.5,-147 490.5,-159 490.5,-159 490.5,-165 484.5,-171 478.5,-171"/>
<text text-anchor="middle" x="419" y="-149.3" font-family="Times-Roman" font-size="14.00">form to transport?</text>
</g>
<!-- most expensive&#45;&gt;form to transport? -->
<g id="edge7" class="edge">
<title>most expensive&#45;&gt;form to transport?</title>
<path fill="none" stroke="black" d="M266.54,-172.15C288.53,-169.37 313.6,-166.2 336.93,-163.25"/>
<polygon fill="black" stroke="black" points="337.68,-166.69 347.16,-161.96 336.8,-159.74 337.68,-166.69"/>
</g>
<!-- cheapest&#45;&gt;form to transport? -->
<g id="edge8" class="edge">
<title>cheapest&#45;&gt;form to transport?</title>
<path fill="none" stroke="black" d="M243.66,-130.95C269.73,-134.25 304.94,-138.7 336.89,-142.74"/>
<polygon fill="black" stroke="black" points="336.77,-146.26 347.13,-144.04 337.65,-139.31 336.77,-146.26"/>
</g>
<!-- most comfortable&#45;&gt;way to get there? -->
<g id="edge10" class="edge">
<title>most comfortable&#45;&gt;way to get there?</title>
<path fill="none" stroke="black" d="M273.23,-242.69C294.69,-245.41 318.5,-248.42 340.52,-251.2"/>
<polygon fill="black" stroke="black" points="340.14,-254.68 350.5,-252.46 341.01,-247.74 340.14,-254.68"/>
</g>
<!-- way to get to Ankara? -->
<g id="node11" class="node">
<title>way to get to Ankara?</title>
<path fill="#f5f5f5" stroke="black" d="M491,-90C491,-90 347,-90 347,-90 341,-90 335,-84 335,-78 335,-78 335,-66 335,-66 335,-60 341,-54 347,-54 347,-54 491,-54 491,-54 497,-54 503,-60 503,-66 503,-66 503,-78 503,-78 503,-84 497,-90 491,-90"/>
<text text-anchor="middle" x="419" y="-68.3" font-family="Times-Roman" font-size="14.00">way to get to Ankara?</text>
</g>
<!-- best&#45;&gt;way to get to Ankara? -->
<g id="edge12" class="edge">
<title>best&#45;&gt;way to get to Ankara?</title>
<path fill="none" stroke="black" d="M230.68,-72C254.29,-72 290.48,-72 324.78,-72"/>
<polygon fill="black" stroke="black" points="324.86,-75.5 334.86,-72 324.86,-68.5 324.86,-75.5"/>
</g>
<!-- restaurant in your town? -->
<g id="node13" class="node">
<title>restaurant in your town?</title>
<path fill="#f5f5f5" stroke="black" d="M501,-36C501,-36 337,-36 337,-36 331,-36 325,-30 325,-24 325,-24 325,-12 325,-12 325,-6 331,0 337,0 337,0 501,0 501,0 507,0 513,-6 513,-12 513,-12 513,-24 513,-24 513,-30 507,-36 501,-36"/>
<text text-anchor="middle" x="419" y="-14.3" font-family="Times-Roman" font-size="14.00">restaurant in your town?</text>
</g>
<!-- worst&#45;&gt;restaurant in your town? -->
<g id="edge14" class="edge">
<title>worst&#45;&gt;restaurant in your town?</title>
<path fill="none" stroke="black" d="M231.11,-18C252.39,-18 283.69,-18 314.61,-18"/>
<polygon fill="black" stroke="black" points="314.62,-21.5 324.62,-18 314.62,-14.5 314.62,-21.5"/>
</g>
<!-- What&#39;s the -->
<g id="node14" class="node">
<title>What&#39;s the</title>
<path fill="#f5f5f5" stroke="black" d="M82.5,-461C82.5,-461 15.5,-461 15.5,-461 9.5,-461 3.5,-455 3.5,-449 3.5,-449 3.5,-437 3.5,-437 3.5,-431 9.5,-425 15.5,-425 15.5,-425 82.5,-425 82.5,-425 88.5,-425 94.5,-431 94.5,-437 94.5,-437 94.5,-449 94.5,-449 94.5,-455 88.5,-461 82.5,-461"/>
<text text-anchor="middle" x="49" y="-439.3" font-family="Times-Roman" font-size="14.00">What&#39;s the</text>
</g>
<!-- longest -->
<g id="node15" class="node">
<title>longest</title>
<path fill="#f5f5f5" stroke="black" d="M225.5,-468C225.5,-468 181.5,-468 181.5,-468 175.5,-468 169.5,-462 169.5,-456 169.5,-456 169.5,-444 169.5,-444 169.5,-438 175.5,-432 181.5,-432 181.5,-432 225.5,-432 225.5,-432 231.5,-432 237.5,-438 237.5,-444 237.5,-444 237.5,-456 237.5,-456 237.5,-462 231.5,-468 225.5,-468"/>
<text text-anchor="middle" x="203.5" y="-446.3" font-family="Times-Roman" font-size="14.00">longest</text>
</g>
<!-- What&#39;s the&#45;&gt;longest -->
<g id="edge15" class="edge">
<title>What&#39;s the&#45;&gt;longest</title>
<path fill="none" stroke="black" d="M94.52,-445.04C114.88,-445.98 138.92,-447.08 159.14,-448.01"/>
<polygon fill="black" stroke="black" points="159.18,-451.52 169.33,-448.48 159.5,-444.52 159.18,-451.52"/>
</g>
<!-- most difficult -->
<g id="node17" class="node">
<title>most difficult</title>
<path fill="#f5f5f5" stroke="black" d="M245,-414C245,-414 162,-414 162,-414 156,-414 150,-408 150,-402 150,-402 150,-390 150,-390 150,-384 156,-378 162,-378 162,-378 245,-378 245,-378 251,-378 257,-384 257,-390 257,-390 257,-402 257,-402 257,-408 251,-414 245,-414"/>
<text text-anchor="middle" x="203.5" y="-392.3" font-family="Times-Roman" font-size="14.00">most difficult</text>
</g>
<!-- What&#39;s the&#45;&gt;most difficult -->
<g id="edge17" class="edge">
<title>What&#39;s the&#45;&gt;most difficult</title>
<path fill="none" stroke="black" d="M94.52,-429.28C108.73,-424.9 124.72,-419.97 139.96,-415.27"/>
<polygon fill="black" stroke="black" points="141.32,-418.52 149.84,-412.23 139.25,-411.83 141.32,-418.52"/>
</g>
<!-- word in this sentence? -->
<g id="node16" class="node">
<title>word in this sentence?</title>
<path fill="#f5f5f5" stroke="black" d="M493.5,-468C493.5,-468 344.5,-468 344.5,-468 338.5,-468 332.5,-462 332.5,-456 332.5,-456 332.5,-444 332.5,-444 332.5,-438 338.5,-432 344.5,-432 344.5,-432 493.5,-432 493.5,-432 499.5,-432 505.5,-438 505.5,-444 505.5,-444 505.5,-456 505.5,-456 505.5,-462 499.5,-468 493.5,-468"/>
<text text-anchor="middle" x="419" y="-446.3" font-family="Times-Roman" font-size="14.00">word in this sentence?</text>
</g>
<!-- longest&#45;&gt;word in this sentence? -->
<g id="edge16" class="edge">
<title>longest&#45;&gt;word in this sentence?</title>
<path fill="none" stroke="black" d="M237.86,-450C260.62,-450 292,-450 322.21,-450"/>
<polygon fill="black" stroke="black" points="322.39,-453.5 332.39,-450 322.39,-446.5 322.39,-453.5"/>
</g>
<!-- grammar in English? -->
<g id="node18" class="node">
<title>grammar in English?</title>
<path fill="#f5f5f5" stroke="black" d="M487.5,-414C487.5,-414 350.5,-414 350.5,-414 344.5,-414 338.5,-408 338.5,-402 338.5,-402 338.5,-390 338.5,-390 338.5,-384 344.5,-378 350.5,-378 350.5,-378 487.5,-378 487.5,-378 493.5,-378 499.5,-384 499.5,-390 499.5,-390 499.5,-402 499.5,-402 499.5,-408 493.5,-414 487.5,-414"/>
<text text-anchor="middle" x="419" y="-392.3" font-family="Times-Roman" font-size="14.00">grammar in English?</text>
</g>
<!-- most difficult&#45;&gt;grammar in English? -->
<g id="edge18" class="edge">
<title>most difficult&#45;&gt;grammar in English?</title>
<path fill="none" stroke="black" d="M257,-396C278.39,-396 303.74,-396 327.92,-396"/>
<polygon fill="black" stroke="black" points="328.2,-399.5 338.2,-396 328.2,-392.5 328.2,-399.5"/>
</g>
<!-- Who&#39;s the -->
<g id="node19" class="node">
<title>Who&#39;s the</title>
<path fill="#f5f5f5" stroke="black" d="M80,-542C80,-542 18,-542 18,-542 12,-542 6,-536 6,-530 6,-530 6,-518 6,-518 6,-512 12,-506 18,-506 18,-506 80,-506 80,-506 86,-506 92,-512 92,-518 92,-518 92,-530 92,-530 92,-536 86,-542 80,-542"/>
<text text-anchor="middle" x="49" y="-520.3" font-family="Times-Roman" font-size="14.00">Who&#39;s the</text>
</g>
<!-- happiest -->
<g id="node20" class="node">
<title>happiest</title>
<path fill="#f5f5f5" stroke="black" d="M230,-583C230,-583 177,-583 177,-583 171,-583 165,-577 165,-571 165,-571 165,-559 165,-559 165,-553 171,-547 177,-547 177,-547 230,-547 230,-547 236,-547 242,-553 242,-559 242,-559 242,-571 242,-571 242,-577 236,-583 230,-583"/>
<text text-anchor="middle" x="203.5" y="-561.3" font-family="Times-Roman" font-size="14.00">happiest</text>
</g>
<!-- Who&#39;s the&#45;&gt;happiest -->
<g id="edge19" class="edge">
<title>Who&#39;s the&#45;&gt;happiest</title>
<path fill="none" stroke="black" d="M92.07,-535.31C111.61,-540.56 134.92,-546.83 155.07,-552.25"/>
<polygon fill="black" stroke="black" points="154.42,-555.7 164.98,-554.91 156.24,-548.94 154.42,-555.7"/>
</g>
<!-- friendliest -->
<g id="node22" class="node">
<title>friendliest</title>
<path fill="#f5f5f5" stroke="black" d="M234.5,-529C234.5,-529 172.5,-529 172.5,-529 166.5,-529 160.5,-523 160.5,-517 160.5,-517 160.5,-505 160.5,-505 160.5,-499 166.5,-493 172.5,-493 172.5,-493 234.5,-493 234.5,-493 240.5,-493 246.5,-499 246.5,-505 246.5,-505 246.5,-517 246.5,-517 246.5,-523 240.5,-529 234.5,-529"/>
<text text-anchor="middle" x="203.5" y="-507.3" font-family="Times-Roman" font-size="14.00">friendliest</text>
</g>
<!-- Who&#39;s the&#45;&gt;friendliest -->
<g id="edge21" class="edge">
<title>Who&#39;s the&#45;&gt;friendliest</title>
<path fill="none" stroke="black" d="M92.07,-520.41C110.09,-518.88 131.3,-517.07 150.3,-515.45"/>
<polygon fill="black" stroke="black" points="150.63,-518.93 160.3,-514.6 150.04,-511.96 150.63,-518.93"/>
</g>
<!-- person in your family? -->
<g id="node21" class="node">
<title>person in your family?</title>
<path fill="#f5f5f5" stroke="black" d="M493.5,-583C493.5,-583 344.5,-583 344.5,-583 338.5,-583 332.5,-577 332.5,-571 332.5,-571 332.5,-559 332.5,-559 332.5,-553 338.5,-547 344.5,-547 344.5,-547 493.5,-547 493.5,-547 499.5,-547 505.5,-553 505.5,-559 505.5,-559 505.5,-571 505.5,-571 505.5,-577 499.5,-583 493.5,-583"/>
<text text-anchor="middle" x="419" y="-561.3" font-family="Times-Roman" font-size="14.00">person in your family?</text>
</g>
<!-- happiest&#45;&gt;person in your family? -->
<g id="edge20" class="edge">
<title>happiest&#45;&gt;person in your family?</title>
<path fill="none" stroke="black" d="M242.18,-565C264.46,-565 293.78,-565 322.08,-565"/>
<polygon fill="black" stroke="black" points="322.44,-568.5 332.44,-565 322.44,-561.5 322.44,-568.5"/>
</g>
<!-- person in your English class? -->
<g id="node23" class="node">
<title>person in your English class?</title>
<path fill="#f5f5f5" stroke="black" d="M517,-529C517,-529 321,-529 321,-529 315,-529 309,-523 309,-517 309,-517 309,-505 309,-505 309,-499 315,-493 321,-493 321,-493 517,-493 517,-493 523,-493 529,-499 529,-505 529,-505 529,-517 529,-517 529,-523 523,-529 517,-529"/>
<text text-anchor="middle" x="419" y="-507.3" font-family="Times-Roman" font-size="14.00">person in your English class?</text>
</g>
<!-- friendliest&#45;&gt;person in your English class? -->
<g id="edge22" class="edge">
<title>friendliest&#45;&gt;person in your English class?</title>
<path fill="none" stroke="black" d="M246.68,-511C261.93,-511 279.99,-511 298.57,-511"/>
<polygon fill="black" stroke="black" points="298.62,-514.5 308.62,-511 298.62,-507.5 298.62,-514.5"/>
</g>
</g>
</svg>
