<?xml version="1.0" encoding="UTF-8" standalone="no"?>
<!DOCTYPE svg PUBLIC "-//W3C//DTD SVG 1.1//EN"
 "http://www.w3.org/Graphics/SVG/1.1/DTD/svg11.dtd">
<!-- Generated by graphviz version 2.44.0 (0)
 -->
<!-- Pages: 1 -->
<svg width="374pt" height="340pt"
 viewBox="0.00 0.00 373.50 340.00" xmlns="http://www.w3.org/2000/svg" xmlns:xlink="http://www.w3.org/1999/xlink">
<g id="graph0" class="graph" transform="scale(1 1) rotate(0) translate(4 336)">
<polygon fill="white" stroke="transparent" points="-4,4 -4,-336 369.5,-336 369.5,4 -4,4"/>
<!-- bus station -->
<g id="node1" class="node">
<title>bus station</title>
<path fill="#f5f5f5" stroke="black" d="M162,-252C162,-252 92,-252 92,-252 86,-252 80,-246 80,-240 80,-240 80,-228 80,-228 80,-222 86,-216 92,-216 92,-216 162,-216 162,-216 168,-216 174,-222 174,-228 174,-228 174,-240 174,-240 174,-246 168,-252 162,-252"/>
<text text-anchor="middle" x="127" y="-230.3" font-family="Times-Roman" font-size="14.00">bus station</text>
</g>
<!-- theatre -->
<g id="node2" class="node">
<title>theatre</title>
<path fill="#f5f5f5" stroke="black" d="M214,-308C214,-308 172,-308 172,-308 166,-308 160,-302 160,-296 160,-296 160,-284 160,-284 160,-278 166,-272 172,-272 172,-272 214,-272 214,-272 220,-272 226,-278 226,-284 226,-284 226,-296 226,-296 226,-302 220,-308 214,-308"/>
<text text-anchor="middle" x="193" y="-286.3" font-family="Times-Roman" font-size="14.00">theatre</text>
</g>
<!-- car park -->
<g id="node3" class="node">
<title>car park</title>
<path fill="#f5f5f5" stroke="black" d="M126,-92C126,-92 76,-92 76,-92 70,-92 64,-86 64,-80 64,-80 64,-68 64,-68 64,-62 70,-56 76,-56 76,-56 126,-56 126,-56 132,-56 138,-62 138,-68 138,-68 138,-80 138,-80 138,-86 132,-92 126,-92"/>
<text text-anchor="middle" x="101" y="-70.3" font-family="Times-Roman" font-size="14.00">car park</text>
</g>
<!-- Tourist Information Office -->
<g id="node4" class="node">
<title>Tourist Information Office</title>
<path fill="#f5f5f5" stroke="black" d="M236,-148C236,-148 68,-148 68,-148 62,-148 56,-142 56,-136 56,-136 56,-124 56,-124 56,-118 62,-112 68,-112 68,-112 236,-112 236,-112 242,-112 248,-118 248,-124 248,-124 248,-136 248,-136 248,-142 242,-148 236,-148"/>
<text text-anchor="middle" x="152" y="-126.3" font-family="Times-Roman" font-size="14.00">Tourist Information Office</text>
</g>
<!-- museum -->
<g id="node5" class="node">
<title>museum</title>
<path fill="#f5f5f5" stroke="black" d="M353.5,-44C353.5,-44 300.5,-44 300.5,-44 294.5,-44 288.5,-38 288.5,-32 288.5,-32 288.5,-20 288.5,-20 288.5,-14 294.5,-8 300.5,-8 300.5,-8 353.5,-8 353.5,-8 359.5,-8 365.5,-14 365.5,-20 365.5,-20 365.5,-32 365.5,-32 365.5,-38 359.5,-44 353.5,-44"/>
<text text-anchor="middle" x="327" y="-22.3" font-family="Times-Roman" font-size="14.00">museum</text>
</g>
<!-- art gallery -->
<g id="node6" class="node">
<title>art gallery</title>
<path fill="#f5f5f5" stroke="black" d="M348,-148C348,-148 284,-148 284,-148 278,-148 272,-142 272,-136 272,-136 272,-124 272,-124 272,-118 278,-112 284,-112 284,-112 348,-112 348,-112 354,-112 360,-118 360,-124 360,-124 360,-136 360,-136 360,-142 354,-148 348,-148"/>
<text text-anchor="middle" x="316" y="-126.3" font-family="Times-Roman" font-size="14.00">art gallery</text>
</g>
<!-- park -->
<g id="node7" class="node">
<title>park</title>
<path fill="#f5f5f5" stroke="black" d="M50,-252C50,-252 20,-252 20,-252 14,-252 8,-246 8,-240 8,-240 8,-228 8,-228 8,-222 14,-216 20,-216 20,-216 50,-216 50,-216 56,-216 62,-222 62,-228 62,-228 62,-240 62,-240 62,-246 56,-252 50,-252"/>
<text text-anchor="middle" x="35" y="-230.3" font-family="Times-Roman" font-size="14.00">park</text>
</g>
<!-- square -->
<g id="node8" class="node">
<title>square</title>
<path fill="#f5f5f5" stroke="black" d="M76,-36C76,-36 36,-36 36,-36 30,-36 24,-30 24,-24 24,-24 24,-12 24,-12 24,-6 30,0 36,0 36,0 76,0 76,0 82,0 88,-6 88,-12 88,-12 88,-24 88,-24 88,-30 82,-36 76,-36"/>
<text text-anchor="middle" x="56" y="-14.3" font-family="Times-Roman" font-size="14.00">square</text>
</g>
<!-- swimming pool -->
<g id="node9" class="node">
<title>swimming pool</title>
<path fill="#f5f5f5" stroke="black" d="M302,-204C302,-204 204,-204 204,-204 198,-204 192,-198 192,-192 192,-192 192,-180 192,-180 192,-174 198,-168 204,-168 204,-168 302,-168 302,-168 308,-168 314,-174 314,-180 314,-180 314,-192 314,-192 314,-198 308,-204 302,-204"/>
<text text-anchor="middle" x="253" y="-182.3" font-family="Times-Roman" font-size="14.00">swimming pool</text>
</g>
<!-- cinema -->
<g id="node10" class="node">
<title>cinema</title>
<path fill="#f5f5f5" stroke="black" d="M127.5,-308C127.5,-308 84.5,-308 84.5,-308 78.5,-308 72.5,-302 72.5,-296 72.5,-296 72.5,-284 72.5,-284 72.5,-278 78.5,-272 84.5,-272 84.5,-272 127.5,-272 127.5,-272 133.5,-272 139.5,-278 139.5,-284 139.5,-284 139.5,-296 139.5,-296 139.5,-302 133.5,-308 127.5,-308"/>
<text text-anchor="middle" x="106" y="-286.3" font-family="Times-Roman" font-size="14.00">cinema</text>
</g>
<!-- post office -->
<g id="node11" class="node">
<title>post office</title>
<path fill="#f5f5f5" stroke="black" d="M325.5,-260C325.5,-260 260.5,-260 260.5,-260 254.5,-260 248.5,-254 248.5,-248 248.5,-248 248.5,-236 248.5,-236 248.5,-230 254.5,-224 260.5,-224 260.5,-224 325.5,-224 325.5,-224 331.5,-224 337.5,-230 337.5,-236 337.5,-236 337.5,-248 337.5,-248 337.5,-254 331.5,-260 325.5,-260"/>
<text text-anchor="middle" x="293" y="-238.3" font-family="Times-Roman" font-size="14.00">post office</text>
</g>
<!-- school -->
<g id="node12" class="node">
<title>school</title>
<path fill="#f5f5f5" stroke="black" d="M353.5,-316C353.5,-316 316.5,-316 316.5,-316 310.5,-316 304.5,-310 304.5,-304 304.5,-304 304.5,-292 304.5,-292 304.5,-286 310.5,-280 316.5,-280 316.5,-280 353.5,-280 353.5,-280 359.5,-280 365.5,-286 365.5,-292 365.5,-292 365.5,-304 365.5,-304 365.5,-310 359.5,-316 353.5,-316"/>
<text text-anchor="middle" x="335" y="-294.3" font-family="Times-Roman" font-size="14.00">school</text>
</g>
<!-- bank -->
<g id="node13" class="node">
<title>bank</title>
<path fill="#f5f5f5" stroke="black" d="M42,-332C42,-332 12,-332 12,-332 6,-332 0,-326 0,-320 0,-320 0,-308 0,-308 0,-302 6,-296 12,-296 12,-296 42,-296 42,-296 48,-296 54,-302 54,-308 54,-308 54,-320 54,-320 54,-326 48,-332 42,-332"/>
<text text-anchor="middle" x="27" y="-310.3" font-family="Times-Roman" font-size="14.00">bank</text>
</g>
<!-- town hall -->
<g id="node14" class="node">
<title>town hall</title>
<path fill="#f5f5f5" stroke="black" d="M228,-36C228,-36 172,-36 172,-36 166,-36 160,-30 160,-24 160,-24 160,-12 160,-12 160,-6 166,0 172,0 172,0 228,0 228,0 234,0 240,-6 240,-12 240,-12 240,-24 240,-24 240,-30 234,-36 228,-36"/>
<text text-anchor="middle" x="200" y="-14.3" font-family="Times-Roman" font-size="14.00">town hall</text>
</g>
<!-- sports centre -->
<g id="node15" class="node">
<title>sports centre</title>
<path fill="#f5f5f5" stroke="black" d="M256,-92C256,-92 172,-92 172,-92 166,-92 160,-86 160,-80 160,-80 160,-68 160,-68 160,-62 166,-56 172,-56 172,-56 256,-56 256,-56 262,-56 268,-62 268,-68 268,-68 268,-80 268,-80 268,-86 262,-92 256,-92"/>
<text text-anchor="middle" x="214" y="-70.3" font-family="Times-Roman" font-size="14.00">sports centre</text>
</g>
</g>
</svg>
