<?xml version="1.0" encoding="UTF-8" standalone="no"?>
<!DOCTYPE svg PUBLIC "-//W3C//DTD SVG 1.1//EN"
 "http://www.w3.org/Graphics/SVG/1.1/DTD/svg11.dtd">
<!-- Generated by graphviz version 2.44.0 (0)
 -->
<!-- Pages: 1 -->
<svg width="674pt" height="591pt"
 viewBox="0.00 0.00 674.05 591.00" xmlns="http://www.w3.org/2000/svg" xmlns:xlink="http://www.w3.org/1999/xlink">
<g id="graph0" class="graph" transform="scale(1 1) rotate(0) translate(4 587)">
<polygon fill="white" stroke="transparent" points="-4,4 -4,-587 670.05,-587 670.05,4 -4,4"/>
<!-- Which&#39;s the -->
<g id="node1" class="node">
<title>Which&#39;s the</title>
<ellipse fill="none" stroke="black" cx="63.69" cy="-180" rx="63.89" ry="18"/>
<text text-anchor="middle" x="63.69" y="-176.3" font-family="Times-Roman" font-size="14.00">Which&#39;s the</text>
</g>
<!-- fastest -->
<g id="node2" class="node">
<title>fastest</title>
<ellipse fill="none" stroke="black" cx="253.73" cy="-342" rx="41.69" ry="18"/>
<text text-anchor="middle" x="253.73" y="-338.3" font-family="Times-Roman" font-size="14.00">fastest</text>
</g>
<!-- Which&#39;s the&#45;&gt;fastest -->
<g id="edge1" class="edge">
<title>Which&#39;s the&#45;&gt;fastest</title>
<path fill="none" stroke="black" d="M73.15,-198.23C87.54,-227.27 119.57,-283.95 163.39,-315 175.41,-323.52 190.16,-329.39 204.19,-333.43"/>
<polygon fill="black" stroke="black" points="203.67,-336.91 214.23,-336.05 205.44,-330.13 203.67,-336.91"/>
</g>
<!-- slowest -->
<g id="node4" class="node">
<title>slowest</title>
<ellipse fill="none" stroke="black" cx="253.73" cy="-288" rx="44.39" ry="18"/>
<text text-anchor="middle" x="253.73" y="-284.3" font-family="Times-Roman" font-size="14.00">slowest</text>
</g>
<!-- Which&#39;s the&#45;&gt;slowest -->
<g id="edge3" class="edge">
<title>Which&#39;s the&#45;&gt;slowest</title>
<path fill="none" stroke="black" d="M81.69,-197.57C100.22,-215.8 131.52,-243.98 163.39,-261 176.04,-267.75 190.63,-273.07 204.29,-277.13"/>
<polygon fill="black" stroke="black" points="203.47,-280.53 214.04,-279.86 205.36,-273.79 203.47,-280.53"/>
</g>
<!-- most expensive -->
<g id="node6" class="node">
<title>most expensive</title>
<ellipse fill="none" stroke="black" cx="253.73" cy="-180" rx="81.79" ry="18"/>
<text text-anchor="middle" x="253.73" y="-176.3" font-family="Times-Roman" font-size="14.00">most expensive</text>
</g>
<!-- Which&#39;s the&#45;&gt;most expensive -->
<g id="edge5" class="edge">
<title>Which&#39;s the&#45;&gt;most expensive</title>
<path fill="none" stroke="black" d="M127.57,-180C138.47,-180 150,-180 161.47,-180"/>
<polygon fill="black" stroke="black" points="161.53,-183.5 171.53,-180 161.53,-176.5 161.53,-183.5"/>
</g>
<!-- cheapest -->
<g id="node7" class="node">
<title>cheapest</title>
<ellipse fill="none" stroke="black" cx="253.73" cy="-126" rx="51.99" ry="18"/>
<text text-anchor="middle" x="253.73" y="-122.3" font-family="Times-Roman" font-size="14.00">cheapest</text>
</g>
<!-- Which&#39;s the&#45;&gt;cheapest -->
<g id="edge6" class="edge">
<title>Which&#39;s the&#45;&gt;cheapest</title>
<path fill="none" stroke="black" d="M109.26,-167.2C137.53,-159.08 174.14,-148.57 203.3,-140.2"/>
<polygon fill="black" stroke="black" points="204.63,-143.45 213.28,-137.33 202.7,-136.73 204.63,-143.45"/>
</g>
<!-- most comfortable -->
<g id="node9" class="node">
<title>most comfortable</title>
<ellipse fill="none" stroke="black" cx="253.73" cy="-234" rx="90.18" ry="18"/>
<text text-anchor="middle" x="253.73" y="-230.3" font-family="Times-Roman" font-size="14.00">most comfortable</text>
</g>
<!-- Which&#39;s the&#45;&gt;most comfortable -->
<g id="edge9" class="edge">
<title>Which&#39;s the&#45;&gt;most comfortable</title>
<path fill="none" stroke="black" d="M109.26,-192.8C133.92,-199.88 164.93,-208.79 191.81,-216.51"/>
<polygon fill="black" stroke="black" points="190.93,-219.89 201.51,-219.29 192.86,-213.17 190.93,-219.89"/>
</g>
<!-- best -->
<g id="node10" class="node">
<title>best</title>
<ellipse fill="none" stroke="black" cx="253.73" cy="-72" rx="30.59" ry="18"/>
<text text-anchor="middle" x="253.73" y="-68.3" font-family="Times-Roman" font-size="14.00">best</text>
</g>
<!-- Which&#39;s the&#45;&gt;best -->
<g id="edge11" class="edge">
<title>Which&#39;s the&#45;&gt;best</title>
<path fill="none" stroke="black" d="M81.69,-162.43C100.22,-144.2 131.52,-116.02 163.39,-99 179.25,-90.53 198.15,-84.33 214.47,-80.02"/>
<polygon fill="black" stroke="black" points="215.39,-83.4 224.25,-77.58 213.7,-76.61 215.39,-83.4"/>
</g>
<!-- worst -->
<g id="node12" class="node">
<title>worst</title>
<ellipse fill="none" stroke="black" cx="253.73" cy="-18" rx="36" ry="18"/>
<text text-anchor="middle" x="253.73" y="-14.3" font-family="Times-Roman" font-size="14.00">worst</text>
</g>
<!-- Which&#39;s the&#45;&gt;worst -->
<g id="edge13" class="edge">
<title>Which&#39;s the&#45;&gt;worst</title>
<path fill="none" stroke="black" d="M73.15,-161.77C87.54,-132.73 119.57,-76.05 163.39,-45 176.84,-35.47 193.7,-29.25 209.15,-25.22"/>
<polygon fill="black" stroke="black" points="210.12,-28.58 219.04,-22.87 208.5,-21.77 210.12,-28.58"/>
</g>
<!-- way to travel? -->
<g id="node3" class="node">
<title>way to travel?</title>
<ellipse fill="none" stroke="black" cx="523.06" cy="-342" rx="74.19" ry="18"/>
<text text-anchor="middle" x="523.06" y="-338.3" font-family="Times-Roman" font-size="14.00">way to travel?</text>
</g>
<!-- fastest&#45;&gt;way to travel? -->
<g id="edge2" class="edge">
<title>fastest&#45;&gt;way to travel?</title>
<path fill="none" stroke="black" d="M295.33,-342C333.24,-342 390.98,-342 438.7,-342"/>
<polygon fill="black" stroke="black" points="438.72,-345.5 448.72,-342 438.72,-338.5 438.72,-345.5"/>
</g>
<!-- way to get there? -->
<g id="node5" class="node">
<title>way to get there?</title>
<ellipse fill="none" stroke="black" cx="523.06" cy="-261" rx="89.08" ry="18"/>
<text text-anchor="middle" x="523.06" y="-257.3" font-family="Times-Roman" font-size="14.00">way to get there?</text>
</g>
<!-- slowest&#45;&gt;way to get there? -->
<g id="edge4" class="edge">
<title>slowest&#45;&gt;way to get there?</title>
<path fill="none" stroke="black" d="M296.79,-283.75C333.23,-280.07 387.17,-274.62 433.13,-269.98"/>
<polygon fill="black" stroke="black" points="433.51,-273.46 443.11,-268.97 432.81,-266.5 433.51,-273.46"/>
</g>
<!-- form to transport? -->
<g id="node8" class="node">
<title>form to transport?</title>
<ellipse fill="none" stroke="black" cx="523.06" cy="-153" rx="92.88" ry="18"/>
<text text-anchor="middle" x="523.06" y="-149.3" font-family="Times-Roman" font-size="14.00">form to transport?</text>
</g>
<!-- most expensive&#45;&gt;form to transport? -->
<g id="edge7" class="edge">
<title>most expensive&#45;&gt;form to transport?</title>
<path fill="none" stroke="black" d="M328.49,-172.55C359.86,-169.38 396.79,-165.65 429.93,-162.31"/>
<polygon fill="black" stroke="black" points="430.48,-165.77 440.08,-161.28 429.78,-158.8 430.48,-165.77"/>
</g>
<!-- cheapest&#45;&gt;form to transport? -->
<g id="edge8" class="edge">
<title>cheapest&#45;&gt;form to transport?</title>
<path fill="none" stroke="black" d="M303.76,-130.95C339.07,-134.52 387.76,-139.44 430.19,-143.72"/>
<polygon fill="black" stroke="black" points="429.97,-147.22 440.27,-144.74 430.67,-140.25 429.97,-147.22"/>
</g>
<!-- most comfortable&#45;&gt;way to get there? -->
<g id="edge10" class="edge">
<title>most comfortable&#45;&gt;way to get there?</title>
<path fill="none" stroke="black" d="M334.58,-242.06C365.53,-245.19 401.12,-248.78 432.91,-252"/>
<polygon fill="black" stroke="black" points="432.79,-255.5 443.09,-253.02 433.49,-248.54 432.79,-255.5"/>
</g>
<!-- way to get to Ankara? -->
<g id="node11" class="node">
<title>way to get to Ankara?</title>
<ellipse fill="none" stroke="black" cx="523.06" cy="-72" rx="109.38" ry="18"/>
<text text-anchor="middle" x="523.06" y="-68.3" font-family="Times-Roman" font-size="14.00">way to get to Ankara?</text>
</g>
<!-- best&#45;&gt;way to get to Ankara? -->
<g id="edge12" class="edge">
<title>best&#45;&gt;way to get to Ankara?</title>
<path fill="none" stroke="black" d="M284.36,-72C313.37,-72 359.48,-72 403.41,-72"/>
<polygon fill="black" stroke="black" points="403.62,-75.5 413.62,-72 403.62,-68.5 403.62,-75.5"/>
</g>
<!-- restaurant in your town? -->
<g id="node13" class="node">
<title>restaurant in your town?</title>
<ellipse fill="none" stroke="black" cx="523.06" cy="-18" rx="122.38" ry="18"/>
<text text-anchor="middle" x="523.06" y="-14.3" font-family="Times-Roman" font-size="14.00">restaurant in your town?</text>
</g>
<!-- worst&#45;&gt;restaurant in your town? -->
<g id="edge14" class="edge">
<title>worst&#45;&gt;restaurant in your town?</title>
<path fill="none" stroke="black" d="M289.68,-18C315.75,-18 353.13,-18 390.32,-18"/>
<polygon fill="black" stroke="black" points="390.79,-21.5 400.79,-18 390.79,-14.5 390.79,-21.5"/>
</g>
<!-- What&#39;s the -->
<g id="node14" class="node">
<title>What&#39;s the</title>
<ellipse fill="none" stroke="black" cx="63.69" cy="-443" rx="59.29" ry="18"/>
<text text-anchor="middle" x="63.69" y="-439.3" font-family="Times-Roman" font-size="14.00">What&#39;s the</text>
</g>
<!-- longest -->
<g id="node15" class="node">
<title>longest</title>
<ellipse fill="none" stroke="black" cx="253.73" cy="-450" rx="44.39" ry="18"/>
<text text-anchor="middle" x="253.73" y="-446.3" font-family="Times-Roman" font-size="14.00">longest</text>
</g>
<!-- What&#39;s the&#45;&gt;longest -->
<g id="edge15" class="edge">
<title>What&#39;s the&#45;&gt;longest</title>
<path fill="none" stroke="black" d="M122.65,-445.16C147.09,-446.07 175.36,-447.12 199.29,-448.01"/>
<polygon fill="black" stroke="black" points="199.48,-451.52 209.6,-448.39 199.74,-444.52 199.48,-451.52"/>
</g>
<!-- most difficult -->
<g id="node17" class="node">
<title>most difficult</title>
<ellipse fill="none" stroke="black" cx="253.73" cy="-396" rx="69.59" ry="18"/>
<text text-anchor="middle" x="253.73" y="-392.3" font-family="Times-Roman" font-size="14.00">most difficult</text>
</g>
<!-- What&#39;s the&#45;&gt;most difficult -->
<g id="edge17" class="edge">
<title>What&#39;s the&#45;&gt;most difficult</title>
<path fill="none" stroke="black" d="M110.21,-431.62C135.08,-425.41 166.18,-417.63 192.97,-410.94"/>
<polygon fill="black" stroke="black" points="194.16,-414.25 203.01,-408.43 192.46,-407.46 194.16,-414.25"/>
</g>
<!-- word in this sentence? -->
<g id="node16" class="node">
<title>word in this sentence?</title>
<ellipse fill="none" stroke="black" cx="523.06" cy="-450" rx="112.38" ry="18"/>
<text text-anchor="middle" x="523.06" y="-446.3" font-family="Times-Roman" font-size="14.00">word in this sentence?</text>
</g>
<!-- longest&#45;&gt;word in this sentence? -->
<g id="edge16" class="edge">
<title>longest&#45;&gt;word in this sentence?</title>
<path fill="none" stroke="black" d="M297.98,-450C325.87,-450 363.65,-450 400.24,-450"/>
<polygon fill="black" stroke="black" points="400.52,-453.5 410.52,-450 400.52,-446.5 400.52,-453.5"/>
</g>
<!-- grammar in English? -->
<g id="node18" class="node">
<title>grammar in English?</title>
<ellipse fill="none" stroke="black" cx="523.06" cy="-396" rx="104.78" ry="18"/>
<text text-anchor="middle" x="523.06" y="-392.3" font-family="Times-Roman" font-size="14.00">grammar in English?</text>
</g>
<!-- most difficult&#45;&gt;grammar in English? -->
<g id="edge18" class="edge">
<title>most difficult&#45;&gt;grammar in English?</title>
<path fill="none" stroke="black" d="M323.57,-396C349.38,-396 379.45,-396 408.25,-396"/>
<polygon fill="black" stroke="black" points="408.38,-399.5 418.38,-396 408.38,-392.5 408.38,-399.5"/>
</g>
<!-- Who&#39;s the -->
<g id="node19" class="node">
<title>Who&#39;s the</title>
<ellipse fill="none" stroke="black" cx="63.69" cy="-524" rx="55.79" ry="18"/>
<text text-anchor="middle" x="63.69" y="-520.3" font-family="Times-Roman" font-size="14.00">Who&#39;s the</text>
</g>
<!-- happiest -->
<g id="node20" class="node">
<title>happiest</title>
<ellipse fill="none" stroke="black" cx="253.73" cy="-565" rx="50.09" ry="18"/>
<text text-anchor="middle" x="253.73" y="-561.3" font-family="Times-Roman" font-size="14.00">happiest</text>
</g>
<!-- Who&#39;s the&#45;&gt;happiest -->
<g id="edge19" class="edge">
<title>Who&#39;s the&#45;&gt;happiest</title>
<path fill="none" stroke="black" d="M110.69,-534.03C137.81,-539.94 172.2,-547.44 200.36,-553.58"/>
<polygon fill="black" stroke="black" points="199.91,-557.06 210.42,-555.77 201.4,-550.22 199.91,-557.06"/>
</g>
<!-- friendliest -->
<g id="node22" class="node">
<title>friendliest</title>
<ellipse fill="none" stroke="black" cx="253.73" cy="-511" rx="55.79" ry="18"/>
<text text-anchor="middle" x="253.73" y="-507.3" font-family="Times-Roman" font-size="14.00">friendliest</text>
</g>
<!-- Who&#39;s the&#45;&gt;friendliest -->
<g id="edge21" class="edge">
<title>Who&#39;s the&#45;&gt;friendliest</title>
<path fill="none" stroke="black" d="M118.58,-520.27C140.41,-518.77 165.8,-517.01 188.58,-515.44"/>
<polygon fill="black" stroke="black" points="189.1,-518.91 198.84,-514.73 188.62,-511.92 189.1,-518.91"/>
</g>
<!-- person in your family? -->
<g id="node21" class="node">
<title>person in your family?</title>
<ellipse fill="none" stroke="black" cx="523.06" cy="-565" rx="112.38" ry="18"/>
<text text-anchor="middle" x="523.06" y="-561.3" font-family="Times-Roman" font-size="14.00">person in your family?</text>
</g>
<!-- happiest&#45;&gt;person in your family? -->
<g id="edge20" class="edge">
<title>happiest&#45;&gt;person in your family?</title>
<path fill="none" stroke="black" d="M304.07,-565C331.26,-565 366.32,-565 400.33,-565"/>
<polygon fill="black" stroke="black" points="400.37,-568.5 410.37,-565 400.37,-561.5 400.37,-568.5"/>
</g>
<!-- person in your English class? -->
<g id="node23" class="node">
<title>person in your English class?</title>
<ellipse fill="none" stroke="black" cx="523.06" cy="-511" rx="142.97" ry="18"/>
<text text-anchor="middle" x="523.06" y="-507.3" font-family="Times-Roman" font-size="14.00">person in your English class?</text>
</g>
<!-- friendliest&#45;&gt;person in your English class? -->
<g id="edge22" class="edge">
<title>friendliest&#45;&gt;person in your English class?</title>
<path fill="none" stroke="black" d="M309.8,-511C327.61,-511 348.31,-511 369.66,-511"/>
<polygon fill="black" stroke="black" points="369.85,-514.5 379.85,-511 369.85,-507.5 369.85,-514.5"/>
</g>
</g>
</svg>
