<?xml version="1.0" encoding="UTF-8" standalone="no"?>
<!DOCTYPE svg PUBLIC "-//W3C//DTD SVG 1.1//EN"
 "http://www.w3.org/Graphics/SVG/1.1/DTD/svg11.dtd">
<!-- Generated by graphviz version 2.44.0 (0)
 -->
<!-- Pages: 1 -->
<svg width="550pt" height="651pt"
 viewBox="0.00 0.00 550.00 651.00" xmlns="http://www.w3.org/2000/svg" xmlns:xlink="http://www.w3.org/1999/xlink">
<g id="graph0" class="graph" transform="scale(1 1) rotate(0) translate(4 647)">
<polygon fill="white" stroke="transparent" points="-4,4 -4,-647 546,-647 546,4 -4,4"/>
<!-- Which&#39;s the -->
<g id="node1" class="node">
<title>Which&#39;s the</title>
<path fill="#f5f5f5" stroke="black" d="M92.5,-198C92.5,-198 18.5,-198 18.5,-198 12.5,-198 6.5,-192 6.5,-186 6.5,-186 6.5,-174 6.5,-174 6.5,-168 12.5,-162 18.5,-162 18.5,-162 92.5,-162 92.5,-162 98.5,-162 104.5,-168 104.5,-174 104.5,-174 104.5,-186 104.5,-186 104.5,-192 98.5,-198 92.5,-198"/>
<text text-anchor="middle" x="55.5" y="-176.3" font-family="Times-Roman" font-size="14.00">Which&#39;s the</text>
</g>
<!-- fastest -->
<g id="node2" class="node">
<title>fastest</title>
<path fill="#f5f5f5" stroke="black" d="M236.5,-360C236.5,-360 196.5,-360 196.5,-360 190.5,-360 184.5,-354 184.5,-348 184.5,-348 184.5,-336 184.5,-336 184.5,-330 190.5,-324 196.5,-324 196.5,-324 236.5,-324 236.5,-324 242.5,-324 248.5,-330 248.5,-336 248.5,-336 248.5,-348 248.5,-348 248.5,-354 242.5,-360 236.5,-360"/>
<text text-anchor="middle" x="216.5" y="-338.3" font-family="Times-Roman" font-size="14.00">fastest</text>
</g>
<!-- Which&#39;s the&#45;&gt;fastest -->
<g id="edge1" class="edge">
<title>Which&#39;s the&#45;&gt;fastest</title>
<path fill="none" stroke="black" d="M64.35,-198.3C77.5,-226.94 106.56,-282.44 147,-315 155.14,-321.55 165.07,-326.67 174.81,-330.61"/>
<polygon fill="black" stroke="black" points="173.82,-333.98 184.42,-334.16 176.25,-327.41 173.82,-333.98"/>
</g>
<!-- slowest -->
<g id="node4" class="node">
<title>slowest</title>
<path fill="#f5f5f5" stroke="black" d="M238.5,-306C238.5,-306 194.5,-306 194.5,-306 188.5,-306 182.5,-300 182.5,-294 182.5,-294 182.5,-282 182.5,-282 182.5,-276 188.5,-270 194.5,-270 194.5,-270 238.5,-270 238.5,-270 244.5,-270 250.5,-276 250.5,-282 250.5,-282 250.5,-294 250.5,-294 250.5,-300 244.5,-306 238.5,-306"/>
<text text-anchor="middle" x="216.5" y="-284.3" font-family="Times-Roman" font-size="14.00">slowest</text>
</g>
<!-- Which&#39;s the&#45;&gt;slowest -->
<g id="edge3" class="edge">
<title>Which&#39;s the&#45;&gt;slowest</title>
<path fill="none" stroke="black" d="M73.02,-198.16C90.11,-216.07 118.29,-243.29 147,-261 154.99,-265.93 164.03,-270.25 172.87,-273.91"/>
<polygon fill="black" stroke="black" points="171.72,-277.22 182.31,-277.62 174.28,-270.71 171.72,-277.22"/>
</g>
<!-- most expensive -->
<g id="node6" class="node">
<title>most expensive</title>
<path fill="#f5f5f5" stroke="black" d="M267.5,-198C267.5,-198 165.5,-198 165.5,-198 159.5,-198 153.5,-192 153.5,-186 153.5,-186 153.5,-174 153.5,-174 153.5,-168 159.5,-162 165.5,-162 165.5,-162 267.5,-162 267.5,-162 273.5,-162 279.5,-168 279.5,-174 279.5,-174 279.5,-186 279.5,-186 279.5,-192 273.5,-198 267.5,-198"/>
<text text-anchor="middle" x="216.5" y="-176.3" font-family="Times-Roman" font-size="14.00">most expensive</text>
</g>
<!-- Which&#39;s the&#45;&gt;most expensive -->
<g id="edge5" class="edge">
<title>Which&#39;s the&#45;&gt;most expensive</title>
<path fill="none" stroke="black" d="M104.64,-180C116.75,-180 130.03,-180 143.05,-180"/>
<polygon fill="black" stroke="black" points="143.41,-183.5 153.41,-180 143.41,-176.5 143.41,-183.5"/>
</g>
<!-- cheapest -->
<g id="node7" class="node">
<title>cheapest</title>
<path fill="#f5f5f5" stroke="black" d="M244.5,-144C244.5,-144 188.5,-144 188.5,-144 182.5,-144 176.5,-138 176.5,-132 176.5,-132 176.5,-120 176.5,-120 176.5,-114 182.5,-108 188.5,-108 188.5,-108 244.5,-108 244.5,-108 250.5,-108 256.5,-114 256.5,-120 256.5,-120 256.5,-132 256.5,-132 256.5,-138 250.5,-144 244.5,-144"/>
<text text-anchor="middle" x="216.5" y="-122.3" font-family="Times-Roman" font-size="14.00">cheapest</text>
</g>
<!-- Which&#39;s the&#45;&gt;cheapest -->
<g id="edge6" class="edge">
<title>Which&#39;s the&#45;&gt;cheapest</title>
<path fill="none" stroke="black" d="M104.64,-163.65C124.26,-156.99 146.93,-149.29 166.63,-142.6"/>
<polygon fill="black" stroke="black" points="167.99,-145.83 176.33,-139.3 165.74,-139.2 167.99,-145.83"/>
</g>
<!-- most comfortable -->
<g id="node9" class="node">
<title>most comfortable</title>
<path fill="#f5f5f5" stroke="black" d="M274,-252C274,-252 159,-252 159,-252 153,-252 147,-246 147,-240 147,-240 147,-228 147,-228 147,-222 153,-216 159,-216 159,-216 274,-216 274,-216 280,-216 286,-222 286,-228 286,-228 286,-240 286,-240 286,-246 280,-252 274,-252"/>
<text text-anchor="middle" x="216.5" y="-230.3" font-family="Times-Roman" font-size="14.00">most comfortable</text>
</g>
<!-- Which&#39;s the&#45;&gt;most comfortable -->
<g id="edge9" class="edge">
<title>Which&#39;s the&#45;&gt;most comfortable</title>
<path fill="none" stroke="black" d="M104.64,-196.35C119.7,-201.46 136.55,-207.19 152.48,-212.6"/>
<polygon fill="black" stroke="black" points="151.66,-216.01 162.25,-215.92 153.91,-209.39 151.66,-216.01"/>
</g>
<!-- best -->
<g id="node10" class="node">
<title>best</title>
<path fill="#f5f5f5" stroke="black" d="M231.5,-90C231.5,-90 201.5,-90 201.5,-90 195.5,-90 189.5,-84 189.5,-78 189.5,-78 189.5,-66 189.5,-66 189.5,-60 195.5,-54 201.5,-54 201.5,-54 231.5,-54 231.5,-54 237.5,-54 243.5,-60 243.5,-66 243.5,-66 243.5,-78 243.5,-78 243.5,-84 237.5,-90 231.5,-90"/>
<text text-anchor="middle" x="216.5" y="-68.3" font-family="Times-Roman" font-size="14.00">best</text>
</g>
<!-- Which&#39;s the&#45;&gt;best -->
<g id="edge11" class="edge">
<title>Which&#39;s the&#45;&gt;best</title>
<path fill="none" stroke="black" d="M73.02,-161.84C90.11,-143.93 118.29,-116.71 147,-99 157.08,-92.78 168.83,-87.53 179.73,-83.36"/>
<polygon fill="black" stroke="black" points="181.22,-86.54 189.43,-79.83 178.83,-79.96 181.22,-86.54"/>
</g>
<!-- worst -->
<g id="node12" class="node">
<title>worst</title>
<path fill="#f5f5f5" stroke="black" d="M232,-36C232,-36 201,-36 201,-36 195,-36 189,-30 189,-24 189,-24 189,-12 189,-12 189,-6 195,0 201,0 201,0 232,0 232,0 238,0 244,-6 244,-12 244,-12 244,-24 244,-24 244,-30 238,-36 232,-36"/>
<text text-anchor="middle" x="216.5" y="-14.3" font-family="Times-Roman" font-size="14.00">worst</text>
</g>
<!-- Which&#39;s the&#45;&gt;worst -->
<g id="edge13" class="edge">
<title>Which&#39;s the&#45;&gt;worst</title>
<path fill="none" stroke="black" d="M64.35,-161.7C77.5,-133.06 106.56,-77.56 147,-45 156.4,-37.44 168.17,-31.78 179.3,-27.65"/>
<polygon fill="black" stroke="black" points="180.49,-30.94 188.83,-24.41 178.23,-24.32 180.49,-30.94"/>
</g>
<!-- way to travel? -->
<g id="node3" class="node">
<title>way to travel?</title>
<path fill="#f5f5f5" stroke="black" d="M477,-360C477,-360 387,-360 387,-360 381,-360 375,-354 375,-348 375,-348 375,-336 375,-336 375,-330 381,-324 387,-324 387,-324 477,-324 477,-324 483,-324 489,-330 489,-336 489,-336 489,-348 489,-348 489,-354 483,-360 477,-360"/>
<text text-anchor="middle" x="432" y="-338.3" font-family="Times-Roman" font-size="14.00">way to travel?</text>
</g>
<!-- fastest&#45;&gt;way to travel? -->
<g id="edge2" class="edge">
<title>fastest&#45;&gt;way to travel?</title>
<path fill="none" stroke="black" d="M248.54,-342C278.8,-342 325.78,-342 364.48,-342"/>
<polygon fill="black" stroke="black" points="364.64,-345.5 374.64,-342 364.64,-338.5 364.64,-345.5"/>
</g>
<!-- way to get there? -->
<g id="node5" class="node">
<title>way to get there?</title>
<path fill="#f5f5f5" stroke="black" d="M488.5,-279C488.5,-279 375.5,-279 375.5,-279 369.5,-279 363.5,-273 363.5,-267 363.5,-267 363.5,-255 363.5,-255 363.5,-249 369.5,-243 375.5,-243 375.5,-243 488.5,-243 488.5,-243 494.5,-243 500.5,-249 500.5,-255 500.5,-255 500.5,-267 500.5,-267 500.5,-273 494.5,-279 488.5,-279"/>
<text text-anchor="middle" x="432" y="-257.3" font-family="Times-Roman" font-size="14.00">way to get there?</text>
</g>
<!-- slowest&#45;&gt;way to get there? -->
<g id="edge4" class="edge">
<title>slowest&#45;&gt;way to get there?</title>
<path fill="none" stroke="black" d="M250.86,-283.78C278.19,-280.33 317.95,-275.3 353.17,-270.84"/>
<polygon fill="black" stroke="black" points="353.97,-274.27 363.45,-269.54 353.09,-267.33 353.97,-274.27"/>
</g>
<!-- form to transport? -->
<g id="node8" class="node">
<title>form to transport?</title>
<path fill="#f5f5f5" stroke="black" d="M491.5,-171C491.5,-171 372.5,-171 372.5,-171 366.5,-171 360.5,-165 360.5,-159 360.5,-159 360.5,-147 360.5,-147 360.5,-141 366.5,-135 372.5,-135 372.5,-135 491.5,-135 491.5,-135 497.5,-135 503.5,-141 503.5,-147 503.5,-147 503.5,-159 503.5,-159 503.5,-165 497.5,-171 491.5,-171"/>
<text text-anchor="middle" x="432" y="-149.3" font-family="Times-Roman" font-size="14.00">form to transport?</text>
</g>
<!-- most expensive&#45;&gt;form to transport? -->
<g id="edge7" class="edge">
<title>most expensive&#45;&gt;form to transport?</title>
<path fill="none" stroke="black" d="M279.54,-172.15C301.53,-169.37 326.6,-166.2 349.93,-163.25"/>
<polygon fill="black" stroke="black" points="350.68,-166.69 360.16,-161.96 349.8,-159.74 350.68,-166.69"/>
</g>
<!-- cheapest&#45;&gt;form to transport? -->
<g id="edge8" class="edge">
<title>cheapest&#45;&gt;form to transport?</title>
<path fill="none" stroke="black" d="M256.66,-130.95C282.73,-134.25 317.94,-138.7 349.89,-142.74"/>
<polygon fill="black" stroke="black" points="349.77,-146.26 360.13,-144.04 350.65,-139.31 349.77,-146.26"/>
</g>
<!-- most comfortable&#45;&gt;way to get there? -->
<g id="edge10" class="edge">
<title>most comfortable&#45;&gt;way to get there?</title>
<path fill="none" stroke="black" d="M286.23,-242.69C307.69,-245.41 331.5,-248.42 353.52,-251.2"/>
<polygon fill="black" stroke="black" points="353.14,-254.68 363.5,-252.46 354.01,-247.74 353.14,-254.68"/>
</g>
<!-- way to get to Ankara? -->
<g id="node11" class="node">
<title>way to get to Ankara?</title>
<path fill="#f5f5f5" stroke="black" d="M504,-90C504,-90 360,-90 360,-90 354,-90 348,-84 348,-78 348,-78 348,-66 348,-66 348,-60 354,-54 360,-54 360,-54 504,-54 504,-54 510,-54 516,-60 516,-66 516,-66 516,-78 516,-78 516,-84 510,-90 504,-90"/>
<text text-anchor="middle" x="432" y="-68.3" font-family="Times-Roman" font-size="14.00">way to get to Ankara?</text>
</g>
<!-- best&#45;&gt;way to get to Ankara? -->
<g id="edge12" class="edge">
<title>best&#45;&gt;way to get to Ankara?</title>
<path fill="none" stroke="black" d="M243.68,-72C267.29,-72 303.48,-72 337.78,-72"/>
<polygon fill="black" stroke="black" points="337.86,-75.5 347.86,-72 337.86,-68.5 337.86,-75.5"/>
</g>
<!-- restaurant in your town? -->
<g id="node13" class="node">
<title>restaurant in your town?</title>
<path fill="#f5f5f5" stroke="black" d="M514,-36C514,-36 350,-36 350,-36 344,-36 338,-30 338,-24 338,-24 338,-12 338,-12 338,-6 344,0 350,0 350,0 514,0 514,0 520,0 526,-6 526,-12 526,-12 526,-24 526,-24 526,-30 520,-36 514,-36"/>
<text text-anchor="middle" x="432" y="-14.3" font-family="Times-Roman" font-size="14.00">restaurant in your town?</text>
</g>
<!-- worst&#45;&gt;restaurant in your town? -->
<g id="edge14" class="edge">
<title>worst&#45;&gt;restaurant in your town?</title>
<path fill="none" stroke="black" d="M244.11,-18C265.39,-18 296.69,-18 327.61,-18"/>
<polygon fill="black" stroke="black" points="327.62,-21.5 337.62,-18 327.62,-14.5 327.62,-21.5"/>
</g>
<!-- What&#39;s the -->
<g id="node14" class="node">
<title>What&#39;s the</title>
<path fill="#f5f5f5" stroke="black" d="M89,-441C89,-441 22,-441 22,-441 16,-441 10,-435 10,-429 10,-429 10,-417 10,-417 10,-411 16,-405 22,-405 22,-405 89,-405 89,-405 95,-405 101,-411 101,-417 101,-417 101,-429 101,-429 101,-435 95,-441 89,-441"/>
<text text-anchor="middle" x="55.5" y="-419.3" font-family="Times-Roman" font-size="14.00">What&#39;s the</text>
</g>
<!-- longest -->
<g id="node15" class="node">
<title>longest</title>
<path fill="#f5f5f5" stroke="black" d="M238.5,-468C238.5,-468 194.5,-468 194.5,-468 188.5,-468 182.5,-462 182.5,-456 182.5,-456 182.5,-444 182.5,-444 182.5,-438 188.5,-432 194.5,-432 194.5,-432 238.5,-432 238.5,-432 244.5,-432 250.5,-438 250.5,-444 250.5,-444 250.5,-456 250.5,-456 250.5,-462 244.5,-468 238.5,-468"/>
<text text-anchor="middle" x="216.5" y="-446.3" font-family="Times-Roman" font-size="14.00">longest</text>
</g>
<!-- What&#39;s the&#45;&gt;longest -->
<g id="edge15" class="edge">
<title>What&#39;s the&#45;&gt;longest</title>
<path fill="none" stroke="black" d="M101.21,-430.59C123.42,-434.36 150.13,-438.9 172.14,-442.64"/>
<polygon fill="black" stroke="black" points="171.77,-446.12 182.21,-444.35 172.94,-439.22 171.77,-446.12"/>
</g>
<!-- most difficult -->
<g id="node17" class="node">
<title>most difficult</title>
<path fill="#f5f5f5" stroke="black" d="M258,-414C258,-414 175,-414 175,-414 169,-414 163,-408 163,-402 163,-402 163,-390 163,-390 163,-384 169,-378 175,-378 175,-378 258,-378 258,-378 264,-378 270,-384 270,-390 270,-390 270,-402 270,-402 270,-408 264,-414 258,-414"/>
<text text-anchor="middle" x="216.5" y="-392.3" font-family="Times-Roman" font-size="14.00">most difficult</text>
</g>
<!-- What&#39;s the&#45;&gt;most difficult -->
<g id="edge17" class="edge">
<title>What&#39;s the&#45;&gt;most difficult</title>
<path fill="none" stroke="black" d="M101.21,-415.41C117.26,-412.68 135.66,-409.56 152.95,-406.62"/>
<polygon fill="black" stroke="black" points="153.69,-410.05 162.97,-404.92 152.52,-403.14 153.69,-410.05"/>
</g>
<!-- word in this sentence? -->
<g id="node16" class="node">
<title>word in this sentence?</title>
<path fill="#f5f5f5" stroke="black" d="M506.5,-468C506.5,-468 357.5,-468 357.5,-468 351.5,-468 345.5,-462 345.5,-456 345.5,-456 345.5,-444 345.5,-444 345.5,-438 351.5,-432 357.5,-432 357.5,-432 506.5,-432 506.5,-432 512.5,-432 518.5,-438 518.5,-444 518.5,-444 518.5,-456 518.5,-456 518.5,-462 512.5,-468 506.5,-468"/>
<text text-anchor="middle" x="432" y="-446.3" font-family="Times-Roman" font-size="14.00">word in this sentence?</text>
</g>
<!-- longest&#45;&gt;word in this sentence? -->
<g id="edge16" class="edge">
<title>longest&#45;&gt;word in this sentence?</title>
<path fill="none" stroke="black" d="M250.86,-450C273.62,-450 305,-450 335.21,-450"/>
<polygon fill="black" stroke="black" points="335.39,-453.5 345.39,-450 335.39,-446.5 335.39,-453.5"/>
</g>
<!-- grammar in English? -->
<g id="node18" class="node">
<title>grammar in English?</title>
<path fill="#f5f5f5" stroke="black" d="M500.5,-414C500.5,-414 363.5,-414 363.5,-414 357.5,-414 351.5,-408 351.5,-402 351.5,-402 351.5,-390 351.5,-390 351.5,-384 357.5,-378 363.5,-378 363.5,-378 500.5,-378 500.5,-378 506.5,-378 512.5,-384 512.5,-390 512.5,-390 512.5,-402 512.5,-402 512.5,-408 506.5,-414 500.5,-414"/>
<text text-anchor="middle" x="432" y="-392.3" font-family="Times-Roman" font-size="14.00">grammar in English?</text>
</g>
<!-- most difficult&#45;&gt;grammar in English? -->
<g id="edge18" class="edge">
<title>most difficult&#45;&gt;grammar in English?</title>
<path fill="none" stroke="black" d="M270,-396C291.39,-396 316.74,-396 340.92,-396"/>
<polygon fill="black" stroke="black" points="341.2,-399.5 351.2,-396 341.2,-392.5 341.2,-399.5"/>
</g>
<!-- Who&#39;s the -->
<g id="node19" class="node">
<title>Who&#39;s the</title>
<path fill="#f5f5f5" stroke="black" d="M86.5,-562C86.5,-562 24.5,-562 24.5,-562 18.5,-562 12.5,-556 12.5,-550 12.5,-550 12.5,-538 12.5,-538 12.5,-532 18.5,-526 24.5,-526 24.5,-526 86.5,-526 86.5,-526 92.5,-526 98.5,-532 98.5,-538 98.5,-538 98.5,-550 98.5,-550 98.5,-556 92.5,-562 86.5,-562"/>
<text text-anchor="middle" x="55.5" y="-540.3" font-family="Times-Roman" font-size="14.00">Who&#39;s the</text>
</g>
<!-- happiest -->
<g id="node20" class="node">
<title>happiest</title>
<path fill="#f5f5f5" stroke="black" d="M243,-576C243,-576 190,-576 190,-576 184,-576 178,-570 178,-564 178,-564 178,-552 178,-552 178,-546 184,-540 190,-540 190,-540 243,-540 243,-540 249,-540 255,-546 255,-552 255,-552 255,-564 255,-564 255,-570 249,-576 243,-576"/>
<text text-anchor="middle" x="216.5" y="-554.3" font-family="Times-Roman" font-size="14.00">happiest</text>
</g>
<!-- Who&#39;s the&#45;&gt;happiest -->
<g id="edge19" class="edge">
<title>Who&#39;s the&#45;&gt;happiest</title>
<path fill="none" stroke="black" d="M98.69,-547.71C119.98,-549.59 145.88,-551.87 167.87,-553.81"/>
<polygon fill="black" stroke="black" points="167.73,-557.31 178,-554.7 168.34,-550.33 167.73,-557.31"/>
</g>
<!-- friendliest -->
<g id="node22" class="node">
<title>friendliest</title>
<path fill="#f5f5f5" stroke="black" d="M247.5,-522C247.5,-522 185.5,-522 185.5,-522 179.5,-522 173.5,-516 173.5,-510 173.5,-510 173.5,-498 173.5,-498 173.5,-492 179.5,-486 185.5,-486 185.5,-486 247.5,-486 247.5,-486 253.5,-486 259.5,-492 259.5,-498 259.5,-498 259.5,-510 259.5,-510 259.5,-516 253.5,-522 247.5,-522"/>
<text text-anchor="middle" x="216.5" y="-500.3" font-family="Times-Roman" font-size="14.00">friendliest</text>
</g>
<!-- Who&#39;s the&#45;&gt;friendliest -->
<g id="edge21" class="edge">
<title>Who&#39;s the&#45;&gt;friendliest</title>
<path fill="none" stroke="black" d="M98.69,-533.39C118.63,-528.37 142.61,-522.34 163.64,-517.05"/>
<polygon fill="black" stroke="black" points="164.54,-520.43 173.39,-514.59 162.84,-513.64 164.54,-520.43"/>
</g>
<!-- person in your family? -->
<g id="node21" class="node">
<title>person in your family?</title>
<path fill="#f5f5f5" stroke="black" d="M506.5,-576C506.5,-576 357.5,-576 357.5,-576 351.5,-576 345.5,-570 345.5,-564 345.5,-564 345.5,-552 345.5,-552 345.5,-546 351.5,-540 357.5,-540 357.5,-540 506.5,-540 506.5,-540 512.5,-540 518.5,-546 518.5,-552 518.5,-552 518.5,-564 518.5,-564 518.5,-570 512.5,-576 506.5,-576"/>
<text text-anchor="middle" x="432" y="-554.3" font-family="Times-Roman" font-size="14.00">person in your family?</text>
</g>
<!-- happiest&#45;&gt;person in your family? -->
<g id="edge20" class="edge">
<title>happiest&#45;&gt;person in your family?</title>
<path fill="none" stroke="black" d="M255.18,-558C277.46,-558 306.78,-558 335.08,-558"/>
<polygon fill="black" stroke="black" points="335.44,-561.5 345.44,-558 335.44,-554.5 335.44,-561.5"/>
</g>
<!-- person in your English class? -->
<g id="node23" class="node">
<title>person in your English class?</title>
<path fill="#f5f5f5" stroke="black" d="M530,-522C530,-522 334,-522 334,-522 328,-522 322,-516 322,-510 322,-510 322,-498 322,-498 322,-492 328,-486 334,-486 334,-486 530,-486 530,-486 536,-486 542,-492 542,-498 542,-498 542,-510 542,-510 542,-516 536,-522 530,-522"/>
<text text-anchor="middle" x="432" y="-500.3" font-family="Times-Roman" font-size="14.00">person in your English class?</text>
</g>
<!-- friendliest&#45;&gt;person in your English class? -->
<g id="edge22" class="edge">
<title>friendliest&#45;&gt;person in your English class?</title>
<path fill="none" stroke="black" d="M259.68,-504C274.93,-504 292.99,-504 311.57,-504"/>
<polygon fill="black" stroke="black" points="311.62,-507.5 321.62,-504 311.62,-500.5 311.62,-507.5"/>
</g>
<!-- What was the -->
<g id="node24" class="node">
<title>What was the</title>
<path fill="#f5f5f5" stroke="black" d="M99,-643C99,-643 12,-643 12,-643 6,-643 0,-637 0,-631 0,-631 0,-619 0,-619 0,-613 6,-607 12,-607 12,-607 99,-607 99,-607 105,-607 111,-613 111,-619 111,-619 111,-631 111,-631 111,-637 105,-643 99,-643"/>
<text text-anchor="middle" x="55.5" y="-621.3" font-family="Times-Roman" font-size="14.00">What was the</text>
</g>
<!-- coldest -->
<g id="node25" class="node">
<title>coldest</title>
<path fill="#f5f5f5" stroke="black" d="M237.5,-643C237.5,-643 195.5,-643 195.5,-643 189.5,-643 183.5,-637 183.5,-631 183.5,-631 183.5,-619 183.5,-619 183.5,-613 189.5,-607 195.5,-607 195.5,-607 237.5,-607 237.5,-607 243.5,-607 249.5,-613 249.5,-619 249.5,-619 249.5,-631 249.5,-631 249.5,-637 243.5,-643 237.5,-643"/>
<text text-anchor="middle" x="216.5" y="-621.3" font-family="Times-Roman" font-size="14.00">coldest</text>
</g>
<!-- What was the&#45;&gt;coldest -->
<g id="edge23" class="edge">
<title>What was the&#45;&gt;coldest</title>
<path fill="none" stroke="black" d="M111.22,-625C131.53,-625 154.24,-625 173.27,-625"/>
<polygon fill="black" stroke="black" points="173.43,-628.5 183.43,-625 173.43,-621.5 173.43,-628.5"/>
</g>
<!-- place you visited? -->
<g id="node26" class="node">
<title>place you visited?</title>
<path fill="#f5f5f5" stroke="black" d="M490.5,-643C490.5,-643 373.5,-643 373.5,-643 367.5,-643 361.5,-637 361.5,-631 361.5,-631 361.5,-619 361.5,-619 361.5,-613 367.5,-607 373.5,-607 373.5,-607 490.5,-607 490.5,-607 496.5,-607 502.5,-613 502.5,-619 502.5,-619 502.5,-631 502.5,-631 502.5,-637 496.5,-643 490.5,-643"/>
<text text-anchor="middle" x="432" y="-621.3" font-family="Times-Roman" font-size="14.00">place you visited?</text>
</g>
<!-- coldest&#45;&gt;place you visited? -->
<g id="edge24" class="edge">
<title>coldest&#45;&gt;place you visited?</title>
<path fill="none" stroke="black" d="M249.93,-625C276.68,-625 315.8,-625 350.84,-625"/>
<polygon fill="black" stroke="black" points="351.08,-628.5 361.08,-625 351.08,-621.5 351.08,-628.5"/>
</g>
</g>
</svg>
