<?xml version="1.0" encoding="UTF-8" standalone="no"?>
<!DOCTYPE svg PUBLIC "-//W3C//DTD SVG 1.1//EN"
 "http://www.w3.org/Graphics/SVG/1.1/DTD/svg11.dtd">
<!-- Generated by graphviz version 2.44.0 (0)
 -->
<!-- Pages: 1 -->
<svg width="602pt" height="580pt"
 viewBox="0.00 0.00 601.98 580.28" xmlns="http://www.w3.org/2000/svg" xmlns:xlink="http://www.w3.org/1999/xlink">
<g id="graph0" class="graph" transform="scale(1 1) rotate(0) translate(4 576.28)">
<polygon fill="white" stroke="transparent" points="-4,4 -4,-576.28 597.98,-576.28 597.98,4 -4,4"/>
<!-- by -->
<g id="node1" class="node">
<title>by</title>
<ellipse fill="none" stroke="black" cx="136.49" cy="-444.87" rx="27" ry="18"/>
<text text-anchor="middle" x="136.49" y="-441.17" font-family="Times-Roman" font-size="14.00">by</text>
</g>
<!-- plane -->
<g id="node2" class="node">
<title>plane</title>
<ellipse fill="none" stroke="black" cx="207.25" cy="-455.85" rx="36" ry="18"/>
<text text-anchor="middle" x="207.25" y="-452.15" font-family="Times-Roman" font-size="14.00">plane</text>
</g>
<!-- by&#45;&gt;plane -->
<g id="edge1" class="edge">
<title>by&#45;&gt;plane</title>
<path fill="none" stroke="black" d="M162.84,-448.96C162.94,-448.97 163.05,-448.99 163.15,-449"/>
<polygon fill="black" stroke="black" points="162.53,-452.45 172.95,-450.53 163.61,-445.53 162.53,-452.45"/>
</g>
<!-- car -->
<g id="node3" class="node">
<title>car</title>
<ellipse fill="none" stroke="black" cx="110.97" cy="-378" rx="27" ry="18"/>
<text text-anchor="middle" x="110.97" y="-374.3" font-family="Times-Roman" font-size="14.00">car</text>
</g>
<!-- by&#45;&gt;car -->
<g id="edge2" class="edge">
<title>by&#45;&gt;car</title>
<path fill="none" stroke="black" d="M129.79,-427.3C127.2,-420.52 124.18,-412.61 121.32,-405.13"/>
<polygon fill="black" stroke="black" points="124.55,-403.78 117.72,-395.68 118.01,-406.27 124.55,-403.78"/>
</g>
<!-- train -->
<g id="node4" class="node">
<title>train</title>
<ellipse fill="none" stroke="black" cx="91.85" cy="-500.8" rx="31.7" ry="18"/>
<text text-anchor="middle" x="91.85" y="-497.1" font-family="Times-Roman" font-size="14.00">train</text>
</g>
<!-- by&#45;&gt;train -->
<g id="edge3" class="edge">
<title>by&#45;&gt;train</title>
<path fill="none" stroke="black" d="M123.58,-461.05C119.79,-465.79 115.57,-471.08 111.46,-476.23"/>
<polygon fill="black" stroke="black" points="108.7,-474.08 105.2,-484.08 114.17,-478.44 108.7,-474.08"/>
</g>
<!-- in a -->
<g id="node5" class="node">
<title>in a</title>
<ellipse fill="none" stroke="black" cx="495.35" cy="-110.27" rx="27.1" ry="18"/>
<text text-anchor="middle" x="495.35" y="-106.57" font-family="Times-Roman" font-size="14.00">in a</text>
</g>
<!-- hotel -->
<g id="node6" class="node">
<title>hotel</title>
<ellipse fill="none" stroke="black" cx="528.99" cy="-154.28" rx="33.29" ry="18"/>
<text text-anchor="middle" x="528.99" y="-150.58" font-family="Times-Roman" font-size="14.00">hotel</text>
</g>
<!-- in a&#45;&gt;hotel -->
<g id="edge4" class="edge">
<title>in a&#45;&gt;hotel</title>
<path fill="none" stroke="black" d="M507.68,-126.41C508.47,-127.43 509.26,-128.47 510.06,-129.52"/>
<polygon fill="black" stroke="black" points="507.35,-131.73 516.2,-137.55 512.91,-127.48 507.35,-131.73"/>
</g>
<!-- self&#45;catering apartment -->
<g id="node7" class="node">
<title>self&#45;catering apartment</title>
<ellipse fill="none" stroke="black" cx="476.99" cy="-58" rx="116.98" ry="18"/>
<text text-anchor="middle" x="476.99" y="-54.3" font-family="Times-Roman" font-size="14.00">self&#45;catering apartment</text>
</g>
<!-- in a&#45;&gt;self&#45;catering apartment -->
<g id="edge5" class="edge">
<title>in a&#45;&gt;self&#45;catering apartment</title>
<path fill="none" stroke="black" d="M489.13,-92.57C488.34,-90.33 487.52,-87.98 486.69,-85.62"/>
<polygon fill="black" stroke="black" points="489.94,-84.31 483.32,-76.03 483.34,-86.63 489.94,-84.31"/>
</g>
<!-- go -->
<g id="node8" class="node">
<title>go</title>
<ellipse fill="none" stroke="black" cx="186.94" cy="-188.81" rx="27" ry="18"/>
<text text-anchor="middle" x="186.94" y="-185.11" font-family="Times-Roman" font-size="14.00">go</text>
</g>
<!-- sightseeing -->
<g id="node9" class="node">
<title>sightseeing</title>
<ellipse fill="none" stroke="black" cx="255.81" cy="-105.75" rx="63.09" ry="18"/>
<text text-anchor="middle" x="255.81" y="-102.05" font-family="Times-Roman" font-size="14.00">sightseeing</text>
</g>
<!-- go&#45;&gt;sightseeing -->
<g id="edge6" class="edge">
<title>go&#45;&gt;sightseeing</title>
<path fill="none" stroke="black" d="M200.22,-172.8C209.93,-161.08 223.31,-144.95 234.5,-131.44"/>
<polygon fill="black" stroke="black" points="237.45,-133.37 241.14,-123.44 232.07,-128.9 237.45,-133.37"/>
</g>
<!-- camping -->
<g id="node10" class="node">
<title>camping</title>
<ellipse fill="none" stroke="black" cx="128.82" cy="-98" rx="50.09" ry="18"/>
<text text-anchor="middle" x="128.82" y="-94.3" font-family="Times-Roman" font-size="14.00">camping</text>
</g>
<!-- go&#45;&gt;camping -->
<g id="edge7" class="edge">
<title>go&#45;&gt;camping</title>
<path fill="none" stroke="black" d="M176.28,-172.16C167.73,-158.8 155.58,-139.81 145.71,-124.39"/>
<polygon fill="black" stroke="black" points="148.55,-122.33 140.21,-115.79 142.65,-126.1 148.55,-122.33"/>
</g>
<!-- surfing -->
<g id="node11" class="node">
<title>surfing</title>
<ellipse fill="none" stroke="black" cx="82.9" cy="-217.16" rx="42.79" ry="18"/>
<text text-anchor="middle" x="82.9" y="-213.46" font-family="Times-Roman" font-size="14.00">surfing</text>
</g>
<!-- go&#45;&gt;surfing -->
<g id="edge8" class="edge">
<title>go&#45;&gt;surfing</title>
<path fill="none" stroke="black" d="M161.75,-195.67C151.89,-198.36 140.26,-201.53 129,-204.6"/>
<polygon fill="black" stroke="black" points="127.99,-201.25 119.26,-207.25 129.83,-208 127.99,-201.25"/>
</g>
<!-- horse riding -->
<g id="node12" class="node">
<title>horse riding</title>
<ellipse fill="none" stroke="black" cx="287.59" cy="-227.93" rx="65.79" ry="18"/>
<text text-anchor="middle" x="287.59" y="-224.23" font-family="Times-Roman" font-size="14.00">horse riding</text>
</g>
<!-- go&#45;&gt;horse riding -->
<g id="edge9" class="edge">
<title>go&#45;&gt;horse riding</title>
<path fill="none" stroke="black" d="M210.28,-197.89C219.17,-201.34 229.66,-205.42 240,-209.44"/>
<polygon fill="black" stroke="black" points="238.81,-212.73 249.39,-213.09 241.34,-206.2 238.81,-212.73"/>
</g>
<!-- shopping -->
<g id="node13" class="node">
<title>shopping</title>
<ellipse fill="none" stroke="black" cx="181.85" cy="-296.63" rx="52.79" ry="18"/>
<text text-anchor="middle" x="181.85" y="-292.93" font-family="Times-Roman" font-size="14.00">shopping</text>
</g>
<!-- go&#45;&gt;shopping -->
<g id="edge10" class="edge">
<title>go&#45;&gt;shopping</title>
<path fill="none" stroke="black" d="M186.07,-207.1C185.28,-223.93 184.09,-249.15 183.18,-268.53"/>
<polygon fill="black" stroke="black" points="179.67,-268.46 182.7,-278.61 186.67,-268.79 179.67,-268.46"/>
</g>
<!-- go to -->
<g id="node14" class="node">
<title>go to</title>
<ellipse fill="none" stroke="black" cx="396.22" cy="-373.75" rx="33.6" ry="18"/>
<text text-anchor="middle" x="396.22" y="-370.05" font-family="Times-Roman" font-size="14.00">go to</text>
</g>
<!-- a café -->
<g id="node15" class="node">
<title>a café</title>
<ellipse fill="none" stroke="black" cx="476.37" cy="-386.19" rx="38.19" ry="18"/>
<text text-anchor="middle" x="476.37" y="-382.49" font-family="Times-Roman" font-size="14.00">a café</text>
</g>
<!-- go to&#45;&gt;a café -->
<g id="edge11" class="edge">
<title>go to&#45;&gt;a café</title>
<path fill="none" stroke="black" d="M428.82,-378.81C429.16,-378.86 429.5,-378.91 429.85,-378.97"/>
<polygon fill="black" stroke="black" points="429.45,-382.45 439.87,-380.52 430.53,-375.53 429.45,-382.45"/>
</g>
<!-- a nightclub -->
<g id="node16" class="node">
<title>a nightclub</title>
<ellipse fill="none" stroke="black" cx="367.3" cy="-298" rx="61.99" ry="18"/>
<text text-anchor="middle" x="367.3" y="-294.3" font-family="Times-Roman" font-size="14.00">a nightclub</text>
</g>
<!-- go to&#45;&gt;a nightclub -->
<g id="edge12" class="edge">
<title>go to&#45;&gt;a nightclub</title>
<path fill="none" stroke="black" d="M389.37,-355.8C385.94,-346.81 381.7,-335.72 377.87,-325.67"/>
<polygon fill="black" stroke="black" points="381.04,-324.18 374.21,-316.08 374.5,-326.68 381.04,-324.18"/>
</g>
<!-- a restaurant -->
<g id="node17" class="node">
<title>a restaurant</title>
<ellipse fill="none" stroke="black" cx="345.64" cy="-437.11" rx="65.79" ry="18"/>
<text text-anchor="middle" x="345.64" y="-433.41" font-family="Times-Roman" font-size="14.00">a restaurant</text>
</g>
<!-- go to&#45;&gt;a restaurant -->
<g id="edge13" class="edge">
<title>go to&#45;&gt;a restaurant</title>
<path fill="none" stroke="black" d="M382.93,-390.4C377.8,-396.83 371.81,-404.33 366.15,-411.42"/>
<polygon fill="black" stroke="black" points="363.23,-409.47 359.73,-419.47 368.7,-413.83 363.23,-409.47"/>
</g>
<!-- be on -->
<g id="node18" class="node">
<title>be on</title>
<ellipse fill="none" stroke="black" cx="316.4" cy="-171.14" rx="36.29" ry="18"/>
<text text-anchor="middle" x="316.4" y="-167.44" font-family="Times-Roman" font-size="14.00">be on</text>
</g>
<!-- holiday -->
<g id="node19" class="node">
<title>holiday</title>
<ellipse fill="none" stroke="black" cx="404.35" cy="-158" rx="43.59" ry="18"/>
<text text-anchor="middle" x="404.35" y="-154.3" font-family="Times-Roman" font-size="14.00">holiday</text>
</g>
<!-- be on&#45;&gt;holiday -->
<g id="edge14" class="edge">
<title>be on&#45;&gt;holiday</title>
<path fill="none" stroke="black" d="M351.41,-165.91C352.02,-165.82 352.64,-165.73 353.26,-165.63"/>
<polygon fill="black" stroke="black" points="353.99,-169.06 363.36,-164.12 352.95,-162.14 353.99,-169.06"/>
</g>
<!-- do -->
<g id="node20" class="node">
<title>do</title>
<ellipse fill="none" stroke="black" cx="27" cy="-31.97" rx="27" ry="18"/>
<text text-anchor="middle" x="27" y="-28.27" font-family="Times-Roman" font-size="14.00">do</text>
</g>
<!-- something -->
<g id="node21" class="node">
<title>something</title>
<ellipse fill="none" stroke="black" cx="120.5" cy="-18" rx="58.49" ry="18"/>
<text text-anchor="middle" x="120.5" y="-14.3" font-family="Times-Roman" font-size="14.00">something</text>
</g>
<!-- do&#45;&gt;something -->
<g id="edge15" class="edge">
<title>do&#45;&gt;something</title>
<path fill="none" stroke="black" d="M53.54,-28C54.96,-27.79 56.41,-27.58 57.88,-27.36"/>
<polygon fill="black" stroke="black" points="58.49,-30.8 67.87,-25.86 57.46,-23.88 58.49,-30.8"/>
</g>
<!-- in -->
<g id="node22" class="node">
<title>in</title>
<ellipse fill="none" stroke="black" cx="506.46" cy="-510.27" rx="27" ry="18"/>
<text text-anchor="middle" x="506.46" y="-506.57" font-family="Times-Roman" font-size="14.00">in</text>
</g>
<!-- spring -->
<g id="node23" class="node">
<title>spring</title>
<ellipse fill="none" stroke="black" cx="540.1" cy="-554.28" rx="39.79" ry="18"/>
<text text-anchor="middle" x="540.1" y="-550.58" font-family="Times-Roman" font-size="14.00">spring</text>
</g>
<!-- in&#45;&gt;spring -->
<g id="edge16" class="edge">
<title>in&#45;&gt;spring</title>
<path fill="none" stroke="black" d="M518.79,-526.41C519.47,-527.29 520.15,-528.19 520.84,-529.09"/>
<polygon fill="black" stroke="black" points="518.23,-531.44 527.08,-537.25 523.79,-527.18 518.23,-531.44"/>
</g>
<!-- summer -->
<g id="node24" class="node">
<title>summer</title>
<ellipse fill="none" stroke="black" cx="488.1" cy="-458" rx="48.19" ry="18"/>
<text text-anchor="middle" x="488.1" y="-454.3" font-family="Times-Roman" font-size="14.00">summer</text>
</g>
<!-- in&#45;&gt;summer -->
<g id="edge17" class="edge">
<title>in&#45;&gt;summer</title>
<path fill="none" stroke="black" d="M500.24,-492.57C499.45,-490.33 498.63,-487.98 497.8,-485.62"/>
<polygon fill="black" stroke="black" points="501.05,-484.31 494.43,-476.03 494.44,-486.63 501.05,-484.31"/>
</g>
</g>
</svg>
