<?xml version="1.0" encoding="UTF-8" standalone="no"?>
<!DOCTYPE svg PUBLIC "-//W3C//DTD SVG 1.1//EN"
 "http://www.w3.org/Graphics/SVG/1.1/DTD/svg11.dtd">
<!-- Generated by graphviz version 2.44.0 (0)
 -->
<!-- Pages: 1 -->
<svg width="828pt" height="687pt"
 viewBox="0.00 0.00 828.39 687.47" xmlns="http://www.w3.org/2000/svg" xmlns:xlink="http://www.w3.org/1999/xlink">
<g id="graph0" class="graph" transform="scale(1 1) rotate(0) translate(4 683.47)">
<polygon fill="white" stroke="transparent" points="-4,4 -4,-683.47 824.39,-683.47 824.39,4 -4,4"/>
<!-- by -->
<g id="node1" class="node">
<title>by</title>
<path fill="#f5f5f5" stroke="black" d="M105.39,-570C105.39,-570 75.39,-570 75.39,-570 69.39,-570 63.39,-564 63.39,-558 63.39,-558 63.39,-546 63.39,-546 63.39,-540 69.39,-534 75.39,-534 75.39,-534 105.39,-534 105.39,-534 111.39,-534 117.39,-540 117.39,-546 117.39,-546 117.39,-558 117.39,-558 117.39,-564 111.39,-570 105.39,-570"/>
<text text-anchor="middle" x="90.39" y="-548.3" font-family="Times-Roman" font-size="14.00">by</text>
</g>
<!-- plane -->
<g id="node2" class="node">
<title>plane</title>
<path fill="#f5f5f5" stroke="black" d="M232.39,-570C232.39,-570 201.39,-570 201.39,-570 195.39,-570 189.39,-564 189.39,-558 189.39,-558 189.39,-546 189.39,-546 189.39,-540 195.39,-534 201.39,-534 201.39,-534 232.39,-534 232.39,-534 238.39,-534 244.39,-540 244.39,-546 244.39,-546 244.39,-558 244.39,-558 244.39,-564 238.39,-570 232.39,-570"/>
<text text-anchor="middle" x="216.89" y="-548.3" font-family="Times-Roman" font-size="14.00">plane</text>
</g>
<!-- by&#45;&gt;plane -->
<g id="edge1" class="edge">
<title>by&#45;&gt;plane</title>
<path fill="none" stroke="black" d="M117.53,-552C135.5,-552 159.32,-552 179.13,-552"/>
<polygon fill="black" stroke="black" points="179.37,-555.5 189.37,-552 179.37,-548.5 179.37,-555.5"/>
</g>
<!-- car -->
<g id="node3" class="node">
<title>car</title>
<path fill="#f5f5f5" stroke="black" d="M42,-679.47C42,-679.47 12,-679.47 12,-679.47 6,-679.47 0,-673.47 0,-667.47 0,-667.47 0,-655.47 0,-655.47 0,-649.47 6,-643.47 12,-643.47 12,-643.47 42,-643.47 42,-643.47 48,-643.47 54,-649.47 54,-655.47 54,-655.47 54,-667.47 54,-667.47 54,-673.47 48,-679.47 42,-679.47"/>
<text text-anchor="middle" x="27" y="-657.77" font-family="Times-Roman" font-size="14.00">car</text>
</g>
<!-- by&#45;&gt;car -->
<g id="edge2" class="edge">
<title>by&#45;&gt;car</title>
<path fill="none" stroke="black" d="M79.93,-570.08C69.74,-587.67 54.14,-614.6 42.51,-634.68"/>
<polygon fill="black" stroke="black" points="39.47,-632.96 37.48,-643.37 45.52,-636.47 39.47,-632.96"/>
</g>
<!-- train -->
<g id="node4" class="node">
<title>train</title>
<path fill="#f5f5f5" stroke="black" d="M42,-460.53C42,-460.53 12,-460.53 12,-460.53 6,-460.53 0,-454.53 0,-448.53 0,-448.53 0,-436.53 0,-436.53 0,-430.53 6,-424.53 12,-424.53 12,-424.53 42,-424.53 42,-424.53 48,-424.53 54,-430.53 54,-436.53 54,-436.53 54,-448.53 54,-448.53 54,-454.53 48,-460.53 42,-460.53"/>
<text text-anchor="middle" x="27" y="-438.83" font-family="Times-Roman" font-size="14.00">train</text>
</g>
<!-- by&#45;&gt;train -->
<g id="edge3" class="edge">
<title>by&#45;&gt;train</title>
<path fill="none" stroke="black" d="M79.93,-533.92C69.74,-516.33 54.14,-489.4 42.51,-469.32"/>
<polygon fill="black" stroke="black" points="45.52,-467.53 37.48,-460.63 39.47,-471.04 45.52,-467.53"/>
</g>
<!-- in a -->
<g id="node5" class="node">
<title>in a</title>
<path fill="#f5f5f5" stroke="black" d="M619.39,-111C619.39,-111 589.39,-111 589.39,-111 583.39,-111 577.39,-105 577.39,-99 577.39,-99 577.39,-87 577.39,-87 577.39,-81 583.39,-75 589.39,-75 589.39,-75 619.39,-75 619.39,-75 625.39,-75 631.39,-81 631.39,-87 631.39,-87 631.39,-99 631.39,-99 631.39,-105 625.39,-111 619.39,-111"/>
<text text-anchor="middle" x="604.39" y="-89.3" font-family="Times-Roman" font-size="14.00">in a</text>
</g>
<!-- hotel -->
<g id="node6" class="node">
<title>hotel</title>
<path fill="#f5f5f5" stroke="black" d="M808.39,-111C808.39,-111 778.39,-111 778.39,-111 772.39,-111 766.39,-105 766.39,-99 766.39,-99 766.39,-87 766.39,-87 766.39,-81 772.39,-75 778.39,-75 778.39,-75 808.39,-75 808.39,-75 814.39,-75 820.39,-81 820.39,-87 820.39,-87 820.39,-99 820.39,-99 820.39,-105 814.39,-111 808.39,-111"/>
<text text-anchor="middle" x="793.39" y="-89.3" font-family="Times-Roman" font-size="14.00">hotel</text>
</g>
<!-- in a&#45;&gt;hotel -->
<g id="edge4" class="edge">
<title>in a&#45;&gt;hotel</title>
<path fill="none" stroke="black" d="M631.47,-93C664.17,-93 719.35,-93 756.07,-93"/>
<polygon fill="black" stroke="black" points="756.37,-96.5 766.37,-93 756.37,-89.5 756.37,-96.5"/>
</g>
<!-- self&#45;catering apartment -->
<g id="node7" class="node">
<title>self&#45;catering apartment</title>
<path fill="#f5f5f5" stroke="black" d="M493.39,-111C493.39,-111 337.39,-111 337.39,-111 331.39,-111 325.39,-105 325.39,-99 325.39,-99 325.39,-87 325.39,-87 325.39,-81 331.39,-75 337.39,-75 337.39,-75 493.39,-75 493.39,-75 499.39,-75 505.39,-81 505.39,-87 505.39,-87 505.39,-99 505.39,-99 505.39,-105 499.39,-111 493.39,-111"/>
<text text-anchor="middle" x="415.39" y="-89.3" font-family="Times-Roman" font-size="14.00">self&#45;catering apartment</text>
</g>
<!-- in a&#45;&gt;self&#45;catering apartment -->
<g id="edge5" class="edge">
<title>in a&#45;&gt;self&#45;catering apartment</title>
<path fill="none" stroke="black" d="M577.32,-93C560.78,-93 538.49,-93 515.75,-93"/>
<polygon fill="black" stroke="black" points="515.64,-89.5 505.64,-93 515.64,-96.5 515.64,-89.5"/>
</g>
<!-- go -->
<g id="node8" class="node">
<title>go</title>
<path fill="#f5f5f5" stroke="black" d="M243.39,-180C243.39,-180 213.39,-180 213.39,-180 207.39,-180 201.39,-174 201.39,-168 201.39,-168 201.39,-156 201.39,-156 201.39,-150 207.39,-144 213.39,-144 213.39,-144 243.39,-144 243.39,-144 249.39,-144 255.39,-150 255.39,-156 255.39,-156 255.39,-168 255.39,-168 255.39,-174 249.39,-180 243.39,-180"/>
<text text-anchor="middle" x="228.39" y="-158.3" font-family="Times-Roman" font-size="14.00">go</text>
</g>
<!-- sightseeing -->
<g id="node9" class="node">
<title>sightseeing</title>
<path fill="#f5f5f5" stroke="black" d="M414.39,-180C414.39,-180 341.39,-180 341.39,-180 335.39,-180 329.39,-174 329.39,-168 329.39,-168 329.39,-156 329.39,-156 329.39,-150 335.39,-144 341.39,-144 341.39,-144 414.39,-144 414.39,-144 420.39,-144 426.39,-150 426.39,-156 426.39,-156 426.39,-168 426.39,-168 426.39,-174 420.39,-180 414.39,-180"/>
<text text-anchor="middle" x="377.89" y="-158.3" font-family="Times-Roman" font-size="14.00">sightseeing</text>
</g>
<!-- go&#45;&gt;sightseeing -->
<g id="edge6" class="edge">
<title>go&#45;&gt;sightseeing</title>
<path fill="none" stroke="black" d="M255.47,-162C273.19,-162 297.05,-162 319,-162"/>
<polygon fill="black" stroke="black" points="319.26,-165.5 329.26,-162 319.26,-158.5 319.26,-165.5"/>
</g>
<!-- camping -->
<g id="node10" class="node">
<title>camping</title>
<path fill="#f5f5f5" stroke="black" d="M298.61,-322.96C298.61,-322.96 245.61,-322.96 245.61,-322.96 239.61,-322.96 233.61,-316.96 233.61,-310.96 233.61,-310.96 233.61,-298.96 233.61,-298.96 233.61,-292.96 239.61,-286.96 245.61,-286.96 245.61,-286.96 298.61,-286.96 298.61,-286.96 304.61,-286.96 310.61,-292.96 310.61,-298.96 310.61,-298.96 310.61,-310.96 310.61,-310.96 310.61,-316.96 304.61,-322.96 298.61,-322.96"/>
<text text-anchor="middle" x="272.11" y="-301.26" font-family="Times-Roman" font-size="14.00">camping</text>
</g>
<!-- go&#45;&gt;camping -->
<g id="edge7" class="edge">
<title>go&#45;&gt;camping</title>
<path fill="none" stroke="black" d="M233.93,-180.11C241.38,-204.46 254.7,-248.03 263.48,-276.72"/>
<polygon fill="black" stroke="black" points="260.21,-278.01 266.48,-286.55 266.91,-275.97 260.21,-278.01"/>
</g>
<!-- surfing -->
<g id="node11" class="node">
<title>surfing</title>
<path fill="#f5f5f5" stroke="black" d="M134.78,-275.99C134.78,-275.99 92.78,-275.99 92.78,-275.99 86.78,-275.99 80.78,-269.99 80.78,-263.99 80.78,-263.99 80.78,-251.99 80.78,-251.99 80.78,-245.99 86.78,-239.99 92.78,-239.99 92.78,-239.99 134.78,-239.99 134.78,-239.99 140.78,-239.99 146.78,-245.99 146.78,-251.99 146.78,-251.99 146.78,-263.99 146.78,-263.99 146.78,-269.99 140.78,-275.99 134.78,-275.99"/>
<text text-anchor="middle" x="113.78" y="-254.29" font-family="Times-Roman" font-size="14.00">surfing</text>
</g>
<!-- go&#45;&gt;surfing -->
<g id="edge8" class="edge">
<title>go&#45;&gt;surfing</title>
<path fill="none" stroke="black" d="M206.84,-180.06C188.94,-195.04 163.3,-216.52 143.47,-233.13"/>
<polygon fill="black" stroke="black" points="141.05,-230.59 135.63,-239.69 145.55,-235.95 141.05,-230.59"/>
</g>
<!-- horse riding -->
<g id="node12" class="node">
<title>horse riding</title>
<path fill="#f5f5f5" stroke="black" d="M139.71,-101.43C139.71,-101.43 62.71,-101.43 62.71,-101.43 56.71,-101.43 50.71,-95.43 50.71,-89.43 50.71,-89.43 50.71,-77.43 50.71,-77.43 50.71,-71.43 56.71,-65.43 62.71,-65.43 62.71,-65.43 139.71,-65.43 139.71,-65.43 145.71,-65.43 151.71,-71.43 151.71,-77.43 151.71,-77.43 151.71,-89.43 151.71,-89.43 151.71,-95.43 145.71,-101.43 139.71,-101.43"/>
<text text-anchor="middle" x="101.21" y="-79.73" font-family="Times-Roman" font-size="14.00">horse riding</text>
</g>
<!-- go&#45;&gt;horse riding -->
<g id="edge9" class="edge">
<title>go&#45;&gt;horse riding</title>
<path fill="none" stroke="black" d="M201.11,-145.14C183.05,-133.99 159.12,-119.2 139.21,-106.9"/>
<polygon fill="black" stroke="black" points="141.01,-103.9 130.66,-101.62 137.33,-109.86 141.01,-103.9"/>
</g>
<!-- shopping -->
<g id="node13" class="node">
<title>shopping</title>
<path fill="#f5f5f5" stroke="black" d="M298.7,-36.46C298.7,-36.46 241.7,-36.46 241.7,-36.46 235.7,-36.46 229.7,-30.46 229.7,-24.46 229.7,-24.46 229.7,-12.46 229.7,-12.46 229.7,-6.46 235.7,-0.46 241.7,-0.46 241.7,-0.46 298.7,-0.46 298.7,-0.46 304.7,-0.46 310.7,-6.46 310.7,-12.46 310.7,-12.46 310.7,-24.46 310.7,-24.46 310.7,-30.46 304.7,-36.46 298.7,-36.46"/>
<text text-anchor="middle" x="270.2" y="-14.76" font-family="Times-Roman" font-size="14.00">shopping</text>
</g>
<!-- go&#45;&gt;shopping -->
<g id="edge10" class="edge">
<title>go&#45;&gt;shopping</title>
<path fill="none" stroke="black" d="M233.69,-143.82C240.85,-119.23 253.69,-75.14 262.08,-46.35"/>
<polygon fill="black" stroke="black" points="265.51,-47.07 264.95,-36.49 258.79,-45.12 265.51,-47.07"/>
</g>
<!-- go to -->
<g id="node14" class="node">
<title>go to</title>
<path fill="#f5f5f5" stroke="black" d="M436.39,-393C436.39,-393 406.39,-393 406.39,-393 400.39,-393 394.39,-387 394.39,-381 394.39,-381 394.39,-369 394.39,-369 394.39,-363 400.39,-357 406.39,-357 406.39,-357 436.39,-357 436.39,-357 442.39,-357 448.39,-363 448.39,-369 448.39,-369 448.39,-381 448.39,-381 448.39,-387 442.39,-393 436.39,-393"/>
<text text-anchor="middle" x="421.39" y="-371.3" font-family="Times-Roman" font-size="14.00">go to</text>
</g>
<!-- a café -->
<g id="node15" class="node">
<title>a café</title>
<path fill="#f5f5f5" stroke="black" d="M588.39,-393C588.39,-393 553.39,-393 553.39,-393 547.39,-393 541.39,-387 541.39,-381 541.39,-381 541.39,-369 541.39,-369 541.39,-363 547.39,-357 553.39,-357 553.39,-357 588.39,-357 588.39,-357 594.39,-357 600.39,-363 600.39,-369 600.39,-369 600.39,-381 600.39,-381 600.39,-387 594.39,-393 588.39,-393"/>
<text text-anchor="middle" x="570.89" y="-371.3" font-family="Times-Roman" font-size="14.00">a café</text>
</g>
<!-- go to&#45;&gt;a café -->
<g id="edge11" class="edge">
<title>go to&#45;&gt;a café</title>
<path fill="none" stroke="black" d="M448.47,-375C471.47,-375 504.8,-375 530.88,-375"/>
<polygon fill="black" stroke="black" points="531.2,-378.5 541.2,-375 531.2,-371.5 531.2,-378.5"/>
</g>
<!-- a nightclub -->
<g id="node16" class="node">
<title>a nightclub</title>
<path fill="#f5f5f5" stroke="black" d="M389.18,-526.28C389.18,-526.28 318.18,-526.28 318.18,-526.28 312.18,-526.28 306.18,-520.28 306.18,-514.28 306.18,-514.28 306.18,-502.28 306.18,-502.28 306.18,-496.28 312.18,-490.28 318.18,-490.28 318.18,-490.28 389.18,-490.28 389.18,-490.28 395.18,-490.28 401.18,-496.28 401.18,-502.28 401.18,-502.28 401.18,-514.28 401.18,-514.28 401.18,-520.28 395.18,-526.28 389.18,-526.28"/>
<text text-anchor="middle" x="353.68" y="-504.58" font-family="Times-Roman" font-size="14.00">a nightclub</text>
</g>
<!-- go to&#45;&gt;a nightclub -->
<g id="edge12" class="edge">
<title>go to&#45;&gt;a nightclub</title>
<path fill="none" stroke="black" d="M412.12,-393.25C400.57,-415.98 380.74,-455.01 367.42,-481.23"/>
<polygon fill="black" stroke="black" points="364.25,-479.75 362.84,-490.25 370.49,-482.92 364.25,-479.75"/>
</g>
<!-- a restaurant -->
<g id="node17" class="node">
<title>a restaurant</title>
<path fill="#f5f5f5" stroke="black" d="M389.52,-261.1C389.52,-261.1 312.52,-261.1 312.52,-261.1 306.52,-261.1 300.52,-255.1 300.52,-249.1 300.52,-249.1 300.52,-237.1 300.52,-237.1 300.52,-231.1 306.52,-225.1 312.52,-225.1 312.52,-225.1 389.52,-225.1 389.52,-225.1 395.52,-225.1 401.52,-231.1 401.52,-237.1 401.52,-237.1 401.52,-249.1 401.52,-249.1 401.52,-255.1 395.52,-261.1 389.52,-261.1"/>
<text text-anchor="middle" x="351.02" y="-239.4" font-family="Times-Roman" font-size="14.00">a restaurant</text>
</g>
<!-- go to&#45;&gt;a restaurant -->
<g id="edge13" class="edge">
<title>go to&#45;&gt;a restaurant</title>
<path fill="none" stroke="black" d="M411.76,-356.94C399.82,-334.57 379.37,-296.25 365.53,-270.31"/>
<polygon fill="black" stroke="black" points="368.56,-268.55 360.76,-261.37 362.38,-271.84 368.56,-268.55"/>
</g>
<!-- be on -->
<g id="node18" class="node">
<title>be on</title>
<path fill="#f5f5f5" stroke="black" d="M194.89,-411C194.89,-411 162.89,-411 162.89,-411 156.89,-411 150.89,-405 150.89,-399 150.89,-399 150.89,-387 150.89,-387 150.89,-381 156.89,-375 162.89,-375 162.89,-375 194.89,-375 194.89,-375 200.89,-375 206.89,-381 206.89,-387 206.89,-387 206.89,-399 206.89,-399 206.89,-405 200.89,-411 194.89,-411"/>
<text text-anchor="middle" x="178.89" y="-389.3" font-family="Times-Roman" font-size="14.00">be on</text>
</g>
<!-- holiday -->
<g id="node19" class="node">
<title>holiday</title>
<path fill="#f5f5f5" stroke="black" d="M333.89,-411C333.89,-411 290.89,-411 290.89,-411 284.89,-411 278.89,-405 278.89,-399 278.89,-399 278.89,-387 278.89,-387 278.89,-381 284.89,-375 290.89,-375 290.89,-375 333.89,-375 333.89,-375 339.89,-375 345.89,-381 345.89,-387 345.89,-387 345.89,-399 345.89,-399 345.89,-405 339.89,-411 333.89,-411"/>
<text text-anchor="middle" x="312.39" y="-389.3" font-family="Times-Roman" font-size="14.00">holiday</text>
</g>
<!-- be on&#45;&gt;holiday -->
<g id="edge14" class="edge">
<title>be on&#45;&gt;holiday</title>
<path fill="none" stroke="black" d="M207.21,-393C224.93,-393 248.15,-393 268.26,-393"/>
<polygon fill="black" stroke="black" points="268.45,-396.5 278.45,-393 268.45,-389.5 268.45,-396.5"/>
</g>
<!-- do -->
<g id="node20" class="node">
<title>do</title>
<path fill="#f5f5f5" stroke="black" d="M492.39,-261C492.39,-261 462.39,-261 462.39,-261 456.39,-261 450.39,-255 450.39,-249 450.39,-249 450.39,-237 450.39,-237 450.39,-231 456.39,-225 462.39,-225 462.39,-225 492.39,-225 492.39,-225 498.39,-225 504.39,-231 504.39,-237 504.39,-237 504.39,-249 504.39,-249 504.39,-255 498.39,-261 492.39,-261"/>
<text text-anchor="middle" x="477.39" y="-239.3" font-family="Times-Roman" font-size="14.00">do</text>
</g>
<!-- something -->
<g id="node21" class="node">
<title>something</title>
<path fill="#f5f5f5" stroke="black" d="M654.39,-261C654.39,-261 588.39,-261 588.39,-261 582.39,-261 576.39,-255 576.39,-249 576.39,-249 576.39,-237 576.39,-237 576.39,-231 582.39,-225 588.39,-225 588.39,-225 654.39,-225 654.39,-225 660.39,-225 666.39,-231 666.39,-237 666.39,-237 666.39,-249 666.39,-249 666.39,-255 660.39,-261 654.39,-261"/>
<text text-anchor="middle" x="621.39" y="-239.3" font-family="Times-Roman" font-size="14.00">something</text>
</g>
<!-- do&#45;&gt;something -->
<g id="edge15" class="edge">
<title>do&#45;&gt;something</title>
<path fill="none" stroke="black" d="M504.48,-243C521.84,-243 545.01,-243 566.14,-243"/>
<polygon fill="black" stroke="black" points="566.31,-246.5 576.31,-243 566.31,-239.5 566.31,-246.5"/>
</g>
<!-- in -->
<g id="node22" class="node">
<title>in</title>
<path fill="#f5f5f5" stroke="black" d="M538.39,-36C538.39,-36 508.39,-36 508.39,-36 502.39,-36 496.39,-30 496.39,-24 496.39,-24 496.39,-12 496.39,-12 496.39,-6 502.39,0 508.39,0 508.39,0 538.39,0 538.39,0 544.39,0 550.39,-6 550.39,-12 550.39,-12 550.39,-24 550.39,-24 550.39,-30 544.39,-36 538.39,-36"/>
<text text-anchor="middle" x="523.39" y="-14.3" font-family="Times-Roman" font-size="14.00">in</text>
</g>
<!-- spring -->
<g id="node23" class="node">
<title>spring</title>
<path fill="#f5f5f5" stroke="black" d="M677.89,-36C677.89,-36 640.89,-36 640.89,-36 634.89,-36 628.89,-30 628.89,-24 628.89,-24 628.89,-12 628.89,-12 628.89,-6 634.89,0 640.89,0 640.89,0 677.89,0 677.89,0 683.89,0 689.89,-6 689.89,-12 689.89,-12 689.89,-24 689.89,-24 689.89,-30 683.89,-36 677.89,-36"/>
<text text-anchor="middle" x="659.39" y="-14.3" font-family="Times-Roman" font-size="14.00">spring</text>
</g>
<!-- in&#45;&gt;spring -->
<g id="edge16" class="edge">
<title>in&#45;&gt;spring</title>
<path fill="none" stroke="black" d="M550.59,-18C570,-18 596.44,-18 618.4,-18"/>
<polygon fill="black" stroke="black" points="618.44,-21.5 628.44,-18 618.44,-14.5 618.44,-21.5"/>
</g>
<!-- summer -->
<g id="node24" class="node">
<title>summer</title>
<path fill="#f5f5f5" stroke="black" d="M412.39,-36C412.39,-36 362.39,-36 362.39,-36 356.39,-36 350.39,-30 350.39,-24 350.39,-24 350.39,-12 350.39,-12 350.39,-6 356.39,0 362.39,0 362.39,0 412.39,0 412.39,0 418.39,0 424.39,-6 424.39,-12 424.39,-12 424.39,-24 424.39,-24 424.39,-30 418.39,-36 412.39,-36"/>
<text text-anchor="middle" x="387.39" y="-14.3" font-family="Times-Roman" font-size="14.00">summer</text>
</g>
<!-- in&#45;&gt;summer -->
<g id="edge17" class="edge">
<title>in&#45;&gt;summer</title>
<path fill="none" stroke="black" d="M496.2,-18C478.63,-18 455.28,-18 434.73,-18"/>
<polygon fill="black" stroke="black" points="434.59,-14.5 424.59,-18 434.59,-21.5 434.59,-14.5"/>
</g>
</g>
</svg>
