<?xml version="1.0" encoding="UTF-8" standalone="no"?>
<!DOCTYPE svg PUBLIC "-//W3C//DTD SVG 1.1//EN"
 "http://www.w3.org/Graphics/SVG/1.1/DTD/svg11.dtd">
<!-- Generated by graphviz version 2.44.0 (0)
 -->
<!-- Pages: 1 -->
<svg width="542pt" height="554pt"
 viewBox="0.00 0.00 541.50 554.28" xmlns="http://www.w3.org/2000/svg" xmlns:xlink="http://www.w3.org/1999/xlink">
<g id="graph0" class="graph" transform="scale(1 1) rotate(0) translate(4 550.28)">
<polygon fill="white" stroke="transparent" points="-4,4 -4,-550.28 537.5,-550.28 537.5,4 -4,4"/>
<!-- by -->
<g id="node1" class="node">
<title>by</title>
<path fill="#f5f5f5" stroke="black" d="M153.44,-419.07C153.44,-419.07 123.44,-419.07 123.44,-419.07 117.44,-419.07 111.44,-413.07 111.44,-407.07 111.44,-407.07 111.44,-395.07 111.44,-395.07 111.44,-389.07 117.44,-383.07 123.44,-383.07 123.44,-383.07 153.44,-383.07 153.44,-383.07 159.44,-383.07 165.44,-389.07 165.44,-395.07 165.44,-395.07 165.44,-407.07 165.44,-407.07 165.44,-413.07 159.44,-419.07 153.44,-419.07"/>
<text text-anchor="middle" x="138.44" y="-397.37" font-family="Times-Roman" font-size="14.00">by</text>
</g>
<!-- plane -->
<g id="node2" class="node">
<title>plane</title>
<path fill="#f5f5f5" stroke="black" d="M216.45,-428.77C216.45,-428.77 185.45,-428.77 185.45,-428.77 179.45,-428.77 173.45,-422.77 173.45,-416.77 173.45,-416.77 173.45,-404.77 173.45,-404.77 173.45,-398.77 179.45,-392.77 185.45,-392.77 185.45,-392.77 216.45,-392.77 216.45,-392.77 222.45,-392.77 228.45,-398.77 228.45,-404.77 228.45,-404.77 228.45,-416.77 228.45,-416.77 228.45,-422.77 222.45,-428.77 216.45,-428.77"/>
<text text-anchor="middle" x="200.95" y="-407.07" font-family="Times-Roman" font-size="14.00">plane</text>
</g>
<!-- by&#45;&gt;plane -->
<g id="edge1" class="edge">
<title>by&#45;&gt;plane</title>
<path fill="none" stroke="black" d="M165.68,-405.3C165.83,-405.32 165.99,-405.35 166.15,-405.37"/>
<polygon fill="black" stroke="black" points="162.8,-408.39 173.22,-406.47 163.87,-401.48 162.8,-408.39"/>
</g>
<!-- car -->
<g id="node3" class="node">
<title>car</title>
<path fill="#f5f5f5" stroke="black" d="M130.89,-360C130.89,-360 100.89,-360 100.89,-360 94.89,-360 88.89,-354 88.89,-348 88.89,-348 88.89,-336 88.89,-336 88.89,-330 94.89,-324 100.89,-324 100.89,-324 130.89,-324 130.89,-324 136.89,-324 142.89,-330 142.89,-336 142.89,-336 142.89,-348 142.89,-348 142.89,-354 136.89,-360 130.89,-360"/>
<text text-anchor="middle" x="115.89" y="-338.3" font-family="Times-Roman" font-size="14.00">car</text>
</g>
<!-- by&#45;&gt;car -->
<g id="edge2" class="edge">
<title>by&#45;&gt;car</title>
<path fill="none" stroke="black" d="M131.55,-383.03C129.97,-378.87 128.24,-374.35 126.54,-369.88"/>
<polygon fill="black" stroke="black" points="129.73,-368.44 122.89,-360.34 123.19,-370.93 129.73,-368.44"/>
</g>
<!-- train -->
<g id="node4" class="node">
<title>train</title>
<path fill="#f5f5f5" stroke="black" d="M114,-468.49C114,-468.49 84,-468.49 84,-468.49 78,-468.49 72,-462.49 72,-456.49 72,-456.49 72,-444.49 72,-444.49 72,-438.49 78,-432.49 84,-432.49 84,-432.49 114,-432.49 114,-432.49 120,-432.49 126,-438.49 126,-444.49 126,-444.49 126,-456.49 126,-456.49 126,-462.49 120,-468.49 114,-468.49"/>
<text text-anchor="middle" x="99" y="-446.79" font-family="Times-Roman" font-size="14.00">train</text>
</g>
<!-- by&#45;&gt;train -->
<g id="edge3" class="edge">
<title>by&#45;&gt;train</title>
<path fill="none" stroke="black" d="M123.98,-419.19C122.59,-420.94 121.15,-422.73 119.72,-424.53"/>
<polygon fill="black" stroke="black" points="116.96,-422.37 113.46,-432.37 122.43,-426.74 116.96,-422.37"/>
</g>
<!-- in a -->
<g id="node5" class="node">
<title>in a</title>
<path fill="#f5f5f5" stroke="black" d="M447.36,-160.27C447.36,-160.27 417.36,-160.27 417.36,-160.27 411.36,-160.27 405.36,-154.27 405.36,-148.27 405.36,-148.27 405.36,-136.27 405.36,-136.27 405.36,-130.27 411.36,-124.27 417.36,-124.27 417.36,-124.27 447.36,-124.27 447.36,-124.27 453.36,-124.27 459.36,-130.27 459.36,-136.27 459.36,-136.27 459.36,-148.27 459.36,-148.27 459.36,-154.27 453.36,-160.27 447.36,-160.27"/>
<text text-anchor="middle" x="432.36" y="-138.57" font-family="Times-Roman" font-size="14.00">in a</text>
</g>
<!-- hotel -->
<g id="node6" class="node">
<title>hotel</title>
<path fill="#f5f5f5" stroke="black" d="M481,-204.28C481,-204.28 451,-204.28 451,-204.28 445,-204.28 439,-198.28 439,-192.28 439,-192.28 439,-180.28 439,-180.28 439,-174.28 445,-168.28 451,-168.28 451,-168.28 481,-168.28 481,-168.28 487,-168.28 493,-174.28 493,-180.28 493,-180.28 493,-192.28 493,-192.28 493,-198.28 487,-204.28 481,-204.28"/>
<text text-anchor="middle" x="466" y="-182.58" font-family="Times-Roman" font-size="14.00">hotel</text>
</g>
<!-- in a&#45;&gt;hotel -->
<g id="edge4" class="edge">
<title>in a&#45;&gt;hotel</title>
<path fill="none" stroke="black" d="M446.24,-160.42C446.36,-160.58 446.48,-160.74 446.6,-160.9"/>
<polygon fill="black" stroke="black" points="443.3,-162.35 452.16,-168.17 448.86,-158.1 443.3,-162.35"/>
</g>
<!-- self&#45;catering apartment -->
<g id="node7" class="node">
<title>self&#45;catering apartment</title>
<path fill="#f5f5f5" stroke="black" d="M492,-108C492,-108 336,-108 336,-108 330,-108 324,-102 324,-96 324,-96 324,-84 324,-84 324,-78 330,-72 336,-72 336,-72 492,-72 492,-72 498,-72 504,-78 504,-84 504,-84 504,-96 504,-96 504,-102 498,-108 492,-108"/>
<text text-anchor="middle" x="414" y="-86.3" font-family="Times-Roman" font-size="14.00">self&#45;catering apartment</text>
</g>
<!-- in a&#45;&gt;self&#45;catering apartment -->
<g id="edge5" class="edge">
<title>in a&#45;&gt;self&#45;catering apartment</title>
<path fill="none" stroke="black" d="M425.94,-123.99C425.2,-121.88 424.43,-119.7 423.66,-117.51"/>
<polygon fill="black" stroke="black" points="426.94,-116.28 420.32,-108.01 420.34,-118.6 426.94,-116.28"/>
</g>
<!-- go -->
<g id="node8" class="node">
<title>go</title>
<path fill="#f5f5f5" stroke="black" d="M190.39,-203.15C190.39,-203.15 160.39,-203.15 160.39,-203.15 154.39,-203.15 148.39,-197.15 148.39,-191.15 148.39,-191.15 148.39,-179.15 148.39,-179.15 148.39,-173.15 154.39,-167.15 160.39,-167.15 160.39,-167.15 190.39,-167.15 190.39,-167.15 196.39,-167.15 202.39,-173.15 202.39,-179.15 202.39,-179.15 202.39,-191.15 202.39,-191.15 202.39,-197.15 196.39,-203.15 190.39,-203.15"/>
<text text-anchor="middle" x="175.39" y="-181.45" font-family="Times-Roman" font-size="14.00">go</text>
</g>
<!-- sightseeing -->
<g id="node9" class="node">
<title>sightseeing</title>
<path fill="#f5f5f5" stroke="black" d="M270.4,-132.58C270.4,-132.58 197.4,-132.58 197.4,-132.58 191.4,-132.58 185.4,-126.58 185.4,-120.58 185.4,-120.58 185.4,-108.58 185.4,-108.58 185.4,-102.58 191.4,-96.58 197.4,-96.58 197.4,-96.58 270.4,-96.58 270.4,-96.58 276.4,-96.58 282.4,-102.58 282.4,-108.58 282.4,-108.58 282.4,-120.58 282.4,-120.58 282.4,-126.58 276.4,-132.58 270.4,-132.58"/>
<text text-anchor="middle" x="233.9" y="-110.88" font-family="Times-Roman" font-size="14.00">sightseeing</text>
</g>
<!-- go&#45;&gt;sightseeing -->
<g id="edge6" class="edge">
<title>go&#45;&gt;sightseeing</title>
<path fill="none" stroke="black" d="M190.45,-166.97C197.09,-158.97 205.01,-149.42 212.26,-140.67"/>
<polygon fill="black" stroke="black" points="214.99,-142.87 218.68,-132.94 209.6,-138.4 214.99,-142.87"/>
</g>
<!-- camping -->
<g id="node10" class="node">
<title>camping</title>
<path fill="#f5f5f5" stroke="black" d="M152.52,-126C152.52,-126 99.52,-126 99.52,-126 93.52,-126 87.52,-120 87.52,-114 87.52,-114 87.52,-102 87.52,-102 87.52,-96 93.52,-90 99.52,-90 99.52,-90 152.52,-90 152.52,-90 158.52,-90 164.52,-96 164.52,-102 164.52,-102 164.52,-114 164.52,-114 164.52,-120 158.52,-126 152.52,-126"/>
<text text-anchor="middle" x="126.02" y="-104.3" font-family="Times-Roman" font-size="14.00">camping</text>
</g>
<!-- go&#45;&gt;camping -->
<g id="edge7" class="edge">
<title>go&#45;&gt;camping</title>
<path fill="none" stroke="black" d="M163.69,-166.86C157.54,-157.26 149.89,-145.3 143.09,-134.68"/>
<polygon fill="black" stroke="black" points="145.97,-132.69 137.63,-126.15 140.08,-136.46 145.97,-132.69"/>
</g>
<!-- surfing -->
<g id="node11" class="node">
<title>surfing</title>
<path fill="#f5f5f5" stroke="black" d="M108,-227.23C108,-227.23 66,-227.23 66,-227.23 60,-227.23 54,-221.23 54,-215.23 54,-215.23 54,-203.23 54,-203.23 54,-197.23 60,-191.23 66,-191.23 66,-191.23 108,-191.23 108,-191.23 114,-191.23 120,-197.23 120,-203.23 120,-203.23 120,-215.23 120,-215.23 120,-221.23 114,-227.23 108,-227.23"/>
<text text-anchor="middle" x="87" y="-205.53" font-family="Times-Roman" font-size="14.00">surfing</text>
</g>
<!-- go&#45;&gt;surfing -->
<g id="edge8" class="edge">
<title>go&#45;&gt;surfing</title>
<path fill="none" stroke="black" d="M147.9,-192.64C142.26,-194.17 136.18,-195.83 130.13,-197.48"/>
<polygon fill="black" stroke="black" points="128.78,-194.22 120.05,-200.22 130.62,-200.97 128.78,-194.22"/>
</g>
<!-- horse riding -->
<g id="node12" class="node">
<title>horse riding</title>
<path fill="#f5f5f5" stroke="black" d="M299.39,-236.38C299.39,-236.38 222.39,-236.38 222.39,-236.38 216.39,-236.38 210.39,-230.38 210.39,-224.38 210.39,-224.38 210.39,-212.38 210.39,-212.38 210.39,-206.38 216.39,-200.38 222.39,-200.38 222.39,-200.38 299.39,-200.38 299.39,-200.38 305.39,-200.38 311.39,-206.38 311.39,-212.38 311.39,-212.38 311.39,-224.38 311.39,-224.38 311.39,-230.38 305.39,-236.38 299.39,-236.38"/>
<text text-anchor="middle" x="260.89" y="-214.68" font-family="Times-Roman" font-size="14.00">horse riding</text>
</g>
<!-- go&#45;&gt;horse riding -->
<g id="edge9" class="edge">
<title>go&#45;&gt;horse riding</title>
<path fill="none" stroke="black" d="M202.44,-195.66C203.28,-195.99 204.12,-196.32 204.97,-196.65"/>
<polygon fill="black" stroke="black" points="203.74,-199.92 214.32,-200.28 206.27,-193.4 203.74,-199.92"/>
</g>
<!-- shopping -->
<g id="node13" class="node">
<title>shopping</title>
<path fill="#f5f5f5" stroke="black" d="M199.56,-294.74C199.56,-294.74 142.56,-294.74 142.56,-294.74 136.56,-294.74 130.56,-288.74 130.56,-282.74 130.56,-282.74 130.56,-270.74 130.56,-270.74 130.56,-264.74 136.56,-258.74 142.56,-258.74 142.56,-258.74 199.56,-258.74 199.56,-258.74 205.56,-258.74 211.56,-264.74 211.56,-270.74 211.56,-270.74 211.56,-282.74 211.56,-282.74 211.56,-288.74 205.56,-294.74 199.56,-294.74"/>
<text text-anchor="middle" x="171.06" y="-273.04" font-family="Times-Roman" font-size="14.00">shopping</text>
</g>
<!-- go&#45;&gt;shopping -->
<g id="edge10" class="edge">
<title>go&#45;&gt;shopping</title>
<path fill="none" stroke="black" d="M174.53,-203.24C173.92,-216.17 173.09,-233.8 172.39,-248.56"/>
<polygon fill="black" stroke="black" points="168.89,-248.53 171.92,-258.69 175.88,-248.86 168.89,-248.53"/>
</g>
<!-- go to -->
<g id="node14" class="node">
<title>go to</title>
<path fill="#f5f5f5" stroke="black" d="M376.2,-366.96C376.2,-366.96 346.2,-366.96 346.2,-366.96 340.2,-366.96 334.2,-360.96 334.2,-354.96 334.2,-354.96 334.2,-342.96 334.2,-342.96 334.2,-336.96 340.2,-330.96 346.2,-330.96 346.2,-330.96 376.2,-330.96 376.2,-330.96 382.2,-330.96 388.2,-336.96 388.2,-342.96 388.2,-342.96 388.2,-354.96 388.2,-354.96 388.2,-360.96 382.2,-366.96 376.2,-366.96"/>
<text text-anchor="middle" x="361.2" y="-345.26" font-family="Times-Roman" font-size="14.00">go to</text>
</g>
<!-- a café -->
<g id="node15" class="node">
<title>a café</title>
<path fill="#f5f5f5" stroke="black" d="M443.21,-376.97C443.21,-376.97 408.21,-376.97 408.21,-376.97 402.21,-376.97 396.21,-370.97 396.21,-364.97 396.21,-364.97 396.21,-352.97 396.21,-352.97 396.21,-346.97 402.21,-340.97 408.21,-340.97 408.21,-340.97 443.21,-340.97 443.21,-340.97 449.21,-340.97 455.21,-346.97 455.21,-352.97 455.21,-352.97 455.21,-364.97 455.21,-364.97 455.21,-370.97 449.21,-376.97 443.21,-376.97"/>
<text text-anchor="middle" x="425.71" y="-355.27" font-family="Times-Roman" font-size="14.00">a café</text>
</g>
<!-- go to&#45;&gt;a café -->
<g id="edge11" class="edge">
<title>go to&#45;&gt;a café</title>
<path fill="none" stroke="black" d="M388.56,-353.21C388.72,-353.23 388.87,-353.26 389.02,-353.28"/>
<polygon fill="black" stroke="black" points="385.62,-356.29 396.04,-354.37 386.69,-349.38 385.62,-356.29"/>
</g>
<!-- a nightclub -->
<g id="node16" class="node">
<title>a nightclub</title>
<path fill="#f5f5f5" stroke="black" d="M373.43,-306C373.43,-306 302.43,-306 302.43,-306 296.43,-306 290.43,-300 290.43,-294 290.43,-294 290.43,-282 290.43,-282 290.43,-276 296.43,-270 302.43,-270 302.43,-270 373.43,-270 373.43,-270 379.43,-270 385.43,-276 385.43,-282 385.43,-282 385.43,-294 385.43,-294 385.43,-300 379.43,-306 373.43,-306"/>
<text text-anchor="middle" x="337.93" y="-284.3" font-family="Times-Roman" font-size="14.00">a nightclub</text>
</g>
<!-- go to&#45;&gt;a nightclub -->
<g id="edge12" class="edge">
<title>go to&#45;&gt;a nightclub</title>
<path fill="none" stroke="black" d="M354.22,-330.67C352.43,-325.97 350.45,-320.8 348.52,-315.74"/>
<polygon fill="black" stroke="black" points="351.75,-314.37 344.91,-306.28 345.21,-316.87 351.75,-314.37"/>
</g>
<!-- a restaurant -->
<g id="node17" class="node">
<title>a restaurant</title>
<path fill="#f5f5f5" stroke="black" d="M359,-417.96C359,-417.96 282,-417.96 282,-417.96 276,-417.96 270,-411.96 270,-405.96 270,-405.96 270,-393.96 270,-393.96 270,-387.96 276,-381.96 282,-381.96 282,-381.96 359,-381.96 359,-381.96 365,-381.96 371,-387.96 371,-393.96 371,-393.96 371,-405.96 371,-405.96 371,-411.96 365,-417.96 359,-417.96"/>
<text text-anchor="middle" x="320.5" y="-396.26" font-family="Times-Roman" font-size="14.00">a restaurant</text>
</g>
<!-- go to&#45;&gt;a restaurant -->
<g id="edge13" class="edge">
<title>go to&#45;&gt;a restaurant</title>
<path fill="none" stroke="black" d="M346.74,-367.09C344.94,-369.34 343.07,-371.68 341.2,-374.02"/>
<polygon fill="black" stroke="black" points="338.42,-371.89 334.92,-381.89 343.89,-376.26 338.42,-371.89"/>
</g>
<!-- be on -->
<g id="node18" class="node">
<title>be on</title>
<path fill="#f5f5f5" stroke="black" d="M44,-64.38C44,-64.38 12,-64.38 12,-64.38 6,-64.38 0,-58.38 0,-52.38 0,-52.38 0,-40.38 0,-40.38 0,-34.38 6,-28.38 12,-28.38 12,-28.38 44,-28.38 44,-28.38 50,-28.38 56,-34.38 56,-40.38 56,-40.38 56,-52.38 56,-52.38 56,-58.38 50,-64.38 44,-64.38"/>
<text text-anchor="middle" x="28" y="-42.68" font-family="Times-Roman" font-size="14.00">be on</text>
</g>
<!-- holiday -->
<g id="node19" class="node">
<title>holiday</title>
<path fill="#f5f5f5" stroke="black" d="M119.01,-54C119.01,-54 76.01,-54 76.01,-54 70.01,-54 64.01,-48 64.01,-42 64.01,-42 64.01,-30 64.01,-30 64.01,-24 70.01,-18 76.01,-18 76.01,-18 119.01,-18 119.01,-18 125.01,-18 131.01,-24 131.01,-30 131.01,-30 131.01,-42 131.01,-42 131.01,-48 125.01,-54 119.01,-54"/>
<text text-anchor="middle" x="97.51" y="-32.3" font-family="Times-Roman" font-size="14.00">holiday</text>
</g>
<!-- be on&#45;&gt;holiday -->
<g id="edge14" class="edge">
<title>be on&#45;&gt;holiday</title>
<path fill="none" stroke="black" d="M56.27,-42.16C56.42,-42.14 56.57,-42.12 56.72,-42.09"/>
<polygon fill="black" stroke="black" points="54.19,-46.01 63.57,-41.07 53.16,-39.09 54.19,-46.01"/>
</g>
<!-- do -->
<g id="node20" class="node">
<title>do</title>
<path fill="#f5f5f5" stroke="black" d="M240,-47.95C240,-47.95 210,-47.95 210,-47.95 204,-47.95 198,-41.95 198,-35.95 198,-35.95 198,-23.95 198,-23.95 198,-17.95 204,-11.95 210,-11.95 210,-11.95 240,-11.95 240,-11.95 246,-11.95 252,-17.95 252,-23.95 252,-23.95 252,-35.95 252,-35.95 252,-41.95 246,-47.95 240,-47.95"/>
<text text-anchor="middle" x="225" y="-26.25" font-family="Times-Roman" font-size="14.00">do</text>
</g>
<!-- something -->
<g id="node21" class="node">
<title>something</title>
<path fill="#f5f5f5" stroke="black" d="M338.01,-36C338.01,-36 272.01,-36 272.01,-36 266.01,-36 260.01,-30 260.01,-24 260.01,-24 260.01,-12 260.01,-12 260.01,-6 266.01,0 272.01,0 272.01,0 338.01,0 338.01,0 344.01,0 350.01,-6 350.01,-12 350.01,-12 350.01,-24 350.01,-24 350.01,-30 344.01,-36 338.01,-36"/>
<text text-anchor="middle" x="305.01" y="-14.3" font-family="Times-Roman" font-size="14.00">something</text>
</g>
<!-- do&#45;&gt;something -->
<g id="edge15" class="edge">
<title>do&#45;&gt;something</title>
<path fill="none" stroke="black" d="M252.09,-25.91C252.25,-25.88 252.4,-25.86 252.56,-25.84"/>
<polygon fill="black" stroke="black" points="250.52,-29.68 259.89,-24.74 249.48,-22.76 250.52,-29.68"/>
</g>
<!-- in -->
<g id="node22" class="node">
<title>in</title>
<path fill="#f5f5f5" stroke="black" d="M484.36,-502.27C484.36,-502.27 454.36,-502.27 454.36,-502.27 448.36,-502.27 442.36,-496.27 442.36,-490.27 442.36,-490.27 442.36,-478.27 442.36,-478.27 442.36,-472.27 448.36,-466.27 454.36,-466.27 454.36,-466.27 484.36,-466.27 484.36,-466.27 490.36,-466.27 496.36,-472.27 496.36,-478.27 496.36,-478.27 496.36,-490.27 496.36,-490.27 496.36,-496.27 490.36,-502.27 484.36,-502.27"/>
<text text-anchor="middle" x="469.36" y="-480.57" font-family="Times-Roman" font-size="14.00">in</text>
</g>
<!-- spring -->
<g id="node23" class="node">
<title>spring</title>
<path fill="#f5f5f5" stroke="black" d="M521.5,-546.28C521.5,-546.28 484.5,-546.28 484.5,-546.28 478.5,-546.28 472.5,-540.28 472.5,-534.28 472.5,-534.28 472.5,-522.28 472.5,-522.28 472.5,-516.28 478.5,-510.28 484.5,-510.28 484.5,-510.28 521.5,-510.28 521.5,-510.28 527.5,-510.28 533.5,-516.28 533.5,-522.28 533.5,-522.28 533.5,-534.28 533.5,-534.28 533.5,-540.28 527.5,-546.28 521.5,-546.28"/>
<text text-anchor="middle" x="503" y="-524.58" font-family="Times-Roman" font-size="14.00">spring</text>
</g>
<!-- in&#45;&gt;spring -->
<g id="edge16" class="edge">
<title>in&#45;&gt;spring</title>
<path fill="none" stroke="black" d="M483.24,-502.42C483.36,-502.58 483.48,-502.74 483.6,-502.9"/>
<polygon fill="black" stroke="black" points="480.3,-504.35 489.16,-510.17 485.86,-500.1 480.3,-504.35"/>
</g>
<!-- summer -->
<g id="node24" class="node">
<title>summer</title>
<path fill="#f5f5f5" stroke="black" d="M476,-450C476,-450 426,-450 426,-450 420,-450 414,-444 414,-438 414,-438 414,-426 414,-426 414,-420 420,-414 426,-414 426,-414 476,-414 476,-414 482,-414 488,-420 488,-426 488,-426 488,-438 488,-438 488,-444 482,-450 476,-450"/>
<text text-anchor="middle" x="451" y="-428.3" font-family="Times-Roman" font-size="14.00">summer</text>
</g>
<!-- in&#45;&gt;summer -->
<g id="edge17" class="edge">
<title>in&#45;&gt;summer</title>
<path fill="none" stroke="black" d="M462.94,-465.99C462.2,-463.88 461.43,-461.7 460.66,-459.51"/>
<polygon fill="black" stroke="black" points="463.94,-458.28 457.32,-450.01 457.34,-460.6 463.94,-458.28"/>
</g>
</g>
</svg>
