<?xml version="1.0" encoding="UTF-8" standalone="no"?>
<!DOCTYPE svg PUBLIC "-//W3C//DTD SVG 1.1//EN"
 "http://www.w3.org/Graphics/SVG/1.1/DTD/svg11.dtd">
<!-- Generated by graphviz version 2.44.0 (0)
 -->
<!-- Pages: 1 -->
<svg width="779pt" height="44pt"
 viewBox="0.00 0.00 778.50 44.00" xmlns="http://www.w3.org/2000/svg" xmlns:xlink="http://www.w3.org/1999/xlink">
<g id="graph0" class="graph" transform="scale(1 1) rotate(0) translate(4 40)">
<polygon fill="white" stroke="transparent" points="-4,4 -4,-40 774.5,-40 774.5,4 -4,4"/>
<!-- a mountain -->
<g id="node1" class="node">
<title>a mountain</title>
<path fill="#f5f5f5" stroke="black" d="M83,-36C83,-36 12,-36 12,-36 6,-36 0,-30 0,-24 0,-24 0,-12 0,-12 0,-6 6,0 12,0 12,0 83,0 83,0 89,0 95,-6 95,-12 95,-12 95,-24 95,-24 95,-30 89,-36 83,-36"/>
<text text-anchor="middle" x="47.5" y="-14.3" font-family="Times-Roman" font-size="14.00">a mountain</text>
</g>
<!-- a hill -->
<g id="node2" class="node">
<title>a hill</title>
<path fill="#f5f5f5" stroke="black" d="M155.5,-36C155.5,-36 125.5,-36 125.5,-36 119.5,-36 113.5,-30 113.5,-24 113.5,-24 113.5,-12 113.5,-12 113.5,-6 119.5,0 125.5,0 125.5,0 155.5,0 155.5,0 161.5,0 167.5,-6 167.5,-12 167.5,-12 167.5,-24 167.5,-24 167.5,-30 161.5,-36 155.5,-36"/>
<text text-anchor="middle" x="140.5" y="-14.3" font-family="Times-Roman" font-size="14.00">a hill</text>
</g>
<!-- a lake -->
<g id="node3" class="node">
<title>a lake</title>
<path fill="#f5f5f5" stroke="black" d="M231,-36C231,-36 198,-36 198,-36 192,-36 186,-30 186,-24 186,-24 186,-12 186,-12 186,-6 192,0 198,0 198,0 231,0 231,0 237,0 243,-6 243,-12 243,-12 243,-24 243,-24 243,-30 237,-36 231,-36"/>
<text text-anchor="middle" x="214.5" y="-14.3" font-family="Times-Roman" font-size="14.00">a lake</text>
</g>
<!-- a forest -->
<g id="node4" class="node">
<title>a forest</title>
<path fill="#f5f5f5" stroke="black" d="M318,-36C318,-36 273,-36 273,-36 267,-36 261,-30 261,-24 261,-24 261,-12 261,-12 261,-6 267,0 273,0 273,0 318,0 318,0 324,0 330,-6 330,-12 330,-12 330,-24 330,-24 330,-30 324,-36 318,-36"/>
<text text-anchor="middle" x="295.5" y="-14.3" font-family="Times-Roman" font-size="14.00">a forest</text>
</g>
<!-- a village -->
<g id="node5" class="node">
<title>a village</title>
<path fill="#f5f5f5" stroke="black" d="M410.5,-36C410.5,-36 360.5,-36 360.5,-36 354.5,-36 348.5,-30 348.5,-24 348.5,-24 348.5,-12 348.5,-12 348.5,-6 354.5,0 360.5,0 360.5,0 410.5,0 410.5,0 416.5,0 422.5,-6 422.5,-12 422.5,-12 422.5,-24 422.5,-24 422.5,-30 416.5,-36 410.5,-36"/>
<text text-anchor="middle" x="385.5" y="-14.3" font-family="Times-Roman" font-size="14.00">a village</text>
</g>
<!-- a market -->
<g id="node6" class="node">
<title>a market</title>
<path fill="#f5f5f5" stroke="black" d="M506.5,-36C506.5,-36 452.5,-36 452.5,-36 446.5,-36 440.5,-30 440.5,-24 440.5,-24 440.5,-12 440.5,-12 440.5,-6 446.5,0 452.5,0 452.5,0 506.5,0 506.5,0 512.5,0 518.5,-6 518.5,-12 518.5,-12 518.5,-24 518.5,-24 518.5,-30 512.5,-36 506.5,-36"/>
<text text-anchor="middle" x="479.5" y="-14.3" font-family="Times-Roman" font-size="14.00">a market</text>
</g>
<!-- a famous building -->
<g id="node7" class="node">
<title>a famous building</title>
<path fill="#f5f5f5" stroke="black" d="M666.5,-36C666.5,-36 548.5,-36 548.5,-36 542.5,-36 536.5,-30 536.5,-24 536.5,-24 536.5,-12 536.5,-12 536.5,-6 542.5,0 548.5,0 548.5,0 666.5,0 666.5,0 672.5,0 678.5,-6 678.5,-12 678.5,-12 678.5,-24 678.5,-24 678.5,-30 672.5,-36 666.5,-36"/>
<text text-anchor="middle" x="607.5" y="-14.3" font-family="Times-Roman" font-size="14.00">a famous building</text>
</g>
<!-- a desert -->
<g id="node8" class="node">
<title>a desert</title>
<path fill="#f5f5f5" stroke="black" d="M758.5,-36C758.5,-36 708.5,-36 708.5,-36 702.5,-36 696.5,-30 696.5,-24 696.5,-24 696.5,-12 696.5,-12 696.5,-6 702.5,0 708.5,0 708.5,0 758.5,0 758.5,0 764.5,0 770.5,-6 770.5,-12 770.5,-12 770.5,-24 770.5,-24 770.5,-30 764.5,-36 758.5,-36"/>
<text text-anchor="middle" x="733.5" y="-14.3" font-family="Times-Roman" font-size="14.00">a desert</text>
</g>
</g>
</svg>
