<?xml version="1.0" encoding="UTF-8" standalone="no"?>
<!DOCTYPE svg PUBLIC "-//W3C//DTD SVG 1.1//EN"
 "http://www.w3.org/Graphics/SVG/1.1/DTD/svg11.dtd">
<!-- Generated by graphviz version 2.44.0 (0)
 -->
<!-- Pages: 1 -->
<svg width="764pt" height="666pt"
 viewBox="0.00 0.00 764.46 666.16" xmlns="http://www.w3.org/2000/svg" xmlns:xlink="http://www.w3.org/1999/xlink">
<g id="graph0" class="graph" transform="scale(1 1) rotate(0) translate(4 662.16)">
<polygon fill="white" stroke="transparent" points="-4,4 -4,-662.16 760.46,-662.16 760.46,4 -4,4"/>
<!-- in -->
<g id="node1" class="node">
<title>in</title>
<path fill="#f5f5f5" stroke="black" d="M566.96,-168.27C566.96,-168.27 536.96,-168.27 536.96,-168.27 530.96,-168.27 524.96,-162.27 524.96,-156.27 524.96,-156.27 524.96,-144.27 524.96,-144.27 524.96,-138.27 530.96,-132.27 536.96,-132.27 536.96,-132.27 566.96,-132.27 566.96,-132.27 572.96,-132.27 578.96,-138.27 578.96,-144.27 578.96,-144.27 578.96,-156.27 578.96,-156.27 578.96,-162.27 572.96,-168.27 566.96,-168.27"/>
<text text-anchor="middle" x="551.96" y="-146.57" font-family="Times-Roman" font-size="14.00">in</text>
</g>
<!-- the morning -->
<g id="node2" class="node">
<title>the morning</title>
<path fill="#f5f5f5" stroke="black" d="M744.46,-168.27C744.46,-168.27 667.46,-168.27 667.46,-168.27 661.46,-168.27 655.46,-162.27 655.46,-156.27 655.46,-156.27 655.46,-144.27 655.46,-144.27 655.46,-138.27 661.46,-132.27 667.46,-132.27 667.46,-132.27 744.46,-132.27 744.46,-132.27 750.46,-132.27 756.46,-138.27 756.46,-144.27 756.46,-144.27 756.46,-156.27 756.46,-156.27 756.46,-162.27 750.46,-168.27 744.46,-168.27"/>
<text text-anchor="middle" x="705.96" y="-146.57" font-family="Times-Roman" font-size="14.00">the morning</text>
</g>
<!-- in&#45;&gt;the morning -->
<g id="edge1" class="edge">
<title>in&#45;&gt;the morning</title>
<path fill="none" stroke="black" d="M579.14,-150.27C597.49,-150.27 622.46,-150.27 645.39,-150.27"/>
<polygon fill="black" stroke="black" points="645.41,-153.77 655.41,-150.27 645.41,-146.77 645.41,-153.77"/>
</g>
<!-- the evening -->
<g id="node3" class="node">
<title>the evening</title>
<path fill="#f5f5f5" stroke="black" d="M515.36,-303.27C515.36,-303.27 440.36,-303.27 440.36,-303.27 434.36,-303.27 428.36,-297.27 428.36,-291.27 428.36,-291.27 428.36,-279.27 428.36,-279.27 428.36,-273.27 434.36,-267.27 440.36,-267.27 440.36,-267.27 515.36,-267.27 515.36,-267.27 521.36,-267.27 527.36,-273.27 527.36,-279.27 527.36,-279.27 527.36,-291.27 527.36,-291.27 527.36,-297.27 521.36,-303.27 515.36,-303.27"/>
<text text-anchor="middle" x="477.86" y="-281.57" font-family="Times-Roman" font-size="14.00">the evening</text>
</g>
<!-- in&#45;&gt;the evening -->
<g id="edge2" class="edge">
<title>in&#45;&gt;the evening</title>
<path fill="none" stroke="black" d="M541.97,-168.48C529.31,-191.53 507.41,-231.44 492.78,-258.1"/>
<polygon fill="black" stroke="black" points="489.68,-256.47 487.93,-266.92 495.81,-259.84 489.68,-256.47"/>
</g>
<!-- the afternoon -->
<g id="node4" class="node">
<title>the afternoon</title>
<path fill="#f5f5f5" stroke="black" d="M516.09,-36C516.09,-36 430.09,-36 430.09,-36 424.09,-36 418.09,-30 418.09,-24 418.09,-24 418.09,-12 418.09,-12 418.09,-6 424.09,0 430.09,0 430.09,0 516.09,0 516.09,0 522.09,0 528.09,-6 528.09,-12 528.09,-12 528.09,-24 528.09,-24 528.09,-30 522.09,-36 516.09,-36"/>
<text text-anchor="middle" x="473.09" y="-14.3" font-family="Times-Roman" font-size="14.00">the afternoon</text>
</g>
<!-- in&#45;&gt;the afternoon -->
<g id="edge3" class="edge">
<title>in&#45;&gt;the afternoon</title>
<path fill="none" stroke="black" d="M541.16,-132.16C527.72,-109.63 504.67,-70.96 489.16,-44.95"/>
<polygon fill="black" stroke="black" points="492.14,-43.12 484.01,-36.32 486.13,-46.7 492.14,-43.12"/>
</g>
<!-- at -->
<g id="node5" class="node">
<title>at</title>
<path fill="#f5f5f5" stroke="black" d="M544.96,-534.27C544.96,-534.27 514.96,-534.27 514.96,-534.27 508.96,-534.27 502.96,-528.27 502.96,-522.27 502.96,-522.27 502.96,-510.27 502.96,-510.27 502.96,-504.27 508.96,-498.27 514.96,-498.27 514.96,-498.27 544.96,-498.27 544.96,-498.27 550.96,-498.27 556.96,-504.27 556.96,-510.27 556.96,-510.27 556.96,-522.27 556.96,-522.27 556.96,-528.27 550.96,-534.27 544.96,-534.27"/>
<text text-anchor="middle" x="529.96" y="-512.57" font-family="Times-Roman" font-size="14.00">at</text>
</g>
<!-- noon -->
<g id="node6" class="node">
<title>noon</title>
<path fill="#f5f5f5" stroke="black" d="M683.46,-534.27C683.46,-534.27 653.46,-534.27 653.46,-534.27 647.46,-534.27 641.46,-528.27 641.46,-522.27 641.46,-522.27 641.46,-510.27 641.46,-510.27 641.46,-504.27 647.46,-498.27 653.46,-498.27 653.46,-498.27 683.46,-498.27 683.46,-498.27 689.46,-498.27 695.46,-504.27 695.46,-510.27 695.46,-510.27 695.46,-522.27 695.46,-522.27 695.46,-528.27 689.46,-534.27 683.46,-534.27"/>
<text text-anchor="middle" x="668.46" y="-512.57" font-family="Times-Roman" font-size="14.00">noon</text>
</g>
<!-- at&#45;&gt;noon -->
<g id="edge4" class="edge">
<title>at&#45;&gt;noon</title>
<path fill="none" stroke="black" d="M556.99,-516.27C578.02,-516.27 607.44,-516.27 630.78,-516.27"/>
<polygon fill="black" stroke="black" points="631.02,-519.77 641.02,-516.27 631.02,-512.77 631.02,-519.77"/>
</g>
<!-- night -->
<g id="node7" class="node">
<title>night</title>
<path fill="#f5f5f5" stroke="black" d="M483.05,-658.16C483.05,-658.16 453.05,-658.16 453.05,-658.16 447.05,-658.16 441.05,-652.16 441.05,-646.16 441.05,-646.16 441.05,-634.16 441.05,-634.16 441.05,-628.16 447.05,-622.16 453.05,-622.16 453.05,-622.16 483.05,-622.16 483.05,-622.16 489.05,-622.16 495.05,-628.16 495.05,-634.16 495.05,-634.16 495.05,-646.16 495.05,-646.16 495.05,-652.16 489.05,-658.16 483.05,-658.16"/>
<text text-anchor="middle" x="468.05" y="-636.46" font-family="Times-Roman" font-size="14.00">night</text>
</g>
<!-- at&#45;&gt;night -->
<g id="edge5" class="edge">
<title>at&#45;&gt;night</title>
<path fill="none" stroke="black" d="M520.96,-534.29C510.64,-554.93 493.62,-588.99 481.68,-612.89"/>
<polygon fill="black" stroke="black" points="478.4,-611.62 477.06,-622.13 484.66,-614.75 478.4,-611.62"/>
</g>
<!-- midnight -->
<g id="node8" class="node">
<title>midnight</title>
<path fill="#f5f5f5" stroke="black" d="M484.63,-416.46C484.63,-416.46 429.63,-416.46 429.63,-416.46 423.63,-416.46 417.63,-410.46 417.63,-404.46 417.63,-404.46 417.63,-392.46 417.63,-392.46 417.63,-386.46 423.63,-380.46 429.63,-380.46 429.63,-380.46 484.63,-380.46 484.63,-380.46 490.63,-380.46 496.63,-386.46 496.63,-392.46 496.63,-392.46 496.63,-404.46 496.63,-404.46 496.63,-410.46 490.63,-416.46 484.63,-416.46"/>
<text text-anchor="middle" x="457.13" y="-394.76" font-family="Times-Roman" font-size="14.00">midnight</text>
</g>
<!-- at&#45;&gt;midnight -->
<g id="edge6" class="edge">
<title>at&#45;&gt;midnight</title>
<path fill="none" stroke="black" d="M518.74,-498.12C506.75,-478.72 487.6,-447.75 473.83,-425.48"/>
<polygon fill="black" stroke="black" points="476.72,-423.49 468.48,-416.83 470.76,-427.17 476.72,-423.49"/>
</g>
<!-- on -->
<g id="node9" class="node">
<title>on</title>
<path fill="#f5f5f5" stroke="black" d="M212.96,-199.27C212.96,-199.27 182.96,-199.27 182.96,-199.27 176.96,-199.27 170.96,-193.27 170.96,-187.27 170.96,-187.27 170.96,-175.27 170.96,-175.27 170.96,-169.27 176.96,-163.27 182.96,-163.27 182.96,-163.27 212.96,-163.27 212.96,-163.27 218.96,-163.27 224.96,-169.27 224.96,-175.27 224.96,-175.27 224.96,-187.27 224.96,-187.27 224.96,-193.27 218.96,-199.27 212.96,-199.27"/>
<text text-anchor="middle" x="197.96" y="-177.57" font-family="Times-Roman" font-size="14.00">on</text>
</g>
<!-- Mondary -->
<g id="node10" class="node">
<title>Mondary</title>
<path fill="#f5f5f5" stroke="black" d="M390.14,-199.27C390.14,-199.27 337.14,-199.27 337.14,-199.27 331.14,-199.27 325.14,-193.27 325.14,-187.27 325.14,-187.27 325.14,-175.27 325.14,-175.27 325.14,-169.27 331.14,-163.27 337.14,-163.27 337.14,-163.27 390.14,-163.27 390.14,-163.27 396.14,-163.27 402.14,-169.27 402.14,-175.27 402.14,-175.27 402.14,-187.27 402.14,-187.27 402.14,-193.27 396.14,-199.27 390.14,-199.27"/>
<text text-anchor="middle" x="363.64" y="-177.57" font-family="Times-Roman" font-size="14.00">Mondary</text>
</g>
<!-- on&#45;&gt;Mondary -->
<g id="edge7" class="edge">
<title>on&#45;&gt;Mondary</title>
<path fill="none" stroke="black" d="M225.32,-181.27C249.65,-181.27 285.81,-181.27 315.06,-181.27"/>
<polygon fill="black" stroke="black" points="315.08,-184.77 325.08,-181.27 315.08,-177.77 315.08,-184.77"/>
</g>
<!-- Tuesday -->
<g id="node11" class="node">
<title>Tuesday</title>
<path fill="#f5f5f5" stroke="black" d="M327.2,-328.04C327.2,-328.04 277.2,-328.04 277.2,-328.04 271.2,-328.04 265.2,-322.04 265.2,-316.04 265.2,-316.04 265.2,-304.04 265.2,-304.04 265.2,-298.04 271.2,-292.04 277.2,-292.04 277.2,-292.04 327.2,-292.04 327.2,-292.04 333.2,-292.04 339.2,-298.04 339.2,-304.04 339.2,-304.04 339.2,-316.04 339.2,-316.04 339.2,-322.04 333.2,-328.04 327.2,-328.04"/>
<text text-anchor="middle" x="302.2" y="-306.34" font-family="Times-Roman" font-size="14.00">Tuesday</text>
</g>
<!-- on&#45;&gt;Tuesday -->
<g id="edge8" class="edge">
<title>on&#45;&gt;Tuesday</title>
<path fill="none" stroke="black" d="M212.67,-199.45C230.52,-221.5 260.74,-258.83 281.08,-283.95"/>
<polygon fill="black" stroke="black" points="278.55,-286.39 287.56,-291.96 283.99,-281.99 278.55,-286.39"/>
</g>
<!-- Wednesday -->
<g id="node12" class="node">
<title>Wednesday</title>
<path fill="#f5f5f5" stroke="black" d="M190.25,-358.94C190.25,-358.94 117.25,-358.94 117.25,-358.94 111.25,-358.94 105.25,-352.94 105.25,-346.94 105.25,-346.94 105.25,-334.94 105.25,-334.94 105.25,-328.94 111.25,-322.94 117.25,-322.94 117.25,-322.94 190.25,-322.94 190.25,-322.94 196.25,-322.94 202.25,-328.94 202.25,-334.94 202.25,-334.94 202.25,-346.94 202.25,-346.94 202.25,-352.94 196.25,-358.94 190.25,-358.94"/>
<text text-anchor="middle" x="153.75" y="-337.24" font-family="Times-Roman" font-size="14.00">Wednesday</text>
</g>
<!-- on&#45;&gt;Wednesday -->
<g id="edge9" class="edge">
<title>on&#45;&gt;Wednesday</title>
<path fill="none" stroke="black" d="M192.97,-199.28C185.31,-226.95 170.58,-280.16 161.51,-312.9"/>
<polygon fill="black" stroke="black" points="158.08,-312.19 158.78,-322.76 164.83,-314.06 158.08,-312.19"/>
</g>
<!-- Thursday -->
<g id="node13" class="node">
<title>Thursday</title>
<path fill="#f5f5f5" stroke="black" d="M70,-252.32C70,-252.32 12,-252.32 12,-252.32 6,-252.32 0,-246.32 0,-240.32 0,-240.32 0,-228.32 0,-228.32 0,-222.32 6,-216.32 12,-216.32 12,-216.32 70,-216.32 70,-216.32 76,-216.32 82,-222.32 82,-228.32 82,-228.32 82,-240.32 82,-240.32 82,-246.32 76,-252.32 70,-252.32"/>
<text text-anchor="middle" x="41" y="-230.62" font-family="Times-Roman" font-size="14.00">Thursday</text>
</g>
<!-- on&#45;&gt;Thursday -->
<g id="edge10" class="edge">
<title>on&#45;&gt;Thursday</title>
<path fill="none" stroke="black" d="M170.62,-190.51C148.97,-197.83 118.12,-208.26 91.95,-217.1"/>
<polygon fill="black" stroke="black" points="90.53,-213.89 82.17,-220.4 92.77,-220.52 90.53,-213.89"/>
</g>
<!-- Friday -->
<g id="node14" class="node">
<title>Friday</title>
<path fill="#f5f5f5" stroke="black" d="M72.86,-114.92C72.86,-114.92 37.86,-114.92 37.86,-114.92 31.86,-114.92 25.86,-108.92 25.86,-102.92 25.86,-102.92 25.86,-90.92 25.86,-90.92 25.86,-84.92 31.86,-78.92 37.86,-78.92 37.86,-78.92 72.86,-78.92 72.86,-78.92 78.86,-78.92 84.86,-84.92 84.86,-90.92 84.86,-90.92 84.86,-102.92 84.86,-102.92 84.86,-108.92 78.86,-114.92 72.86,-114.92"/>
<text text-anchor="middle" x="55.36" y="-93.22" font-family="Times-Roman" font-size="14.00">Friday</text>
</g>
<!-- on&#45;&gt;Friday -->
<g id="edge11" class="edge">
<title>on&#45;&gt;Friday</title>
<path fill="none" stroke="black" d="M170.8,-165.21C148.92,-152.27 117.9,-133.92 93.52,-119.5"/>
<polygon fill="black" stroke="black" points="95.26,-116.46 84.87,-114.38 91.7,-122.48 95.26,-116.46"/>
</g>
<!-- Saturday -->
<g id="node15" class="node">
<title>Saturday</title>
<path fill="#f5f5f5" stroke="black" d="M194.88,-36.44C194.88,-36.44 139.88,-36.44 139.88,-36.44 133.88,-36.44 127.88,-30.44 127.88,-24.44 127.88,-24.44 127.88,-12.44 127.88,-12.44 127.88,-6.44 133.88,-0.44 139.88,-0.44 139.88,-0.44 194.88,-0.44 194.88,-0.44 200.88,-0.44 206.88,-6.44 206.88,-12.44 206.88,-12.44 206.88,-24.44 206.88,-24.44 206.88,-30.44 200.88,-36.44 194.88,-36.44"/>
<text text-anchor="middle" x="167.38" y="-14.74" font-family="Times-Roman" font-size="14.00">Saturday</text>
</g>
<!-- on&#45;&gt;Saturday -->
<g id="edge12" class="edge">
<title>on&#45;&gt;Saturday</title>
<path fill="none" stroke="black" d="M194.57,-163.22C189.27,-134.98 178.96,-80.11 172.68,-46.63"/>
<polygon fill="black" stroke="black" points="176.07,-45.75 170.79,-36.57 169.19,-47.04 176.07,-45.75"/>
</g>
<!-- Sunday -->
<g id="node16" class="node">
<title>Sunday</title>
<path fill="#f5f5f5" stroke="black" d="M326.64,-72.09C326.64,-72.09 281.64,-72.09 281.64,-72.09 275.64,-72.09 269.64,-66.09 269.64,-60.09 269.64,-60.09 269.64,-48.09 269.64,-48.09 269.64,-42.09 275.64,-36.09 281.64,-36.09 281.64,-36.09 326.64,-36.09 326.64,-36.09 332.64,-36.09 338.64,-42.09 338.64,-48.09 338.64,-48.09 338.64,-60.09 338.64,-60.09 338.64,-66.09 332.64,-72.09 326.64,-72.09"/>
<text text-anchor="middle" x="304.14" y="-50.39" font-family="Times-Roman" font-size="14.00">Sunday</text>
</g>
<!-- on&#45;&gt;Sunday -->
<g id="edge13" class="edge">
<title>on&#45;&gt;Sunday</title>
<path fill="none" stroke="black" d="M213.17,-163.05C231.3,-141.33 261.74,-104.87 282.37,-80.16"/>
<polygon fill="black" stroke="black" points="285.23,-82.19 288.95,-72.27 279.86,-77.71 285.23,-82.19"/>
</g>
</g>
</svg>
