<?xml version="1.0" encoding="UTF-8" standalone="no"?>
<!DOCTYPE svg PUBLIC "-//W3C//DTD SVG 1.1//EN"
 "http://www.w3.org/Graphics/SVG/1.1/DTD/svg11.dtd">
<!-- Generated by graphviz version 2.44.0 (0)
 -->
<!-- Pages: 1 -->
<svg width="490pt" height="638pt"
 viewBox="0.00 0.00 490.00 638.00" xmlns="http://www.w3.org/2000/svg" xmlns:xlink="http://www.w3.org/1999/xlink">
<g id="graph0" class="graph" transform="scale(1 1) rotate(0) translate(4 634)">
<polygon fill="white" stroke="transparent" points="-4,4 -4,-634 486,-634 486,4 -4,4"/>
<!-- irregular\nverb -->
<g id="node1" class="node">
<title>irregular\nverb</title>
<path fill="#f5f5f5" stroke="black" d="M63,-184C63,-184 12,-184 12,-184 6,-184 0,-178 0,-172 0,-172 0,-158 0,-158 0,-152 6,-146 12,-146 12,-146 63,-146 63,-146 69,-146 75,-152 75,-158 75,-158 75,-172 75,-172 75,-178 69,-184 63,-184"/>
<text text-anchor="middle" x="37.5" y="-168.8" font-family="Times-Roman" font-size="14.00">irregular</text>
<text text-anchor="middle" x="37.5" y="-153.8" font-family="Times-Roman" font-size="14.00">verb</text>
</g>
<!-- eat -->
<g id="node2" class="node">
<title>eat</title>
<path fill="#f5f5f5" stroke="black" d="M171,-212C171,-212 141,-212 141,-212 135,-212 129,-206 129,-200 129,-200 129,-188 129,-188 129,-182 135,-176 141,-176 141,-176 171,-176 171,-176 177,-176 183,-182 183,-188 183,-188 183,-200 183,-200 183,-206 177,-212 171,-212"/>
<text text-anchor="middle" x="156" y="-190.3" font-family="Times-Roman" font-size="14.00">eat</text>
</g>
<!-- irregular\nverb&#45;&gt;eat -->
<g id="edge1" class="edge">
<title>irregular\nverb&#45;&gt;eat</title>
<path fill="none" stroke="black" d="M75.04,-174.1C89.11,-177.6 105.15,-181.59 119.15,-185.08"/>
<polygon fill="black" stroke="black" points="118.38,-188.49 128.93,-187.51 120.07,-181.7 118.38,-188.49"/>
<text text-anchor="middle" x="101" y="-185.8" font-family="Times-Roman" font-size="14.00">as</text>
</g>
<!-- go -->
<g id="node6" class="node">
<title>go</title>
<path fill="#f5f5f5" stroke="black" d="M171,-131C171,-131 141,-131 141,-131 135,-131 129,-125 129,-119 129,-119 129,-107 129,-107 129,-101 135,-95 141,-95 141,-95 171,-95 171,-95 177,-95 183,-101 183,-107 183,-107 183,-119 183,-119 183,-125 177,-131 171,-131"/>
<text text-anchor="middle" x="156" y="-109.3" font-family="Times-Roman" font-size="14.00">go</text>
</g>
<!-- irregular\nverb&#45;&gt;go -->
<g id="edge5" class="edge">
<title>irregular\nverb&#45;&gt;go</title>
<path fill="none" stroke="black" d="M75.04,-148.69C89.25,-142.35 105.46,-135.11 119.56,-128.82"/>
<polygon fill="black" stroke="black" points="121.23,-131.91 128.93,-124.64 118.37,-125.52 121.23,-131.91"/>
<text text-anchor="middle" x="101" y="-143.8" font-family="Times-Roman" font-size="14.00">as</text>
</g>
<!-- I ate pizza. -->
<g id="node3" class="node">
<title>I ate pizza.</title>
<path fill="#f5f5f5" stroke="black" d="M416,-306C416,-306 348,-306 348,-306 342,-306 336,-300 336,-294 336,-294 336,-282 336,-282 336,-276 342,-270 348,-270 348,-270 416,-270 416,-270 422,-270 428,-276 428,-282 428,-282 428,-294 428,-294 428,-300 422,-306 416,-306"/>
<text text-anchor="middle" x="382" y="-284.3" font-family="Times-Roman" font-size="14.00">I ate pizza.</text>
</g>
<!-- eat&#45;&gt;I ate pizza. -->
<g id="edge2" class="edge">
<title>eat&#45;&gt;I ate pizza.</title>
<path fill="none" stroke="black" d="M171.51,-212.04C179.83,-221.31 191,-232.08 203,-239 240.95,-260.88 289.1,-273.36 325.75,-280.25"/>
<polygon fill="black" stroke="black" points="325.31,-283.72 335.77,-282.04 326.54,-276.83 325.31,-283.72"/>
<text text-anchor="middle" x="233.5" y="-267.8" font-family="Times-Roman" font-size="14.00">positive</text>
</g>
<!-- I didn&#39;t eat pizza. -->
<g id="node4" class="node">
<title>I didn&#39;t eat pizza.</title>
<path fill="#f5f5f5" stroke="black" d="M438.5,-252C438.5,-252 325.5,-252 325.5,-252 319.5,-252 313.5,-246 313.5,-240 313.5,-240 313.5,-228 313.5,-228 313.5,-222 319.5,-216 325.5,-216 325.5,-216 438.5,-216 438.5,-216 444.5,-216 450.5,-222 450.5,-228 450.5,-228 450.5,-240 450.5,-240 450.5,-246 444.5,-252 438.5,-252"/>
<text text-anchor="middle" x="382" y="-230.3" font-family="Times-Roman" font-size="14.00">I didn&#39;t eat pizza.</text>
</g>
<!-- eat&#45;&gt;I didn&#39;t eat pizza. -->
<g id="edge3" class="edge">
<title>eat&#45;&gt;I didn&#39;t eat pizza.</title>
<path fill="none" stroke="black" d="M183.05,-203.37C189.51,-205.45 196.45,-207.49 203,-209 235.51,-216.52 271.92,-222.12 303.29,-226.09"/>
<polygon fill="black" stroke="black" points="302.94,-229.58 313.29,-227.33 303.79,-222.63 302.94,-229.58"/>
<text text-anchor="middle" x="233.5" y="-223.8" font-family="Times-Roman" font-size="14.00">negative</text>
</g>
<!-- Did you eat pizza? -->
<g id="node5" class="node">
<title>Did you eat pizza?</title>
<path fill="#f5f5f5" stroke="black" d="M442,-198C442,-198 322,-198 322,-198 316,-198 310,-192 310,-186 310,-186 310,-174 310,-174 310,-168 316,-162 322,-162 322,-162 442,-162 442,-162 448,-162 454,-168 454,-174 454,-174 454,-186 454,-186 454,-192 448,-198 442,-198"/>
<text text-anchor="middle" x="382" y="-176.3" font-family="Times-Roman" font-size="14.00">Did you eat pizza?</text>
</g>
<!-- eat&#45;&gt;Did you eat pizza? -->
<g id="edge4" class="edge">
<title>eat&#45;&gt;Did you eat pizza?</title>
<path fill="none" stroke="black" d="M183.13,-192.37C211.6,-190.59 258.56,-187.65 299.59,-185.09"/>
<polygon fill="black" stroke="black" points="299.84,-188.58 309.61,-184.46 299.41,-181.59 299.84,-188.58"/>
<text text-anchor="middle" x="233.5" y="-193.8" font-family="Times-Roman" font-size="14.00">question</text>
</g>
<!-- I went fishing. -->
<g id="node7" class="node">
<title>I went fishing.</title>
<path fill="#f5f5f5" stroke="black" d="M428,-144C428,-144 336,-144 336,-144 330,-144 324,-138 324,-132 324,-132 324,-120 324,-120 324,-114 330,-108 336,-108 336,-108 428,-108 428,-108 434,-108 440,-114 440,-120 440,-120 440,-132 440,-132 440,-138 434,-144 428,-144"/>
<text text-anchor="middle" x="382" y="-122.3" font-family="Times-Roman" font-size="14.00">I went fishing.</text>
</g>
<!-- go&#45;&gt;I went fishing. -->
<g id="edge6" class="edge">
<title>go&#45;&gt;I went fishing.</title>
<path fill="none" stroke="black" d="M183.13,-114.52C214.93,-116.36 269.81,-119.55 313.72,-122.1"/>
<polygon fill="black" stroke="black" points="313.58,-125.59 323.76,-122.68 313.98,-118.6 313.58,-125.59"/>
<text text-anchor="middle" x="233.5" y="-122.8" font-family="Times-Roman" font-size="14.00">positive</text>
</g>
<!-- I didn&#39;t go fishing. -->
<g id="node8" class="node">
<title>I didn&#39;t go fishing.</title>
<path fill="#f5f5f5" stroke="black" d="M441.5,-90C441.5,-90 322.5,-90 322.5,-90 316.5,-90 310.5,-84 310.5,-78 310.5,-78 310.5,-66 310.5,-66 310.5,-60 316.5,-54 322.5,-54 322.5,-54 441.5,-54 441.5,-54 447.5,-54 453.5,-60 453.5,-66 453.5,-66 453.5,-78 453.5,-78 453.5,-84 447.5,-90 441.5,-90"/>
<text text-anchor="middle" x="382" y="-68.3" font-family="Times-Roman" font-size="14.00">I didn&#39;t go fishing.</text>
</g>
<!-- go&#45;&gt;I didn&#39;t go fishing. -->
<g id="edge7" class="edge">
<title>go&#45;&gt;I didn&#39;t go fishing.</title>
<path fill="none" stroke="black" d="M183.44,-102.1C189.77,-99.81 196.56,-97.6 203,-96 234.26,-88.22 269.29,-82.81 299.94,-79.12"/>
<polygon fill="black" stroke="black" points="300.63,-82.57 310.16,-77.94 299.82,-75.61 300.63,-82.57"/>
<text text-anchor="middle" x="233.5" y="-99.8" font-family="Times-Roman" font-size="14.00">negative</text>
</g>
<!-- Did you go fishing? -->
<g id="node9" class="node">
<title>Did you go fishing?</title>
<path fill="#f5f5f5" stroke="black" d="M445.5,-36C445.5,-36 318.5,-36 318.5,-36 312.5,-36 306.5,-30 306.5,-24 306.5,-24 306.5,-12 306.5,-12 306.5,-6 312.5,0 318.5,0 318.5,0 445.5,0 445.5,0 451.5,0 457.5,-6 457.5,-12 457.5,-12 457.5,-24 457.5,-24 457.5,-30 451.5,-36 445.5,-36"/>
<text text-anchor="middle" x="382" y="-14.3" font-family="Times-Roman" font-size="14.00">Did you go fishing?</text>
</g>
<!-- go&#45;&gt;Did you go fishing? -->
<g id="edge8" class="edge">
<title>go&#45;&gt;Did you go fishing?</title>
<path fill="none" stroke="black" d="M170.94,-94.57C179.25,-84.77 190.59,-73.27 203,-66 231.29,-49.44 265.43,-38.44 296.22,-31.21"/>
<polygon fill="black" stroke="black" points="297.09,-34.6 306.08,-29 295.56,-27.77 297.09,-34.6"/>
<text text-anchor="middle" x="233.5" y="-69.8" font-family="Times-Roman" font-size="14.00">question</text>
</g>
<!-- regular\nverb -->
<g id="node10" class="node">
<title>regular\nverb</title>
<path fill="#f5f5f5" stroke="black" d="M58.5,-482C58.5,-482 16.5,-482 16.5,-482 10.5,-482 4.5,-476 4.5,-470 4.5,-470 4.5,-456 4.5,-456 4.5,-450 10.5,-444 16.5,-444 16.5,-444 58.5,-444 58.5,-444 64.5,-444 70.5,-450 70.5,-456 70.5,-456 70.5,-470 70.5,-470 70.5,-476 64.5,-482 58.5,-482"/>
<text text-anchor="middle" x="37.5" y="-466.8" font-family="Times-Roman" font-size="14.00">regular</text>
<text text-anchor="middle" x="37.5" y="-451.8" font-family="Times-Roman" font-size="14.00">verb</text>
</g>
<!-- watch -->
<g id="node11" class="node">
<title>watch</title>
<path fill="#f5f5f5" stroke="black" d="M173,-535C173,-535 139,-535 139,-535 133,-535 127,-529 127,-523 127,-523 127,-511 127,-511 127,-505 133,-499 139,-499 139,-499 173,-499 173,-499 179,-499 185,-505 185,-511 185,-511 185,-523 185,-523 185,-529 179,-535 173,-535"/>
<text text-anchor="middle" x="156" y="-513.3" font-family="Times-Roman" font-size="14.00">watch</text>
</g>
<!-- regular\nverb&#45;&gt;watch -->
<g id="edge9" class="edge">
<title>regular\nverb&#45;&gt;watch</title>
<path fill="none" stroke="black" d="M70.64,-477.9C85.26,-484.67 102.63,-492.73 117.81,-499.76"/>
<polygon fill="black" stroke="black" points="116.38,-502.96 126.93,-503.99 119.32,-496.61 116.38,-502.96"/>
<text text-anchor="middle" x="101" y="-497.8" font-family="Times-Roman" font-size="14.00">as</text>
</g>
<!-- play -->
<g id="node15" class="node">
<title>play</title>
<path fill="#f5f5f5" stroke="black" d="M171,-454C171,-454 141,-454 141,-454 135,-454 129,-448 129,-442 129,-442 129,-430 129,-430 129,-424 135,-418 141,-418 141,-418 171,-418 171,-418 177,-418 183,-424 183,-430 183,-430 183,-442 183,-442 183,-448 177,-454 171,-454"/>
<text text-anchor="middle" x="156" y="-432.3" font-family="Times-Roman" font-size="14.00">play</text>
</g>
<!-- regular\nverb&#45;&gt;play -->
<g id="edge13" class="edge">
<title>regular\nverb&#45;&gt;play</title>
<path fill="none" stroke="black" d="M70.72,-454.47C78.03,-452.6 85.77,-450.69 93,-449 101.3,-447.06 110.26,-445.11 118.71,-443.32"/>
<polygon fill="black" stroke="black" points="119.62,-446.71 128.7,-441.24 118.19,-439.86 119.62,-446.71"/>
<text text-anchor="middle" x="101" y="-452.8" font-family="Times-Roman" font-size="14.00">as</text>
</g>
<!-- I watched TV. -->
<g id="node12" class="node">
<title>I watched TV.</title>
<path fill="#f5f5f5" stroke="black" d="M424.5,-630C424.5,-630 339.5,-630 339.5,-630 333.5,-630 327.5,-624 327.5,-618 327.5,-618 327.5,-606 327.5,-606 327.5,-600 333.5,-594 339.5,-594 339.5,-594 424.5,-594 424.5,-594 430.5,-594 436.5,-600 436.5,-606 436.5,-606 436.5,-618 436.5,-618 436.5,-624 430.5,-630 424.5,-630"/>
<text text-anchor="middle" x="382" y="-608.3" font-family="Times-Roman" font-size="14.00">I watched TV.</text>
</g>
<!-- watch&#45;&gt;I watched TV. -->
<g id="edge10" class="edge">
<title>watch&#45;&gt;I watched TV.</title>
<path fill="none" stroke="black" d="M171.43,-535.45C179.74,-544.93 190.91,-555.94 203,-563 237.89,-583.37 281.58,-595.56 316.94,-602.69"/>
<polygon fill="black" stroke="black" points="316.67,-606.2 327.15,-604.65 318,-599.33 316.67,-606.2"/>
<text text-anchor="middle" x="233.5" y="-591.8" font-family="Times-Roman" font-size="14.00">positive</text>
</g>
<!-- I didn&#39;t watch TV. -->
<g id="node13" class="node">
<title>I didn&#39;t watch TV.</title>
<path fill="#f5f5f5" stroke="black" d="M438,-576C438,-576 326,-576 326,-576 320,-576 314,-570 314,-564 314,-564 314,-552 314,-552 314,-546 320,-540 326,-540 326,-540 438,-540 438,-540 444,-540 450,-546 450,-552 450,-552 450,-564 450,-564 450,-570 444,-576 438,-576"/>
<text text-anchor="middle" x="382" y="-554.3" font-family="Times-Roman" font-size="14.00">I didn&#39;t watch TV.</text>
</g>
<!-- watch&#45;&gt;I didn&#39;t watch TV. -->
<g id="edge11" class="edge">
<title>watch&#45;&gt;I didn&#39;t watch TV.</title>
<path fill="none" stroke="black" d="M185.45,-527.86C191.2,-529.78 197.25,-531.61 203,-533 235.57,-540.87 272.14,-546.54 303.61,-550.46"/>
<polygon fill="black" stroke="black" points="303.29,-553.95 313.64,-551.68 304.13,-547 303.29,-553.95"/>
<text text-anchor="middle" x="233.5" y="-547.8" font-family="Times-Roman" font-size="14.00">negative</text>
</g>
<!-- Did you watch TV? -->
<g id="node14" class="node">
<title>Did you watch TV?</title>
<path fill="#f5f5f5" stroke="black" d="M443,-522C443,-522 321,-522 321,-522 315,-522 309,-516 309,-510 309,-510 309,-498 309,-498 309,-492 315,-486 321,-486 321,-486 443,-486 443,-486 449,-486 455,-492 455,-498 455,-498 455,-510 455,-510 455,-516 449,-522 443,-522"/>
<text text-anchor="middle" x="382" y="-500.3" font-family="Times-Roman" font-size="14.00">Did you watch TV?</text>
</g>
<!-- watch&#45;&gt;Did you watch TV? -->
<g id="edge12" class="edge">
<title>watch&#45;&gt;Did you watch TV?</title>
<path fill="none" stroke="black" d="M185.37,-515.35C213.74,-513.71 258.76,-511.09 298.45,-508.79"/>
<polygon fill="black" stroke="black" points="298.9,-512.27 308.68,-508.2 298.5,-505.28 298.9,-512.27"/>
<text text-anchor="middle" x="233.5" y="-517.8" font-family="Times-Roman" font-size="14.00">question</text>
</g>
<!-- I played videogames. -->
<g id="node16" class="node">
<title>I played videogames.</title>
<path fill="#f5f5f5" stroke="black" d="M452.5,-468C452.5,-468 311.5,-468 311.5,-468 305.5,-468 299.5,-462 299.5,-456 299.5,-456 299.5,-444 299.5,-444 299.5,-438 305.5,-432 311.5,-432 311.5,-432 452.5,-432 452.5,-432 458.5,-432 464.5,-438 464.5,-444 464.5,-444 464.5,-456 464.5,-456 464.5,-462 458.5,-468 452.5,-468"/>
<text text-anchor="middle" x="382" y="-446.3" font-family="Times-Roman" font-size="14.00">I played videogames.</text>
</g>
<!-- play&#45;&gt;I played videogames. -->
<g id="edge14" class="edge">
<title>play&#45;&gt;I played videogames.</title>
<path fill="none" stroke="black" d="M183.13,-437.63C209.2,-439.26 250.76,-441.86 289.08,-444.25"/>
<polygon fill="black" stroke="black" points="289.06,-447.76 299.26,-444.89 289.5,-440.77 289.06,-447.76"/>
<text text-anchor="middle" x="233.5" y="-445.8" font-family="Times-Roman" font-size="14.00">positive</text>
</g>
<!-- I didn&#39;t play videogames. -->
<g id="node17" class="node">
<title>I didn&#39;t play videogames.</title>
<path fill="#f5f5f5" stroke="black" d="M466,-414C466,-414 298,-414 298,-414 292,-414 286,-408 286,-402 286,-402 286,-390 286,-390 286,-384 292,-378 298,-378 298,-378 466,-378 466,-378 472,-378 478,-384 478,-390 478,-390 478,-402 478,-402 478,-408 472,-414 466,-414"/>
<text text-anchor="middle" x="382" y="-392.3" font-family="Times-Roman" font-size="14.00">I didn&#39;t play videogames.</text>
</g>
<!-- play&#45;&gt;I didn&#39;t play videogames. -->
<g id="edge15" class="edge">
<title>play&#45;&gt;I didn&#39;t play videogames.</title>
<path fill="none" stroke="black" d="M183,-425.94C189.46,-423.72 196.42,-421.57 203,-420 226.22,-414.46 251.47,-410.08 275.47,-406.67"/>
<polygon fill="black" stroke="black" points="276.23,-410.1 285.66,-405.27 275.28,-403.16 276.23,-410.1"/>
<text text-anchor="middle" x="233.5" y="-423.8" font-family="Times-Roman" font-size="14.00">negative</text>
</g>
<!-- Did you play videogames? -->
<g id="node18" class="node">
<title>Did you play videogames?</title>
<path fill="#f5f5f5" stroke="black" d="M470,-360C470,-360 294,-360 294,-360 288,-360 282,-354 282,-348 282,-348 282,-336 282,-336 282,-330 288,-324 294,-324 294,-324 470,-324 470,-324 476,-324 482,-330 482,-336 482,-336 482,-348 482,-348 482,-354 476,-360 470,-360"/>
<text text-anchor="middle" x="382" y="-338.3" font-family="Times-Roman" font-size="14.00">Did you play videogames?</text>
</g>
<!-- play&#45;&gt;Did you play videogames? -->
<g id="edge16" class="edge">
<title>play&#45;&gt;Did you play videogames?</title>
<path fill="none" stroke="black" d="M170.92,-417.55C179.23,-407.74 190.57,-396.24 203,-389 224,-376.78 248.23,-367.67 271.91,-360.9"/>
<polygon fill="black" stroke="black" points="272.93,-364.25 281.66,-358.24 271.09,-357.5 272.93,-364.25"/>
<text text-anchor="middle" x="233.5" y="-392.8" font-family="Times-Roman" font-size="14.00">question</text>
</g>
</g>
</svg>
