<?xml version="1.0" encoding="UTF-8" standalone="no"?>
<!DOCTYPE svg PUBLIC "-//W3C//DTD SVG 1.1//EN"
 "http://www.w3.org/Graphics/SVG/1.1/DTD/svg11.dtd">
<!-- Generated by graphviz version 2.44.0 (0)
 -->
<!-- Pages: 1 -->
<svg width="487pt" height="638pt"
 viewBox="0.00 0.00 487.00 638.00" xmlns="http://www.w3.org/2000/svg" xmlns:xlink="http://www.w3.org/1999/xlink">
<g id="graph0" class="graph" transform="scale(1 1) rotate(0) translate(4 634)">
<polygon fill="white" stroke="transparent" points="-4,4 -4,-634 483,-634 483,4 -4,4"/>
<!-- irregular\nverb -->
<g id="node1" class="node">
<title>irregular\nverb</title>
<path fill="#f5f5f5" stroke="black" d="M63,-184C63,-184 12,-184 12,-184 6,-184 0,-178 0,-172 0,-172 0,-158 0,-158 0,-152 6,-146 12,-146 12,-146 63,-146 63,-146 69,-146 75,-152 75,-158 75,-158 75,-172 75,-172 75,-178 69,-184 63,-184"/>
<text text-anchor="middle" x="37.5" y="-168.8" font-family="Times-Roman" font-size="14.00">irregular</text>
<text text-anchor="middle" x="37.5" y="-153.8" font-family="Times-Roman" font-size="14.00">verb</text>
</g>
<!-- eat -->
<g id="node2" class="node">
<title>eat</title>
<path fill="#f5f5f5" stroke="black" d="M171,-212C171,-212 141,-212 141,-212 135,-212 129,-206 129,-200 129,-200 129,-188 129,-188 129,-182 135,-176 141,-176 141,-176 171,-176 171,-176 177,-176 183,-182 183,-188 183,-188 183,-200 183,-200 183,-206 177,-212 171,-212"/>
<text text-anchor="middle" x="156" y="-190.3" font-family="Times-Roman" font-size="14.00">eat</text>
</g>
<!-- irregular\nverb&#45;&gt;eat -->
<g id="edge1" class="edge">
<title>irregular\nverb&#45;&gt;eat</title>
<path fill="none" stroke="black" d="M75.04,-174.1C89.11,-177.6 105.15,-181.59 119.15,-185.08"/>
<polygon fill="black" stroke="black" points="118.38,-188.49 128.93,-187.51 120.07,-181.7 118.38,-188.49"/>
<text text-anchor="middle" x="101" y="-185.8" font-family="Times-Roman" font-size="14.00">as</text>
</g>
<!-- go -->
<g id="node6" class="node">
<title>go</title>
<path fill="#f5f5f5" stroke="black" d="M171,-131C171,-131 141,-131 141,-131 135,-131 129,-125 129,-119 129,-119 129,-107 129,-107 129,-101 135,-95 141,-95 141,-95 171,-95 171,-95 177,-95 183,-101 183,-107 183,-107 183,-119 183,-119 183,-125 177,-131 171,-131"/>
<text text-anchor="middle" x="156" y="-109.3" font-family="Times-Roman" font-size="14.00">go</text>
</g>
<!-- irregular\nverb&#45;&gt;go -->
<g id="edge5" class="edge">
<title>irregular\nverb&#45;&gt;go</title>
<path fill="none" stroke="black" d="M75.04,-148.69C89.25,-142.35 105.46,-135.11 119.56,-128.82"/>
<polygon fill="black" stroke="black" points="121.23,-131.91 128.93,-124.64 118.37,-125.52 121.23,-131.91"/>
<text text-anchor="middle" x="101" y="-143.8" font-family="Times-Roman" font-size="14.00">as</text>
</g>
<!-- I ate pizza. -->
<g id="node3" class="node">
<title>I ate pizza.</title>
<path fill="#f5f5f5" stroke="black" d="M414.5,-306C414.5,-306 346.5,-306 346.5,-306 340.5,-306 334.5,-300 334.5,-294 334.5,-294 334.5,-282 334.5,-282 334.5,-276 340.5,-270 346.5,-270 346.5,-270 414.5,-270 414.5,-270 420.5,-270 426.5,-276 426.5,-282 426.5,-282 426.5,-294 426.5,-294 426.5,-300 420.5,-306 414.5,-306"/>
<text text-anchor="middle" x="380.5" y="-284.3" font-family="Times-Roman" font-size="14.00">I ate pizza.</text>
</g>
<!-- eat&#45;&gt;I ate pizza. -->
<g id="edge2" class="edge">
<title>eat&#45;&gt;I ate pizza.</title>
<path fill="none" stroke="black" d="M171.51,-212.04C179.83,-221.31 191,-232.08 203,-239 240.52,-260.63 288.08,-273.12 324.37,-280.06"/>
<polygon fill="black" stroke="black" points="323.82,-283.52 334.29,-281.88 325.08,-276.64 323.82,-283.52"/>
<text text-anchor="middle" x="233.5" y="-267.8" font-family="Times-Roman" font-size="14.00">positive</text>
</g>
<!-- I didn&#39;t eat pizza. -->
<g id="node4" class="node">
<title>I didn&#39;t eat pizza.</title>
<path fill="#f5f5f5" stroke="black" d="M437,-252C437,-252 324,-252 324,-252 318,-252 312,-246 312,-240 312,-240 312,-228 312,-228 312,-222 318,-216 324,-216 324,-216 437,-216 437,-216 443,-216 449,-222 449,-228 449,-228 449,-240 449,-240 449,-246 443,-252 437,-252"/>
<text text-anchor="middle" x="380.5" y="-230.3" font-family="Times-Roman" font-size="14.00">I didn&#39;t eat pizza.</text>
</g>
<!-- eat&#45;&gt;I didn&#39;t eat pizza. -->
<g id="edge3" class="edge">
<title>eat&#45;&gt;I didn&#39;t eat pizza.</title>
<path fill="none" stroke="black" d="M183.05,-203.37C189.51,-205.45 196.45,-207.48 203,-209 234.96,-216.41 270.72,-221.98 301.65,-225.95"/>
<polygon fill="black" stroke="black" points="301.58,-229.47 311.94,-227.23 302.45,-222.52 301.58,-229.47"/>
<text text-anchor="middle" x="233.5" y="-223.8" font-family="Times-Roman" font-size="14.00">negative</text>
</g>
<!-- Did you eat pizza. -->
<g id="node5" class="node">
<title>Did you eat pizza.</title>
<path fill="#f5f5f5" stroke="black" d="M439,-198C439,-198 322,-198 322,-198 316,-198 310,-192 310,-186 310,-186 310,-174 310,-174 310,-168 316,-162 322,-162 322,-162 439,-162 439,-162 445,-162 451,-168 451,-174 451,-174 451,-186 451,-186 451,-192 445,-198 439,-198"/>
<text text-anchor="middle" x="380.5" y="-176.3" font-family="Times-Roman" font-size="14.00">Did you eat pizza.</text>
</g>
<!-- eat&#45;&gt;Did you eat pizza. -->
<g id="edge4" class="edge">
<title>eat&#45;&gt;Did you eat pizza.</title>
<path fill="none" stroke="black" d="M183.4,-192.34C211.94,-190.54 258.84,-187.59 299.62,-185.03"/>
<polygon fill="black" stroke="black" points="300.08,-188.5 309.84,-184.38 299.64,-181.52 300.08,-188.5"/>
<text text-anchor="middle" x="233.5" y="-193.8" font-family="Times-Roman" font-size="14.00">question</text>
</g>
<!-- I went fishing. -->
<g id="node7" class="node">
<title>I went fishing.</title>
<path fill="#f5f5f5" stroke="black" d="M426.5,-144C426.5,-144 334.5,-144 334.5,-144 328.5,-144 322.5,-138 322.5,-132 322.5,-132 322.5,-120 322.5,-120 322.5,-114 328.5,-108 334.5,-108 334.5,-108 426.5,-108 426.5,-108 432.5,-108 438.5,-114 438.5,-120 438.5,-120 438.5,-132 438.5,-132 438.5,-138 432.5,-144 426.5,-144"/>
<text text-anchor="middle" x="380.5" y="-122.3" font-family="Times-Roman" font-size="14.00">I went fishing.</text>
</g>
<!-- go&#45;&gt;I went fishing. -->
<g id="edge6" class="edge">
<title>go&#45;&gt;I went fishing.</title>
<path fill="none" stroke="black" d="M183.4,-114.54C214.94,-116.39 268.9,-119.54 312.23,-122.07"/>
<polygon fill="black" stroke="black" points="312.25,-125.58 322.44,-122.67 312.66,-118.59 312.25,-125.58"/>
<text text-anchor="middle" x="233.5" y="-122.8" font-family="Times-Roman" font-size="14.00">positive</text>
</g>
<!-- I didn&#39;t go fishing. -->
<g id="node8" class="node">
<title>I didn&#39;t go fishing.</title>
<path fill="#f5f5f5" stroke="black" d="M440,-90C440,-90 321,-90 321,-90 315,-90 309,-84 309,-78 309,-78 309,-66 309,-66 309,-60 315,-54 321,-54 321,-54 440,-54 440,-54 446,-54 452,-60 452,-66 452,-66 452,-78 452,-78 452,-84 446,-90 440,-90"/>
<text text-anchor="middle" x="380.5" y="-68.3" font-family="Times-Roman" font-size="14.00">I didn&#39;t go fishing.</text>
</g>
<!-- go&#45;&gt;I didn&#39;t go fishing. -->
<g id="edge7" class="edge">
<title>go&#45;&gt;I didn&#39;t go fishing.</title>
<path fill="none" stroke="black" d="M183.45,-102.11C189.77,-99.81 196.56,-97.61 203,-96 233.87,-88.3 268.43,-82.91 298.73,-79.22"/>
<polygon fill="black" stroke="black" points="299.3,-82.68 308.83,-78.03 298.49,-75.72 299.3,-82.68"/>
<text text-anchor="middle" x="233.5" y="-99.8" font-family="Times-Roman" font-size="14.00">negative</text>
</g>
<!-- Did you go fishing. -->
<g id="node9" class="node">
<title>Did you go fishing.</title>
<path fill="#f5f5f5" stroke="black" d="M442.5,-36C442.5,-36 318.5,-36 318.5,-36 312.5,-36 306.5,-30 306.5,-24 306.5,-24 306.5,-12 306.5,-12 306.5,-6 312.5,0 318.5,0 318.5,0 442.5,0 442.5,0 448.5,0 454.5,-6 454.5,-12 454.5,-12 454.5,-24 454.5,-24 454.5,-30 448.5,-36 442.5,-36"/>
<text text-anchor="middle" x="380.5" y="-14.3" font-family="Times-Roman" font-size="14.00">Did you go fishing.</text>
</g>
<!-- go&#45;&gt;Did you go fishing. -->
<g id="edge8" class="edge">
<title>go&#45;&gt;Did you go fishing.</title>
<path fill="none" stroke="black" d="M170.94,-94.58C179.26,-84.78 190.59,-73.28 203,-66 231.29,-49.39 265.5,-38.37 296.23,-31.13"/>
<polygon fill="black" stroke="black" points="297.09,-34.52 306.08,-28.91 295.55,-27.7 297.09,-34.52"/>
<text text-anchor="middle" x="233.5" y="-69.8" font-family="Times-Roman" font-size="14.00">question</text>
</g>
<!-- regular\nverb -->
<g id="node10" class="node">
<title>regular\nverb</title>
<path fill="#f5f5f5" stroke="black" d="M58.5,-482C58.5,-482 16.5,-482 16.5,-482 10.5,-482 4.5,-476 4.5,-470 4.5,-470 4.5,-456 4.5,-456 4.5,-450 10.5,-444 16.5,-444 16.5,-444 58.5,-444 58.5,-444 64.5,-444 70.5,-450 70.5,-456 70.5,-456 70.5,-470 70.5,-470 70.5,-476 64.5,-482 58.5,-482"/>
<text text-anchor="middle" x="37.5" y="-466.8" font-family="Times-Roman" font-size="14.00">regular</text>
<text text-anchor="middle" x="37.5" y="-451.8" font-family="Times-Roman" font-size="14.00">verb</text>
</g>
<!-- watch -->
<g id="node11" class="node">
<title>watch</title>
<path fill="#f5f5f5" stroke="black" d="M173,-535C173,-535 139,-535 139,-535 133,-535 127,-529 127,-523 127,-523 127,-511 127,-511 127,-505 133,-499 139,-499 139,-499 173,-499 173,-499 179,-499 185,-505 185,-511 185,-511 185,-523 185,-523 185,-529 179,-535 173,-535"/>
<text text-anchor="middle" x="156" y="-513.3" font-family="Times-Roman" font-size="14.00">watch</text>
</g>
<!-- regular\nverb&#45;&gt;watch -->
<g id="edge9" class="edge">
<title>regular\nverb&#45;&gt;watch</title>
<path fill="none" stroke="black" d="M70.64,-477.9C85.26,-484.67 102.63,-492.73 117.81,-499.76"/>
<polygon fill="black" stroke="black" points="116.38,-502.96 126.93,-503.99 119.32,-496.61 116.38,-502.96"/>
<text text-anchor="middle" x="101" y="-497.8" font-family="Times-Roman" font-size="14.00">as</text>
</g>
<!-- play -->
<g id="node15" class="node">
<title>play</title>
<path fill="#f5f5f5" stroke="black" d="M171,-454C171,-454 141,-454 141,-454 135,-454 129,-448 129,-442 129,-442 129,-430 129,-430 129,-424 135,-418 141,-418 141,-418 171,-418 171,-418 177,-418 183,-424 183,-430 183,-430 183,-442 183,-442 183,-448 177,-454 171,-454"/>
<text text-anchor="middle" x="156" y="-432.3" font-family="Times-Roman" font-size="14.00">play</text>
</g>
<!-- regular\nverb&#45;&gt;play -->
<g id="edge13" class="edge">
<title>regular\nverb&#45;&gt;play</title>
<path fill="none" stroke="black" d="M70.72,-454.47C78.03,-452.6 85.77,-450.69 93,-449 101.3,-447.06 110.26,-445.11 118.71,-443.32"/>
<polygon fill="black" stroke="black" points="119.62,-446.71 128.7,-441.24 118.19,-439.86 119.62,-446.71"/>
<text text-anchor="middle" x="101" y="-452.8" font-family="Times-Roman" font-size="14.00">as</text>
</g>
<!-- I watched TV. -->
<g id="node12" class="node">
<title>I watched TV.</title>
<path fill="#f5f5f5" stroke="black" d="M423,-630C423,-630 338,-630 338,-630 332,-630 326,-624 326,-618 326,-618 326,-606 326,-606 326,-600 332,-594 338,-594 338,-594 423,-594 423,-594 429,-594 435,-600 435,-606 435,-606 435,-618 435,-618 435,-624 429,-630 423,-630"/>
<text text-anchor="middle" x="380.5" y="-608.3" font-family="Times-Roman" font-size="14.00">I watched TV.</text>
</g>
<!-- watch&#45;&gt;I watched TV. -->
<g id="edge10" class="edge">
<title>watch&#45;&gt;I watched TV.</title>
<path fill="none" stroke="black" d="M171.43,-535.45C179.74,-544.93 190.91,-555.94 203,-563 237.49,-583.14 280.63,-595.31 315.62,-602.49"/>
<polygon fill="black" stroke="black" points="315.24,-605.98 325.73,-604.47 316.59,-599.11 315.24,-605.98"/>
<text text-anchor="middle" x="233.5" y="-591.8" font-family="Times-Roman" font-size="14.00">positive</text>
</g>
<!-- I didn&#39;t watch TV. -->
<g id="node13" class="node">
<title>I didn&#39;t watch TV.</title>
<path fill="#f5f5f5" stroke="black" d="M436.5,-576C436.5,-576 324.5,-576 324.5,-576 318.5,-576 312.5,-570 312.5,-564 312.5,-564 312.5,-552 312.5,-552 312.5,-546 318.5,-540 324.5,-540 324.5,-540 436.5,-540 436.5,-540 442.5,-540 448.5,-546 448.5,-552 448.5,-552 448.5,-564 448.5,-564 448.5,-570 442.5,-576 436.5,-576"/>
<text text-anchor="middle" x="380.5" y="-554.3" font-family="Times-Roman" font-size="14.00">I didn&#39;t watch TV.</text>
</g>
<!-- watch&#45;&gt;I didn&#39;t watch TV. -->
<g id="edge11" class="edge">
<title>watch&#45;&gt;I didn&#39;t watch TV.</title>
<path fill="none" stroke="black" d="M185.45,-527.86C191.2,-529.78 197.25,-531.61 203,-533 235.02,-540.76 270.94,-546.39 301.97,-550.32"/>
<polygon fill="black" stroke="black" points="301.94,-553.84 312.29,-551.59 302.79,-546.89 301.94,-553.84"/>
<text text-anchor="middle" x="233.5" y="-547.8" font-family="Times-Roman" font-size="14.00">negative</text>
</g>
<!-- Did you watch TV. -->
<g id="node14" class="node">
<title>Did you watch TV.</title>
<path fill="#f5f5f5" stroke="black" d="M438.5,-522C438.5,-522 322.5,-522 322.5,-522 316.5,-522 310.5,-516 310.5,-510 310.5,-510 310.5,-498 310.5,-498 310.5,-492 316.5,-486 322.5,-486 322.5,-486 438.5,-486 438.5,-486 444.5,-486 450.5,-492 450.5,-498 450.5,-498 450.5,-510 450.5,-510 450.5,-516 444.5,-522 438.5,-522"/>
<text text-anchor="middle" x="380.5" y="-500.3" font-family="Times-Roman" font-size="14.00">Did you watch TV.</text>
</g>
<!-- watch&#45;&gt;Did you watch TV. -->
<g id="edge12" class="edge">
<title>watch&#45;&gt;Did you watch TV.</title>
<path fill="none" stroke="black" d="M185.18,-515.35C213.96,-513.67 259.98,-510.98 300.01,-508.64"/>
<polygon fill="black" stroke="black" points="300.27,-512.14 310.05,-508.06 299.86,-505.15 300.27,-512.14"/>
<text text-anchor="middle" x="233.5" y="-517.8" font-family="Times-Roman" font-size="14.00">question</text>
</g>
<!-- I played videogames. -->
<g id="node16" class="node">
<title>I played videogames.</title>
<path fill="#f5f5f5" stroke="black" d="M451,-468C451,-468 310,-468 310,-468 304,-468 298,-462 298,-456 298,-456 298,-444 298,-444 298,-438 304,-432 310,-432 310,-432 451,-432 451,-432 457,-432 463,-438 463,-444 463,-444 463,-456 463,-456 463,-462 457,-468 451,-468"/>
<text text-anchor="middle" x="380.5" y="-446.3" font-family="Times-Roman" font-size="14.00">I played videogames.</text>
</g>
<!-- play&#45;&gt;I played videogames. -->
<g id="edge14" class="edge">
<title>play&#45;&gt;I played videogames.</title>
<path fill="none" stroke="black" d="M183.4,-437.66C209.18,-439.28 249.94,-441.85 287.63,-444.22"/>
<polygon fill="black" stroke="black" points="287.45,-447.71 297.65,-444.85 287.89,-440.73 287.45,-447.71"/>
<text text-anchor="middle" x="233.5" y="-445.8" font-family="Times-Roman" font-size="14.00">positive</text>
</g>
<!-- I didn&#39;t play videogames. -->
<g id="node17" class="node">
<title>I didn&#39;t play videogames.</title>
<path fill="#f5f5f5" stroke="black" d="M464.5,-414C464.5,-414 296.5,-414 296.5,-414 290.5,-414 284.5,-408 284.5,-402 284.5,-402 284.5,-390 284.5,-390 284.5,-384 290.5,-378 296.5,-378 296.5,-378 464.5,-378 464.5,-378 470.5,-378 476.5,-384 476.5,-390 476.5,-390 476.5,-402 476.5,-402 476.5,-408 470.5,-414 464.5,-414"/>
<text text-anchor="middle" x="380.5" y="-392.3" font-family="Times-Roman" font-size="14.00">I didn&#39;t play videogames.</text>
</g>
<!-- play&#45;&gt;I didn&#39;t play videogames. -->
<g id="edge15" class="edge">
<title>play&#45;&gt;I didn&#39;t play videogames.</title>
<path fill="none" stroke="black" d="M183,-425.94C189.46,-423.73 196.42,-421.57 203,-420 225.76,-414.55 250.49,-410.23 274.04,-406.84"/>
<polygon fill="black" stroke="black" points="274.63,-410.29 284.05,-405.44 273.66,-403.36 274.63,-410.29"/>
<text text-anchor="middle" x="233.5" y="-423.8" font-family="Times-Roman" font-size="14.00">negative</text>
</g>
<!-- Did you play videogames. -->
<g id="node18" class="node">
<title>Did you play videogames.</title>
<path fill="#f5f5f5" stroke="black" d="M467,-360C467,-360 294,-360 294,-360 288,-360 282,-354 282,-348 282,-348 282,-336 282,-336 282,-330 288,-324 294,-324 294,-324 467,-324 467,-324 473,-324 479,-330 479,-336 479,-336 479,-348 479,-348 479,-354 473,-360 467,-360"/>
<text text-anchor="middle" x="380.5" y="-338.3" font-family="Times-Roman" font-size="14.00">Did you play videogames.</text>
</g>
<!-- play&#45;&gt;Did you play videogames. -->
<g id="edge16" class="edge">
<title>play&#45;&gt;Did you play videogames.</title>
<path fill="none" stroke="black" d="M170.93,-417.56C179.24,-407.75 190.57,-396.25 203,-389 224.06,-376.71 248.4,-367.56 272.14,-360.78"/>
<polygon fill="black" stroke="black" points="273.19,-364.12 281.91,-358.11 271.34,-357.37 273.19,-364.12"/>
<text text-anchor="middle" x="233.5" y="-392.8" font-family="Times-Roman" font-size="14.00">question</text>
</g>
</g>
</svg>
